<svg width="24" height="24" viewBox="0 0 24 24" fill="none" xmlns="http://www.w3.org/2000/svg">
<path fill-rule="evenodd" clip-rule="evenodd" d="M1.25 2C1.25 1.80109 1.32902 1.61032 1.46967 1.46967C1.61032 1.32902 1.80109 1.25 2 1.25H22C22.1989 1.25 22.3897 1.32902 22.5303 1.46967C22.671 1.61032 22.75 1.80109 22.75 2C22.75 2.19891 22.671 2.38968 22.5303 2.53033C22.3897 2.67098 22.1989 2.75 22 2.75H20.75V12.426C20.75 13.613 20.751 14.439 20.415 15.179C20.078 15.919 19.457 16.463 18.563 17.244L18.445 17.347L16.407 19.129C15.497 19.924 14.762 20.567 14.111 21.005C13.433 21.461 12.77 21.75 12 21.75C11.23 21.75 10.567 21.461 9.889 21.005C9.238 20.567 8.502 19.924 7.593 19.129L5.555 17.347L5.437 17.244C4.543 16.463 3.921 15.92 3.585 15.179C3.249 14.438 3.249 13.613 3.25 12.426V2.75H2C1.80109 2.75 1.61032 2.67098 1.46967 2.53033C1.32902 2.38968 1.25 2.19891 1.25 2ZM4.75 2.75V12.27C4.75 13.677 4.766 14.15 4.951 14.559C5.136 14.967 5.483 15.291 6.543 16.218L8.543 17.966C9.499 18.802 10.163 19.382 10.727 19.76C11.272 20.127 11.642 20.25 12 20.25C12.358 20.25 12.728 20.128 13.274 19.76C13.837 19.382 14.501 18.802 15.457 17.966L17.457 16.218C18.517 15.291 18.864 14.968 19.049 14.559C19.234 14.151 19.25 13.677 19.25 12.27V2.75H4.75ZM7.75 8C7.75 7.80109 7.82902 7.61032 7.96967 7.46967C8.11032 7.32902 8.30109 7.25 8.5 7.25H15.5C15.6989 7.25 15.8897 7.32902 16.0303 7.46967C16.171 7.61032 16.25 7.80109 16.25 8C16.25 8.19891 16.171 8.38968 16.0303 8.53033C15.8897 8.67098 15.6989 8.75 15.5 8.75H8.5C8.30109 8.75 8.11032 8.67098 7.96967 8.53033C7.82902 8.38968 7.75 8.19891 7.75 8ZM7.75 13C7.75 12.8011 7.82902 12.6103 7.96967 12.4697C8.11032 12.329 8.30109 12.25 8.5 12.25H15.5C15.6989 12.25 15.8897 12.329 16.0303 12.4697C16.171 12.6103 16.25 12.8011 16.25 13C16.25 13.1989 16.171 13.3897 16.0303 13.5303C15.8897 13.671 15.6989 13.75 15.5 13.75H8.5C8.30109 13.75 8.11032 13.671 7.96967 13.5303C7.82902 13.3897 7.75 13.1989 7.75 13Z" fill="#4162FF"/>
</svg>
