<svg width="25" height="24" viewBox="0 0 25 24" fill="none" xmlns="http://www.w3.org/2000/svg">
<path d="M16 11C16 9.067 14.433 7.5 12.5 7.5C10.567 7.5 9 9.067 9 11C9 12.933 10.567 14.5 12.5 14.5C14.433 14.5 16 12.933 16 11Z" stroke="#003153" stroke-width="1.5" stroke-linecap="round" stroke-linejoin="round"/>
<path d="M15.9825 11.3499C16.3045 11.4475 16.646 11.5 16.9998 11.5C18.9328 11.5 20.4998 9.933 20.4998 8C20.4998 6.067 18.9328 4.5 16.9998 4.5C15.1849 4.5 13.6926 5.8814 13.5171 7.65013" stroke="#003153" stroke-width="1.5" stroke-linecap="round" stroke-linejoin="round"/>
<path d="M11.4827 7.65013C11.3072 5.8814 9.81492 4.5 8 4.5C6.067 4.5 4.5 6.067 4.5 8C4.5 9.933 6.067 11.5 8 11.5C8.35381 11.5 8.69535 11.4475 9.01727 11.3499" stroke="#003153" stroke-width="1.5" stroke-linecap="round" stroke-linejoin="round"/>
<path d="M22.5 16.5C22.5 13.7386 20.0376 11.5 17 11.5" stroke="#003153" stroke-width="1.5" stroke-linecap="round" stroke-linejoin="round"/>
<path d="M18 19.5C18 16.7386 15.5376 14.5 12.5 14.5C9.46243 14.5 7 16.7386 7 19.5" stroke="#003153" stroke-width="1.5" stroke-linecap="round" stroke-linejoin="round"/>
<path d="M8 11.5C4.96243 11.5 2.5 13.7386 2.5 16.5" stroke="#003153" stroke-width="1.5" stroke-linecap="round" stroke-linejoin="round"/>
</svg>
