<svg width="24" height="24" viewBox="0 0 24 24" fill="none" xmlns="http://www.w3.org/2000/svg">
<path d="M17.6571 5.304C14.5331 2.231 9.46814 2.231 6.34414 5.304C5.60242 6.02864 5.01305 6.89423 4.61066 7.84991C4.20826 8.80559 4.00098 9.83207 4.00098 10.869C4.00098 11.9059 4.20826 12.9324 4.61066 13.8881C5.01305 14.8438 5.60242 15.7094 6.34414 16.434L12.0001 21.999L17.6571 16.434C18.3989 15.7094 18.9882 14.8438 19.3906 13.8881C19.793 12.9324 20.0003 11.9059 20.0003 10.869C20.0003 9.83207 19.793 8.80559 19.3906 7.84991C18.9882 6.89423 18.3989 6.02864 17.6571 5.304ZM12.0001 13.499C11.3321 13.499 10.7051 13.239 10.2321 12.767C9.76389 12.2978 9.50092 11.6619 9.50092 10.999C9.50092 10.3361 9.76389 9.70025 10.2321 9.231C10.7041 8.759 11.3321 8.499 12.0001 8.499C12.6681 8.499 13.2961 8.759 13.7681 9.231C14.2364 9.70025 14.4994 10.3361 14.4994 10.999C14.4994 11.6619 14.2364 12.2978 13.7681 12.767C13.2961 13.239 12.6681 13.499 12.0001 13.499Z" fill="white"/>
</svg>
