<svg width="32" height="32" viewBox="0 0 32 32" fill="none" xmlns="http://www.w3.org/2000/svg">
<path d="M22.6673 24.0001C21.1873 24.0001 20.0007 25.1867 20.0007 26.6667C20.0007 27.374 20.2816 28.0523 20.7817 28.5524C21.2818 29.0525 21.9601 29.3334 22.6673 29.3334C23.3746 29.3334 24.0528 29.0525 24.5529 28.5524C25.053 28.0523 25.334 27.374 25.334 26.6667C25.334 25.9595 25.053 25.2812 24.5529 24.7811C24.0528 24.281 23.3746 24.0001 22.6673 24.0001ZM1.33398 2.66675V5.33341H4.00065L8.80065 15.4534L6.98732 18.7201C6.78732 19.0934 6.66732 19.5334 6.66732 20.0001C6.66732 20.7073 6.94827 21.3856 7.44837 21.8857C7.94846 22.3858 8.62674 22.6667 9.33398 22.6667H25.334V20.0001H9.89398C9.80558 20.0001 9.72079 19.965 9.65828 19.9024C9.59577 19.8399 9.56065 19.7552 9.56065 19.6667C9.56065 19.6001 9.57398 19.5467 9.60065 19.5067L10.8007 17.3334H20.734C21.734 17.3334 22.614 16.7734 23.0673 15.9601L27.8406 7.33341C27.934 7.12008 28.0006 6.89341 28.0006 6.66675C28.0006 6.31313 27.8602 5.97399 27.6101 5.72394C27.3601 5.47389 27.0209 5.33341 26.6673 5.33341H6.94732L5.69398 2.66675M9.33398 24.0001C7.85398 24.0001 6.66732 25.1867 6.66732 26.6667C6.66732 27.374 6.94827 28.0523 7.44837 28.5524C7.94846 29.0525 8.62674 29.3334 9.33398 29.3334C10.0412 29.3334 10.7195 29.0525 11.2196 28.5524C11.7197 28.0523 12.0007 27.374 12.0007 26.6667C12.0007 25.9595 11.7197 25.2812 11.2196 24.7811C10.7195 24.281 10.0412 24.0001 9.33398 24.0001Z" fill="#0E1F80"/>
</svg>
