<svg width="32" height="32" viewBox="0 0 32 32" fill="none" xmlns="http://www.w3.org/2000/svg">
<path d="M7.95364 4.1814C7.04911 4.42365 6.22431 4.89979 5.56217 5.56193C4.90003 6.22407 4.42389 7.04887 4.18164 7.9534M24.047 4.1814C24.9515 4.42365 25.7763 4.89979 26.4384 5.56193C27.1006 6.22407 27.5767 7.04887 27.819 7.9534" stroke="#1B40FF" stroke-width="2.66667" stroke-linecap="round"/>
<path fill-rule="evenodd" clip-rule="evenodd" d="M16.0007 26.6666C18.8296 26.6666 21.5427 25.5428 23.5431 23.5424C25.5435 21.542 26.6673 18.8289 26.6673 15.9999C26.6673 13.1709 25.5435 10.4578 23.5431 8.45745C21.5427 6.45706 18.8296 5.33325 16.0007 5.33325C13.1717 5.33325 10.4586 6.45706 8.45818 8.45745C6.45779 10.4578 5.33398 13.1709 5.33398 15.9999C5.33398 18.8289 6.45779 21.542 8.45818 23.5424C10.4586 25.5428 13.1717 26.6666 16.0007 26.6666ZM17.334 10.6666C17.334 10.313 17.1935 9.97382 16.9435 9.72378C16.6934 9.47373 16.3543 9.33325 16.0007 9.33325C15.647 9.33325 15.3079 9.47373 15.0578 9.72378C14.8078 9.97382 14.6673 10.313 14.6673 10.6666V15.6666C14.6673 16.5866 15.414 17.3333 16.334 17.3333H20.0007C20.3543 17.3333 20.6934 17.1928 20.9435 16.9427C21.1935 16.6927 21.334 16.3535 21.334 15.9999C21.334 15.6463 21.1935 15.3072 20.9435 15.0571C20.6934 14.8071 20.3543 14.6666 20.0007 14.6666H17.334V10.6666Z" fill="#1B40FF"/>
</svg>
