<svg width="40" height="32" viewBox="0 0 40 32" fill="none" xmlns="http://www.w3.org/2000/svg">
<g clip-path="url(#clip0_2044_29276)">
<path d="M30.5014 12.0001H21.0014V15.5001C21.0014 17.9814 18.9827 20.0001 16.5014 20.0001C14.0202 20.0001 12.0014 17.9814 12.0014 15.5001V7.90011L7.94518 10.3376C6.73892 11.0564 6.00143 12.3626 6.00143 13.7626V16.7189L1.00143 19.6064C0.0451755 20.1564 -0.286074 21.3814 0.270175 22.3376L5.27018 31.0001C5.82018 31.9564 7.04518 32.2814 8.00143 31.7314L14.4639 28.0001H23.0014C25.2077 28.0001 27.0014 26.2064 27.0014 24.0001H28.0014C29.1077 24.0001 30.0014 23.1064 30.0014 22.0001V18.0001H30.5014C31.3327 18.0001 32.0014 17.3314 32.0014 16.5001V13.5001C32.0014 12.6689 31.3327 12.0001 30.5014 12.0001ZM39.7327 9.66261L34.7327 1.00011C34.1827 0.0438628 32.9577 -0.281137 32.0014 0.268863L25.5389 4.00011H19.1514C18.4014 4.00011 17.6702 4.21261 17.0327 4.60636L14.9389 5.91261C14.3514 6.27511 14.0014 6.91886 14.0014 7.60636V15.5001C14.0014 16.8814 15.1202 18.0001 16.5014 18.0001C17.8827 18.0001 19.0014 16.8814 19.0014 15.5001V10.0001H30.5014C32.4327 10.0001 34.0014 11.5689 34.0014 13.5001V15.2814L39.0014 12.3939C39.9577 11.8376 40.2827 10.6189 39.7327 9.66261Z" fill="#1B40FF"/>
</g>
<defs>
<clipPath id="clip0_2044_29276">
<rect width="40" height="32" fill="white"/>
</clipPath>
</defs>
</svg>
