<svg width="32" height="32" viewBox="0 0 32 32" fill="none" xmlns="http://www.w3.org/2000/svg">
<path d="M12.1761 31.0001C12.0086 31.0002 11.843 30.9637 11.6911 30.893C11.5392 30.8223 11.4046 30.7193 11.2968 30.591C11.189 30.4628 11.1106 30.3125 11.067 30.1507C11.0235 29.9889 11.016 29.8195 11.0449 29.6545V29.6476L12.8018 20.0001H5.99989C5.81109 20.0001 5.62616 19.9466 5.46647 19.8459C5.30679 19.7451 5.17888 19.6013 5.09755 19.4309C5.01622 19.2605 4.98478 19.0706 5.00687 18.8831C5.02896 18.6956 5.10369 18.5182 5.22239 18.3713L18.9205 1.43759C19.0764 1.23967 19.2929 1.09826 19.5368 1.03499C19.7807 0.971725 20.0386 0.990079 20.271 1.08725C20.5035 1.18442 20.6978 1.35506 20.8241 1.57306C20.9504 1.79107 21.0018 2.04446 20.9705 2.29446C20.9705 2.31321 20.9655 2.33134 20.9624 2.35009L19.1993 12.0001H25.9999C26.1887 12.0001 26.3736 12.0536 26.5333 12.1543C26.693 12.255 26.8209 12.3989 26.9022 12.5693C26.9836 12.7397 27.015 12.9296 26.9929 13.1171C26.9708 13.3046 26.8961 13.482 26.7774 13.6288L13.0774 30.5626C12.9697 30.6986 12.8328 30.8086 12.6768 30.8843C12.5207 30.9601 12.3496 30.9996 12.1761 31.0001Z" fill="#0E1F80"/>
</svg>
