<svg width="49" height="48" viewBox="0 0 49 48" fill="none" xmlns="http://www.w3.org/2000/svg">
<path d="M18.5962 46.5001C18.3449 46.5004 18.0966 46.4455 17.8687 46.3395C17.6409 46.2335 17.439 46.0789 17.2772 45.8865C17.1155 45.6941 16.9979 45.4687 16.9326 45.226C16.8673 44.9833 16.856 44.7292 16.8994 44.4817V44.4714L19.5347 30.0001H9.33187C9.04867 30.0001 8.77127 29.9199 8.53174 29.7688C8.29222 29.6177 8.10036 29.4019 7.97836 29.1463C7.85636 28.8908 7.8092 28.6059 7.84234 28.3246C7.87548 28.0434 7.98756 27.7772 8.16562 27.557L28.7128 2.15638C28.9467 1.8595 29.2714 1.64739 29.6372 1.55249C30.003 1.45759 30.3899 1.48512 30.7386 1.63087C31.0873 1.77663 31.3787 2.03258 31.5681 2.3596C31.7576 2.68661 31.8348 3.06668 31.7878 3.4417C31.7878 3.46982 31.7803 3.49701 31.7756 3.52513L29.1309 18.0001H39.3319C39.6151 18.0002 39.8925 18.0804 40.132 18.2315C40.3715 18.3826 40.5634 18.5984 40.6854 18.8539C40.8074 19.1095 40.8545 19.3944 40.8214 19.6757C40.7883 19.9569 40.6762 20.223 40.4981 20.4433L19.9481 45.8439C19.7867 46.0479 19.5812 46.2129 19.3472 46.3265C19.1131 46.4401 18.8564 46.4995 18.5962 46.5001Z" fill="#CA9254"/>
</svg>
