<svg width="49" height="48" viewBox="0 0 49 48" fill="none" xmlns="http://www.w3.org/2000/svg">
<path d="M8.66602 26H20.666C21.766 26 22.666 25.1 22.666 24V8C22.666 6.9 21.766 6 20.666 6H8.66602C7.56602 6 6.66602 6.9 6.66602 8V24C6.66602 25.1 7.56602 26 8.66602 26ZM8.66602 42H20.666C21.766 42 22.666 41.1 22.666 40V32C22.666 30.9 21.766 30 20.666 30H8.66602C7.56602 30 6.66602 30.9 6.66602 32V40C6.66602 41.1 7.56602 42 8.66602 42ZM28.666 42H40.666C41.766 42 42.666 41.1 42.666 40V24C42.666 22.9 41.766 22 40.666 22H28.666C27.566 22 26.666 22.9 26.666 24V40C26.666 41.1 27.566 42 28.666 42ZM26.666 8V16C26.666 17.1 27.566 18 28.666 18H40.666C41.766 18 42.666 17.1 42.666 16V8C42.666 6.9 41.766 6 40.666 6H28.666C27.566 6 26.666 6.9 26.666 8Z" fill="#CA9254"/>
</svg>
