<svg width="61" height="48" viewBox="0 0 61 48" fill="none" xmlns="http://www.w3.org/2000/svg">
<g clip-path="url(#clip0_305_539)">
<path d="M46.4182 18.0002H32.1682V23.2502C32.1682 26.972 29.14 30.0002 25.4182 30.0002C21.6963 30.0002 18.6682 26.972 18.6682 23.2502V11.8502L12.5838 15.5064C10.7744 16.5845 9.66815 18.5439 9.66815 20.6439V25.0783L2.16815 29.4095C0.733779 30.2345 0.236904 32.072 1.07128 33.5064L8.57128 46.5002C9.39628 47.9345 11.2338 48.422 12.6682 47.597L22.3619 42.0002H35.1682C38.4775 42.0002 41.1682 39.3095 41.1682 36.0002H42.6682C44.3275 36.0002 45.6682 34.6595 45.6682 33.0002V27.0002H46.4182C47.665 27.0002 48.6682 25.997 48.6682 24.7502V20.2502C48.6682 19.0033 47.665 18.0002 46.4182 18.0002ZM60.265 14.4939L52.765 1.50017C51.94 0.0657942 50.1025 -0.421706 48.6682 0.403294L38.9744 6.00017H29.3932C28.2682 6.00017 27.1713 6.31892 26.215 6.90954L23.0744 8.86892C22.1932 9.41267 21.6682 10.3783 21.6682 11.4095V23.2502C21.6682 25.322 23.3463 27.0002 25.4182 27.0002C27.49 27.0002 29.1682 25.322 29.1682 23.2502V15.0002H46.4182C49.315 15.0002 51.6682 17.3533 51.6682 20.2502V22.922L59.1682 18.5908C60.6025 17.7564 61.09 15.9283 60.265 14.4939Z" fill="#CA9254"/>
</g>
<defs>
<clipPath id="clip0_305_539">
<rect width="60" height="48" fill="white" transform="translate(0.666016)"/>
</clipPath>
</defs>
</svg>
