<svg width="24" height="24" viewBox="0 0 24 24" fill="none" xmlns="http://www.w3.org/2000/svg">
<path fill-rule="evenodd" clip-rule="evenodd" d="M0 2C0 0.895431 0.89543 0 2 0H22C23.1046 0 24 0.89543 24 2V22C24 23.1046 23.1046 24 22 24H2C0.895431 24 0 23.1046 0 22V2ZM8.8125 4H15.1875C18.1211 4 20.5 6.239 20.5 9V15C20.5 17.761 18.1211 20 15.1875 20H8.8125C5.87894 20 3.5 17.761 3.5 15V9C3.5 6.239 5.87894 4 8.8125 4ZM15.1875 18.5C17.2381 18.5 18.9062 16.93 18.9062 15V9C18.9062 7.07 17.2381 5.5 15.1875 5.5H8.8125C6.76188 5.5 5.09375 7.07 5.09375 9V15C5.09375 16.93 6.76188 18.5 8.8125 18.5H15.1875ZM11.9998 7.99981C9.65273 7.99981 7.7498 9.79081 7.7498 11.9998C7.7498 14.2088 9.65273 15.9998 11.9998 15.9998C14.3469 15.9998 16.2498 14.2088 16.2498 11.9998C16.2498 9.79081 14.3469 7.99981 11.9998 7.99981ZM11.9998 14.4998C10.5357 14.4998 9.34354 13.3778 9.34354 11.9998C9.34354 10.6208 10.5357 9.49981 11.9998 9.49981C13.4639 9.49981 14.656 10.6208 14.656 11.9998C14.656 13.3778 13.4639 14.4998 11.9998 14.4998ZM17.1346 7.69901C17.1346 7.99338 16.881 8.23201 16.5683 8.23201C16.2555 8.23201 16.002 7.99338 16.002 7.69901C16.002 7.40465 16.2555 7.16602 16.5683 7.16602C16.881 7.16602 17.1346 7.40465 17.1346 7.69901Z" fill="#7EEBC7"/>
</svg>
