<svg width="24" height="24" viewBox="0 0 24 24" fill="none" xmlns="http://www.w3.org/2000/svg">
<path fill-rule="evenodd" clip-rule="evenodd" d="M0 2C0 0.895431 0.89543 0 2 0H22C23.1046 0 24 0.89543 24 2V22C24 23.1046 23.1046 24 22 24H2C0.895431 24 0 23.1046 0 22V2ZM5 19H8V8H5V19ZM6.5 6.73161C5.534 6.73161 4.75 5.94161 4.75 4.96761C4.75 3.99361 5.534 3.20361 6.5 3.20361C7.466 3.20361 8.25 3.99361 8.25 4.96761C8.25 5.94161 7.467 6.73161 6.5 6.73161ZM17 18.9998H20V12.2408C20 6.98781 14.397 7.17881 13 9.76481V7.99981H10V18.9998H13V13.3958C13 10.2828 17 10.0278 17 13.3958V18.9998Z" fill="#7EEBC7"/>
</svg>
