<svg width="1304" height="1272" viewBox="0 0 1304 1272" fill="none" xmlns="http://www.w3.org/2000/svg">
<g opacity="0.05">
<path d="M735.778 748.99L464.428 453.85L737.178 750.77C736.728 750.17 736.308 749.57 735.778 749V748.99Z" fill="#1B40FF"/>
<path d="M966.947 0.0199585H219.597C170.407 0.0199585 124.667 15.73 87.6367 43.68L268.817 240.91H966.947C1091.55 240.91 1062.93 341.92 1062.93 466.52V804.68C1062.93 929.28 961.917 1030.29 837.317 1030.29H365.517C351.987 1030.29 344.917 1046.37 354.057 1056.34L506.667 1222.81C534.927 1253.63 574.817 1271.18 616.627 1271.18H837.317C1094.97 1271.18 1303.83 1062.32 1303.83 804.67V466.51C1303.83 208.78 1224.58 0 966.957 0L966.947 0.0199585Z" fill="#1B40FF"/>
<path d="M19.7477 129.09C-16.1023 208.7 -2.49223 298.8 55.2978 364.27L393.768 737.14C421.518 767.69 460.898 785.15 502.158 785.15H719.978C737.908 785.15 747.568 764.64 737.168 750.76L464.418 453.84L268.648 240.91H268.808L87.6277 43.6799C58.9377 65.3399 35.4877 94.3399 19.7477 129.09Z" fill="#51EEC3"/>
</g>
</svg>
