<svg width="357" height="192" viewBox="0 0 357 192" fill="none" xmlns="http://www.w3.org/2000/svg">
<g opacity="0.08">
<mask id="mask0_2156_29077" style="mask-type:luminance" maskUnits="userSpaceOnUse" x="0" y="-232" width="358" height="464">
<path d="M357.18 -232H0V231.38H357.18V-232Z" fill="white"/>
</mask>
<g mask="url(#mask0_2156_29077)">
<path d="M481.12 -979.95H-98.3196C-144.46 -979.95 -187.37 -965.21 -222.1 -938.99L-52.1496 -753.98H481.12C598 -753.98 692.75 -659.23 692.75 -542.34V-225.13C692.75 -108.25 598 -13.49 481.12 -13.49H38.5604C25.8704 -13.49 19.2304 1.6001 27.8104 10.9501L170.96 167.11C197.46 196.02 234.88 212.48 274.1 212.48H481.11C722.79 212.48 918.71 16.5601 918.71 -225.12V-542.35C918.71 -784.11 722.771 -979.95 481.11 -979.95H481.12Z" fill="#122B93"/>
</g>
</g>
</svg>
