<svg width="239" height="88" viewBox="0 0 239 88" fill="none" xmlns="http://www.w3.org/2000/svg">
<path d="M39.021 34.5V31.4376H41.793V34.5H39.021ZM15.8682 41.0472C14.337 41.0472 12.9642 40.7656 11.7498 40.2024C10.553 39.6568 9.61144 38.8912 8.92504 37.9056C8.23864 36.92 7.89544 35.8024 7.89544 34.5528C7.89544 34.2008 7.92184 33.7344 7.97464 33.1536C8.02744 32.5728 8.09784 31.9216 8.18584 31.2C8.29144 30.4784 8.39704 29.748 8.50264 29.0088C8.62584 28.252 8.74024 27.5216 8.84584 26.8176L12.3306 27.2928C12.137 28.472 11.9698 29.5544 11.829 30.54C11.7058 31.508 11.609 32.3352 11.5386 33.0216C11.4682 33.708 11.433 34.2096 11.433 34.5264C11.433 35.2304 11.609 35.8376 11.961 36.348C12.313 36.8584 12.8146 37.2544 13.4658 37.536C14.1346 37.8352 14.9354 37.9848 15.8682 37.9848C16.8362 37.9848 17.6194 37.844 18.2178 37.5624C18.8162 37.2808 19.2474 36.8936 19.5114 36.4008C19.793 35.908 19.9338 35.3536 19.9338 34.7376V23.94H23.4714V34.7376C23.4714 36.0048 23.137 37.1136 22.4682 38.064C21.817 39.0144 20.9194 39.7448 19.7754 40.2552C18.6314 40.7832 17.329 41.0472 15.8682 41.0472ZM23.4186 34.5L23.4714 31.4376H25.6098C26.173 31.4376 26.6042 31.3584 26.9034 31.2C27.2026 31.024 27.4138 30.6808 27.537 30.1704C27.6602 29.6424 27.7218 28.8592 27.7218 27.8208V22.62H31.2594V27.8208C31.2594 29.3872 31.057 30.6632 30.6522 31.6488C30.2474 32.6344 29.6314 33.356 28.8042 33.8136C27.977 34.2712 26.9122 34.5 25.6098 34.5H23.4186ZM32.3946 34.5C31.673 34.5 30.9602 34.368 30.2562 34.104C29.5522 33.8224 28.8922 33.4088 28.2762 32.8632L30.441 30.6192C30.7754 30.9008 31.101 31.112 31.4178 31.2528C31.7522 31.376 32.0778 31.4376 32.3946 31.4376H37.3578L35.5098 33.1008V27.24C35.5098 26.9584 35.4746 26.536 35.4042 25.9728C35.3338 25.392 35.2458 24.7408 35.1402 24.0192C35.0346 23.28 34.9114 22.532 34.7706 21.7752L38.229 21.2472C38.3522 21.8808 38.4754 22.5936 38.5986 23.3856C38.7218 24.16 38.8186 24.8992 38.889 25.6032C38.977 26.2896 39.021 26.8352 39.021 27.24V34.5H32.3946ZM41.793 34.5V31.4376C41.8986 31.4376 41.9866 31.4728 42.057 31.5432C42.1274 31.6136 42.1802 31.7192 42.2154 31.86C42.2506 32.0008 42.277 32.168 42.2946 32.3616C42.3122 32.5376 42.321 32.74 42.321 32.9688C42.321 33.1976 42.3122 33.4088 42.2946 33.6024C42.277 33.796 42.2506 33.9632 42.2154 34.104C42.1802 34.2272 42.1274 34.324 42.057 34.3944C41.9866 34.4648 41.8986 34.5 41.793 34.5ZM41.7988 34.5V31.4376H55.0516L53.89 32.388V28.7976C53.89 27.8824 53.7932 27.152 53.5996 26.6064C53.406 26.0608 53.1068 25.6648 52.702 25.4184C52.3148 25.172 51.822 25.0488 51.2236 25.0488H45.442L43.2508 21.8808L44.5972 19.3464C44.7556 19.0472 44.9316 18.7216 45.1252 18.3696C45.3188 18.0176 45.574 17.5952 45.8908 17.1024C46.2076 16.6096 46.6124 15.9936 47.1052 15.2544L50.062 16.9176C49.6044 17.604 49.2348 18.176 48.9532 18.6336C48.6716 19.0736 48.434 19.4608 48.2404 19.7952C48.0468 20.1296 47.8708 20.464 47.7124 20.7984L46.6564 22.7784L46.1284 21.9864H51.2236C52.35 21.9864 53.3092 22.1712 54.1012 22.5408C54.8932 22.9104 55.5268 23.4208 56.002 24.072C56.4948 24.7232 56.8556 25.4536 57.0844 26.2632C57.3132 27.0728 57.4276 27.9176 57.4276 28.7976V34.5H41.7988ZM41.7988 34.5C41.6932 34.5 41.614 34.4648 41.5612 34.3944C41.4908 34.324 41.438 34.2272 41.4028 34.104C41.35 33.9632 41.3148 33.796 41.2972 33.6024C41.2796 33.4088 41.2708 33.1976 41.2708 32.9688C41.2708 32.652 41.2884 32.388 41.3236 32.1768C41.3588 31.948 41.4204 31.772 41.5084 31.6488C41.5788 31.508 41.6756 31.4376 41.7988 31.4376V34.5ZM72.8223 34.5V31.4376H75.5943V34.5H72.8223ZM65.6943 41.0472C65.0431 41.0472 64.3567 40.9944 63.6351 40.8888C62.9311 40.8008 62.1743 40.6776 61.3647 40.5192L61.8927 37.6944C62.7727 37.8 63.5207 37.8792 64.1367 37.932C64.7527 37.9848 65.2719 38.0112 65.6943 38.0112C66.9615 38.0112 67.8767 37.7824 68.4399 37.3248C69.0031 36.8672 69.2847 36.1808 69.2847 35.2656V23.676L70.1559 24.3096H66.8559C66.1343 24.3096 65.5535 24.3976 65.1135 24.5736C64.6735 24.732 64.3479 25.0752 64.1367 25.6032C63.9431 26.1136 63.8463 26.8968 63.8463 27.9528C63.8463 28.956 63.9343 29.7128 64.1103 30.2232C64.3039 30.716 64.6207 31.0416 65.0607 31.2C65.5007 31.3584 66.0991 31.4376 66.8559 31.4376H69.2847V34.5H66.8559C65.3599 34.5 64.1279 34.2624 63.1599 33.7872C62.1919 33.312 61.4703 32.5904 60.9951 31.6224C60.5375 30.6544 60.3087 29.4312 60.3087 27.9528C60.3087 26.4744 60.5375 25.2424 60.9951 24.2568C61.4703 23.2536 62.1919 22.5056 63.1599 22.0128C64.1279 21.5024 65.3599 21.2472 66.8559 21.2472H72.8223V35.2656C72.8223 36.4624 72.5231 37.492 71.9247 38.3544C71.3439 39.2344 70.5167 39.9032 69.4431 40.3608C68.3871 40.8184 67.1375 41.0472 65.6943 41.0472ZM75.5943 34.5V31.4376C75.6999 31.4376 75.7791 31.4728 75.8319 31.5432C75.9023 31.6136 75.9551 31.7192 75.9903 31.86C76.0431 32.0008 76.0783 32.168 76.0959 32.3616C76.1135 32.5376 76.1223 32.74 76.1223 32.9688C76.1223 33.1976 76.1135 33.4088 76.0959 33.6024C76.0783 33.796 76.0431 33.9632 75.9903 34.104C75.9551 34.2272 75.9023 34.324 75.8319 34.3944C75.7791 34.4648 75.6999 34.5 75.5943 34.5ZM75.598 34.5V31.4376H80.4292L78.37 33.1536V21.2472H81.9076V34.5H75.598ZM75.598 34.5C75.4924 34.5 75.4132 34.4648 75.3604 34.3944C75.29 34.324 75.2372 34.2272 75.202 34.104C75.1492 33.9632 75.114 33.796 75.0964 33.6024C75.0788 33.4088 75.07 33.1976 75.07 32.9688C75.07 32.652 75.0876 32.388 75.1228 32.1768C75.158 31.948 75.2196 31.772 75.3076 31.6488C75.378 31.508 75.4748 31.4376 75.598 31.4376V34.5ZM78.37 40.1232V37.1136H81.9076V40.1232H78.37ZM110.084 34.5V31.4376H112.856V34.5H110.084ZM99.3131 34.5C97.4299 34.5 95.8371 34.2536 94.5347 33.7608C93.2499 33.268 92.2731 32.5376 91.6043 31.5696C90.9531 30.6016 90.6275 29.396 90.6275 27.9528C90.6275 27.5304 90.6539 27.0904 90.7067 26.6328C90.7595 26.1576 90.8211 25.7088 90.8915 25.2864C90.9795 24.8464 91.0587 24.4592 91.1291 24.1248C91.1995 23.7904 91.2523 23.544 91.2875 23.3856L94.7195 24.0456C94.6667 24.3272 94.5963 24.688 94.5083 25.128C94.4203 25.568 94.3411 26.0344 94.2707 26.5272C94.2003 27.0024 94.1651 27.46 94.1651 27.9C94.1651 28.5864 94.2707 29.1584 94.4819 29.616C94.7107 30.0736 95.0451 30.4432 95.4851 30.7248C95.9251 30.9888 96.4795 31.1736 97.1483 31.2792C97.8171 31.3848 98.6003 31.4376 99.4979 31.4376H106.547V21.2472H110.084V34.5H99.3131ZM112.856 34.5V31.4376C112.962 31.4376 113.041 31.4728 113.094 31.5432C113.164 31.6136 113.217 31.7192 113.252 31.86C113.305 32.0008 113.34 32.168 113.358 32.3616C113.375 32.5376 113.384 32.74 113.384 32.9688C113.384 33.1976 113.375 33.4088 113.358 33.6024C113.34 33.796 113.305 33.9632 113.252 34.104C113.217 34.2272 113.164 34.324 113.094 34.3944C113.041 34.4648 112.962 34.5 112.856 34.5ZM96.2771 20.6928V17.6832H99.6827V20.6928H96.2771ZM101.082 20.6928V17.6832H104.487V20.6928H101.082ZM119.162 34.5V31.4376H121.934V34.5H119.162ZM112.852 34.5C112.746 34.5 112.667 34.4648 112.614 34.3944C112.544 34.324 112.491 34.2272 112.456 34.104C112.403 33.9632 112.368 33.796 112.35 33.6024C112.333 33.4088 112.324 33.1976 112.324 32.9688C112.324 32.652 112.342 32.388 112.377 32.1768C112.412 31.948 112.474 31.772 112.562 31.6488C112.632 31.508 112.729 31.4376 112.852 31.4376V34.5ZM112.852 34.5V31.4376H117.683L115.624 33.1536V21.2472H119.162V34.5H112.852ZM121.934 34.5V31.4376C122.039 31.4376 122.127 31.4728 122.198 31.5432C122.268 31.6136 122.321 31.7192 122.356 31.86C122.391 32.0008 122.418 32.168 122.435 32.3616C122.453 32.5376 122.462 32.74 122.462 32.9688C122.462 33.1976 122.453 33.4088 122.435 33.6024C122.418 33.796 122.391 33.9632 122.356 34.104C122.321 34.2272 122.268 34.324 122.198 34.3944C122.127 34.4648 122.039 34.5 121.934 34.5ZM115.624 40.1232V37.1136H119.162V40.1232H115.624ZM121.927 34.5V31.4376H128.184L126.125 33.1536V21.2472H129.636V34.5H121.927ZM121.927 34.5C121.821 34.5 121.742 34.4648 121.689 34.3944C121.619 34.324 121.566 34.2272 121.531 34.104C121.478 33.9632 121.443 33.796 121.425 33.6024C121.408 33.4088 121.399 33.1976 121.399 32.9688C121.399 32.652 121.417 32.388 121.452 32.1768C121.487 31.948 121.549 31.772 121.637 31.6488C121.707 31.508 121.804 31.4376 121.927 31.4376V34.5ZM122.877 40.1232V37.1136H126.283V40.1232H122.877ZM127.682 40.1232V37.1136H131.088V40.1232H127.682ZM132.625 34.5V31.4376H142.208L139.806 33.5232V29.088C139.806 27.8384 139.674 26.8704 139.41 26.184C139.164 25.4976 138.741 25.0136 138.143 24.732C137.562 24.4504 136.761 24.3096 135.74 24.3096H133.602V21.2472H135.74C137.36 21.2472 138.732 21.5112 139.859 22.0392C141.003 22.5672 141.865 23.412 142.446 24.5736C143.044 25.7176 143.344 27.2224 143.344 29.088V34.5H132.625ZM8.69695 70.5V69.1332H11.0454V70.5H8.69695ZM7.2147 70.5V56.6977H8.69695V70.5H7.2147ZM11.0454 70.5V69.1332C11.1224 69.1332 11.1866 69.1525 11.2379 69.191C11.2893 69.2167 11.3278 69.2616 11.3534 69.3257C11.3791 69.3771 11.3984 69.4477 11.4112 69.5375C11.424 69.6145 11.4304 69.7043 11.4304 69.807C11.4304 69.9097 11.424 70.0059 11.4112 70.0957C11.3984 70.1856 11.3791 70.2626 11.3534 70.3267C11.3278 70.3781 11.2893 70.423 11.2379 70.4615C11.1866 70.4872 11.1224 70.5 11.0454 70.5ZM11.0439 70.5V69.1332H13.8159L13.1229 69.6915V60.875H14.6244V70.5H11.0439ZM11.0439 70.5C10.9669 70.5 10.9028 70.4872 10.8514 70.4615C10.8001 70.423 10.7616 70.3781 10.7359 70.3267C10.7103 70.2626 10.691 70.1856 10.6782 70.0957C10.6654 70.0059 10.6589 69.9097 10.6589 69.807C10.6589 69.6658 10.6718 69.5503 10.6974 69.4605C10.7103 69.3578 10.7488 69.2808 10.8129 69.2295C10.8643 69.1653 10.9413 69.1332 11.0439 69.1332V70.5ZM13.1229 59.1425V57.41H14.6244V59.1425H13.1229ZM19.5063 70.5V69.1332H21.8548V70.5H19.5063ZM18.024 70.5V56.6977H19.5063V70.5H18.024ZM21.8548 70.5V69.1332C21.9318 69.1332 21.9959 69.1525 22.0473 69.191C22.0986 69.2167 22.1371 69.2616 22.1628 69.3257C22.1884 69.3771 22.2077 69.4477 22.2205 69.5375C22.2334 69.6145 22.2398 69.7043 22.2398 69.807C22.2398 69.9097 22.2334 70.0059 22.2205 70.0957C22.2077 70.1856 22.1884 70.2626 22.1628 70.3267C22.1371 70.3781 22.0986 70.423 22.0473 70.4615C21.9959 70.4872 21.9318 70.5 21.8548 70.5ZM21.8533 70.5V69.1332H32.383L31.2665 69.9225V65.7837C31.2665 64.8854 31.1639 64.1796 30.9585 63.6662C30.7532 63.1529 30.4003 62.7872 29.8998 62.569C29.4121 62.3508 28.7448 62.2417 27.8978 62.2417C27.3588 62.2417 26.8198 62.2802 26.2808 62.3572C25.7546 62.4342 25.3439 62.5369 25.0488 62.6652L25.9535 61.7412C25.8765 62.0492 25.7995 62.4407 25.7225 62.9155C25.6455 63.3775 25.5814 63.878 25.53 64.417C25.4787 64.956 25.453 65.495 25.453 66.034C25.453 66.5858 25.4787 67.1248 25.53 67.651C25.5814 68.1772 25.6391 68.6327 25.7033 69.0177C25.7674 69.4027 25.8188 69.6722 25.8573 69.8262L24.4328 70.2305C24.3814 70.0637 24.3173 69.7749 24.2403 69.3642C24.1761 68.9536 24.1119 68.4595 24.0478 67.882C23.9964 67.3045 23.9708 66.6885 23.9708 66.034C23.9708 65.4052 23.9964 64.7956 24.0478 64.2052C24.1119 63.6021 24.1825 63.0567 24.2595 62.569C24.3494 62.0813 24.4328 61.6899 24.5098 61.3947C24.7921 61.2792 25.2413 61.1637 25.8573 61.0482C26.4733 60.9327 27.1534 60.875 27.8978 60.875C28.9758 60.875 29.8741 61.0354 30.5928 61.3562C31.3243 61.6771 31.8697 62.1968 32.229 62.9155C32.5884 63.6213 32.768 64.5774 32.768 65.7837V70.5H21.8533ZM21.8533 70.5C21.7763 70.5 21.7121 70.4872 21.6608 70.4615C21.6094 70.423 21.5709 70.3781 21.5453 70.3267C21.5196 70.2626 21.5004 70.1856 21.4875 70.0957C21.4747 70.0059 21.4683 69.9097 21.4683 69.807C21.4683 69.6658 21.4811 69.5503 21.5068 69.4605C21.5196 69.3578 21.5581 69.2808 21.6223 69.2295C21.6736 69.1653 21.7506 69.1332 21.8533 69.1332V70.5ZM36.0521 70.5V56.6977H37.5344V70.5H36.0521ZM35.8981 55.4272C35.6928 55.1706 35.5324 54.9203 35.4169 54.6765C35.3142 54.4327 35.2629 54.176 35.2629 53.9065C35.2629 53.5343 35.3527 53.2007 35.5324 52.9055C35.7249 52.6103 35.9751 52.3793 36.2831 52.2125C36.5911 52.0457 36.9248 51.9622 37.2841 51.9622C37.4894 51.9622 37.6948 51.9943 37.9001 52.0585C38.1054 52.1098 38.2851 52.1868 38.4391 52.2895L37.9386 53.1557C37.8359 53.0916 37.7333 53.0531 37.6306 53.0402C37.5408 53.0146 37.4445 53.0017 37.3419 53.0017C37.0467 53.0017 36.8093 53.0852 36.6296 53.252C36.4628 53.4188 36.3794 53.637 36.3794 53.9065C36.3794 54.0733 36.4114 54.2337 36.4756 54.3877C36.5526 54.5417 36.6617 54.7086 36.8029 54.8882L35.8981 55.4272ZM34.8971 55.4272V54.407H38.6894V55.4272H34.8971ZM51.4575 70.5V60.875H52.959V69.6915L52.266 69.1332H55.038V70.5H51.4575ZM47.2995 64.1475V62.7615H51.4575V64.1475H47.2995ZM43.7768 74.7543C43.6099 74.7543 43.4367 74.7414 43.257 74.7158C43.0645 74.7029 42.8784 74.6901 42.6988 74.6773L42.872 73.3105C43.0517 73.3233 43.2185 73.3362 43.3725 73.349C43.5265 73.3747 43.6613 73.3875 43.7768 73.3875C44.3799 73.3875 44.8676 73.1565 45.2398 72.6945C45.6119 72.2453 45.798 71.6165 45.798 70.808V60.875H47.2995V70.808C47.2995 71.5908 47.1455 72.2774 46.8375 72.8678C46.5423 73.4709 46.1317 73.9329 45.6055 74.2538C45.0793 74.5874 44.4698 74.7543 43.7768 74.7543ZM55.038 70.5V69.1332C55.115 69.1332 55.1792 69.1525 55.2305 69.191C55.2818 69.2167 55.3203 69.2616 55.346 69.3257C55.3717 69.3771 55.3909 69.4477 55.4038 69.5375C55.4166 69.6145 55.423 69.7043 55.423 69.807C55.423 69.9097 55.4166 70.0059 55.4038 70.0957C55.3909 70.1856 55.3717 70.2626 55.346 70.3267C55.3203 70.3781 55.2818 70.423 55.2305 70.4615C55.1792 70.4872 55.115 70.5 55.038 70.5ZM51.5153 56.6015V54.9652H52.9013V56.6015H51.5153ZM50.1293 59.1425V57.41H51.6308V59.1425H50.1293ZM52.7665 59.1425V57.41H54.268V59.1425H52.7665ZM55.0332 70.5V69.1332H64.6582L64.1192 69.6145V66.188C64.1192 65.495 64.023 64.9239 63.8305 64.4747C63.6508 64.0127 63.3749 63.6727 63.0027 63.4545C62.6434 63.2235 62.1878 63.108 61.636 63.108H57.4395L56.3422 61.4525L57.17 59.8547C57.324 59.5724 57.4844 59.2837 57.6512 58.9885C57.818 58.6933 58.0234 58.3532 58.2672 57.9682C58.511 57.5832 58.819 57.1148 59.1912 56.563L60.4425 57.3137C60.0703 57.8784 59.7687 58.3468 59.5377 58.719C59.3067 59.0912 59.1078 59.412 58.941 59.6815C58.787 59.951 58.6394 60.2205 58.4982 60.49L57.5357 62.338L57.1507 61.7412H61.636C62.4445 61.7412 63.1054 61.8824 63.6187 62.1647C64.1449 62.4342 64.5491 62.7936 64.8315 63.2427C65.1266 63.6919 65.332 64.1796 65.4475 64.7057C65.563 65.2191 65.6207 65.7132 65.6207 66.188V70.5H55.0332ZM55.0332 70.5C54.9562 70.5 54.892 70.4872 54.8407 70.4615C54.7894 70.423 54.7509 70.3781 54.7252 70.3267C54.6995 70.2626 54.6803 70.1856 54.6675 70.0957C54.6546 70.0059 54.6482 69.9097 54.6482 69.807C54.6482 69.6658 54.661 69.5503 54.6867 69.4605C54.6995 69.3578 54.738 69.2808 54.8022 69.2295C54.8535 69.1653 54.9305 69.1332 55.0332 69.1332V70.5ZM67.8345 70.5V69.1332H77.2477L76.4007 69.9995V56.6977H77.9022V70.5H67.8345ZM70.9145 69.1332V59.4312H72.3967V69.1332H70.9145ZM70.7605 58.1415C70.5551 57.8848 70.3947 57.6346 70.2792 57.3907C70.1765 57.1469 70.1252 56.8902 70.1252 56.6207C70.1252 56.2486 70.215 55.9149 70.3947 55.6197C70.5872 55.3246 70.8375 55.0936 71.1455 54.9267C71.4535 54.7599 71.7871 54.6765 72.1465 54.6765C72.3518 54.6765 72.5571 54.7086 72.7625 54.7727C72.9678 54.8241 73.1475 54.9011 73.3015 55.0037L72.801 55.87C72.6983 55.8058 72.5956 55.7673 72.493 55.7545C72.4031 55.7288 72.3069 55.716 72.2042 55.716C71.909 55.716 71.6716 55.7994 71.492 55.9662C71.3251 56.1331 71.2417 56.3512 71.2417 56.6207C71.2417 56.7876 71.2738 56.948 71.338 57.102C71.415 57.256 71.524 57.4228 71.6652 57.6025L70.7605 58.1415ZM69.7595 58.1415V57.1212H73.5517V58.1415H69.7595ZM81.3009 70.5V56.6977H82.7831V70.5H81.3009ZM102.501 70.5V69.1332H104.58V70.5H102.501ZM95.3395 70.5C94.069 70.5 93.0103 70.3524 92.1633 70.0572C91.3163 69.7621 90.681 69.3129 90.2575 68.7097C89.834 68.1066 89.6223 67.3366 89.6223 66.3997C89.6223 66.0917 89.6415 65.7581 89.68 65.3987C89.7314 65.0394 89.7891 64.6929 89.8533 64.3592C89.9175 64.0127 89.9752 63.7176 90.0265 63.4737C90.0779 63.2171 90.11 63.0438 90.1228 62.954L91.5858 63.2235C91.5473 63.4288 91.4895 63.7112 91.4125 64.0705C91.3484 64.4298 91.2842 64.8148 91.22 65.2255C91.1559 65.6362 91.1238 66.0276 91.1238 66.3997C91.1238 66.8746 91.1944 67.2852 91.3355 67.6317C91.4895 67.9782 91.727 68.267 92.0478 68.498C92.3815 68.7162 92.8178 68.8766 93.3568 68.9792C93.8958 69.0819 94.5567 69.1332 95.3395 69.1332H101.692L100.999 69.6915V56.6977H102.501V70.5H95.3395ZM104.58 70.5V69.1332C104.657 69.1332 104.721 69.1525 104.772 69.191C104.823 69.2167 104.862 69.2616 104.888 69.3257C104.913 69.3771 104.932 69.4477 104.945 69.5375C104.958 69.6145 104.965 69.7043 104.965 69.807C104.965 69.9097 104.958 70.0059 104.945 70.0957C104.932 70.1856 104.913 70.2626 104.888 70.3267C104.862 70.3781 104.823 70.423 104.772 70.4615C104.721 70.4872 104.657 70.5 104.58 70.5ZM95.1663 63.8395C94.961 63.5828 94.8005 63.3326 94.685 63.0887C94.5824 62.8449 94.531 62.5882 94.531 62.3187C94.531 61.9466 94.6209 61.6129 94.8005 61.3177C94.993 61.0226 95.2433 60.7916 95.5513 60.6247C95.8593 60.4579 96.193 60.3745 96.5523 60.3745C96.7576 60.3745 96.963 60.4066 97.1683 60.4707C97.3736 60.5221 97.5533 60.5991 97.7073 60.7017L97.2068 61.568C97.1041 61.5038 97.0015 61.4653 96.8988 61.4525C96.809 61.4268 96.7127 61.414 96.61 61.414C96.3149 61.414 96.0775 61.4974 95.8978 61.6642C95.731 61.8311 95.6475 62.0492 95.6475 62.3187C95.6475 62.4856 95.6796 62.646 95.7438 62.8C95.8208 62.954 95.9299 63.1208 96.071 63.3005L95.1663 63.8395ZM94.1653 63.8395V62.8192H97.9575V63.8395H94.1653ZM108.167 70.5V69.1332H110.246V70.5H108.167ZM110.246 70.5V69.1332C110.323 69.1332 110.388 69.1525 110.439 69.191C110.49 69.2167 110.529 69.2616 110.554 69.3257C110.58 69.3771 110.599 69.4477 110.612 69.5375C110.625 69.6145 110.631 69.7043 110.631 69.807C110.631 69.9097 110.625 70.0059 110.612 70.0957C110.599 70.1856 110.58 70.2626 110.554 70.3267C110.529 70.3781 110.49 70.423 110.439 70.4615C110.388 70.4872 110.323 70.5 110.246 70.5ZM104.587 70.5C104.51 70.5 104.446 70.4872 104.394 70.4615C104.343 70.423 104.305 70.3781 104.279 70.3267C104.253 70.2626 104.234 70.1856 104.221 70.0957C104.208 70.0059 104.202 69.9097 104.202 69.807C104.202 69.6658 104.215 69.5503 104.24 69.4605C104.253 69.3578 104.292 69.2808 104.356 69.2295C104.407 69.1653 104.484 69.1332 104.587 69.1332V70.5ZM104.587 70.5V69.1332H107.359L106.666 69.6915V60.875H108.167V70.5H104.587ZM105.357 59.1425V57.41H106.858V59.1425H105.357ZM107.994 59.1425V57.41H109.496V59.1425H107.994ZM124.587 70.5V69.1332H126.666V70.5H124.587ZM110.245 70.5C110.168 70.5 110.104 70.4872 110.053 70.4615C110.002 70.423 109.963 70.3781 109.937 70.3267C109.912 70.2626 109.892 70.1856 109.88 70.0957C109.867 70.0059 109.86 69.9097 109.86 69.807C109.86 69.6658 109.873 69.5503 109.899 69.4605C109.912 69.3578 109.95 69.2808 110.014 69.2295C110.066 69.1653 110.143 69.1332 110.245 69.1332V70.5ZM110.245 70.5V69.1332H124.471L123.085 70.3845V65.8607C123.085 65.0522 122.97 64.3849 122.739 63.8587C122.52 63.3197 122.187 62.9155 121.738 62.646C121.301 62.3765 120.749 62.2417 120.082 62.2417C119.517 62.2417 118.991 62.338 118.504 62.5305C118.029 62.7102 117.586 62.954 117.175 63.262C116.765 63.5572 116.38 63.8908 116.02 64.263C115.674 64.6223 115.353 64.9881 115.058 65.3602C114.763 65.7324 114.493 66.0725 114.249 66.3805L113.768 65.0137C114.089 64.6159 114.41 64.2181 114.731 63.8202C115.064 63.4224 115.411 63.0502 115.77 62.7037C116.129 62.3444 116.521 62.03 116.944 61.7605C117.381 61.491 117.856 61.2792 118.369 61.1252C118.882 60.9584 119.46 60.875 120.101 60.875C121.013 60.875 121.757 61.029 122.334 61.337C122.925 61.645 123.38 62.0557 123.701 62.569C124.035 63.0695 124.266 63.6085 124.394 64.186C124.522 64.7635 124.587 65.3217 124.587 65.8607V70.5H110.245ZM112.979 69.1332V60.875H114.48V69.1332H112.979ZM126.666 70.5V69.1332C126.743 69.1332 126.807 69.1525 126.858 69.191C126.909 69.2167 126.948 69.2616 126.974 69.3257C126.999 69.3771 127.019 69.4477 127.031 69.5375C127.044 69.6145 127.051 69.7043 127.051 69.807C127.051 69.9097 127.044 70.0059 127.031 70.0957C127.019 70.1856 126.999 70.2626 126.974 70.3267C126.948 70.3781 126.909 70.423 126.858 70.4615C126.807 70.4872 126.743 70.5 126.666 70.5ZM130.237 70.5V69.1332H132.316V70.5H130.237ZM126.657 70.5C126.58 70.5 126.516 70.4872 126.464 70.4615C126.413 70.423 126.374 70.3781 126.349 70.3267C126.323 70.2626 126.304 70.1856 126.291 70.0957C126.278 70.0059 126.272 69.9097 126.272 69.807C126.272 69.6658 126.285 69.5503 126.31 69.4605C126.323 69.3578 126.362 69.2808 126.426 69.2295C126.477 69.1653 126.554 69.1332 126.657 69.1332V70.5ZM126.657 70.5V69.1332H129.429L128.736 69.6915V60.875H130.237V70.5H126.657ZM132.316 70.5V69.1332C132.393 69.1332 132.457 69.1525 132.509 69.191C132.56 69.2167 132.599 69.2616 132.624 69.3257C132.65 69.3771 132.669 69.4477 132.682 69.5375C132.695 69.6145 132.701 69.7043 132.701 69.807C132.701 69.9097 132.695 70.0059 132.682 70.0957C132.669 70.1856 132.65 70.2626 132.624 70.3267C132.599 70.3781 132.56 70.423 132.509 70.4615C132.457 70.4872 132.393 70.5 132.316 70.5ZM128.736 59.1425V57.41H130.237V59.1425H128.736ZM132.315 70.5V69.1332H142.845L141.728 69.9225V65.7837C141.728 64.8854 141.626 64.1796 141.42 63.6662C141.215 63.1529 140.862 62.7872 140.362 62.569C139.874 62.3508 139.207 62.2417 138.36 62.2417C137.821 62.2417 137.282 62.2802 136.743 62.3572C136.217 62.4342 135.806 62.5369 135.511 62.6652L136.415 61.7412C136.338 62.0492 136.261 62.4407 136.184 62.9155C136.107 63.3775 136.043 63.878 135.992 64.417C135.941 64.956 135.915 65.495 135.915 66.034C135.915 66.5858 135.941 67.1248 135.992 67.651C136.043 68.1772 136.101 68.6327 136.165 69.0177C136.229 69.4027 136.281 69.6722 136.319 69.8262L134.895 70.2305C134.843 70.0637 134.779 69.7749 134.702 69.3642C134.638 68.9536 134.574 68.4595 134.51 67.882C134.458 67.3045 134.433 66.6885 134.433 66.034C134.433 65.4052 134.458 64.7956 134.51 64.2052C134.574 63.6021 134.644 63.0567 134.721 62.569C134.811 62.0813 134.895 61.6899 134.972 61.3947C135.254 61.2792 135.703 61.1637 136.319 61.0482C136.935 60.9327 137.615 60.875 138.36 60.875C139.438 60.875 140.336 61.0354 141.055 61.3562C141.786 61.6771 142.332 62.1968 142.691 62.9155C143.05 63.6213 143.23 64.5774 143.23 65.7837V70.5H132.315ZM132.315 70.5C132.238 70.5 132.174 70.4872 132.123 70.4615C132.071 70.423 132.033 70.3781 132.007 70.3267C131.982 70.2626 131.962 70.1856 131.949 70.0957C131.937 70.0059 131.93 69.9097 131.93 69.807C131.93 69.6658 131.943 69.5503 131.969 69.4605C131.982 69.3578 132.02 69.2808 132.084 69.2295C132.136 69.1653 132.213 69.1332 132.315 69.1332V70.5Z" fill="#06101C"/>
<path d="M156.421 28.9333L152.388 17.2H173.875C178.91 17.2 182.968 17.9822 186.048 19.5467C189.128 21.0622 191.377 23.6778 192.795 27.3933C194.212 31.06 194.921 36.12 194.921 42.5733C194.921 49.4667 194.237 54.9178 192.868 58.9267C191.499 62.8867 189.299 65.7222 186.268 67.4333C183.286 69.0956 179.326 69.9511 174.388 70V58.12C176.246 57.7289 177.566 56.3844 178.348 54.0867C179.13 51.7889 179.521 47.9511 179.521 42.5733C179.521 38.9067 179.326 36.0956 178.935 34.14C178.544 32.1356 177.884 30.7667 176.955 30.0333C176.026 29.3 174.706 28.9333 172.995 28.9333H156.421ZM156.421 70V32.6H170.721V70H156.421ZM214.12 45.8V60.32H214.853C217.298 60.32 219.082 59.88 220.206 59C221.38 58.0711 221.966 56.4578 221.966 54.16C221.966 52.0578 221.404 50.42 220.28 49.2467C222.529 48.7578 224.582 48.1222 226.44 47.34C228.298 46.5578 229.862 45.5311 231.133 44.26C233.186 45.4822 234.653 47.0467 235.533 48.9533C236.413 50.8111 236.853 53.1089 236.853 55.8467C236.853 60.3933 235.191 63.8889 231.866 66.3333C228.542 68.7778 223.482 70 216.686 70H199.82V30.9133H214.12V38.9067H214.78C216.98 38.9067 218.569 38.4911 219.546 37.66C220.573 36.78 221.086 35.2644 221.086 33.1133C221.086 30.9133 220.573 29.3978 219.546 28.5667C218.569 27.6867 216.98 27.2467 214.78 27.2467H199.82L195.786 17.2H217.786C223.702 17.2 228.004 18.4222 230.693 20.8667C233.382 23.3111 234.726 26.7333 234.726 31.1333C234.726 33.92 234.091 36.2667 232.82 38.1733C231.598 40.0311 229.96 41.5222 227.906 42.6467C225.853 43.7711 223.629 44.5778 221.233 45.0667C218.838 45.5556 216.466 45.8 214.12 45.8Z" fill="#06101C"/>
</svg>
