<svg width="250" height="88" viewBox="0 0 250 88" fill="none" xmlns="http://www.w3.org/2000/svg">
<path d="M39.0125 35V31.9376H41.7845V35H39.0125ZM15.8597 41.5472C14.3285 41.5472 12.9557 41.2656 11.7413 40.7024C10.5445 40.1568 9.60285 39.3912 8.91645 38.4056C8.23005 37.42 7.88685 36.3024 7.88685 35.0528C7.88685 34.7008 7.91325 34.2344 7.96605 33.6536C8.01885 33.0728 8.08925 32.4216 8.17725 31.7C8.28285 30.9784 8.38845 30.248 8.49405 29.5088C8.61725 28.752 8.73165 28.0216 8.83725 27.3176L12.3221 27.7928C12.1285 28.972 11.9613 30.0544 11.8205 31.04C11.6973 32.008 11.6005 32.8352 11.5301 33.5216C11.4597 34.208 11.4245 34.7096 11.4245 35.0264C11.4245 35.7304 11.6005 36.3376 11.9525 36.848C12.3045 37.3584 12.8061 37.7544 13.4573 38.036C14.1261 38.3352 14.9269 38.4848 15.8597 38.4848C16.8277 38.4848 17.6109 38.344 18.2093 38.0624C18.8077 37.7808 19.2389 37.3936 19.5029 36.9008C19.7845 36.408 19.9253 35.8536 19.9253 35.2376V24.44H23.4629V35.2376C23.4629 36.5048 23.1285 37.6136 22.4597 38.564C21.8085 39.5144 20.9109 40.2448 19.7669 40.7552C18.6229 41.2832 17.3205 41.5472 15.8597 41.5472ZM23.4101 35L23.4629 31.9376H25.6013C26.1645 31.9376 26.5957 31.8584 26.8949 31.7C27.1941 31.524 27.4053 31.1808 27.5285 30.6704C27.6517 30.1424 27.7133 29.3592 27.7133 28.3208V23.12H31.2509V28.3208C31.2509 29.8872 31.0485 31.1632 30.6437 32.1488C30.2389 33.1344 29.6229 33.856 28.7957 34.3136C27.9685 34.7712 26.9037 35 25.6013 35H23.4101ZM32.3861 35C31.6645 35 30.9517 34.868 30.2477 34.604C29.5437 34.3224 28.8837 33.9088 28.2677 33.3632L30.4325 31.1192C30.7669 31.4008 31.0925 31.612 31.4093 31.7528C31.7437 31.876 32.0693 31.9376 32.3861 31.9376H37.3493L35.5013 33.6008V27.74C35.5013 27.4584 35.4661 27.036 35.3957 26.4728C35.3253 25.892 35.2373 25.2408 35.1317 24.5192C35.0261 23.78 34.9029 23.032 34.7621 22.2752L38.2205 21.7472C38.3437 22.3808 38.4669 23.0936 38.5901 23.8856C38.7133 24.66 38.8101 25.3992 38.8805 26.1032C38.9685 26.7896 39.0125 27.3352 39.0125 27.74V35H32.3861ZM41.7845 35V31.9376C41.8901 31.9376 41.9781 31.9728 42.0485 32.0432C42.1189 32.1136 42.1717 32.2192 42.2069 32.36C42.2421 32.5008 42.2685 32.668 42.2861 32.8616C42.3037 33.0376 42.3125 33.24 42.3125 33.4688C42.3125 33.6976 42.3037 33.9088 42.2861 34.1024C42.2685 34.296 42.2421 34.4632 42.2069 34.604C42.1717 34.7272 42.1189 34.824 42.0485 34.8944C41.9781 34.9648 41.8901 35 41.7845 35ZM41.7902 35V31.9376H55.043L53.8814 32.888V29.2976C53.8814 28.3824 53.7846 27.652 53.591 27.1064C53.3974 26.5608 53.0982 26.1648 52.6934 25.9184C52.3062 25.672 51.8134 25.5488 51.215 25.5488H45.4334L43.2422 22.3808L44.5886 19.8464C44.747 19.5472 44.923 19.2216 45.1166 18.8696C45.3102 18.5176 45.5654 18.0952 45.8822 17.6024C46.199 17.1096 46.6038 16.4936 47.0966 15.7544L50.0534 17.4176C49.5958 18.104 49.2262 18.676 48.9446 19.1336C48.663 19.5736 48.4254 19.9608 48.2318 20.2952C48.0382 20.6296 47.8622 20.964 47.7038 21.2984L46.6478 23.2784L46.1198 22.4864H51.215C52.3414 22.4864 53.3006 22.6712 54.0926 23.0408C54.8846 23.4104 55.5182 23.9208 55.9934 24.572C56.4862 25.2232 56.847 25.9536 57.0758 26.7632C57.3046 27.5728 57.419 28.4176 57.419 29.2976V35H41.7902ZM41.7902 35C41.6846 35 41.6054 34.9648 41.5526 34.8944C41.4822 34.824 41.4294 34.7272 41.3942 34.604C41.3414 34.4632 41.3062 34.296 41.2886 34.1024C41.271 33.9088 41.2622 33.6976 41.2622 33.4688C41.2622 33.152 41.2798 32.888 41.315 32.6768C41.3502 32.448 41.4118 32.272 41.4998 32.1488C41.5702 32.008 41.667 31.9376 41.7902 31.9376V35ZM72.8137 35V31.9376H75.5857V35H72.8137ZM65.6857 41.5472C65.0345 41.5472 64.3481 41.4944 63.6265 41.3888C62.9225 41.3008 62.1657 41.1776 61.3561 41.0192L61.8841 38.1944C62.7641 38.3 63.5121 38.3792 64.1281 38.432C64.7441 38.4848 65.2633 38.5112 65.6857 38.5112C66.9529 38.5112 67.8681 38.2824 68.4313 37.8248C68.9945 37.3672 69.2761 36.6808 69.2761 35.7656V24.176L70.1473 24.8096H66.8473C66.1257 24.8096 65.5449 24.8976 65.1049 25.0736C64.6649 25.232 64.3393 25.5752 64.1281 26.1032C63.9345 26.6136 63.8377 27.3968 63.8377 28.4528C63.8377 29.456 63.9257 30.2128 64.1017 30.7232C64.2953 31.216 64.6121 31.5416 65.0521 31.7C65.4921 31.8584 66.0905 31.9376 66.8473 31.9376H69.2761V35H66.8473C65.3513 35 64.1193 34.7624 63.1513 34.2872C62.1833 33.812 61.4617 33.0904 60.9865 32.1224C60.5289 31.1544 60.3001 29.9312 60.3001 28.4528C60.3001 26.9744 60.5289 25.7424 60.9865 24.7568C61.4617 23.7536 62.1833 23.0056 63.1513 22.5128C64.1193 22.0024 65.3513 21.7472 66.8473 21.7472H72.8137V35.7656C72.8137 36.9624 72.5145 37.992 71.9161 38.8544C71.3353 39.7344 70.5081 40.4032 69.4345 40.8608C68.3785 41.3184 67.1289 41.5472 65.6857 41.5472ZM75.5857 35V31.9376C75.6913 31.9376 75.7705 31.9728 75.8233 32.0432C75.8937 32.1136 75.9465 32.2192 75.9817 32.36C76.0345 32.5008 76.0697 32.668 76.0873 32.8616C76.1049 33.0376 76.1137 33.24 76.1137 33.4688C76.1137 33.6976 76.1049 33.9088 76.0873 34.1024C76.0697 34.296 76.0345 34.4632 75.9817 34.604C75.9465 34.7272 75.8937 34.824 75.8233 34.8944C75.7705 34.9648 75.6913 35 75.5857 35ZM75.5895 35V31.9376H80.4207L78.3615 33.6536V21.7472H81.8991V35H75.5895ZM75.5895 35C75.4839 35 75.4047 34.9648 75.3519 34.8944C75.2815 34.824 75.2287 34.7272 75.1935 34.604C75.1407 34.4632 75.1055 34.296 75.0879 34.1024C75.0703 33.9088 75.0615 33.6976 75.0615 33.4688C75.0615 33.152 75.0791 32.888 75.1143 32.6768C75.1495 32.448 75.2111 32.272 75.2991 32.1488C75.3695 32.008 75.4663 31.9376 75.5895 31.9376V35ZM78.3615 40.6232V37.6136H81.8991V40.6232H78.3615ZM110.076 35V31.9376H112.848V35H110.076ZM99.3045 35C97.4213 35 95.8285 34.7536 94.5261 34.2608C93.2413 33.768 92.2645 33.0376 91.5957 32.0696C90.9445 31.1016 90.6189 29.896 90.6189 28.4528C90.6189 28.0304 90.6453 27.5904 90.6981 27.1328C90.7509 26.6576 90.8125 26.2088 90.8829 25.7864C90.9709 25.3464 91.0501 24.9592 91.1205 24.6248C91.1909 24.2904 91.2437 24.044 91.2789 23.8856L94.7109 24.5456C94.6581 24.8272 94.5877 25.188 94.4997 25.628C94.4117 26.068 94.3325 26.5344 94.2621 27.0272C94.1917 27.5024 94.1565 27.96 94.1565 28.4C94.1565 29.0864 94.2621 29.6584 94.4733 30.116C94.7021 30.5736 95.0365 30.9432 95.4765 31.2248C95.9165 31.4888 96.4709 31.6736 97.1397 31.7792C97.8085 31.8848 98.5917 31.9376 99.4893 31.9376H106.538V21.7472H110.076V35H99.3045ZM112.848 35V31.9376C112.953 31.9376 113.032 31.9728 113.085 32.0432C113.156 32.1136 113.208 32.2192 113.244 32.36C113.296 32.5008 113.332 32.668 113.349 32.8616C113.367 33.0376 113.376 33.24 113.376 33.4688C113.376 33.6976 113.367 33.9088 113.349 34.1024C113.332 34.296 113.296 34.4632 113.244 34.604C113.208 34.7272 113.156 34.824 113.085 34.8944C113.032 34.9648 112.953 35 112.848 35ZM96.2685 21.1928V18.1832H99.6741V21.1928H96.2685ZM101.073 21.1928V18.1832H104.479V21.1928H101.073ZM120.552 35V31.9376H123.852V35H120.552ZM123.852 35V31.9376C123.94 31.9376 124.019 31.9728 124.09 32.0432C124.16 32.1136 124.213 32.2192 124.248 32.36C124.283 32.5008 124.31 32.668 124.327 32.8616C124.363 33.0376 124.38 33.24 124.38 33.4688C124.38 33.6976 124.363 33.9088 124.327 34.1024C124.31 34.296 124.283 34.4632 124.248 34.604C124.213 34.7272 124.16 34.824 124.09 34.8944C124.037 34.9648 123.958 35 123.852 35ZM112.843 35C112.738 35 112.659 34.9648 112.606 34.8944C112.535 34.824 112.483 34.7272 112.447 34.604C112.395 34.4632 112.359 34.296 112.342 34.1024C112.324 33.9088 112.315 33.6976 112.315 33.4688C112.315 33.152 112.333 32.888 112.368 32.6768C112.403 32.448 112.465 32.272 112.553 32.1488C112.623 32.008 112.72 31.9376 112.843 31.9376V35ZM112.843 35V31.9376H119.1L117.041 33.6536V21.7472H120.552V35H112.843ZM113.794 40.6232V37.6136H117.199V40.6232H113.794ZM118.599 40.6232V37.6136H122.004V40.6232H118.599ZM130.162 35V31.9376H132.934V35H130.162ZM123.852 35C123.746 35 123.667 34.9648 123.614 34.8944C123.544 34.824 123.491 34.7272 123.456 34.604C123.403 34.4632 123.368 34.296 123.35 34.1024C123.333 33.9088 123.324 33.6976 123.324 33.4688C123.324 33.152 123.342 32.888 123.377 32.6768C123.412 32.448 123.474 32.272 123.562 32.1488C123.632 32.008 123.729 31.9376 123.852 31.9376V35ZM123.852 35V31.9376H128.683L126.624 33.6536V21.7472H130.162V35H123.852ZM132.934 35V31.9376C133.039 31.9376 133.127 31.9728 133.198 32.0432C133.268 32.1136 133.321 32.2192 133.356 32.36C133.391 32.5008 133.418 32.668 133.435 32.8616C133.453 33.0376 133.462 33.24 133.462 33.4688C133.462 33.6976 133.453 33.9088 133.435 34.1024C133.418 34.296 133.391 34.4632 133.356 34.604C133.321 34.7272 133.268 34.824 133.198 34.8944C133.127 34.9648 133.039 35 132.934 35ZM126.624 40.6232V37.6136H130.162V40.6232H126.624ZM132.927 35V31.9376H139.184L137.125 33.6536V21.7472H140.636V35H132.927ZM132.927 35C132.821 35 132.742 34.9648 132.689 34.8944C132.619 34.824 132.566 34.7272 132.531 34.604C132.478 34.4632 132.443 34.296 132.425 34.1024C132.408 33.9088 132.399 33.6976 132.399 33.4688C132.399 33.152 132.417 32.888 132.452 32.6768C132.487 32.448 132.549 32.272 132.637 32.1488C132.707 32.008 132.804 31.9376 132.927 31.9376V35ZM133.877 40.6232V37.6136H137.283V40.6232H133.877ZM138.682 40.6232V37.6136H142.088V40.6232H138.682ZM143.625 35V31.9376H153.208L150.806 34.0232V29.588C150.806 28.3384 150.674 27.3704 150.41 26.684C150.164 25.9976 149.741 25.5136 149.143 25.232C148.562 24.9504 147.761 24.8096 146.74 24.8096H144.602V21.7472H146.74C148.36 21.7472 149.732 22.0112 150.859 22.5392C152.003 23.0672 152.865 23.912 153.446 25.0736C154.044 26.2176 154.344 27.7224 154.344 29.588V35H143.625ZM10.6323 71V69.5421H13.1374V71H10.6323ZM9.05128 71V56.2776H10.6323V71H9.05128ZM13.1374 71V69.5421C13.2195 69.5421 13.288 69.5627 13.3427 69.6037C13.3975 69.6311 13.4386 69.679 13.4659 69.7475C13.4933 69.8022 13.5139 69.8775 13.5275 69.9733C13.5412 70.0555 13.5481 70.1513 13.5481 70.2608C13.5481 70.3703 13.5412 70.473 13.5275 70.5688C13.5139 70.6646 13.4933 70.7468 13.4659 70.8152C13.4386 70.87 13.3975 70.9179 13.3427 70.9589C13.288 70.9863 13.2195 71 13.1374 71ZM13.1358 71V69.5421H16.0926L15.3534 70.1376V60.7333H16.955V71H13.1358ZM13.1358 71C13.0537 71 12.9852 70.9863 12.9305 70.9589C12.8757 70.9179 12.8347 70.87 12.8073 70.8152C12.7799 70.7468 12.7594 70.6646 12.7457 70.5688C12.732 70.473 12.7251 70.3703 12.7251 70.2608C12.7251 70.1102 12.7388 69.987 12.7662 69.8912C12.7799 69.7817 12.821 69.6996 12.8894 69.6448C12.9442 69.5764 13.0263 69.5421 13.1358 69.5421V71ZM15.3534 58.8853V57.0373H16.955V58.8853H15.3534ZM22.1623 71V69.5421H24.6674V71H22.1623ZM20.5812 71V56.2776H22.1623V71H20.5812ZM24.6674 71V69.5421C24.7495 69.5421 24.8179 69.5627 24.8727 69.6037C24.9274 69.6311 24.9685 69.679 24.9959 69.7475C25.0233 69.8022 25.0438 69.8775 25.0575 69.9733C25.0712 70.0555 25.078 70.1513 25.078 70.2608C25.078 70.3703 25.0712 70.473 25.0575 70.5688C25.0438 70.6646 25.0233 70.7468 24.9959 70.8152C24.9685 70.87 24.9274 70.9179 24.8727 70.9589C24.8179 70.9863 24.7495 71 24.6674 71ZM24.6658 71V69.5421H35.8975L34.7066 70.384V65.9693C34.7066 65.0111 34.597 64.2582 34.378 63.7107C34.159 63.1631 33.7826 62.773 33.2487 62.5403C32.7285 62.3076 32.0167 62.1912 31.1132 62.1912C30.5383 62.1912 29.9634 62.2323 29.3884 62.3144C28.8272 62.3965 28.3891 62.506 28.0743 62.6429L29.0394 61.6573C28.9572 61.9859 28.8751 62.4034 28.793 62.9099C28.7108 63.4027 28.6424 63.9365 28.5876 64.5115C28.5329 65.0864 28.5055 65.6613 28.5055 66.2363C28.5055 66.8249 28.5329 67.3998 28.5876 67.9611C28.6424 68.5223 28.704 69.0083 28.7724 69.4189C28.8409 69.8296 28.8956 70.1171 28.9367 70.2813L27.4172 70.7125C27.3625 70.5346 27.294 70.2266 27.2119 69.7885C27.1434 69.3505 27.075 68.8235 27.0066 68.2075C26.9518 67.5915 26.9244 66.9344 26.9244 66.2363C26.9244 65.5655 26.9518 64.9153 27.0066 64.2856C27.075 63.6422 27.1503 63.0604 27.2324 62.5403C27.3282 62.0201 27.4172 61.6026 27.4994 61.2877C27.8005 61.1645 28.2796 61.0413 28.9367 60.9181C29.5938 60.7949 30.3193 60.7333 31.1132 60.7333C32.2631 60.7333 33.2213 60.9044 33.9879 61.2467C34.7682 61.5889 35.3499 62.1433 35.7332 62.9099C36.1165 63.6628 36.3082 64.6826 36.3082 65.9693V71H24.6658ZM24.6658 71C24.5836 71 24.5152 70.9863 24.4604 70.9589C24.4057 70.9179 24.3646 70.87 24.3372 70.8152C24.3098 70.7468 24.2893 70.6646 24.2756 70.5688C24.2619 70.473 24.2551 70.3703 24.2551 70.2608C24.2551 70.1102 24.2688 69.987 24.2962 69.8912C24.3098 69.7817 24.3509 69.6996 24.4194 69.6448C24.4741 69.5764 24.5562 69.5421 24.6658 69.5421V71ZM39.8112 71V56.2776H41.3922V71H39.8112ZM39.6469 54.9224C39.4279 54.6486 39.2568 54.3817 39.1336 54.1216C39.0241 53.8615 38.9693 53.5877 38.9693 53.3003C38.9693 52.9033 39.0651 52.5474 39.2568 52.2325C39.4621 51.9177 39.729 51.6713 40.0576 51.4933C40.3861 51.3154 40.742 51.2264 41.1253 51.2264C41.3443 51.2264 41.5634 51.2606 41.7824 51.3291C42.0014 51.3838 42.193 51.466 42.3573 51.5755L41.8234 52.4995C41.7139 52.431 41.6044 52.39 41.4949 52.3763C41.3991 52.3489 41.2964 52.3352 41.1869 52.3352C40.8721 52.3352 40.6188 52.4242 40.4272 52.6021C40.2492 52.7801 40.1602 53.0128 40.1602 53.3003C40.1602 53.4782 40.1945 53.6493 40.2629 53.8136C40.345 53.9779 40.4614 54.1558 40.612 54.3475L39.6469 54.9224ZM38.5792 54.9224V53.8341H42.6242V54.9224H38.5792ZM56.2436 71V60.7333H57.8452V70.1376L57.106 69.5421H60.0628V71H56.2436ZM51.8084 64.224V62.7456H56.2436V64.224H51.8084ZM48.0508 75.5379C47.8729 75.5379 47.6881 75.5242 47.4964 75.4968C47.2911 75.4831 47.0926 75.4694 46.9009 75.4557L47.0857 73.9979C47.2774 74.0116 47.4553 74.0252 47.6196 74.0389C47.7839 74.0663 47.9276 74.08 48.0508 74.08C48.6942 74.08 49.2144 73.8336 49.6113 73.3408C50.0083 72.8617 50.2068 72.1909 50.2068 71.3285V60.7333H51.8084V71.3285C51.8084 72.1636 51.6441 72.8959 51.3156 73.5256C51.0008 74.169 50.5627 74.6618 50.0015 75.004C49.4402 75.3599 48.79 75.5379 48.0508 75.5379ZM60.0628 71V69.5421C60.1449 69.5421 60.2134 69.5627 60.2681 69.6037C60.3229 69.6311 60.364 69.679 60.3913 69.7475C60.4187 69.8022 60.4393 69.8775 60.4529 69.9733C60.4666 70.0555 60.4735 70.1513 60.4735 70.2608C60.4735 70.3703 60.4666 70.473 60.4529 70.5688C60.4393 70.6646 60.4187 70.7468 60.3913 70.8152C60.364 70.87 60.3229 70.9179 60.2681 70.9589C60.2134 70.9863 60.1449 71 60.0628 71ZM56.3052 56.1749V54.4296H57.7836V56.1749H56.3052ZM54.8268 58.8853V57.0373H56.4284V58.8853H54.8268ZM57.6399 58.8853V57.0373H59.2415V58.8853H57.6399ZM60.0577 71V69.5421H70.3243L69.7494 70.0555V66.4005C69.7494 65.6613 69.6467 65.0522 69.4414 64.5731C69.2498 64.0803 68.9555 63.7175 68.5585 63.4848C68.1752 63.2384 67.6892 63.1152 67.1006 63.1152H62.6243L61.4539 61.3493L62.3369 59.6451C62.5011 59.3439 62.6723 59.0359 62.8502 58.7211C63.0282 58.4062 63.2472 58.0435 63.5073 57.6328C63.7674 57.2221 64.0959 56.7225 64.4929 56.1339L65.8275 56.9347C65.4306 57.537 65.1089 58.0366 64.8625 58.4336C64.6161 58.8306 64.4039 59.1728 64.2259 59.4603C64.0617 59.7477 63.9043 60.0352 63.7537 60.3227L62.727 62.2939L62.3163 61.6573H67.1006C67.963 61.6573 68.668 61.8079 69.2155 62.1091C69.7768 62.3965 70.208 62.7798 70.5091 63.2589C70.824 63.738 71.043 64.2582 71.1662 64.8195C71.2894 65.367 71.351 65.894 71.351 66.4005V71H60.0577ZM60.0577 71C59.9755 71 59.9071 70.9863 59.8523 70.9589C59.7976 70.9179 59.7565 70.87 59.7291 70.8152C59.7018 70.7468 59.6812 70.6646 59.6675 70.5688C59.6539 70.473 59.647 70.3703 59.647 70.2608C59.647 70.1102 59.6607 69.987 59.6881 69.8912C59.7018 69.7817 59.7428 69.6996 59.8113 69.6448C59.866 69.5764 59.9482 69.5421 60.0577 69.5421V71ZM73.7123 71V69.5421H83.7531L82.8497 70.4661V56.2776H84.4513V71H73.7123ZM76.9977 69.5421V59.1933H78.5787V69.5421H76.9977ZM76.8334 57.8176C76.6144 57.5438 76.4433 57.2769 76.3201 57.0168C76.2106 56.7567 76.1558 56.4829 76.1558 56.1955C76.1558 55.7985 76.2516 55.4426 76.4433 55.1277C76.6486 54.8129 76.9155 54.5665 77.2441 54.3885C77.5726 54.2106 77.9285 54.1216 78.3118 54.1216C78.5308 54.1216 78.7499 54.1558 78.9689 54.2243C79.1879 54.279 79.3795 54.3612 79.5438 54.4707L79.0099 55.3947C78.9004 55.3262 78.7909 55.2852 78.6814 55.2715C78.5856 55.2441 78.4829 55.2304 78.3734 55.2304C78.0586 55.2304 77.8053 55.3194 77.6137 55.4973C77.4357 55.6753 77.3467 55.908 77.3467 56.1955C77.3467 56.3734 77.381 56.5445 77.4494 56.7088C77.5315 56.8731 77.6479 57.051 77.7985 57.2427L76.8334 57.8176ZM75.7657 57.8176V56.7293H79.8107V57.8176H75.7657ZM88.0765 71V56.2776H89.6576V71H88.0765ZM110.69 71V69.5421H112.907V71H110.69ZM103.051 71C101.696 71 100.567 70.8426 99.6631 70.5277C98.7596 70.2129 98.082 69.7338 97.6303 69.0904C97.1786 68.447 96.9527 67.6257 96.9527 66.6264C96.9527 66.2979 96.9732 65.942 97.0143 65.5587C97.0691 65.1754 97.1307 64.8058 97.1991 64.4499C97.2676 64.0803 97.3292 63.7654 97.3839 63.5053C97.4387 63.2316 97.4729 63.0468 97.4866 62.9509L99.0471 63.2384C99.006 63.4574 98.9444 63.7586 98.8623 64.1419C98.7939 64.5252 98.7254 64.9358 98.657 65.3739C98.5885 65.8119 98.5543 66.2294 98.5543 66.6264C98.5543 67.1329 98.6296 67.5709 98.7802 67.9405C98.9444 68.3101 99.1977 68.6181 99.5399 68.8645C99.8958 69.0972 100.361 69.2684 100.936 69.3779C101.511 69.4874 102.216 69.5421 103.051 69.5421H109.827L109.088 70.1376V56.2776H110.69V71H103.051ZM112.907 71V69.5421C112.989 69.5421 113.058 69.5627 113.112 69.6037C113.167 69.6311 113.208 69.679 113.236 69.7475C113.263 69.8022 113.284 69.8775 113.297 69.9733C113.311 70.0555 113.318 70.1513 113.318 70.2608C113.318 70.3703 113.311 70.473 113.297 70.5688C113.284 70.6646 113.263 70.7468 113.236 70.8152C113.208 70.87 113.167 70.9179 113.112 70.9589C113.058 70.9863 112.989 71 112.907 71ZM102.866 63.8955C102.647 63.6217 102.476 63.3548 102.353 63.0947C102.243 62.8346 102.189 62.5608 102.189 62.2733C102.189 61.8764 102.285 61.5204 102.476 61.2056C102.682 60.8908 102.948 60.6444 103.277 60.4664C103.606 60.2884 103.961 60.1995 104.345 60.1995C104.564 60.1995 104.783 60.2337 105.002 60.3021C105.221 60.3569 105.412 60.439 105.577 60.5485L105.043 61.4725C104.933 61.4041 104.824 61.363 104.714 61.3493C104.618 61.322 104.516 61.3083 104.406 61.3083C104.091 61.3083 103.838 61.3972 103.647 61.5752C103.469 61.7532 103.38 61.9859 103.38 62.2733C103.38 62.4513 103.414 62.6224 103.482 62.7867C103.564 62.9509 103.681 63.1289 103.831 63.3205L102.866 63.8955ZM101.799 63.8955V62.8072H105.844V63.8955H101.799ZM116.734 71V69.5421H118.952V71H116.734ZM118.952 71V69.5421C119.034 69.5421 119.102 69.5627 119.157 69.6037C119.212 69.6311 119.253 69.679 119.28 69.7475C119.308 69.8022 119.328 69.8775 119.342 69.9733C119.356 70.0555 119.362 70.1513 119.362 70.2608C119.362 70.3703 119.356 70.473 119.342 70.5688C119.328 70.6646 119.308 70.7468 119.28 70.8152C119.253 70.87 119.212 70.9179 119.157 70.9589C119.102 70.9863 119.034 71 118.952 71ZM112.915 71C112.833 71 112.764 70.9863 112.71 70.9589C112.655 70.9179 112.614 70.87 112.586 70.8152C112.559 70.7468 112.539 70.6646 112.525 70.5688C112.511 70.473 112.504 70.3703 112.504 70.2608C112.504 70.1102 112.518 69.987 112.545 69.8912C112.559 69.7817 112.6 69.6996 112.669 69.6448C112.723 69.5764 112.805 69.5421 112.915 69.5421V71ZM112.915 71V69.5421H115.872L115.133 70.1376V60.7333H116.734V71H112.915ZM113.736 58.8853V57.0373H115.338V58.8853H113.736ZM116.549 58.8853V57.0373H118.151V58.8853H116.549ZM134.248 71V69.5421H136.466V71H134.248ZM118.951 71C118.869 71 118.8 70.9863 118.745 70.9589C118.691 70.9179 118.649 70.87 118.622 70.8152C118.595 70.7468 118.574 70.6646 118.561 70.5688C118.547 70.473 118.54 70.3703 118.54 70.2608C118.54 70.1102 118.554 69.987 118.581 69.8912C118.595 69.7817 118.636 69.6996 118.704 69.6448C118.759 69.5764 118.841 69.5421 118.951 69.5421V71ZM118.951 71V69.5421H134.125L132.646 70.8768V66.0515C132.646 65.1891 132.523 64.4772 132.277 63.916C132.044 63.3411 131.688 62.9099 131.209 62.6224C130.744 62.3349 130.155 62.1912 129.443 62.1912C128.841 62.1912 128.28 62.2939 127.759 62.4992C127.253 62.6908 126.781 62.9509 126.343 63.2795C125.905 63.5943 125.494 63.9502 125.111 64.3472C124.741 64.7305 124.399 65.1206 124.084 65.5176C123.769 65.9146 123.482 66.2773 123.222 66.6059L122.708 65.148C123.05 64.7236 123.393 64.2993 123.735 63.8749C124.091 63.4506 124.46 63.0536 124.844 62.684C125.227 62.3007 125.645 61.9653 126.096 61.6779C126.562 61.3904 127.068 61.1645 127.616 61.0003C128.163 60.8223 128.779 60.7333 129.464 60.7333C130.436 60.7333 131.23 60.8976 131.846 61.2261C132.475 61.5547 132.961 61.9927 133.303 62.5403C133.659 63.0741 133.906 63.6491 134.043 64.2651C134.18 64.8811 134.248 65.4765 134.248 66.0515V71H118.951ZM121.866 69.5421V60.7333H123.468V69.5421H121.866ZM136.466 71V69.5421C136.548 69.5421 136.616 69.5627 136.671 69.6037C136.726 69.6311 136.767 69.679 136.794 69.7475C136.821 69.8022 136.842 69.8775 136.856 69.9733C136.869 70.0555 136.876 70.1513 136.876 70.2608C136.876 70.3703 136.869 70.473 136.856 70.5688C136.842 70.6646 136.821 70.7468 136.794 70.8152C136.767 70.87 136.726 70.9179 136.671 70.9589C136.616 70.9863 136.548 71 136.466 71ZM140.275 71V69.5421H142.493V71H140.275ZM136.456 71C136.374 71 136.306 70.9863 136.251 70.9589C136.196 70.9179 136.155 70.87 136.128 70.8152C136.1 70.7468 136.08 70.6646 136.066 70.5688C136.052 70.473 136.045 70.3703 136.045 70.2608C136.045 70.1102 136.059 69.987 136.087 69.8912C136.1 69.7817 136.141 69.6996 136.21 69.6448C136.264 69.5764 136.347 69.5421 136.456 69.5421V71ZM136.456 71V69.5421H139.413L138.674 70.1376V60.7333H140.275V71H136.456ZM142.493 71V69.5421C142.575 69.5421 142.643 69.5627 142.698 69.6037C142.753 69.6311 142.794 69.679 142.821 69.7475C142.849 69.8022 142.869 69.8775 142.883 69.9733C142.897 70.0555 142.904 70.1513 142.904 70.2608C142.904 70.3703 142.897 70.473 142.883 70.5688C142.869 70.6646 142.849 70.7468 142.821 70.8152C142.794 70.87 142.753 70.9179 142.698 70.9589C142.643 70.9863 142.575 71 142.493 71ZM138.674 58.8853V57.0373H140.275V58.8853H138.674ZM142.492 71V69.5421H153.724L152.533 70.384V65.9693C152.533 65.0111 152.423 64.2582 152.204 63.7107C151.985 63.1631 151.609 62.773 151.075 62.5403C150.555 62.3076 149.843 62.1912 148.939 62.1912C148.364 62.1912 147.789 62.2323 147.214 62.3144C146.653 62.3965 146.215 62.506 145.9 62.6429L146.865 61.6573C146.783 61.9859 146.701 62.4034 146.619 62.9099C146.537 63.4027 146.468 63.9365 146.414 64.5115C146.359 65.0864 146.332 65.6613 146.332 66.2363C146.332 66.8249 146.359 67.3998 146.414 67.9611C146.468 68.5223 146.53 69.0083 146.598 69.4189C146.667 69.8296 146.722 70.1171 146.763 70.2813L145.243 70.7125C145.189 70.5346 145.12 70.2266 145.038 69.7885C144.969 69.3505 144.901 68.8235 144.833 68.2075C144.778 67.5915 144.75 66.9344 144.75 66.2363C144.75 65.5655 144.778 64.9153 144.833 64.2856C144.901 63.6422 144.976 63.0604 145.058 62.5403C145.154 62.0201 145.243 61.6026 145.325 61.2877C145.627 61.1645 146.106 61.0413 146.763 60.9181C147.42 60.7949 148.145 60.7333 148.939 60.7333C150.089 60.7333 151.047 60.9044 151.814 61.2467C152.594 61.5889 153.176 62.1433 153.559 62.9099C153.943 63.6628 154.134 64.6826 154.134 65.9693V71H142.492ZM142.492 71C142.41 71 142.341 70.9863 142.286 70.9589C142.232 70.9179 142.191 70.87 142.163 70.8152C142.136 70.7468 142.115 70.6646 142.102 70.5688C142.088 70.473 142.081 70.3703 142.081 70.2608C142.081 70.1102 142.095 69.987 142.122 69.8912C142.136 69.7817 142.177 69.6996 142.245 69.6448C142.3 69.5764 142.382 69.5421 142.492 69.5421V71Z" fill="#06101C"/>
<path d="M167.421 28.9333L163.388 17.2H184.875C189.91 17.2 193.968 17.9822 197.048 19.5467C200.128 21.0622 202.377 23.6778 203.795 27.3933C205.212 31.06 205.921 36.12 205.921 42.5733C205.921 49.4667 205.237 54.9178 203.868 58.9267C202.499 62.8867 200.299 65.7222 197.268 67.4333C194.286 69.0956 190.326 69.9511 185.388 70V58.12C187.246 57.7289 188.566 56.3844 189.348 54.0867C190.13 51.7889 190.521 47.9511 190.521 42.5733C190.521 38.9067 190.326 36.0956 189.935 34.14C189.544 32.1356 188.884 30.7667 187.955 30.0333C187.026 29.3 185.706 28.9333 183.995 28.9333H167.421ZM167.421 70V32.6H181.721V70H167.421ZM225.12 45.8V60.32H225.853C228.298 60.32 230.082 59.88 231.206 59C232.38 58.0711 232.966 56.4578 232.966 54.16C232.966 52.0578 232.404 50.42 231.28 49.2467C233.529 48.7578 235.582 48.1222 237.44 47.34C239.298 46.5578 240.862 45.5311 242.133 44.26C244.186 45.4822 245.653 47.0467 246.533 48.9533C247.413 50.8111 247.853 53.1089 247.853 55.8467C247.853 60.3933 246.191 63.8889 242.866 66.3333C239.542 68.7778 234.482 70 227.686 70H210.82V30.9133H225.12V38.9067H225.78C227.98 38.9067 229.569 38.4911 230.546 37.66C231.573 36.78 232.086 35.2644 232.086 33.1133C232.086 30.9133 231.573 29.3978 230.546 28.5667C229.569 27.6867 227.98 27.2467 225.78 27.2467H210.82L206.786 17.2H228.786C234.702 17.2 239.004 18.4222 241.693 20.8667C244.382 23.3111 245.726 26.7333 245.726 31.1333C245.726 33.92 245.091 36.2667 243.82 38.1733C242.598 40.0311 240.96 41.5222 238.906 42.6467C236.853 43.7711 234.629 44.5778 232.233 45.0667C229.838 45.5556 227.466 45.8 225.12 45.8Z" fill="#06101C"/>
</svg>
