<svg width="20" height="15" viewBox="0 0 20 15" fill="none" xmlns="http://www.w3.org/2000/svg">
<g clip-path="url(#clip0_243_50)">
<mask id="mask0_243_50" style="mask-type:luminance" maskUnits="userSpaceOnUse" x="0" y="0" width="20" height="15">
<path d="M0.000976562 0H19.999V15H0.000976562V0Z" fill="white"/>
</mask>
<g mask="url(#mask0_243_50)">
<path fill-rule="evenodd" clip-rule="evenodd" d="M-1.25 0H21.25V15H-1.25V0Z" fill="#165D31"/>
<path fill-rule="evenodd" clip-rule="evenodd" d="M4.41915 4.25094C4.39571 4.6025 4.36055 5.21774 4.66231 5.28219C5.02266 5.31735 4.82345 4.67282 4.95528 4.55563C4.97872 4.49703 5.02266 4.49703 5.02559 4.57028V5.11813C5.02559 5.29391 5.14278 5.34664 5.23067 5.3818C5.32442 5.37594 5.38888 5.3818 5.42403 5.46969L5.47091 6.41598C5.47091 6.41598 5.6877 6.48043 5.69942 5.88571C5.70821 5.53414 5.62911 5.2441 5.67598 5.17672C5.67598 5.10934 5.76388 5.10641 5.82247 5.13864C5.91622 5.20309 5.95723 5.28512 6.10372 5.25582C6.32638 5.19137 6.46114 5.08297 6.46407 4.91305C6.45967 4.74606 6.42493 4.58127 6.36153 4.42672C6.37325 4.39742 6.32052 4.31832 6.33223 4.28903C6.37032 4.35348 6.43184 4.34762 6.44356 4.28903C6.40548 4.16598 6.34688 4.04586 6.25313 3.99606C6.17403 3.92574 6.05684 3.93746 6.01876 4.08395C5.99532 4.25094 6.07735 4.44723 6.19747 4.61129C6.22384 4.67282 6.25899 4.77828 6.24434 4.87203C6.17794 4.90719 6.11641 4.89547 6.05977 4.83688C6.05977 4.83688 5.88399 4.70504 5.88399 4.67282C5.93087 4.37399 5.89278 4.33883 5.86641 4.25387C5.84884 4.13961 5.79317 4.10153 5.74923 4.02535C5.70528 3.97848 5.64669 3.97848 5.61739 4.02535C5.53829 4.16012 5.57638 4.45016 5.63204 4.58199C5.67305 4.70211 5.73458 4.77828 5.70528 4.77828C5.68184 4.84567 5.63204 4.82809 5.59395 4.74899C5.55121 4.58249 5.53053 4.4111 5.53243 4.23922C5.51778 4.10446 5.5002 3.81735 5.40938 3.74117C5.35665 3.67086 5.27755 3.70602 5.24825 3.77047C5.24046 3.90135 5.2434 4.03265 5.25704 4.16305C5.31563 4.37985 5.33614 4.57321 5.36544 4.79293C5.37423 5.08883 5.19552 4.92184 5.2043 4.77242C5.24274 4.58459 5.23974 4.39063 5.19552 4.20407C5.16622 4.12789 5.13399 4.11032 5.06075 4.12203C5.00509 4.12203 4.86153 4.27731 4.82052 4.54098C4.82052 4.54098 4.78536 4.67574 4.77071 4.79586C4.7502 4.93063 4.66231 5.03024 4.59786 4.77828C4.54512 4.59371 4.50997 4.14547 4.42208 4.25094H4.41915Z" fill="white"/>
<path fill-rule="evenodd" clip-rule="evenodd" d="M5.40039 5.68945L4.46289 6.14062C4.47168 5.92676 4.90527 5.54297 5.2041 5.54004C5.39453 5.54297 5.34766 5.61328 5.39746 5.68945H5.40039Z" fill="white"/>
<path fill-rule="evenodd" clip-rule="evenodd" d="M5.2332 5.98245C4.74101 7.25687 6.39042 7.43558 6.57499 6.03519C6.59257 5.97659 6.66288 5.92093 6.6746 6.01468C6.63652 7.28323 5.39726 7.3682 5.18632 6.96976C5.13676 6.83264 5.11196 6.68782 5.11308 6.54202C5.08378 6.293 4.95195 6.38968 4.93144 6.63577C4.91093 6.77347 4.91679 6.81155 4.91679 6.94339C4.98124 7.94534 6.57792 7.51468 6.83867 6.68851C6.97636 6.23148 6.81523 5.89456 6.88847 5.89456C7.04667 6.06448 7.26933 5.918 7.31913 5.85941C7.33964 5.83011 7.39238 5.8096 7.42753 5.84769C7.55058 5.93558 7.76738 5.89456 7.81425 5.73929C7.84159 5.58304 7.85917 5.42484 7.86699 5.26468C7.76445 5.29398 7.6912 5.31448 7.68242 5.35843L7.66191 5.4932C7.65312 5.53714 7.56816 5.53714 7.5623 5.48148C7.52421 5.3057 7.36601 5.28519 7.26933 5.55472C7.20781 5.60745 7.09062 5.61917 7.0789 5.54007C7.09355 5.35843 7.02031 5.33499 6.87382 5.41995L6.7332 4.35941C6.79179 4.35941 6.85038 4.40335 6.90605 4.33304C6.84745 4.14261 6.71562 3.75589 6.64238 3.72659C6.61015 3.68558 6.58085 3.71195 6.53398 3.72366C6.45781 3.7471 6.38749 3.81155 6.41093 3.94046C6.49882 4.49124 6.55742 4.91019 6.64824 5.4639C6.66288 5.52542 6.61015 5.61038 6.53984 5.60159C6.42265 5.52249 6.39335 5.36136 6.18827 5.36722C6.04179 5.36722 5.87773 5.52835 5.85722 5.6807C5.83085 5.80374 5.82206 5.93558 5.85722 6.04105C5.95976 6.16409 6.08281 6.15238 6.1912 6.12601C6.2791 6.08792 6.35234 6.00003 6.38456 6.02054C6.40507 6.04691 6.38749 6.33988 5.96562 6.56253C5.71074 6.67972 5.50566 6.70316 5.39726 6.49515C5.32988 6.36331 5.40312 5.8682 5.2332 5.98245Z" fill="white"/>
<path fill-rule="evenodd" clip-rule="evenodd" d="M7.33381 4.68752C7.43049 4.65237 7.89924 4.11331 7.89924 4.11331L7.82892 4.05471C7.80353 4.03323 7.80353 4.01174 7.82892 3.99026C7.94611 3.91995 7.90802 3.77346 7.84943 3.70315C7.80947 3.68441 7.76579 3.67493 7.72165 3.67544C7.67752 3.67595 7.63407 3.68642 7.59455 3.70608C7.51252 3.78518 7.49494 3.91116 7.55939 3.98733C7.62091 4.01663 7.68244 4.08108 7.64142 4.11624C7.44806 4.32131 6.92365 4.67581 6.98517 4.68752C6.99689 4.7051 7.32209 4.7051 7.33088 4.68752H7.33381ZM4.49201 6.59182C4.31623 6.87307 4.30158 7.29202 4.39826 7.41799C4.45099 7.47659 4.53595 7.50295 4.59748 7.48245C4.70881 7.43557 4.75861 7.20999 4.73224 7.13088C4.69709 7.07229 4.66193 7.06545 4.62677 7.11038C4.5506 7.26858 4.51838 7.16018 4.50959 7.07229C4.50119 6.92344 4.50905 6.77412 4.53302 6.62698C4.55353 6.50393 4.53302 6.53909 4.49201 6.59182ZM12.0242 6.14358C11.8543 5.77444 11.617 5.41116 11.5438 5.27346C11.3154 4.91254 11.0731 4.56071 10.8172 4.21877C10.6356 4.00198 11.116 4.30959 10.7586 3.876L10.4979 3.65627C10.4393 3.61526 10.2986 3.53909 10.2752 3.66213C10.2635 3.77346 10.2694 3.83206 10.2869 3.92288C10.3016 3.98147 10.3895 4.08401 10.4334 4.1426C11.034 4.93815 11.5616 5.78632 12.0096 6.67678C12.0858 6.6387 12.0682 6.2051 12.0242 6.14358Z" fill="white"/>
<path fill-rule="evenodd" clip-rule="evenodd" d="M11.2778 7.3682C11.2426 7.40628 11.3598 7.56742 11.5121 7.56742C11.7641 7.53812 11.9867 7.39749 12.1918 7.02249C12.2752 6.89775 12.3283 6.75532 12.3471 6.60648C12.3719 5.89527 12.3149 5.18357 12.1772 4.48539C12.1684 4.42679 12.1772 4.35648 12.183 4.3389C12.2006 4.31839 12.2563 4.3389 12.2856 4.2891C12.3295 4.24515 12.1684 3.87894 12.0805 3.74124C12.0512 3.67679 12.0366 3.63578 11.9838 3.7471C11.9202 3.86995 11.8899 4.00733 11.8959 4.14554C12.016 4.9805 12.0541 5.70999 12.1303 6.54496C12.1391 6.62699 12.1274 6.74417 12.0717 6.79105C11.8508 7.03731 11.5802 7.23401 11.2778 7.3682ZM14.6908 7.36527C14.5092 7.47074 14.5092 7.59085 14.6557 7.59378C14.9076 7.56449 15.2065 7.54398 15.4116 7.23343C15.484 7.08716 15.5259 6.92767 15.5346 6.76468C15.5715 6.06442 15.5253 5.36226 15.3969 4.67289C15.391 4.61429 15.3647 4.4766 15.3735 4.45902C15.391 4.418 15.4731 4.46195 15.5024 4.41507C15.5434 4.37113 15.2885 4.043 15.1977 3.90238C15.1684 3.83792 15.1567 3.79691 15.101 3.90824C15.0414 4.03203 15.0229 4.17164 15.0483 4.30667C15.183 5.21488 15.2826 5.89456 15.3032 6.6973C15.2914 6.77347 15.2885 6.81449 15.2533 6.91117C15.1742 7.01078 15.0864 7.13968 15.0043 7.20121C14.9223 7.2598 14.7465 7.31839 14.6908 7.36527Z" fill="white"/>
<path fill-rule="evenodd" clip-rule="evenodd" d="M14.8255 6.55372C14.8274 6.34082 14.8264 6.15528 14.8225 5.99707C14.8206 5.86061 14.7907 5.72599 14.7346 5.60157C14.6819 5.48145 14.7141 5.38477 14.6878 5.25586C14.6643 5.12696 14.6702 4.9336 14.635 4.78418C14.6233 4.72559 14.594 4.53516 14.6028 4.51465C14.6175 4.47364 14.6731 4.51465 14.7024 4.46778C14.7434 4.42383 14.5559 3.94043 14.4622 3.80274C14.43 3.74122 14.3655 3.76172 14.2923 3.86133C14.219 3.92872 14.2454 4.07813 14.2747 4.22168C14.4534 5.16797 14.5911 6.02637 14.5618 6.92579C14.5501 7.00196 14.8255 6.69727 14.8255 6.55372ZM13.4866 5.38184C13.3723 5.37598 13.135 5.15625 13.0647 5.03028C13.0532 4.99949 13.0483 4.96662 13.0503 4.93382C13.0524 4.90101 13.0612 4.86899 13.0764 4.83985C13.1204 4.81055 13.1848 4.78125 13.2346 4.81055C13.2346 4.81055 13.2845 4.88086 13.2757 4.88965C13.3343 4.91895 13.3636 4.9043 13.3694 4.87793C13.3723 4.83399 13.3518 4.80762 13.3518 4.76075C13.3782 4.62598 13.5276 4.60547 13.5862 4.69043C13.6272 4.74317 13.6448 4.85157 13.6477 4.92481C13.6477 4.9629 13.5891 4.91895 13.5511 4.92481C13.5188 4.93653 13.51 4.97754 13.5071 5.0127C13.5013 5.10938 13.4895 5.26465 13.4866 5.37891V5.38184ZM11.3831 6.78809C11.4124 6.50098 11.3714 5.98829 11.3684 5.81836C11.3528 5.38136 11.3166 4.94533 11.26 4.51172C11.2249 4.26563 11.3596 4.53809 11.3421 4.39454C11.2981 4.15137 11.1634 3.98438 11.0022 3.76465C10.9524 3.69141 10.9524 3.67676 10.8733 3.78223C10.7854 3.97852 10.8616 4.11622 10.885 4.27149C10.9993 4.7754 11.0667 5.23829 11.0989 5.69825C11.1327 6.17605 11.1366 6.6555 11.1106 7.13379C11.1985 7.13672 11.3333 6.9961 11.3831 6.78809Z" fill="white"/>
<path fill-rule="evenodd" clip-rule="evenodd" d="M15.2149 6.32811C15.0128 5.98827 14.711 5.62499 14.629 5.48729C14.3573 5.10792 14.072 4.73854 13.7735 4.37987C13.5245 4.1162 13.8907 4.33593 13.7266 4.13085C13.5889 3.98143 13.5509 3.93163 13.4307 3.84081C13.3721 3.80272 13.337 3.72948 13.3135 3.85546C13.3042 3.96458 13.3022 4.0742 13.3077 4.18358C13.3077 4.23339 13.3604 4.33007 13.4073 4.38866C14.0137 5.13573 14.6788 5.89745 15.212 6.85546C15.2882 6.81737 15.2618 6.38671 15.212 6.32811H15.2149Z" fill="white"/>
<path fill-rule="evenodd" clip-rule="evenodd" d="M6.09138 5.70409C6.07673 5.73045 6.04451 5.76268 6.05623 5.79491C6.07576 5.82225 6.10115 5.83495 6.1324 5.83299C6.16462 5.83299 6.2115 5.84178 6.22029 5.8242C6.23982 5.80077 6.24568 5.76854 6.23787 5.72752C6.20271 5.63963 6.10896 5.67479 6.09138 5.70409Z" fill="#165D31"/>
<path fill-rule="evenodd" clip-rule="evenodd" d="M12.877 10.6202C13.1465 10.6319 13.3223 10.6348 13.5596 10.6612L13.8408 10.6319C14.1514 10.6026 14.1631 11.0743 14.1631 11.0743C14.1631 11.3526 14.0547 11.3672 13.917 11.3965C13.8379 11.4082 13.7998 11.3497 13.7559 11.2911C13.6896 11.3123 13.619 11.3163 13.5508 11.3028C13.4375 11.2989 13.3252 11.294 13.2139 11.2881C13.0967 11.2793 13.0322 11.3028 12.9121 11.2911C12.8887 11.3291 12.8535 11.3819 12.7832 11.3672C12.7246 11.3584 12.6514 11.1914 12.6719 11.0596C12.7158 10.9659 12.7012 10.9981 12.7012 10.9571C11.5996 10.9278 10.4893 10.878 9.41113 10.8926C8.56738 10.8956 7.73535 10.9307 6.90039 10.9659C6.45508 10.96 6.11523 10.8897 5.88086 10.5469C5.9043 10.5469 7.01758 10.6084 7.34277 10.5879C7.94336 10.5821 8.49414 10.5323 9.10645 10.5147C10.3135 10.5352 11.5117 10.5352 12.7187 10.6202C12.6016 10.5411 12.6016 10.3565 12.7773 10.3096C12.792 10.2979 12.8008 10.4004 12.8271 10.3975C12.9707 10.3887 12.9062 10.5821 12.877 10.6202ZM8.02539 3.96391C7.84375 4.48539 8.13086 5.05961 8.33008 5.00395C8.47656 5.06254 8.56445 4.78715 8.62305 4.48832C8.66699 4.40336 8.69629 4.39457 8.7168 4.43852C8.71094 4.83696 8.74609 4.92778 8.84863 5.04789C9.07715 5.22368 9.26758 5.07133 9.28223 5.05668L9.45801 4.87797C9.50098 4.835 9.55078 4.83207 9.60742 4.86918C9.66309 4.91899 9.6543 5.00395 9.77148 5.06254C9.87109 5.10356 10.0791 5.07426 10.1289 4.9893C10.1934 4.87504 10.2109 4.83696 10.2402 4.79594C10.2871 4.73442 10.3662 4.76078 10.3662 4.78129C10.3574 4.81645 10.3105 4.84868 10.3428 4.91313C10.4014 4.95414 10.4131 4.92778 10.4453 4.91899C10.5625 4.86039 10.6504 4.60844 10.6504 4.60844C10.6533 4.51469 10.6006 4.52055 10.5654 4.54399L10.4746 4.60551C10.416 4.6143 10.3076 4.65239 10.252 4.56743C10.1963 4.46782 10.1963 4.32426 10.1553 4.22172C10.1553 4.21586 10.0791 4.06059 10.1494 4.0518C10.1846 4.05766 10.2578 4.07817 10.2695 4.01664C10.3047 3.95512 10.1934 3.78227 10.1143 3.69438C10.0469 3.62114 9.95312 3.61235 9.8623 3.68852C9.79785 3.74711 9.80664 3.81157 9.79492 3.87309C9.78428 3.91721 9.78403 3.9632 9.7942 4.00743C9.80437 4.05166 9.82467 4.09293 9.85352 4.12797C9.91797 4.25102 10.0322 4.41215 9.99414 4.64067C9.99414 4.64067 9.92676 4.74614 9.80957 4.73149C9.75977 4.7227 9.68066 4.70219 9.63965 4.38578C9.60742 4.15141 9.64551 3.81743 9.5459 3.66215C9.50781 3.56547 9.48145 3.47465 9.39355 3.63578C9.37012 3.70024 9.26758 3.79692 9.34082 3.99321C9.41013 4.17009 9.43037 4.36241 9.39941 4.54985C9.35547 4.6143 9.34668 4.63481 9.29102 4.69633C9.21484 4.78422 9.12988 4.76078 9.06543 4.72856C9.00684 4.69047 8.95996 4.66996 8.93066 4.53813C8.93652 4.33305 8.94824 3.99614 8.91016 3.92582C8.85449 3.8145 8.76367 3.85551 8.72559 3.89067C8.5517 4.08454 8.43506 4.32288 8.38867 4.57914C8.33594 4.74907 8.28027 4.69926 8.24219 4.63188C8.14844 4.54399 8.13965 3.84965 8.02539 3.96391Z" fill="white"/>
<path fill-rule="evenodd" clip-rule="evenodd" d="M8.57572 5.10053C8.66068 5.04194 8.62259 5.00092 8.74564 5.12397C8.90446 5.40499 8.99667 5.7187 9.01517 6.04096C9.00931 6.11713 9.06205 6.16401 9.08841 6.14643C9.10013 5.97065 9.5308 5.72456 9.9263 5.6894C9.9849 5.67475 9.9556 5.56049 9.96439 5.5019C9.94095 5.28217 10.0874 5.08296 10.2925 5.06831C10.5738 5.10932 10.6675 5.25874 10.6734 5.48432C10.6411 5.92378 10.1841 5.99702 9.92923 6.03217C9.89115 6.04682 9.87357 6.0644 9.92923 6.08491L11.0015 6.09077L11.0572 6.12006C11.063 6.14936 11.0396 6.12592 10.9986 6.19624C10.94 6.30003 10.9031 6.41466 10.8902 6.53315C10.5708 6.63862 10.2398 6.67963 9.9058 6.72358C9.78861 6.78217 9.73001 6.86128 9.75345 6.94917C9.79447 7.04585 10.0523 7.14546 10.0523 7.14838C10.1021 7.17768 10.1577 7.25092 10.0376 7.40034C9.51615 7.3769 9.10892 7.15424 8.9683 6.84077C8.92728 6.80854 8.88041 6.84077 8.85111 6.88178C8.64603 7.14546 8.44681 7.37983 8.09818 7.50874C7.8931 7.56147 7.67923 7.47651 7.57962 7.34174C7.51224 7.26264 7.51517 7.17768 7.49173 7.1601C7.37748 7.20991 6.41068 7.62006 6.53373 7.4267C6.7681 7.17768 7.17826 6.99018 7.53568 6.74409C7.56205 6.65913 7.60892 6.37788 7.74955 6.28706C7.75833 6.28706 7.72904 6.45112 7.73197 6.52143C7.73197 6.58003 7.72611 6.60053 7.73783 6.58589C7.76419 6.57124 8.19779 6.22846 8.23587 6.12299C8.27689 6.0644 8.24466 5.91206 8.24466 5.9062C8.16263 5.69526 8.04837 5.67768 8.00736 5.57221C7.96927 5.43452 7.98685 5.27631 8.06595 5.22944C8.13822 5.16889 8.21537 5.17378 8.2974 5.24409C8.38529 5.32319 8.46146 5.47846 8.4849 5.59272C8.47025 5.63667 8.36771 5.56342 8.33841 5.58393C8.3948 5.64873 8.4323 5.72778 8.44681 5.81245C8.50541 6.05268 8.48783 6.14643 8.42923 6.30171C8.23587 6.70893 7.98978 6.82905 7.77298 6.98139C7.76712 6.98139 7.76419 7.08393 7.8433 7.1396C7.87259 7.16889 7.98685 7.18354 8.11869 7.1396C8.39978 6.98245 8.62734 6.74469 8.77201 6.45698C8.7969 6.23765 8.77289 6.01553 8.70169 5.80659C8.61673 5.6103 8.51712 5.33198 8.51712 5.32612C8.51419 5.20307 8.52298 5.16206 8.57572 5.10053ZM5.76908 3.96967C5.89212 4.02827 6.1265 4.0019 6.11478 3.80268L6.10892 3.71186C6.08548 3.65327 6.01517 3.66792 6.00052 3.72651C5.99466 3.74702 6.00931 3.77924 5.99173 3.78803C5.98001 3.79975 5.94193 3.79389 5.94193 3.73823C5.93998 3.7187 5.93314 3.70307 5.92142 3.69135C5.91751 3.68745 5.90873 3.68549 5.89505 3.68549C5.87748 3.68549 5.87748 3.68842 5.86869 3.70307C5.86478 3.71674 5.86185 3.73237 5.8599 3.74995C5.85794 3.76753 5.85013 3.77729 5.83646 3.77924C5.81888 3.77924 5.82181 3.77924 5.80716 3.77338C5.79935 3.76753 5.79447 3.75776 5.79251 3.74409L5.78373 3.69721C5.77787 3.6894 5.7681 3.68354 5.75443 3.67963C5.68705 3.67963 5.68119 3.75874 5.68705 3.78803C5.68119 3.79389 5.67826 3.93159 5.76908 3.96967Z" fill="white"/>
<path fill-rule="evenodd" clip-rule="evenodd" d="M9.38774 5.499C9.51079 5.55759 9.80668 5.52537 9.73344 5.33494L9.72758 5.24119C9.70122 5.18259 9.63383 5.19724 9.61918 5.25876C9.61332 5.27634 9.62797 5.30857 9.60747 5.31736C9.59868 5.32908 9.55766 5.32322 9.56059 5.27048C9.55864 5.25095 9.5518 5.23435 9.54008 5.22068C9.53422 5.21677 9.52446 5.21482 9.51079 5.21482C9.49614 5.21482 9.49614 5.22068 9.48735 5.23533C9.48149 5.249 9.47856 5.26462 9.47856 5.2822C9.47465 5.29783 9.46586 5.30759 9.45219 5.3115C9.43754 5.3115 9.44047 5.3115 9.42875 5.30271C9.41899 5.29685 9.41313 5.28806 9.41118 5.27634L9.40239 5.22947C9.39653 5.2197 9.38676 5.21384 9.37309 5.21189C9.30571 5.21189 9.29985 5.28806 9.30278 5.31736C9.29985 5.32322 9.29692 5.46384 9.39067 5.499H9.38774ZM11.4971 4.86619C11.6202 4.92478 11.8516 4.89841 11.8428 4.70212L11.837 4.60837C11.8106 4.54978 11.7432 4.56443 11.7286 4.62302C11.7227 4.64353 11.7373 4.67576 11.7168 4.68747C11.7081 4.69626 11.667 4.6904 11.67 4.63474C11.668 4.61521 11.6612 4.59958 11.6495 4.58787C11.6436 4.58396 11.6338 4.58201 11.6202 4.58201C11.6065 4.58201 11.5987 4.58884 11.5967 4.60251L11.5879 4.64646C11.586 4.66599 11.5772 4.67576 11.5616 4.67576C11.5381 4.67576 11.5498 4.67576 11.5381 4.6699C11.5284 4.66404 11.5225 4.65525 11.5206 4.64353C11.5206 4.624 11.5176 4.6074 11.5118 4.59373C11.5039 4.58591 11.4942 4.58103 11.4825 4.57908C11.4151 4.57908 11.4092 4.65525 11.4122 4.68455C11.4092 4.6904 11.4063 4.8281 11.5 4.86619H11.4971ZM12.5899 6.45701C12.376 6.70017 12.4698 7.10154 12.5196 7.18943C12.5899 7.33005 12.6456 7.42087 12.7832 7.49119C12.9092 7.58201 13.0088 7.52634 13.0616 7.46189C13.1875 7.33005 13.1905 6.99314 13.2491 6.92869C13.2901 6.80564 13.3956 6.82615 13.4454 6.88181C13.4924 6.94754 13.5547 7.00083 13.627 7.03708C13.7442 7.13962 13.8848 7.16013 14.0254 7.06638C14.1192 7.01072 14.1807 6.94333 14.2364 6.80564C14.295 6.64158 14.2657 5.87986 14.251 5.42869L14.128 4.7988C14.128 4.79294 14.1133 4.49998 14.0987 4.43259C14.0987 4.4033 14.0899 4.39451 14.1192 4.39744C14.1514 4.42673 14.1543 4.42673 14.1778 4.43552C14.2071 4.44138 14.2364 4.38572 14.2159 4.33884L13.9229 3.79392C13.8995 3.77048 13.8672 3.74705 13.8291 3.79978C13.8062 3.81975 13.788 3.84456 13.7758 3.87243C13.7637 3.9003 13.7579 3.93052 13.7588 3.96091C13.7706 4.09177 13.7832 4.22165 13.7969 4.35056L13.9141 5.01267C13.9522 5.48142 13.961 5.86814 13.9991 6.33982C13.9932 6.53904 13.9317 6.71189 13.8731 6.73826C13.8731 6.73826 13.7852 6.78806 13.7266 6.7324C13.6827 6.71482 13.5098 6.44236 13.5098 6.44236C13.4219 6.36326 13.3633 6.38376 13.3018 6.44236C13.126 6.61228 13.0498 6.92283 12.9297 7.13962C12.9004 7.18943 12.8125 7.22751 12.7188 7.13669C12.4786 6.80564 12.6192 6.33689 12.5899 6.45701ZM11.5528 3.71189C11.6641 3.75583 11.7403 3.98142 11.7168 4.09275C11.6934 4.22458 11.6348 4.37107 11.5938 4.35349C11.5469 4.33591 11.6231 4.21873 11.5791 4.09568C11.5557 4.01365 11.4034 3.86716 11.4209 3.82615C11.3916 3.73533 11.4854 3.69431 11.5528 3.70896V3.71189Z" fill="white"/>
<path fill-rule="evenodd" clip-rule="evenodd" d="M12.9475 6.59178C12.968 6.32225 12.9299 6.15819 12.924 5.99999C12.9182 5.84178 12.7453 4.63475 12.7102 4.51757C12.6662 4.28905 12.8772 4.48827 12.8537 4.3535C12.7805 4.18944 12.6018 3.94628 12.5461 3.80272C12.5109 3.74413 12.5256 3.68553 12.4494 3.78807C12.3835 3.96778 12.3604 4.16039 12.382 4.35057C12.5637 5.29686 12.7482 6.08202 12.7189 6.98143C12.8068 6.98143 12.9035 6.78514 12.9475 6.59178ZM14.8342 4.09276C14.9367 4.14257 14.9953 4.42382 14.9836 4.50292C14.9631 4.6494 14.9104 4.8076 14.8723 4.7871C14.8283 4.76952 14.8811 4.5703 14.8605 4.50878C14.8371 4.42089 14.6994 4.26268 14.7141 4.21581C14.6848 4.1162 14.7727 4.07518 14.8342 4.09276ZM7.34297 6.08202C7.43965 6.12011 7.49824 6.32518 7.48946 6.38378C7.46602 6.49218 7.41621 6.60936 7.37813 6.59178C7.34004 6.58007 7.38692 6.43358 7.36934 6.38671C7.36055 6.27831 7.22578 6.21971 7.22871 6.17284C7.20528 6.08495 7.28731 6.0703 7.3459 6.08202H7.34297Z" fill="white"/>
<path fill-rule="evenodd" clip-rule="evenodd" d="M9.67493 6.39258C9.79797 6.39844 9.8595 6.49805 9.74524 6.53906C9.62805 6.57715 9.51965 6.60938 9.51672 6.77344C9.56067 7.00781 9.45813 6.92578 9.39954 6.89648C9.32922 6.84375 9.13001 6.7207 9.10071 6.45703C9.09778 6.39551 9.14758 6.33984 9.22669 6.33984C9.34387 6.37207 9.51965 6.375 9.67493 6.39258Z" fill="#165D31"/>
<path fill-rule="evenodd" clip-rule="evenodd" d="M4.76764 3.64455C4.90827 3.68557 4.91706 3.89651 4.90827 3.95803C4.88776 4.06936 4.83796 4.18947 4.8028 4.17483C4.76178 4.16018 4.8028 4.00783 4.78229 3.96096C4.76178 3.89651 4.64167 3.77346 4.65339 3.7383C4.62702 3.66506 4.71198 3.6299 4.76764 3.64455ZM7.57721 4.62893C7.46589 4.68752 7.42487 4.8633 7.49225 4.96877C7.55671 5.05666 7.65632 5.02444 7.66803 5.02444C7.77643 5.03615 7.84089 4.82229 7.84089 4.82229C7.84089 4.82229 7.84382 4.76369 7.71784 4.87795C7.66217 4.88674 7.65925 4.86623 7.6446 4.83694C7.63118 4.78116 7.63633 4.72253 7.65925 4.66994C7.67975 4.61721 7.63874 4.59377 7.57721 4.62893ZM8.39753 3.56252C8.33893 3.60061 8.23053 3.71487 8.2276 3.84377C8.22467 3.91701 8.21003 3.91701 8.2569 3.96096C8.29499 4.01369 8.32721 4.01076 8.39753 3.97268C8.41517 3.96179 8.4303 3.94728 8.44191 3.93011C8.45353 3.91294 8.46137 3.89349 8.46491 3.87307C8.48249 3.79104 8.37702 3.91408 8.3653 3.82033C8.34186 3.73244 8.40925 3.69729 8.4737 3.61526C8.4737 3.55666 8.4737 3.51858 8.3946 3.56252H8.39753ZM9.05378 3.67971C9.02803 3.78641 9.01234 3.89528 9.0069 4.0049C8.98932 4.08694 9.09479 4.12209 9.13874 4.01662C9.20905 3.82619 9.20905 3.74416 9.21491 3.66506C9.1944 3.53908 9.10944 3.54201 9.05378 3.67971ZM13.2139 5.79787C13.2257 5.78322 13.7999 5.376 13.7999 5.376C13.8585 5.35549 13.8438 5.58694 13.8174 5.58401C13.6393 5.75555 13.4345 5.89704 13.211 6.00295C13.1817 6.02346 13.1553 5.84768 13.211 5.79787H13.2139ZM13.7325 5.79201C13.835 5.84182 13.876 6.13772 13.8643 6.21682C13.8643 6.37502 13.7676 6.49807 13.7266 6.48049C13.6856 6.45998 13.7325 6.2842 13.712 6.22268C13.6885 6.13479 13.6036 5.97365 13.6182 5.92678C13.5889 5.82717 13.671 5.77444 13.7354 5.79201H13.7325ZM10.334 7.0635C10.3816 7.00803 10.4368 6.95968 10.4981 6.91994C10.5567 6.89065 10.6094 6.94338 10.6065 6.94045C10.6153 6.99904 10.5714 7.04885 10.586 7.12502C10.5977 7.15432 10.6065 7.18947 10.6622 7.17776C10.753 7.10451 10.838 7.09865 10.9258 7.09572C10.9991 7.09865 11.002 7.21877 10.9551 7.21877C10.7882 7.25393 10.7149 7.3008 10.5948 7.34475C10.5362 7.3799 10.4893 7.33596 10.4893 7.33303C10.4893 7.3301 10.4571 7.3008 10.4776 7.22463C10.4835 7.16213 10.46 7.13283 10.4073 7.13674C10.3721 7.16018 10.337 7.1719 10.3194 7.12795C10.3077 7.10061 10.3126 7.07912 10.334 7.0635ZM14.336 7.2217C14.3594 7.251 14.377 7.2803 14.3331 7.33303L14.2247 7.42678C14.2071 7.45608 14.1954 7.50881 14.254 7.52346C14.3594 7.55276 14.6055 7.39162 14.6055 7.38869C14.6465 7.3594 14.6348 7.3008 14.629 7.3008C14.6055 7.27444 14.5528 7.29201 14.5176 7.28615C14.5001 7.28615 14.4444 7.28029 14.4708 7.22756C14.4906 7.20177 14.5064 7.17312 14.5176 7.1426C14.5352 7.1094 14.5157 7.08303 14.459 7.0635C14.3975 7.05178 14.3712 7.05764 14.3038 7.0635C14.2725 7.0674 14.254 7.08986 14.2481 7.13088C14.251 7.19826 14.2921 7.19533 14.336 7.21877V7.2217Z" fill="white"/>
<path fill-rule="evenodd" clip-rule="evenodd" d="M10.3547 5.5576C10.3401 5.5869 10.2873 5.5869 10.2375 5.5576C10.1877 5.5283 10.1584 5.48143 10.176 5.45506C10.1936 5.42869 10.2434 5.42869 10.2932 5.45506C10.343 5.48143 10.3694 5.53123 10.3547 5.5576ZM7.7473 3.98729C7.718 3.99608 7.67699 3.96971 7.65941 3.92869C7.64183 3.88768 7.65062 3.85252 7.67992 3.84373C7.70921 3.83494 7.7473 3.86424 7.76781 3.90233C7.78832 3.94041 7.7766 3.98143 7.74437 3.99022L7.7473 3.98729ZM12.9065 10.9863C13.1819 10.998 13.4397 10.9863 13.7121 11.001C13.7619 11.0449 13.7268 11.1474 13.6946 11.1416L13.466 11.1328C13.4631 11.0449 13.2405 11.0596 13.2463 11.1357C13.1262 11.1504 13.0178 11.1328 12.8948 11.1269C12.8596 11.083 12.8655 11.0039 12.9065 10.9863Z" fill="#165D31"/>
</g>
</g>
<defs>
<clipPath id="clip0_243_50">
<rect width="20" height="15" fill="white"/>
</clipPath>
</defs>
</svg>
