<svg width="151" height="38" viewBox="0 0 151 38" fill="none" xmlns="http://www.w3.org/2000/svg">
<path d="M53.6671 7.14392H48.53V21.2919H53.6066C55.8014 21.2919 57.4761 20.6696 58.633 19.425C59.7899 18.1804 60.3683 16.422 60.3683 14.1479C60.3683 11.8738 59.7899 10.222 58.633 8.98993C57.4761 7.75995 55.8201 7.14392 53.6671 7.14392ZM56.8496 18.0697C56.0269 18.9864 54.8261 19.4438 53.2474 19.4438H50.7791V9.00873H53.308C54.847 9.00873 56.0269 9.46398 56.8496 10.3724C57.6724 11.2828 58.0838 12.5525 58.0838 14.1855C58.0838 15.8185 57.6724 17.1529 56.8496 18.0676V18.0697Z" fill="black"/>
<path d="M66.1111 14.9289H72.6327V13.204H66.1111V9.00873H73.1151V7.14392H63.8621V21.2919H73.1548V19.4458H66.1111V14.9289Z" fill="black"/>
<path d="M84.5337 13.9057V13.7449C85.3084 13.6237 85.9412 13.2708 86.4298 12.6819C86.9185 12.093 87.1628 11.4185 87.1628 10.6542C87.1628 9.5579 86.7807 8.69754 86.0184 8.07524C85.2562 7.45294 84.2058 7.14178 82.8673 7.14178H76.8259V21.2897H83.0469C84.4919 21.2897 85.6446 20.9347 86.5092 20.2268C87.3716 19.5189 87.8039 18.5541 87.8039 17.3367C87.8039 16.4011 87.499 15.618 86.8913 14.9895C86.2815 14.3609 85.4964 13.9996 84.5337 13.9057ZM79.075 8.8291H82.3055C83.1345 8.8291 83.784 9.02749 84.2518 9.42008C84.7195 9.81476 84.9534 10.3473 84.9534 11.0155C84.9534 11.7255 84.7049 12.2726 84.21 12.661C83.7151 13.0495 83.0197 13.2437 82.1238 13.2437H79.0729V8.8291H79.075ZM84.7028 18.9739C84.1745 19.3957 83.4353 19.6066 82.4851 19.6066H79.0729V14.7493H82.4246C83.4019 14.7493 84.1578 14.9539 84.6924 15.3612C85.227 15.7705 85.4943 16.3677 85.4943 17.1571C85.4943 17.9464 85.2291 18.552 84.7007 18.9739H84.7028Z" fill="black"/>
<path d="M90.0925 9.00873H94.6282V21.2919H96.8752V9.00873H101.43V7.14392H90.0925V9.00873Z" fill="black"/>
<path d="M115.82 13.9057V13.7449C116.595 13.6237 117.227 13.2708 117.716 12.6819C118.205 12.093 118.449 11.4185 118.449 10.6542C118.449 9.5579 118.067 8.69754 117.305 8.07524C116.542 7.45294 115.492 7.14178 114.153 7.14178H108.112V21.2897H114.333C115.778 21.2897 116.931 20.9347 117.795 20.2268C118.658 19.5189 119.09 18.5541 119.09 17.3367C119.09 16.4011 118.785 15.618 118.177 14.9895C117.568 14.3609 116.783 13.9996 115.82 13.9057ZM110.361 8.8291H113.592C114.421 8.8291 115.07 9.02749 115.538 9.42008C116.006 9.81476 116.24 10.3473 116.24 11.0155C116.24 11.7255 115.991 12.2726 115.496 12.661C115.001 13.0495 114.306 13.2437 113.41 13.2437H110.359V8.8291H110.361ZM115.991 18.9739C115.463 19.3957 114.724 19.6066 113.773 19.6066H110.361V14.7493H113.713C114.69 14.7493 115.446 14.9539 115.981 15.3612C116.515 15.7705 116.783 16.3677 116.783 17.1571C116.783 17.9464 116.517 18.552 115.989 18.9739H115.991Z" fill="black"/>
<path d="M132.035 7.7056C131.031 7.08956 129.849 6.78259 128.483 6.78259C127.117 6.78259 125.931 7.09374 124.921 7.71604C123.91 8.33834 123.135 9.20705 122.592 10.3243C122.049 11.4415 121.78 12.7425 121.78 14.2272C121.78 15.712 122.047 16.9962 122.582 18.1197C123.116 19.2432 123.889 20.114 124.9 20.728C125.91 21.344 127.103 21.651 128.481 21.651C129.859 21.651 131.031 21.344 132.033 20.728C133.038 20.1119 133.806 19.2432 134.341 18.1197C134.875 16.9962 135.143 15.6974 135.143 14.2272C135.143 12.7571 134.875 11.4373 134.341 10.3138C133.806 9.19035 133.035 8.32163 132.033 7.7056H132.035ZM132.325 17.0965C131.97 17.9255 131.465 18.575 130.809 19.0427C130.154 19.5105 129.377 19.7444 128.481 19.7444C127.585 19.7444 126.785 19.5147 126.123 19.0511C125.461 18.5896 124.956 17.9401 124.607 17.1048C124.259 16.2695 124.085 15.3089 124.085 14.2251C124.085 13.1413 124.263 12.1807 124.618 11.3454C124.973 10.5101 125.48 9.8565 126.142 9.38873C126.804 8.92096 127.583 8.68708 128.481 8.68708C129.379 8.68708 130.156 8.92096 130.82 9.38873C131.482 9.8565 131.987 10.5101 132.336 11.3454C132.685 12.1807 132.858 13.1413 132.858 14.2251C132.858 15.3089 132.68 16.2654 132.325 17.0944V17.0965Z" fill="black"/>
<path d="M145.36 14.1667V14.1271L150.136 7.14392H147.607L144.097 12.6611H143.997L140.463 7.14392H137.815L142.491 14.0874V14.1062L137.713 21.2919H140.123L143.836 15.7517H143.915L147.628 21.2919H150.176L145.36 14.1667Z" fill="black"/>
<path d="M21.9947 22.3903L13.8818 13.5674L22.0365 22.4425C22.0239 22.4237 22.0093 22.407 21.9947 22.3903Z" fill="#1B40FF"/>
<path d="M25.0288 0H6.5624C5.09226 0 3.72445 0.469851 2.61768 1.30515L8.03461 7.20031H25.0288C28.7543 7.20031 31.7739 10.2199 31.7739 13.9454V24.0546C31.7739 27.7801 28.7543 30.7997 25.0288 30.7997H10.9248C10.5196 30.7997 10.3087 31.28 10.5823 31.5786L15.1451 36.5549C15.9888 37.4758 17.1833 38 18.432 38H25.0288C32.7303 38 38.9742 31.7561 38.9742 24.0546V13.9454C38.9742 6.2418 32.7303 0 25.0288 0Z" fill="#1B40FF"/>
<path d="M0.58994 3.85915C-0.481336 6.23976 -0.0741203 8.93152 1.65287 10.8903L11.7705 22.0374C12.5995 22.95 13.7773 23.4721 15.0114 23.4721H21.5226C22.0593 23.4721 22.3475 22.8581 22.0363 22.4446L13.8817 13.5695L8.02831 7.20453H8.03249L2.61555 1.30939C1.75728 1.95675 1.05771 2.82337 0.585759 3.86332L0.58994 3.85915Z" fill="#51EEC3"/>
<path d="M50.3029 30.4197H50.2549L48.9685 28.227H48.1311L49.8873 31.1819V33.1052H50.6621V31.1819L52.4204 28.227H51.583L50.3029 30.4197Z" fill="black"/>
<path d="M55.7072 29.5885C55.4441 29.4319 55.1308 29.3525 54.7654 29.3525C54.4 29.3525 54.093 29.4298 53.8278 29.5885C53.5626 29.7472 53.36 29.9686 53.218 30.2568C53.0781 30.5449 53.0071 30.8811 53.0071 31.2633C53.0071 31.8501 53.1637 32.3158 53.4749 32.6603C53.786 33.007 54.2162 33.1782 54.7654 33.1782C55.3146 33.1782 55.7511 33.007 56.0601 32.6624C56.3692 32.32 56.5237 31.8543 56.5237 31.2675C56.5237 30.8791 56.4527 30.5428 56.3128 30.2526C56.1729 29.9644 55.9703 29.741 55.7072 29.5843V29.5885ZM55.4963 32.2323C55.323 32.4724 55.0807 32.5914 54.7654 32.5914C54.4501 32.5914 54.2078 32.4724 54.0345 32.2323C53.8612 31.9921 53.7756 31.6705 53.7756 31.2633C53.7756 30.8561 53.8612 30.5408 54.0345 30.2985C54.2078 30.0563 54.4501 29.9352 54.7654 29.9352C55.0807 29.9352 55.323 30.0563 55.4963 30.2985C55.6696 30.5408 55.7552 30.8624 55.7552 31.2633C55.7552 31.6642 55.6696 31.9921 55.4963 32.2323Z" fill="black"/>
<path d="M60.4205 31.5264C60.4205 31.8459 60.3432 32.0965 60.1887 32.2803C60.0341 32.4641 59.817 32.5559 59.535 32.5559C58.9963 32.5559 58.7248 32.2427 58.7248 31.6162V29.4298H57.9709V31.7896C57.9709 32.2281 58.0879 32.5685 58.3197 32.8128C58.5536 33.0571 58.8773 33.1803 59.2907 33.1803C59.5204 33.1803 59.7355 33.1386 59.9297 33.055C60.126 32.9715 60.2889 32.8483 60.4184 32.6812V33.1031H61.1723V29.4277H60.4184V31.5243L60.4205 31.5264Z" fill="black"/>
<path d="M64.0666 29.5133C63.864 29.601 63.7095 29.7242 63.603 29.8808V29.4297H62.8491V33.1051H63.603V31.0628C63.603 30.7495 63.6928 30.4968 63.8724 30.3089C64.052 30.1189 64.3088 30.0249 64.6409 30.0249C64.7703 30.0249 64.9019 30.0416 65.0355 30.0729V29.4089C64.9207 29.3901 64.81 29.3817 64.7035 29.3817C64.4821 29.3817 64.2692 29.4256 64.0666 29.5133Z" fill="black"/>
<path d="M70.6949 32.1216H70.6468L69.0702 28.227H68.1702V33.1052H68.8614V29.4089H68.9178L70.4255 33.1052H70.9246L72.426 29.4027H72.4866V33.1052H73.1715V28.227H72.2736L70.6949 32.1216Z" fill="black"/>
<path d="M77.4272 29.5885C77.1641 29.4319 76.8508 29.3525 76.4854 29.3525C76.1199 29.3525 75.813 29.4298 75.5477 29.5885C75.2825 29.7472 75.08 29.9686 74.938 30.2568C74.7981 30.5449 74.7271 30.8811 74.7271 31.2633C74.7271 31.8501 74.8837 32.3158 75.1948 32.6603C75.506 33.007 75.9362 33.1782 76.4854 33.1782C77.0346 33.1782 77.471 33.007 77.7801 32.6624C78.0891 32.32 78.2437 31.8543 78.2437 31.2675C78.2437 30.8791 78.1727 30.5428 78.0328 30.2526C77.8929 29.9644 77.6903 29.741 77.4272 29.5843V29.5885ZM77.2163 32.2323C77.0429 32.4724 76.8007 32.5914 76.4854 32.5914C76.17 32.5914 75.9278 32.4724 75.7545 32.2323C75.5812 31.9921 75.4955 31.6705 75.4955 31.2633C75.4955 30.8561 75.5812 30.5408 75.7545 30.2985C75.9278 30.0563 76.17 29.9352 76.4854 29.9352C76.8007 29.9352 77.0429 30.0563 77.2163 30.2985C77.3896 30.5408 77.4752 30.8624 77.4752 31.2633C77.4752 31.6642 77.3896 31.9921 77.2163 32.2323Z" fill="black"/>
<path d="M81.2614 31.0085L80.6934 30.8561C80.5222 30.8101 80.399 30.7517 80.3196 30.6827C80.2402 30.6138 80.2027 30.5261 80.2027 30.4196C80.2027 30.2714 80.2611 30.1607 80.3781 30.0876C80.495 30.0145 80.6516 29.9769 80.8458 29.9769C81.0714 29.9769 81.2844 30.0062 81.4828 30.0646C81.6812 30.1231 81.8795 30.2087 82.0779 30.3236V29.695C81.7542 29.4736 81.3637 29.363 80.9022 29.363C80.6496 29.363 80.4136 29.4089 80.1964 29.4987C79.9792 29.5885 79.8059 29.7201 79.6743 29.8892C79.5428 30.0604 79.478 30.263 79.478 30.499C79.478 30.7704 79.5574 30.9897 79.714 31.1526C79.8706 31.3155 80.1045 31.4387 80.4136 31.5222L80.9879 31.6747C81.3199 31.7624 81.4869 31.9086 81.4869 32.1111C81.4869 32.2531 81.4243 32.3659 81.3011 32.4473C81.1758 32.5288 81.0171 32.5684 80.8229 32.5684C80.5744 32.5684 80.3426 32.5413 80.1317 32.4891C79.9187 32.4369 79.714 32.3471 79.5156 32.2218V32.8587C79.8706 33.0884 80.2987 33.2054 80.802 33.2054C81.0547 33.2054 81.2886 33.1615 81.5016 33.0738C81.7146 32.9861 81.8837 32.8566 82.0132 32.6833C82.1426 32.51 82.2095 32.3011 82.2137 32.0568C82.2137 31.7937 82.1301 31.5744 81.9651 31.3969C81.7981 31.2194 81.5663 31.092 81.2656 31.0127L81.2614 31.0085Z" fill="black"/>
<path d="M84.6588 28.5172H83.8987V29.4298H83.3098V29.9978H83.8987V32.1842C83.8987 32.512 83.9885 32.7501 84.1681 32.8963C84.3477 33.0425 84.6359 33.1176 85.0326 33.1176C85.1663 33.1176 85.3187 33.1072 85.4899 33.0842V32.5308C85.3521 32.5392 85.2519 32.5455 85.1934 32.5455C85.0096 32.5455 84.8739 32.5037 84.7883 32.4181C84.7027 32.3325 84.6609 32.1967 84.6609 32.013V29.9999H85.492V29.4319H84.6609V28.5193L84.6588 28.5172Z" fill="black"/>
<path d="M91.0031 30.4552L90.2221 30.2547C89.7104 30.1169 89.4536 29.8767 89.4536 29.5342C89.4536 29.2983 89.5496 29.1187 89.7439 28.9913C89.9381 28.8639 90.1782 28.8013 90.4643 28.8013C91.049 28.8013 91.569 28.9495 92.0221 29.244V28.511C91.6108 28.2437 91.1158 28.11 90.5353 28.11C90.0091 28.11 89.5747 28.2332 89.2301 28.4797C88.8856 28.7261 88.7144 29.0894 88.7144 29.5697C88.7144 29.9164 88.8146 30.2025 89.0151 30.428C89.2155 30.6535 89.51 30.8185 89.8963 30.9187L90.6857 31.1255C90.9383 31.1944 91.1305 31.2842 91.2599 31.3928C91.3894 31.5014 91.4541 31.6371 91.4541 31.8042C91.4541 32.0339 91.3539 32.2114 91.1576 32.3325C90.9592 32.4557 90.7149 32.5163 90.4246 32.5163C89.8065 32.5163 89.251 32.3638 88.7561 32.0589V32.7919C89.2072 33.0738 89.7543 33.2137 90.3954 33.2137C90.7232 33.2137 91.0219 33.1574 91.2954 33.0488C91.5669 32.9381 91.7862 32.7752 91.9491 32.558C92.1119 32.3409 92.1976 32.0777 92.2017 31.7687C92.2017 31.4366 92.0973 31.161 91.8864 30.9375C91.6776 30.7162 91.3831 30.5554 91.0052 30.4531L91.0031 30.4552Z" fill="black"/>
<path d="M96.0921 29.5864C95.8415 29.4319 95.5534 29.3546 95.2297 29.3546C94.906 29.3546 94.6032 29.4361 94.3443 29.5969C94.0853 29.7577 93.8848 29.9853 93.7387 30.2755C93.5925 30.5658 93.5215 30.8978 93.5215 31.2716C93.5215 31.6454 93.5946 31.9921 93.7387 32.2844C93.8848 32.5768 94.0916 32.8044 94.361 32.9652C94.6304 33.126 94.9478 33.2074 95.3132 33.2074C95.6411 33.2074 95.923 33.1699 96.161 33.0968C96.3991 33.0237 96.6184 32.9193 96.8209 32.7856V32.155C96.6455 32.2886 96.4388 32.4014 96.1986 32.4912C95.9585 32.581 95.7142 32.6269 95.4657 32.6269C95.1065 32.6269 94.8162 32.5308 94.5969 32.3408C94.3777 32.1487 94.2649 31.8772 94.2607 31.5264H96.8773C96.8857 31.4157 96.8919 31.3071 96.8919 31.2006C96.8919 30.8352 96.8209 30.5136 96.681 30.2359C96.5411 29.956 96.3448 29.7389 96.0921 29.5864ZM94.2774 30.973C94.2962 30.6723 94.3923 30.4301 94.5656 30.2463C94.7389 30.0625 94.9666 29.9707 95.2464 29.9707C95.5262 29.9707 95.7601 30.0604 95.9313 30.24C96.1026 30.4196 96.1945 30.664 96.207 30.973H94.2774Z" fill="black"/>
<path d="M99.072 29.6178C98.8047 29.7848 98.598 30.0125 98.4518 30.3027C98.3056 30.593 98.2346 30.9167 98.2346 31.2717C98.2346 31.6267 98.3056 31.9504 98.4497 32.2406C98.5917 32.5309 98.7984 32.7627 99.0699 32.9318C99.3393 33.1031 99.6525 33.1887 100.008 33.1887C100.469 33.1887 100.835 33.0697 101.108 32.8295V32.2135C100.983 32.3283 100.834 32.4181 100.659 32.4829C100.484 32.5476 100.304 32.5789 100.12 32.5789C99.7549 32.5789 99.4709 32.4599 99.2662 32.2198C99.0616 31.9796 98.9592 31.6643 98.9592 31.2717C98.9592 30.8791 99.0616 30.5638 99.2662 30.3278C99.4709 30.0897 99.757 29.9707 100.12 29.9707C100.304 29.9707 100.486 30.002 100.659 30.0668C100.834 30.1315 100.985 30.2234 101.108 30.3424V29.7201C100.837 29.4841 100.469 29.3672 100.008 29.3672C99.6525 29.3672 99.3414 29.4507 99.0741 29.6157L99.072 29.6178Z" fill="black"/>
<path d="M105.009 31.5264C105.009 31.8459 104.932 32.0965 104.777 32.2803C104.623 32.4641 104.406 32.5559 104.124 32.5559C103.585 32.5559 103.313 32.2427 103.313 31.6162V29.4298H102.56V31.7896C102.56 32.2281 102.677 32.5685 102.908 32.8128C103.142 33.0571 103.466 33.1803 103.879 33.1803C104.109 33.1803 104.324 33.1386 104.518 33.055C104.715 32.9715 104.878 32.8483 105.007 32.6812V33.1031H105.761V29.4277H105.007V31.5243L105.009 31.5264Z" fill="black"/>
<path d="M108.655 29.5133C108.453 29.601 108.298 29.7242 108.192 29.8808V29.4297H107.438V33.1051H108.192V31.0628C108.192 30.7495 108.281 30.4968 108.461 30.3089C108.641 30.1189 108.897 30.0249 109.229 30.0249C109.359 30.0249 109.491 30.0416 109.624 30.0729V29.4089C109.509 29.3901 109.399 29.3817 109.292 29.3817C109.071 29.3817 108.858 29.4256 108.655 29.5133Z" fill="black"/>
<path d="M113.086 29.5864C112.836 29.4319 112.548 29.3546 112.224 29.3546C111.9 29.3546 111.597 29.4361 111.338 29.5969C111.079 29.7577 110.879 29.9853 110.733 30.2755C110.587 30.5658 110.516 30.8978 110.516 31.2716C110.516 31.6454 110.589 31.9921 110.733 32.2844C110.879 32.5768 111.086 32.8044 111.355 32.9652C111.624 33.126 111.942 33.2074 112.307 33.2074C112.635 33.2074 112.917 33.1699 113.155 33.0968C113.393 33.0237 113.613 32.9193 113.815 32.7856V32.155C113.64 32.2886 113.433 32.4014 113.193 32.4912C112.953 32.581 112.708 32.6269 112.46 32.6269C112.101 32.6269 111.81 32.5308 111.591 32.3408C111.372 32.1487 111.259 31.8772 111.255 31.5264H113.871C113.88 31.4157 113.886 31.3071 113.886 31.2006C113.886 30.8352 113.815 30.5136 113.675 30.2359C113.535 29.956 113.339 29.7389 113.086 29.5864ZM111.272 30.973C111.29 30.6723 111.386 30.4301 111.56 30.2463C111.733 30.0625 111.961 29.9707 112.241 29.9707C112.52 29.9707 112.754 30.0604 112.925 30.24C113.097 30.4196 113.189 30.664 113.201 30.973H111.272Z" fill="black"/>
<path d="M120.107 28.4212C119.859 28.2917 119.57 28.227 119.243 28.227H117.263V33.1052H118.038V31.4095H119.243C119.57 31.4095 119.859 31.3448 120.107 31.2153C120.356 31.0858 120.55 30.902 120.688 30.6619C120.826 30.4217 120.894 30.1398 120.894 29.8182C120.894 29.4966 120.826 29.2189 120.688 28.9767C120.55 28.7344 120.356 28.5486 120.107 28.4191V28.4212ZM119.827 30.5512C119.641 30.7224 119.385 30.8081 119.063 30.8081H118.04V28.843H119.063C119.387 28.843 119.641 28.9286 119.827 29.0999C120.013 29.2711 120.107 29.5133 120.107 29.8266C120.107 30.1398 120.013 30.3821 119.827 30.5533V30.5512Z" fill="black"/>
<path d="M123.158 28.0328H122.41V33.1052H123.158V28.0328Z" fill="black"/>
<path d="M127.414 29.8599C127.289 29.7033 127.13 29.5822 126.934 29.4966C126.737 29.411 126.531 29.3692 126.313 29.3692C125.996 29.3692 125.71 29.4465 125.459 29.6052C125.209 29.7639 125.01 29.9852 124.868 30.2734C124.726 30.5616 124.653 30.8936 124.653 31.2674C124.653 31.6412 124.724 31.9795 124.864 32.2677C125.004 32.5559 125.2 32.7793 125.453 32.9359C125.704 33.0926 125.998 33.1719 126.334 33.1719C126.564 33.1719 126.773 33.1301 126.961 33.0466C127.147 32.9631 127.299 32.8461 127.414 32.6937V33.1093H128.162V29.4548H127.414V29.862V29.8599ZM127.145 32.1988C126.961 32.4348 126.708 32.5517 126.391 32.5517C126.073 32.5517 125.837 32.4369 125.67 32.2051C125.503 31.9753 125.422 31.66 125.422 31.2633C125.422 30.8665 125.509 30.572 125.685 30.3402C125.86 30.1064 126.105 29.9915 126.418 29.9915C126.731 29.9915 126.984 30.1084 127.159 30.3402C127.335 30.5741 127.422 30.8832 127.422 31.2716C127.422 31.66 127.33 31.9628 127.145 32.1988Z" fill="black"/>
<path d="M130.86 28.5172H130.099V29.4298H129.51V29.9978H130.099V32.1842C130.099 32.512 130.189 32.7501 130.369 32.8963C130.548 33.0425 130.837 33.1176 131.233 33.1176C131.367 33.1176 131.519 33.1072 131.691 33.0842V32.5308C131.553 32.5392 131.453 32.5455 131.394 32.5455C131.21 32.5455 131.075 32.5037 130.989 32.4181C130.903 32.3325 130.862 32.1967 130.862 32.013V29.9999H131.693V29.4319H130.862V28.5193L130.86 28.5172Z" fill="black"/>
<path d="M133.699 28.2478C133.518 28.4128 133.426 28.6676 133.426 29.008V29.4298H132.816V30.004H133.426V33.1051H134.174V30.004H134.969V29.4298H134.159V29.056C134.159 28.8764 134.205 28.7407 134.295 28.6488C134.384 28.5569 134.526 28.511 134.721 28.511C134.771 28.511 134.863 28.5172 134.996 28.5318V28.0265C134.813 28.0077 134.666 27.9993 134.56 27.9993C134.167 27.9993 133.881 28.0829 133.697 28.2478H133.699Z" fill="black"/>
<path d="M138.762 29.5885C138.499 29.4319 138.185 29.3525 137.82 29.3525C137.454 29.3525 137.147 29.4298 136.882 29.5885C136.617 29.7472 136.414 29.9686 136.272 30.2568C136.133 30.5449 136.062 30.8811 136.062 31.2633C136.062 31.8501 136.218 32.3158 136.529 32.6603C136.84 33.007 137.271 33.1782 137.82 33.1782C138.369 33.1782 138.805 33.007 139.115 32.6624C139.424 32.32 139.578 31.8543 139.578 31.2675C139.578 30.8791 139.507 30.5428 139.367 30.2526C139.227 29.9644 139.025 29.741 138.762 29.5843V29.5885ZM138.551 32.2323C138.377 32.4724 138.135 32.5914 137.82 32.5914C137.504 32.5914 137.262 32.4724 137.089 32.2323C136.916 31.9921 136.83 31.6705 136.83 31.2633C136.83 30.8561 136.916 30.5408 137.089 30.2985C137.262 30.0563 137.504 29.9352 137.82 29.9352C138.135 29.9352 138.377 30.0563 138.551 30.2985C138.724 30.5408 138.81 30.8624 138.81 31.2633C138.81 31.6642 138.724 31.9921 138.551 32.2323Z" fill="black"/>
<path d="M142.27 29.5133C142.067 29.601 141.913 29.7242 141.806 29.8808V29.4297H141.052V33.1051H141.806V31.0628C141.806 30.7495 141.896 30.4968 142.075 30.3089C142.255 30.1189 142.512 30.0249 142.844 30.0249C142.973 30.0249 143.105 30.0416 143.239 30.0729V29.4089C143.124 29.3901 143.013 29.3817 142.907 29.3817C142.685 29.3817 142.472 29.4256 142.27 29.5133Z" fill="black"/>
<path d="M148.649 29.3546C148.401 29.3546 148.169 29.4194 147.958 29.5509C147.745 29.6825 147.589 29.8579 147.488 30.0813C147.409 29.8558 147.273 29.6783 147.077 29.5488C146.881 29.4193 146.653 29.3546 146.396 29.3546C146.179 29.3546 145.974 29.3985 145.784 29.4904C145.592 29.5802 145.438 29.7075 145.317 29.8746V29.4319H144.563V33.1072H145.317V30.9417C145.317 30.6598 145.39 30.4301 145.534 30.2505C145.68 30.0709 145.876 29.9811 146.125 29.9811C146.361 29.9811 146.542 30.0542 146.674 30.1983C146.806 30.3445 146.87 30.5407 146.87 30.7892V33.1072H147.618V30.9062C147.618 30.6347 147.691 30.4113 147.835 30.2379C147.979 30.0646 148.178 29.979 148.426 29.979C148.675 29.979 148.862 30.0521 148.986 30.1962C149.111 30.3424 149.172 30.5533 149.172 30.8289V33.1051H149.925V30.6347C149.925 30.2463 149.808 29.9372 149.572 29.7033C149.336 29.4695 149.027 29.3546 148.645 29.3546H148.649Z" fill="black"/>
</svg>
