<svg width="28" height="28" viewBox="0 0 28 28" fill="none" xmlns="http://www.w3.org/2000/svg">
<g clip-path="url(#clip0_115_1028)">
<path d="M23.8076 19.0712C22.5578 17.717 21.0412 16.6364 19.3532 15.8973C17.6652 15.1582 15.8425 14.7766 13.9998 14.7766C12.1571 14.7766 10.3344 15.1582 8.64638 15.8973C6.95841 16.6364 5.44178 17.717 4.19201 19.0712C3.99842 19.2841 3.89039 19.5611 3.88867 19.8489V24.5156C3.89276 24.8223 4.01748 25.1151 4.23583 25.3305C4.45418 25.546 4.7486 25.6667 5.05534 25.6667H22.9442C23.2536 25.6667 23.5504 25.5438 23.7692 25.325C23.988 25.1062 24.1109 24.8095 24.1109 24.5V19.8334C24.1054 19.551 23.9976 19.2801 23.8076 19.0712Z" fill="#C03C3C"/>
<path d="M13.9991 13.2222C17.006 13.2222 19.4436 10.7846 19.4436 7.77776C19.4436 4.77087 17.006 2.33331 13.9991 2.33331C10.9922 2.33331 8.55469 4.77087 8.55469 7.77776C8.55469 10.7846 10.9922 13.2222 13.9991 13.2222Z" fill="#C03C3C"/>
</g>
<defs>
<clipPath id="clip0_115_1028">
<rect width="28" height="28" fill="white"/>
</clipPath>
</defs>
</svg>
