<svg width="49" height="48" viewBox="0 0 49 48" fill="none" xmlns="http://www.w3.org/2000/svg">
<path d="M12.2635 6.27197C10.9067 6.63535 9.66947 7.34956 8.67626 8.34277C7.68305 9.33598 6.96885 10.5732 6.60547 11.93M36.4035 6.27197C37.7603 6.63535 38.9975 7.34956 39.9907 8.34277C40.9839 9.33598 41.6981 10.5732 42.0615 11.93" stroke="#CA9254" stroke-width="4" stroke-linecap="round"/>
<path fill-rule="evenodd" clip-rule="evenodd" d="M24.332 40C28.5755 40 32.6452 38.3143 35.6457 35.3137C38.6463 32.3131 40.332 28.2435 40.332 24C40.332 19.7565 38.6463 15.6869 35.6457 12.6863C32.6452 9.68571 28.5755 8 24.332 8C20.0886 8 16.0189 9.68571 13.0183 12.6863C10.0177 15.6869 8.33203 19.7565 8.33203 24C8.33203 28.2435 10.0177 32.3131 13.0183 35.3137C16.0189 38.3143 20.0886 40 24.332 40ZM26.332 16C26.332 15.4696 26.1213 14.9609 25.7462 14.5858C25.3712 14.2107 24.8625 14 24.332 14C23.8016 14 23.2929 14.2107 22.9178 14.5858C22.5427 14.9609 22.332 15.4696 22.332 16V23.5C22.332 24.88 23.452 26 24.832 26H30.332C30.8625 26 31.3712 25.7893 31.7462 25.4142C32.1213 25.0391 32.332 24.5304 32.332 24C32.332 23.4696 32.1213 22.9609 31.7462 22.5858C31.3712 22.2107 30.8625 22 30.332 22H26.332V16Z" fill="#CA9254"/>
</svg>
