<svg width="129" height="47" viewBox="0 0 129 47" fill="none" xmlns="http://www.w3.org/2000/svg">
<path d="M21.409 19V17.3644H22.8895V19H21.409ZM9.0433 22.4968C8.2255 22.4968 7.4923 22.3464 6.8437 22.0456C6.2045 21.7542 5.7016 21.3453 5.335 20.8189C4.9684 20.2925 4.7851 19.6956 4.7851 19.0282C4.7851 18.8402 4.7992 18.5911 4.8274 18.2809C4.8556 17.9707 4.8932 17.6229 4.9402 17.2375C4.9966 16.8521 5.053 16.462 5.1094 16.0672C5.1752 15.663 5.2363 15.2729 5.2927 14.8969L7.1539 15.1507C7.0505 15.7805 6.9612 16.3586 6.886 16.885C6.8202 17.402 6.7685 17.8438 6.7309 18.2104C6.6933 18.577 6.6745 18.8449 6.6745 19.0141C6.6745 19.3901 6.7685 19.7144 6.9565 19.987C7.1445 20.2596 7.4124 20.4711 7.7602 20.6215C8.1174 20.7813 8.5451 20.8612 9.0433 20.8612C9.5603 20.8612 9.9786 20.786 10.2982 20.6356C10.6178 20.4852 10.8481 20.2784 10.9891 20.0152C11.1395 19.752 11.2147 19.4559 11.2147 19.1269V13.36H13.1041V19.1269C13.1041 19.8037 12.9255 20.3959 12.5683 20.9035C12.2205 21.4111 11.7411 21.8012 11.1301 22.0738C10.5191 22.3558 9.8235 22.4968 9.0433 22.4968ZM13.0759 19L13.1041 17.3644H14.2462C14.547 17.3644 14.7773 17.3221 14.9371 17.2375C15.0969 17.1435 15.2097 16.9602 15.2755 16.6876C15.3413 16.4056 15.3742 15.9873 15.3742 15.4327V12.655H17.2636V15.4327C17.2636 16.2693 17.1555 16.9508 16.9393 17.4772C16.7231 18.0036 16.3941 18.389 15.9523 18.6334C15.5105 18.8778 14.9418 19 14.2462 19H13.0759ZM17.8699 19C17.4845 19 17.1038 18.9295 16.7278 18.7885C16.3518 18.6381 15.9993 18.4172 15.6703 18.1258L16.8265 16.9273C17.0051 17.0777 17.179 17.1905 17.3482 17.2657C17.5268 17.3315 17.7007 17.3644 17.8699 17.3644H20.5207L19.5337 18.2527V15.1225C19.5337 14.9721 19.5149 14.7465 19.4773 14.4457C19.4397 14.1355 19.3927 13.7877 19.3363 13.4023C19.2799 13.0075 19.2141 12.608 19.1389 12.2038L20.986 11.9218C21.0518 12.2602 21.1176 12.6409 21.1834 13.0639C21.2492 13.4775 21.3009 13.8723 21.3385 14.2483C21.3855 14.6149 21.409 14.9063 21.409 15.1225V19H17.8699ZM22.8895 19V17.3644C22.9459 17.3644 22.9929 17.3832 23.0305 17.4208C23.0681 17.4584 23.0963 17.5148 23.1151 17.59C23.1339 17.6652 23.148 17.7545 23.1574 17.8579C23.1668 17.9519 23.1715 18.06 23.1715 18.1822C23.1715 18.3044 23.1668 18.4172 23.1574 18.5206C23.148 18.624 23.1339 18.7133 23.1151 18.7885C23.0963 18.8543 23.0681 18.906 23.0305 18.9436C22.9929 18.9812 22.9459 19 22.8895 19ZM22.8926 19V17.3644H29.9708L29.3504 17.872V15.9544C29.3504 15.4656 29.2987 15.0755 29.1953 14.7841C29.0919 14.4927 28.9321 14.2812 28.7159 14.1496C28.5091 14.018 28.2459 13.9522 27.9263 13.9522H24.8384L23.6681 12.2602L24.3872 10.9066C24.4718 10.7468 24.5658 10.5729 24.6692 10.3849C24.7726 10.1969 24.9089 9.9713 25.0781 9.7081C25.2473 9.4449 25.4635 9.1159 25.7267 8.7211L27.3059 9.6094C27.0615 9.976 26.8641 10.2815 26.7137 10.5259C26.5633 10.7609 26.4364 10.9677 26.333 11.1463C26.2296 11.3249 26.1356 11.5035 26.051 11.6821L25.487 12.7396L25.205 12.3166H27.9263C28.5279 12.3166 29.0402 12.4153 29.4632 12.6127C29.8862 12.8101 30.2246 13.0827 30.4784 13.4305C30.7416 13.7783 30.9343 14.1684 31.0565 14.6008C31.1787 15.0332 31.2398 15.4844 31.2398 15.9544V19H22.8926ZM22.8926 19C22.8362 19 22.7939 18.9812 22.7657 18.9436C22.7281 18.906 22.6999 18.8543 22.6811 18.7885C22.6529 18.7133 22.6341 18.624 22.6247 18.5206C22.6153 18.4172 22.6106 18.3044 22.6106 18.1822C22.6106 18.013 22.62 17.872 22.6388 17.7592C22.6576 17.637 22.6905 17.543 22.7375 17.4772C22.7751 17.402 22.8268 17.3644 22.8926 17.3644V19ZM39.462 19V17.3644H40.9425V19H39.462ZM35.655 22.4968C35.3072 22.4968 34.9406 22.4686 34.5552 22.4122C34.1792 22.3652 33.775 22.2994 33.3426 22.2148L33.6246 20.7061C34.0946 20.7625 34.4941 20.8048 34.8231 20.833C35.1521 20.8612 35.4294 20.8753 35.655 20.8753C36.3318 20.8753 36.8206 20.7531 37.1214 20.5087C37.4222 20.2643 37.5726 19.8977 37.5726 19.4089V13.219L38.0379 13.5574H36.2754C35.89 13.5574 35.5798 13.6044 35.3448 13.6984C35.1098 13.783 34.9359 13.9663 34.8231 14.2483C34.7197 14.5209 34.668 14.9392 34.668 15.5032C34.668 16.039 34.715 16.4432 34.809 16.7158C34.9124 16.979 35.0816 17.1529 35.3166 17.2375C35.5516 17.3221 35.8712 17.3644 36.2754 17.3644H37.5726V19H36.2754C35.4764 19 34.8184 18.8731 34.3014 18.6193C33.7844 18.3655 33.399 17.9801 33.1452 17.4631C32.9008 16.9461 32.7786 16.2928 32.7786 15.5032C32.7786 14.7136 32.9008 14.0556 33.1452 13.5292C33.399 12.9934 33.7844 12.5939 34.3014 12.3307C34.8184 12.0581 35.4764 11.9218 36.2754 11.9218H39.462V19.4089C39.462 20.0481 39.3022 20.598 38.9826 21.0586C38.6724 21.5286 38.2306 21.8858 37.6572 22.1302C37.0932 22.3746 36.4258 22.4968 35.655 22.4968ZM40.9425 19V17.3644C40.9989 17.3644 41.0412 17.3832 41.0694 17.4208C41.107 17.4584 41.1352 17.5148 41.154 17.59C41.1822 17.6652 41.201 17.7545 41.2104 17.8579C41.2198 17.9519 41.2245 18.06 41.2245 18.1822C41.2245 18.3044 41.2198 18.4172 41.2104 18.5206C41.201 18.624 41.1822 18.7133 41.154 18.7885C41.1352 18.8543 41.107 18.906 41.0694 18.9436C41.0412 18.9812 40.9989 19 40.9425 19ZM40.9444 19V17.3644H43.5247L42.4249 18.2809V11.9218H44.3143V19H40.9444ZM40.9444 19C40.888 19 40.8457 18.9812 40.8175 18.9436C40.7799 18.906 40.7517 18.8543 40.7329 18.7885C40.7047 18.7133 40.6859 18.624 40.6765 18.5206C40.6671 18.4172 40.6624 18.3044 40.6624 18.1822C40.6624 18.013 40.6718 17.872 40.6906 17.7592C40.7094 17.637 40.7423 17.543 40.7893 17.4772C40.8269 17.402 40.8786 17.3644 40.9444 17.3644V19ZM42.4249 22.0033V20.3959H44.3143V22.0033H42.4249ZM59.3632 19V17.3644H60.8437V19H59.3632ZM53.6104 19C52.6046 19 51.7539 18.8684 51.0583 18.6052C50.3721 18.342 49.8504 17.9519 49.4932 17.4349C49.1454 16.9179 48.9715 16.274 48.9715 15.5032C48.9715 15.2776 48.9856 15.0426 49.0138 14.7982C49.042 14.5444 49.0749 14.3047 49.1125 14.0791C49.1595 13.8441 49.2018 13.6373 49.2394 13.4587C49.277 13.2801 49.3052 13.1485 49.324 13.0639L51.157 13.4164C51.1288 13.5668 51.0912 13.7595 51.0442 13.9945C50.9972 14.2295 50.9549 14.4786 50.9173 14.7418C50.8797 14.9956 50.8609 15.24 50.8609 15.475C50.8609 15.8416 50.9173 16.1471 51.0301 16.3915C51.1523 16.6359 51.3309 16.8333 51.5659 16.9837C51.8009 17.1247 52.097 17.2234 52.4542 17.2798C52.8114 17.3362 53.2297 17.3644 53.7091 17.3644H57.4738V11.9218H59.3632V19H53.6104ZM60.8437 19V17.3644C60.9001 17.3644 60.9424 17.3832 60.9706 17.4208C61.0082 17.4584 61.0364 17.5148 61.0552 17.59C61.0834 17.6652 61.1022 17.7545 61.1116 17.8579C61.121 17.9519 61.1257 18.06 61.1257 18.1822C61.1257 18.3044 61.121 18.4172 61.1116 18.5206C61.1022 18.624 61.0834 18.7133 61.0552 18.7885C61.0364 18.8543 61.0082 18.906 60.9706 18.9436C60.9424 18.9812 60.9001 19 60.8437 19ZM51.9889 11.6257V10.0183H53.8078V11.6257H51.9889ZM54.5551 11.6257V10.0183H56.374V11.6257H54.5551ZM64.2113 19V17.3644H65.6918V19H64.2113ZM60.8414 19C60.785 19 60.7427 18.9812 60.7145 18.9436C60.6769 18.906 60.6487 18.8543 60.6299 18.7885C60.6017 18.7133 60.5829 18.624 60.5735 18.5206C60.5641 18.4172 60.5594 18.3044 60.5594 18.1822C60.5594 18.013 60.5688 17.872 60.5876 17.7592C60.6064 17.637 60.6393 17.543 60.6863 17.4772C60.7239 17.402 60.7756 17.3644 60.8414 17.3644V19ZM60.8414 19V17.3644H63.4217L62.3219 18.2809V11.9218H64.2113V19H60.8414ZM65.6918 19V17.3644C65.7482 17.3644 65.7952 17.3832 65.8328 17.4208C65.8704 17.4584 65.8986 17.5148 65.9174 17.59C65.9362 17.6652 65.9503 17.7545 65.9597 17.8579C65.9691 17.9519 65.9738 18.06 65.9738 18.1822C65.9738 18.3044 65.9691 18.4172 65.9597 18.5206C65.9503 18.624 65.9362 18.7133 65.9174 18.7885C65.8986 18.8543 65.8704 18.906 65.8328 18.9436C65.7952 18.9812 65.7482 19 65.6918 19ZM62.3219 22.0033V20.3959H64.2113V22.0033H62.3219ZM65.6883 19V17.3644H69.03L67.9302 18.2809V11.9218H69.8055V19H65.6883ZM65.6883 19C65.6319 19 65.5896 18.9812 65.5614 18.9436C65.5238 18.906 65.4956 18.8543 65.4768 18.7885C65.4486 18.7133 65.4298 18.624 65.4204 18.5206C65.411 18.4172 65.4063 18.3044 65.4063 18.1822C65.4063 18.013 65.4157 17.872 65.4345 17.7592C65.4533 17.637 65.4862 17.543 65.5332 17.4772C65.5708 17.402 65.6225 17.3644 65.6883 17.3644V19ZM66.1959 22.0033V20.3959H68.0148V22.0033H66.1959ZM68.7621 22.0033V20.3959H70.581V22.0033H68.7621ZM71.4021 19V17.3644H76.5204L75.2373 18.4783V16.1095C75.2373 15.4421 75.1668 14.9251 75.0258 14.5585C74.8942 14.1919 74.6686 13.9334 74.349 13.783C74.0388 13.6326 73.6111 13.5574 73.0659 13.5574H71.9238V11.9218H73.0659C73.9307 11.9218 74.6639 12.0628 75.2655 12.3448C75.8765 12.6268 76.3371 13.078 76.6473 13.6984C76.9669 14.3094 77.1267 15.1131 77.1267 16.1095V19H71.4021ZM5.21317 38V37.27H6.46748V38H5.21317ZM4.42151 38V30.6283H5.21317V38H4.42151ZM6.46748 38V37.27C6.5086 37.27 6.54287 37.2803 6.57029 37.3009C6.59771 37.3146 6.61827 37.3386 6.63198 37.3728C6.64569 37.4003 6.65597 37.438 6.66282 37.4859C6.66968 37.5271 6.6731 37.575 6.6731 37.6299C6.6731 37.6847 6.66968 37.7361 6.66282 37.7841C6.65597 37.8321 6.64569 37.8732 6.63198 37.9075C6.61827 37.9349 6.59771 37.9589 6.57029 37.9794C6.54287 37.9931 6.5086 38 6.46748 38ZM6.46667 38V37.27H7.94717L7.57705 37.5682V32.8594H8.37899V38H6.46667ZM6.46667 38C6.42555 38 6.39128 37.9931 6.36386 37.9794C6.33645 37.9589 6.31588 37.9349 6.30217 37.9075C6.28847 37.8732 6.27819 37.8321 6.27133 37.7841C6.26448 37.7361 6.26105 37.6847 6.26105 37.6299C6.26105 37.5545 6.2679 37.4928 6.28161 37.4448C6.28847 37.39 6.30903 37.3489 6.3433 37.3214C6.37072 37.2872 6.41184 37.27 6.46667 37.27V38ZM7.57705 31.9341V31.0087H8.37899V31.9341H7.57705ZM10.9863 38V37.27H12.2406V38H10.9863ZM10.1947 38V30.6283H10.9863V38H10.1947ZM12.2406 38V37.27C12.2818 37.27 12.316 37.2803 12.3435 37.3009C12.3709 37.3146 12.3914 37.3386 12.4051 37.3728C12.4188 37.4003 12.4291 37.438 12.436 37.4859C12.4428 37.5271 12.4463 37.575 12.4463 37.6299C12.4463 37.6847 12.4428 37.7361 12.436 37.7841C12.4291 37.8321 12.4188 37.8732 12.4051 37.9075C12.3914 37.9349 12.3709 37.9589 12.3435 37.9794C12.316 37.9931 12.2818 38 12.2406 38ZM12.2398 38V37.27H17.8637L17.2674 37.6916V35.4811C17.2674 35.0013 17.2125 34.6243 17.1029 34.3502C16.9932 34.076 16.8047 33.8806 16.5374 33.7641C16.2769 33.6476 15.9205 33.5893 15.4682 33.5893C15.1803 33.5893 14.8924 33.6099 14.6045 33.651C14.3235 33.6922 14.1042 33.747 13.9465 33.8155L14.4297 33.322C14.3886 33.4865 14.3475 33.6956 14.3064 33.9492C14.2652 34.1959 14.231 34.4632 14.2036 34.7511C14.1761 35.039 14.1624 35.3269 14.1624 35.6147C14.1624 35.9095 14.1761 36.1974 14.2036 36.4784C14.231 36.7594 14.2618 37.0027 14.2961 37.2083C14.3304 37.414 14.3578 37.5579 14.3783 37.6402L13.6175 37.8561C13.5901 37.767 13.5558 37.6127 13.5147 37.3934C13.4804 37.1741 13.4462 36.9102 13.4119 36.6017C13.3845 36.2933 13.3708 35.9643 13.3708 35.6147C13.3708 35.2789 13.3845 34.9533 13.4119 34.638C13.4462 34.3159 13.4839 34.0246 13.525 33.7641C13.573 33.5037 13.6175 33.2946 13.6587 33.137C13.8094 33.0753 14.0493 33.0136 14.3783 32.9519C14.7073 32.8902 15.0706 32.8594 15.4682 32.8594C16.0439 32.8594 16.5237 32.9451 16.9075 33.1164C17.2982 33.2878 17.5895 33.5654 17.7814 33.9492C17.9733 34.3262 18.0693 34.8368 18.0693 35.4811V38H12.2398ZM12.2398 38C12.1987 38 12.1644 37.9931 12.137 37.9794C12.1096 37.9589 12.089 37.9349 12.0753 37.9075C12.0616 37.8732 12.0513 37.8321 12.0445 37.7841C12.0376 37.7361 12.0342 37.6847 12.0342 37.6299C12.0342 37.5545 12.0411 37.4928 12.0548 37.4448C12.0616 37.39 12.0822 37.3489 12.1165 37.3214C12.1439 37.2872 12.185 37.27 12.2398 37.27V38ZM19.8233 38V30.6283H20.615V38H19.8233ZM19.7411 29.9498C19.6314 29.8127 19.5457 29.679 19.484 29.5488C19.4292 29.4186 19.4018 29.2815 19.4018 29.1376C19.4018 28.9388 19.4498 28.7606 19.5457 28.6029C19.6485 28.4453 19.7822 28.3219 19.9467 28.2328C20.1112 28.1437 20.2894 28.0992 20.4813 28.0992C20.591 28.0992 20.7006 28.1163 20.8103 28.1506C20.92 28.178 21.0159 28.2191 21.0982 28.2739L20.8309 28.7366C20.776 28.7023 20.7212 28.6818 20.6664 28.6749C20.6184 28.6612 20.567 28.6543 20.5121 28.6543C20.3545 28.6543 20.2277 28.6989 20.1317 28.788C20.0426 28.8771 19.9981 28.9936 19.9981 29.1376C19.9981 29.2267 20.0152 29.3123 20.0495 29.3946C20.0906 29.4768 20.1489 29.5659 20.2243 29.6619L19.7411 29.9498ZM19.2064 29.9498V29.4049H21.2318V29.9498H19.2064ZM28.0512 38V32.8594H28.8531V37.5682L28.483 37.27H29.9635V38H28.0512ZM25.8304 34.6072V33.8669H28.0512V34.6072H25.8304ZM23.949 40.2722C23.8599 40.2722 23.7673 40.2653 23.6714 40.2516C23.5686 40.2447 23.4692 40.2379 23.3732 40.231L23.4658 39.5011C23.5617 39.5079 23.6508 39.5148 23.7331 39.5216C23.8153 39.5353 23.8873 39.5422 23.949 39.5422C24.2711 39.5422 24.5316 39.4188 24.7304 39.1721C24.9291 38.9322 25.0285 38.5963 25.0285 38.1645V32.8594H25.8304V38.1645C25.8304 38.5826 25.7482 38.9493 25.5837 39.2646C25.426 39.5867 25.2067 39.8335 24.9257 40.0048C24.6447 40.1831 24.3191 40.2722 23.949 40.2722ZM29.9635 38V37.27C30.0046 37.27 30.0389 37.2803 30.0663 37.3009C30.0937 37.3146 30.1143 37.3386 30.128 37.3728C30.1417 37.4003 30.152 37.438 30.1589 37.4859C30.1657 37.5271 30.1691 37.575 30.1691 37.6299C30.1691 37.6847 30.1657 37.7361 30.1589 37.7841C30.152 37.8321 30.1417 37.8732 30.128 37.9075C30.1143 37.9349 30.0937 37.9589 30.0663 37.9794C30.0389 37.9931 30.0046 38 29.9635 38ZM28.082 30.5769V29.703H28.8223V30.5769H28.082ZM27.3418 31.9341V31.0087H28.1437V31.9341H27.3418ZM28.7503 31.9341V31.0087H29.5523V31.9341H28.7503ZM29.9609 38V37.27H35.1016L34.8137 37.5271V35.697C34.8137 35.3269 34.7623 35.0219 34.6595 34.782C34.5635 34.5352 34.4161 34.3536 34.2174 34.2371C34.0255 34.1137 33.7821 34.052 33.4874 34.052H31.2461L30.6601 33.1678L31.1022 32.3145C31.1844 32.1637 31.2701 32.0095 31.3592 31.8518C31.4483 31.6942 31.558 31.5125 31.6882 31.3069C31.8184 31.1013 31.9829 30.8511 32.1817 30.5564L32.85 30.9573C32.6512 31.2589 32.4901 31.5091 32.3668 31.7079C32.2434 31.9066 32.1371 32.078 32.048 32.2219C31.9658 32.3659 31.887 32.5098 31.8116 32.6537L31.2975 33.6407L31.0919 33.322H33.4874C33.9192 33.322 34.2722 33.3974 34.5464 33.5482C34.8274 33.6922 35.0433 33.8841 35.1941 34.124C35.3517 34.3639 35.4614 34.6243 35.5231 34.9053C35.5848 35.1795 35.6156 35.4434 35.6156 35.697V38H29.9609ZM29.9609 38C29.9198 38 29.8855 37.9931 29.8581 37.9794C29.8307 37.9589 29.8101 37.9349 29.7964 37.9075C29.7827 37.8732 29.7724 37.8321 29.7656 37.7841C29.7587 37.7361 29.7553 37.6847 29.7553 37.6299C29.7553 37.5545 29.7622 37.4928 29.7759 37.4448C29.7827 37.39 29.8033 37.3489 29.8376 37.3214C29.865 37.2872 29.9061 37.27 29.9609 37.27V38ZM36.798 38V37.27H41.8255L41.3731 37.7327V30.6283H42.1751V38H36.798ZM38.443 37.27V32.0883H39.2346V37.27H38.443ZM38.3607 31.3994C38.2511 31.2624 38.1654 31.1287 38.1037 30.9985C38.0489 30.8682 38.0214 30.7312 38.0214 30.5872C38.0214 30.3884 38.0694 30.2102 38.1654 30.0526C38.2682 29.8949 38.4018 29.7716 38.5663 29.6825C38.7308 29.5934 38.9091 29.5488 39.101 29.5488C39.2106 29.5488 39.3203 29.5659 39.43 29.6002C39.5396 29.6276 39.6356 29.6688 39.7178 29.7236L39.4505 30.1862C39.3957 30.152 39.3409 30.1314 39.286 30.1246C39.2381 30.1109 39.1866 30.104 39.1318 30.104C38.9742 30.104 38.8474 30.1486 38.7514 30.2377C38.6623 30.3268 38.6178 30.4433 38.6178 30.5872C38.6178 30.6763 38.6349 30.762 38.6692 30.8442C38.7103 30.9265 38.7685 31.0156 38.8439 31.1116L38.3607 31.3994ZM37.8261 31.3994V30.8545H39.8515V31.3994H37.8261ZM43.9903 38V30.6283H44.7819V38H43.9903ZM55.3128 38V37.27H56.4232V38H55.3128ZM51.4882 38C50.8096 38 50.2442 37.9212 49.7918 37.7635C49.3394 37.6059 49.0001 37.366 48.7739 37.0438C48.5478 36.7217 48.4347 36.3104 48.4347 35.8101C48.4347 35.6456 48.4449 35.4674 48.4655 35.2755C48.4929 35.0836 48.5238 34.8985 48.558 34.7203C48.5923 34.5352 48.6231 34.3776 48.6506 34.2473C48.678 34.1103 48.6951 34.0177 48.702 33.9697L49.4833 34.1137C49.4628 34.2234 49.4319 34.3741 49.3908 34.5661C49.3565 34.758 49.3223 34.9636 49.288 35.1829C49.2537 35.4023 49.2366 35.6113 49.2366 35.8101C49.2366 36.0637 49.2743 36.283 49.3497 36.4681C49.4319 36.6532 49.5587 36.8074 49.7301 36.9307C49.9083 37.0473 50.1413 37.1329 50.4292 37.1878C50.7171 37.2426 51.0701 37.27 51.4882 37.27H54.881L54.5109 37.5682V30.6283H55.3128V38H51.4882ZM56.4232 38V37.27C56.4643 37.27 56.4986 37.2803 56.526 37.3009C56.5534 37.3146 56.574 37.3386 56.5877 37.3728C56.6014 37.4003 56.6117 37.438 56.6185 37.4859C56.6254 37.5271 56.6288 37.575 56.6288 37.6299C56.6288 37.6847 56.6254 37.7361 56.6185 37.7841C56.6117 37.8321 56.6014 37.8732 56.5877 37.9075C56.574 37.9349 56.5534 37.9589 56.526 37.9794C56.4986 37.9931 56.4643 38 56.4232 38ZM51.3957 34.4427C51.286 34.3056 51.2003 34.1719 51.1386 34.0417C51.0838 33.9115 51.0564 33.7744 51.0564 33.6305C51.0564 33.4317 51.1044 33.2535 51.2003 33.0958C51.3031 32.9382 51.4368 32.8148 51.6013 32.7257C51.7658 32.6366 51.944 32.5921 52.1359 32.5921C52.2456 32.5921 52.3552 32.6092 52.4649 32.6435C52.5746 32.6709 52.6705 32.712 52.7528 32.7668L52.4855 33.2295C52.4306 33.1952 52.3758 33.1747 52.321 33.1678C52.273 33.1541 52.2216 33.1472 52.1668 33.1472C52.0091 33.1472 51.8823 33.1918 51.7863 33.2809C51.6972 33.37 51.6527 33.4865 51.6527 33.6305C51.6527 33.7196 51.6698 33.8052 51.7041 33.8875C51.7452 33.9697 51.8035 34.0589 51.8789 34.1548L51.3957 34.4427ZM50.861 34.4427V33.8978H52.8864V34.4427H50.861ZM58.3394 38V37.27H59.4498V38H58.3394ZM59.4498 38V37.27C59.4909 37.27 59.5252 37.2803 59.5526 37.3009C59.58 37.3146 59.6006 37.3386 59.6143 37.3728C59.628 37.4003 59.6383 37.438 59.6452 37.4859C59.652 37.5271 59.6554 37.575 59.6554 37.6299C59.6554 37.6847 59.652 37.7361 59.6452 37.7841C59.6383 37.8321 59.628 37.8732 59.6143 37.9075C59.6006 37.9349 59.58 37.9589 59.5526 37.9794C59.5252 37.9931 59.4909 38 59.4498 38ZM56.4271 38C56.386 38 56.3517 37.9931 56.3243 37.9794C56.2969 37.9589 56.2763 37.9349 56.2626 37.9075C56.2489 37.8732 56.2386 37.8321 56.2318 37.7841C56.2249 37.7361 56.2215 37.6847 56.2215 37.6299C56.2215 37.5545 56.2284 37.4928 56.2421 37.4448C56.2489 37.39 56.2695 37.3489 56.3037 37.3214C56.3312 37.2872 56.3723 37.27 56.4271 37.27V38ZM56.4271 38V37.27H57.9076L57.5375 37.5682V32.8594H58.3394V38H56.4271ZM56.8384 31.9341V31.0087H57.6403V31.9341H56.8384ZM58.2469 31.9341V31.0087H59.0488V31.9341H58.2469ZM67.1088 38V37.27H68.2192V38H67.1088ZM59.4492 38C59.4081 38 59.3739 37.9931 59.3464 37.9794C59.319 37.9589 59.2985 37.9349 59.2847 37.9075C59.271 37.8732 59.2608 37.8321 59.2539 37.7841C59.2471 37.7361 59.2436 37.6847 59.2436 37.6299C59.2436 37.5545 59.2505 37.4928 59.2642 37.4448C59.271 37.39 59.2916 37.3489 59.3259 37.3214C59.3533 37.2872 59.3944 37.27 59.4492 37.27V38ZM59.4492 38V37.27H67.0471L66.3068 37.9383V35.5222C66.3068 35.0904 66.2452 34.734 66.1218 34.453C66.0053 34.1651 65.8271 33.9492 65.5872 33.8052C65.3541 33.6613 65.0594 33.5893 64.703 33.5893C64.4014 33.5893 64.1204 33.6407 63.8599 33.7436C63.6063 33.8395 63.3698 33.9697 63.1505 34.1342C62.9312 34.2919 62.7255 34.4701 62.5336 34.6689C62.3486 34.8608 62.1772 35.0561 62.0196 35.2549C61.8619 35.4537 61.718 35.6353 61.5877 35.7998L61.3307 35.0698C61.5021 34.8574 61.6734 34.6449 61.8448 34.4324C62.023 34.2199 62.2081 34.0212 62.4 33.8361C62.5919 33.6442 62.8009 33.4762 63.0271 33.3323C63.2602 33.1884 63.5138 33.0753 63.7879 32.993C64.0621 32.9039 64.3705 32.8594 64.7132 32.8594C65.1999 32.8594 65.5974 32.9416 65.9059 33.1061C66.2212 33.2706 66.4645 33.49 66.6358 33.7641C66.8141 34.0314 66.9374 34.3193 67.006 34.6277C67.0745 34.9362 67.1088 35.2343 67.1088 35.5222V38H59.4492ZM60.9092 37.27V32.8594H61.7111V37.27H60.9092ZM68.2192 38V37.27C68.2603 37.27 68.2946 37.2803 68.322 37.3009C68.3494 37.3146 68.3699 37.3386 68.3837 37.3728C68.3974 37.4003 68.4076 37.438 68.4145 37.4859C68.4214 37.5271 68.4248 37.575 68.4248 37.6299C68.4248 37.6847 68.4214 37.7361 68.4145 37.7841C68.4076 37.8321 68.3974 37.8732 68.3837 37.9075C68.3699 37.9349 68.3494 37.9589 68.322 37.9794C68.2946 37.9931 68.2603 38 68.2192 38ZM70.1267 38V37.27H71.2371V38H70.1267ZM68.2144 38C68.1733 38 68.139 37.9931 68.1116 37.9794C68.0842 37.9589 68.0636 37.9349 68.0499 37.9075C68.0362 37.8732 68.0259 37.8321 68.0191 37.7841C68.0122 37.7361 68.0088 37.6847 68.0088 37.6299C68.0088 37.5545 68.0156 37.4928 68.0294 37.4448C68.0362 37.39 68.0568 37.3489 68.091 37.3214C68.1185 37.2872 68.1596 37.27 68.2144 37.27V38ZM68.2144 38V37.27H69.6949L69.3248 37.5682V32.8594H70.1267V38H68.2144ZM71.2371 38V37.27C71.2782 37.27 71.3125 37.2803 71.3399 37.3009C71.3673 37.3146 71.3879 37.3386 71.4016 37.3728C71.4153 37.4003 71.4256 37.438 71.4324 37.4859C71.4393 37.5271 71.4427 37.575 71.4427 37.6299C71.4427 37.6847 71.4393 37.7361 71.4324 37.7841C71.4256 37.8321 71.4153 37.8732 71.4016 37.9075C71.3879 37.9349 71.3673 37.9589 71.3399 37.9794C71.3125 37.9931 71.2782 38 71.2371 38ZM69.3248 31.9341V31.0087H70.1267V31.9341H69.3248ZM71.2365 38V37.27H76.8604L76.2641 37.6916V35.4811C76.2641 35.0013 76.2092 34.6243 76.0996 34.3502C75.9899 34.076 75.8014 33.8806 75.5341 33.7641C75.2736 33.6476 74.9172 33.5893 74.4649 33.5893C74.177 33.5893 73.8891 33.6099 73.6012 33.651C73.3202 33.6922 73.1009 33.747 72.9432 33.8155L73.4264 33.322C73.3853 33.4865 73.3442 33.6956 73.3031 33.9492C73.2619 34.1959 73.2277 34.4632 73.2003 34.7511C73.1728 35.039 73.1591 35.3269 73.1591 35.6147C73.1591 35.9095 73.1728 36.1974 73.2003 36.4784C73.2277 36.7594 73.2585 37.0027 73.2928 37.2083C73.3271 37.414 73.3545 37.5579 73.375 37.6402L72.6142 37.8561C72.5868 37.767 72.5525 37.6127 72.5114 37.3934C72.4771 37.1741 72.4429 36.9102 72.4086 36.6017C72.3812 36.2933 72.3675 35.9643 72.3675 35.6147C72.3675 35.2789 72.3812 34.9533 72.4086 34.638C72.4429 34.3159 72.4806 34.0246 72.5217 33.7641C72.5697 33.5037 72.6142 33.2946 72.6554 33.137C72.8061 33.0753 73.046 33.0136 73.375 32.9519C73.704 32.8902 74.0673 32.8594 74.4649 32.8594C75.0406 32.8594 75.5204 32.9451 75.9042 33.1164C76.2949 33.2878 76.5862 33.5654 76.7781 33.9492C76.9701 34.3262 77.066 34.8368 77.066 35.4811V38H71.2365ZM71.2365 38C71.1954 38 71.1611 37.9931 71.1337 37.9794C71.1063 37.9589 71.0858 37.9349 71.072 37.9075C71.0583 37.8732 71.0481 37.8321 71.0412 37.7841C71.0343 37.7361 71.0309 37.6847 71.0309 37.6299C71.0309 37.5545 71.0378 37.4928 71.0515 37.4448C71.0583 37.39 71.0789 37.3489 71.1132 37.3214C71.1406 37.2872 71.1817 37.27 71.2365 37.27V38Z" fill="#06101C"/>
<path d="M84.3785 16.0667L82.2243 9.8H93.7001C96.3896 9.8 98.5568 10.2178 100.202 11.0533C101.847 11.8628 103.048 13.2597 103.805 15.2442C104.562 17.2025 104.941 19.905 104.941 23.3517C104.941 27.0333 104.575 29.9447 103.844 32.0858C103.113 34.2008 101.938 35.7153 100.319 36.6292C98.7265 37.5169 96.6115 37.9739 93.9743 38V31.655C94.9665 31.4461 95.6715 30.7281 96.0893 29.5008C96.5071 28.2736 96.716 26.2239 96.716 23.3517C96.716 21.3933 96.6115 19.8919 96.4026 18.8475C96.1937 17.7769 95.8412 17.0458 95.3451 16.6542C94.849 16.2625 94.144 16.0667 93.2301 16.0667H84.3785ZM84.3785 38V18.025H92.016V38H84.3785ZM115.195 25.075V32.83H115.586C116.892 32.83 117.845 32.595 118.445 32.125C119.072 31.6289 119.385 30.7672 119.385 29.54C119.385 28.4172 119.085 27.5425 118.485 26.9158C119.686 26.6547 120.782 26.3153 121.775 25.8975C122.767 25.4797 123.602 24.9314 124.281 24.2525C125.378 24.9053 126.161 25.7408 126.631 26.7592C127.101 27.7514 127.336 28.9786 127.336 30.4408C127.336 32.8692 126.449 34.7361 124.673 36.0417C122.897 37.3472 120.195 38 116.565 38H107.557V17.1242H115.195V21.3933H115.547C116.722 21.3933 117.571 21.1714 118.093 20.7275C118.641 20.2575 118.915 19.4481 118.915 18.2992C118.915 17.1242 118.641 16.3147 118.093 15.8708C117.571 15.4008 116.722 15.1658 115.547 15.1658H107.557L105.403 9.8H117.153C120.312 9.8 122.61 10.4528 124.046 11.7583C125.482 13.0639 126.2 14.8917 126.2 17.2417C126.2 18.73 125.861 19.9833 125.182 21.0017C124.529 21.9939 123.655 22.7903 122.558 23.3908C121.461 23.9914 120.273 24.4222 118.994 24.6833C117.714 24.9444 116.448 25.075 115.195 25.075Z" fill="#06101C"/>
</svg>
