<svg width="151" height="47" viewBox="0 0 151 47" fill="none" xmlns="http://www.w3.org/2000/svg">
<path d="M25.6428 19V17.0528H27.4053V19H25.6428ZM10.9214 23.163C9.94778 23.163 9.0749 22.9839 8.30274 22.6258C7.54177 22.2789 6.94307 21.7921 6.50663 21.1654C6.07019 20.5387 5.85197 19.8281 5.85197 19.0336C5.85197 18.8098 5.86876 18.5132 5.90233 18.1439C5.9359 17.7746 5.98067 17.3606 6.03662 16.9017C6.10376 16.4429 6.17091 15.9785 6.23805 15.5085C6.31639 15.0273 6.38913 14.5629 6.45627 14.1152L8.67204 14.4174C8.54894 15.1672 8.44263 15.8554 8.3531 16.4821C8.27477 17.0976 8.21322 17.6235 8.16845 18.06C8.12369 18.4964 8.10131 18.8154 8.10131 19.0168C8.10131 19.4644 8.21322 19.8505 8.43703 20.175C8.66085 20.4996 8.97978 20.7513 9.39384 20.9304C9.81909 21.1206 10.3283 21.2158 10.9214 21.2158C11.5369 21.2158 12.0349 21.1262 12.4153 20.9472C12.7958 20.7681 13.07 20.5219 13.2379 20.2086C13.4169 19.8953 13.5064 19.5428 13.5064 19.1511V12.2856H15.7558V19.1511C15.7558 19.9568 15.5431 20.6618 15.1179 21.2661C14.7038 21.8704 14.1331 22.3348 13.4057 22.6594C12.6783 22.9951 11.8502 23.163 10.9214 23.163ZM15.7222 19L15.7558 17.0528H17.1154C17.4735 17.0528 17.7477 17.0025 17.938 16.9017C18.1282 16.7898 18.2625 16.5716 18.3408 16.2471C18.4192 15.9114 18.4583 15.4134 18.4583 14.7531V11.4463H20.7077V14.7531C20.7077 15.7491 20.579 16.5604 20.3216 17.1871C20.0642 17.8138 19.6725 18.2726 19.1466 18.5636C18.6206 18.8545 17.9436 19 17.1154 19H15.7222ZM21.4295 19C20.9707 19 20.5174 18.9161 20.0698 18.7482C19.6222 18.5692 19.2025 18.3062 18.8108 17.9593L20.1873 16.5324C20.3999 16.7115 20.607 16.8458 20.8084 16.9353C21.021 17.0136 21.228 17.0528 21.4295 17.0528H24.5853L23.4102 18.1103V14.3838C23.4102 14.2048 23.3879 13.9362 23.3431 13.5781C23.2983 13.2088 23.2424 12.7947 23.1752 12.3359C23.1081 11.8659 23.0297 11.3903 22.9402 10.9091L25.1392 10.5734C25.2175 10.9762 25.2959 11.4295 25.3742 11.9331C25.4525 12.4254 25.5141 12.8955 25.5589 13.3431C25.6148 13.7795 25.6428 14.1264 25.6428 14.3838V19H21.4295ZM27.4053 19V17.0528C27.4725 17.0528 27.5284 17.0752 27.5732 17.12C27.6179 17.1647 27.6515 17.2319 27.6739 17.3214C27.6963 17.4109 27.7131 17.5172 27.7243 17.6403C27.7354 17.7522 27.741 17.8809 27.741 18.0264C27.741 18.1719 27.7354 18.3062 27.7243 18.4293C27.7131 18.5524 27.6963 18.6587 27.6739 18.7482C27.6515 18.8265 27.6179 18.8881 27.5732 18.9329C27.5284 18.9776 27.4725 19 27.4053 19ZM27.409 19V17.0528H35.8356L35.097 17.6571V15.3742C35.097 14.7923 35.0355 14.3279 34.9124 13.981C34.7893 13.634 34.599 13.3823 34.3417 13.2256C34.0955 13.0689 33.7821 12.9906 33.4016 12.9906H29.7255L28.3322 10.9762L29.1883 9.36478C29.289 9.17454 29.4009 8.96751 29.524 8.74369C29.6471 8.51988 29.8094 8.2513 30.0108 7.93796C30.2123 7.62462 30.4697 7.23295 30.783 6.76294L32.663 7.82046C32.3721 8.2569 32.1371 8.6206 31.958 8.91156C31.779 9.19132 31.6279 9.43752 31.5048 9.65014C31.3817 9.86277 31.2698 10.0754 31.1691 10.288L30.4976 11.547L30.1619 11.0434H33.4016C34.1178 11.0434 34.7277 11.1609 35.2313 11.3959C35.7349 11.6309 36.1378 11.9554 36.4399 12.3695C36.7533 12.7835 36.9827 13.248 37.1281 13.7627C37.2736 14.2775 37.3464 14.8147 37.3464 15.3742V19H27.409ZM27.409 19C27.3418 19 27.2915 18.9776 27.2579 18.9329C27.2132 18.8881 27.1796 18.8265 27.1572 18.7482C27.1236 18.6587 27.1012 18.5524 27.0901 18.4293C27.0789 18.3062 27.0733 18.1719 27.0733 18.0264C27.0733 17.825 27.0845 17.6571 27.1068 17.5228C27.1292 17.3773 27.1684 17.2654 27.2243 17.1871C27.2691 17.0976 27.3307 17.0528 27.409 17.0528V19ZM47.1349 19V17.0528H48.8974V19H47.1349ZM42.6026 23.163C42.1886 23.163 41.7521 23.1294 41.2933 23.0622C40.8457 23.0063 40.3645 22.9279 39.8497 22.8272L40.1854 21.0311C40.745 21.0983 41.2206 21.1486 41.6123 21.1822C42.0039 21.2158 42.3341 21.2326 42.6026 21.2326C43.4084 21.2326 43.9903 21.0871 44.3484 20.7961C44.7065 20.5052 44.8855 20.0687 44.8855 19.4868V12.1177L45.4395 12.5206H43.3412C42.8824 12.5206 42.5131 12.5765 42.2333 12.6884C41.9536 12.7891 41.7465 13.0074 41.6123 13.3431C41.4892 13.6676 41.4276 14.1656 41.4276 14.837C41.4276 15.4749 41.4836 15.9561 41.5955 16.2807C41.7186 16.594 41.92 16.801 42.1998 16.9017C42.4795 17.0025 42.86 17.0528 43.3412 17.0528H44.8855V19H43.3412C42.39 19 41.6067 18.8489 40.9912 18.5468C40.3757 18.2446 39.9169 17.7858 39.6147 17.1703C39.3238 16.5548 39.1783 15.7771 39.1783 14.837C39.1783 13.897 39.3238 13.1137 39.6147 12.487C39.9169 11.8491 40.3757 11.3735 40.9912 11.0602C41.6067 10.7356 42.39 10.5734 43.3412 10.5734H47.1349V19.4868C47.1349 20.2478 46.9446 20.9024 46.5642 21.4508C46.1949 22.0103 45.6689 22.4356 44.9863 22.7265C44.3148 23.0175 43.5203 23.163 42.6026 23.163ZM48.8974 19V17.0528C48.9646 17.0528 49.0149 17.0752 49.0485 17.12C49.0933 17.1647 49.1268 17.2319 49.1492 17.3214C49.1828 17.4109 49.2052 17.5172 49.2164 17.6403C49.2276 17.7522 49.2331 17.8809 49.2331 18.0264C49.2331 18.1719 49.2276 18.3062 49.2164 18.4293C49.2052 18.5524 49.1828 18.6587 49.1492 18.7482C49.1268 18.8265 49.0933 18.8881 49.0485 18.9329C49.0149 18.9776 48.9646 19 48.8974 19ZM48.8998 19V17.0528H51.9716L50.6623 18.1439V10.5734H52.9117V19H48.8998ZM48.8998 19C48.8326 19 48.7823 18.9776 48.7487 18.9329C48.704 18.8881 48.6704 18.8265 48.648 18.7482C48.6144 18.6587 48.592 18.5524 48.5809 18.4293C48.5697 18.3062 48.5641 18.1719 48.5641 18.0264C48.5641 17.825 48.5753 17.6571 48.5976 17.5228C48.62 17.3773 48.6592 17.2654 48.7151 17.1871C48.7599 17.0976 48.8215 17.0528 48.8998 17.0528V19ZM50.6623 22.5754V20.6618H52.9117V22.5754H50.6623ZM70.8274 19V17.0528H72.59V19H70.8274ZM63.9787 19C62.7813 19 61.7685 18.8433 60.9404 18.53C60.1235 18.2166 59.5024 17.7522 59.0771 17.1367C58.6631 16.5213 58.4561 15.7547 58.4561 14.837C58.4561 14.5685 58.4728 14.2887 58.5064 13.9977C58.54 13.6956 58.5792 13.4102 58.6239 13.1417C58.6799 12.8619 58.7302 12.6157 58.775 12.4031C58.8198 12.1904 58.8533 12.0338 58.8757 11.9331L61.0579 12.3527C61.0243 12.5318 60.9796 12.7612 60.9236 13.0409C60.8677 13.3207 60.8173 13.6173 60.7725 13.9306C60.7278 14.2327 60.7054 14.5237 60.7054 14.8035C60.7054 15.2399 60.7725 15.6036 60.9068 15.8946C61.0523 16.1855 61.2649 16.4205 61.5447 16.5996C61.8245 16.7674 62.177 16.885 62.6022 16.9521C63.0275 17.0192 63.5255 17.0528 64.0962 17.0528H68.5781V10.5734H70.8274V19H63.9787ZM72.59 19V17.0528C72.6571 17.0528 72.7075 17.0752 72.741 17.12C72.7858 17.1647 72.8194 17.2319 72.8417 17.3214C72.8753 17.4109 72.8977 17.5172 72.9089 17.6403C72.9201 17.7522 72.9257 17.8809 72.9257 18.0264C72.9257 18.1719 72.9201 18.3062 72.9089 18.4293C72.8977 18.5524 72.8753 18.6587 72.8417 18.7482C72.8194 18.8265 72.7858 18.8881 72.741 18.9329C72.7075 18.9776 72.6571 19 72.59 19ZM62.0483 10.2209V8.30726H64.2137V10.2209H62.0483ZM65.1034 10.2209V8.30726H67.2688V10.2209H65.1034ZM77.4887 19V17.0528H79.587V19H77.4887ZM79.587 19V17.0528C79.643 17.0528 79.6933 17.0752 79.7381 17.12C79.7828 17.1647 79.8164 17.2319 79.8388 17.3214C79.8612 17.4109 79.878 17.5172 79.8891 17.6403C79.9115 17.7522 79.9227 17.8809 79.9227 18.0264C79.9227 18.1719 79.9115 18.3062 79.8891 18.4293C79.878 18.5524 79.8612 18.6587 79.8388 18.7482C79.8164 18.8265 79.7828 18.8881 79.7381 18.9329C79.7045 18.9776 79.6541 19 79.587 19ZM72.5872 19C72.5201 19 72.4697 18.9776 72.4361 18.9329C72.3914 18.8881 72.3578 18.8265 72.3354 18.7482C72.3018 18.6587 72.2795 18.5524 72.2683 18.4293C72.2571 18.3062 72.2515 18.1719 72.2515 18.0264C72.2515 17.825 72.2627 17.6571 72.285 17.5228C72.3074 17.3773 72.3466 17.2654 72.4025 17.1871C72.4473 17.0976 72.5089 17.0528 72.5872 17.0528V19ZM72.5872 19V17.0528H76.5655L75.2562 18.1439V10.5734H77.4887V19H72.5872ZM73.1915 22.5754V20.6618H75.3569V22.5754H73.1915ZM76.2466 22.5754V20.6618H78.412V22.5754H76.2466ZM83.5987 19V17.0528H85.3613V19H83.5987ZM79.5869 19C79.5197 19 79.4694 18.9776 79.4358 18.9329C79.391 18.8881 79.3575 18.8265 79.3351 18.7482C79.3015 18.6587 79.2791 18.5524 79.2679 18.4293C79.2567 18.3062 79.2511 18.1719 79.2511 18.0264C79.2511 17.825 79.2623 17.6571 79.2847 17.5228C79.3071 17.3773 79.3463 17.2654 79.4022 17.1871C79.447 17.0976 79.5085 17.0528 79.5869 17.0528V19ZM79.5869 19V17.0528H82.6587L81.3494 18.1439V10.5734H83.5987V19H79.5869ZM85.3613 19V17.0528C85.4284 17.0528 85.4844 17.0752 85.5291 17.12C85.5739 17.1647 85.6075 17.2319 85.6299 17.3214C85.6522 17.4109 85.669 17.5172 85.6802 17.6403C85.6914 17.7522 85.697 17.8809 85.697 18.0264C85.697 18.1719 85.6914 18.3062 85.6802 18.4293C85.669 18.5524 85.6522 18.6587 85.6299 18.7482C85.6075 18.8265 85.5739 18.8881 85.5291 18.9329C85.4844 18.9776 85.4284 19 85.3613 19ZM81.3494 22.5754V20.6618H83.5987V22.5754H81.3494ZM85.3571 19V17.0528H89.3354L88.0261 18.1439V10.5734H90.2586V19H85.3571ZM85.3571 19C85.2899 19 85.2396 18.9776 85.206 18.9329C85.1612 18.8881 85.1277 18.8265 85.1053 18.7482C85.0717 18.6587 85.0493 18.5524 85.0382 18.4293C85.027 18.3062 85.0214 18.1719 85.0214 18.0264C85.0214 17.825 85.0326 17.6571 85.0549 17.5228C85.0773 17.3773 85.1165 17.2654 85.1724 17.1871C85.2172 17.0976 85.2788 17.0528 85.3571 17.0528V19ZM85.9614 22.5754V20.6618H88.1268V22.5754H85.9614ZM89.0165 22.5754V20.6618H91.1819V22.5754H89.0165ZM92.1594 19V17.0528H98.2527L96.7252 18.3789V15.5588C96.7252 14.7643 96.6413 14.1488 96.4734 13.7124C96.3167 13.2759 96.0482 12.9682 95.6677 12.7891C95.2984 12.6101 94.7892 12.5206 94.1401 12.5206H92.7805V10.5734H94.1401C95.1697 10.5734 96.0426 10.7412 96.7588 11.077C97.4862 11.4127 98.0345 11.9498 98.4038 12.6884C98.7843 13.4158 98.9745 14.3726 98.9745 15.5588V19H92.1594ZM8.97904 38V37.1844H10.3806V38H8.97904ZM8.09446 38V29.7631H8.97904V38H8.09446ZM10.3806 38V37.1844C10.4265 37.1844 10.4648 37.1958 10.4955 37.2188C10.5261 37.2341 10.5491 37.2609 10.5644 37.2992C10.5797 37.3299 10.5912 37.372 10.5988 37.4256C10.6065 37.4716 10.6103 37.5252 10.6103 37.5864C10.6103 37.6477 10.6065 37.7051 10.5988 37.7588C10.5912 37.8124 10.5797 37.8583 10.5644 37.8966C10.5491 37.9272 10.5261 37.954 10.4955 37.977C10.4648 37.9923 10.4265 38 10.3806 38ZM10.3797 38V37.1844H12.0339L11.6204 37.5175V32.256H12.5164V38H10.3797ZM10.3797 38C10.3337 38 10.2954 37.9923 10.2648 37.977C10.2342 37.954 10.2112 37.9272 10.1959 37.8966C10.1805 37.8583 10.1691 37.8124 10.1614 37.7588C10.1537 37.7051 10.1499 37.6477 10.1499 37.5864C10.1499 37.5022 10.1576 37.4333 10.1729 37.3796C10.1805 37.3184 10.2035 37.2724 10.2418 37.2418C10.2725 37.2035 10.3184 37.1844 10.3797 37.1844V38ZM11.6204 31.2221V30.1882H12.5164V31.2221H11.6204ZM15.4298 38V37.1844H16.8313V38H15.4298ZM14.5452 38V29.7631H15.4298V38H14.5452ZM16.8313 38V37.1844C16.8773 37.1844 16.9156 37.1958 16.9462 37.2188C16.9769 37.2341 16.9998 37.2609 17.0152 37.2992C17.0305 37.3299 17.042 37.372 17.0496 37.4256C17.0573 37.4716 17.0611 37.5252 17.0611 37.5864C17.0611 37.6477 17.0573 37.7051 17.0496 37.7588C17.042 37.8124 17.0305 37.8583 17.0152 37.8966C16.9998 37.9272 16.9769 37.954 16.9462 37.977C16.9156 37.9923 16.8773 38 16.8313 38ZM16.8304 38V37.1844H23.1144L22.4481 37.6554V35.1854C22.4481 34.6493 22.3868 34.2281 22.2643 33.9218C22.1417 33.6154 21.9311 33.3971 21.6324 33.2669C21.3414 33.1368 20.9431 33.0717 20.4377 33.0717C20.116 33.0717 19.7943 33.0946 19.4727 33.1406C19.1587 33.1865 18.9136 33.2478 18.7375 33.3244L19.2774 32.773C19.2314 32.9568 19.1855 33.1904 19.1395 33.4737C19.0936 33.7494 19.0553 34.0481 19.0247 34.3698C18.994 34.6915 18.9787 35.0131 18.9787 35.3348C18.9787 35.6641 18.994 35.9858 19.0247 36.2998C19.0553 36.6138 19.0897 36.8857 19.128 37.1154C19.1663 37.3452 19.197 37.506 19.2199 37.5979L18.3698 37.8392C18.3392 37.7396 18.3009 37.5673 18.255 37.3222C18.2167 37.0771 18.1784 36.7823 18.1401 36.4376C18.1094 36.093 18.0941 35.7254 18.0941 35.3348C18.0941 34.9595 18.1094 34.5957 18.1401 34.2434C18.1784 33.8835 18.2205 33.558 18.2664 33.2669C18.3201 32.9759 18.3698 32.7423 18.4158 32.5662C18.5843 32.4973 18.8523 32.4283 19.2199 32.3594C19.5876 32.2905 19.9935 32.256 20.4377 32.256C21.081 32.256 21.6171 32.3517 22.046 32.5432C22.4825 32.7347 22.808 33.0448 23.0225 33.4737C23.2369 33.895 23.3441 34.4655 23.3441 35.1854V38H16.8304ZM16.8304 38C16.7845 38 16.7462 37.9923 16.7156 37.977C16.6849 37.954 16.662 37.9272 16.6466 37.8966C16.6313 37.8583 16.6198 37.8124 16.6122 37.7588C16.6045 37.7051 16.6007 37.6477 16.6007 37.5864C16.6007 37.5022 16.6083 37.4333 16.6237 37.3796C16.6313 37.3184 16.6543 37.2724 16.6926 37.2418C16.7232 37.2035 16.7692 37.1844 16.8304 37.1844V38ZM25.304 38V29.7631H26.1886V38H25.304ZM25.2121 29.0049C25.0896 28.8517 24.9938 28.7024 24.9249 28.5569C24.8636 28.4114 24.833 28.2582 24.833 28.0974C24.833 27.8753 24.8866 27.6761 24.9938 27.5C25.1087 27.3238 25.258 27.186 25.4419 27.0864C25.6257 26.9869 25.8248 26.9371 26.0392 26.9371C26.1618 26.9371 26.2843 26.9562 26.4068 26.9945C26.5294 27.0251 26.6366 27.0711 26.7285 27.1324L26.4298 27.6493C26.3686 27.611 26.3073 27.5881 26.246 27.5804C26.1924 27.5651 26.135 27.5574 26.0737 27.5574C25.8975 27.5574 25.7559 27.6072 25.6486 27.7068C25.5491 27.8063 25.4993 27.9365 25.4993 28.0974C25.4993 28.1969 25.5184 28.2927 25.5567 28.3846C25.6027 28.4765 25.6678 28.576 25.752 28.6832L25.2121 29.0049ZM24.6147 29.0049V28.396H26.8779V29.0049H24.6147ZM34.4976 38V32.256H35.3937V37.5175L34.9801 37.1844H36.6344V38H34.4976ZM32.0162 34.209V33.3818H34.4976V34.209H32.0162ZM29.9139 40.5388C29.8144 40.5388 29.711 40.5312 29.6037 40.5159C29.4889 40.5082 29.3778 40.5006 29.2706 40.4929L29.374 39.6772C29.4812 39.6849 29.5808 39.6926 29.6727 39.7002C29.7646 39.7155 29.845 39.7232 29.9139 39.7232C30.2739 39.7232 30.5649 39.5853 30.787 39.3096C31.0091 39.0416 31.1202 38.6663 31.1202 38.1838V32.256H32.0162V38.1838C32.0162 38.651 31.9243 39.0607 31.7405 39.413C31.5644 39.773 31.3193 40.0487 31.0053 40.2402C30.6913 40.4393 30.3275 40.5388 29.9139 40.5388ZM36.6344 38V37.1844C36.6803 37.1844 36.7186 37.1958 36.7493 37.2188C36.7799 37.2341 36.8029 37.2609 36.8182 37.2992C36.8335 37.3299 36.845 37.372 36.8527 37.4256C36.8603 37.4716 36.8641 37.5252 36.8641 37.5864C36.8641 37.6477 36.8603 37.7051 36.8527 37.7588C36.845 37.8124 36.8335 37.8583 36.8182 37.8966C36.8029 37.9272 36.7799 37.954 36.7493 37.977C36.7186 37.9923 36.6803 38 36.6344 38ZM34.5321 29.7057V28.7292H35.3592V29.7057H34.5321ZM33.7049 31.2221V30.1882H34.601V31.2221H33.7049ZM35.2788 31.2221V30.1882H36.1749V31.2221H35.2788ZM36.6315 38V37.1844H42.3755L42.0538 37.4716V35.4267C42.0538 35.0131 41.9964 34.6723 41.8815 34.4043C41.7743 34.1285 41.6096 33.9256 41.3875 33.7954C41.1731 33.6575 40.9012 33.5886 40.5719 33.5886H38.0675L37.4127 32.6006L37.9067 31.6471C37.9986 31.4787 38.0943 31.3063 38.1939 31.1302C38.2934 30.954 38.416 30.7511 38.5615 30.5213C38.707 30.2916 38.8908 30.012 39.1129 29.6827L39.8596 30.1307C39.6375 30.4677 39.4576 30.7473 39.3197 30.9694C39.1818 31.1915 39.0631 31.3829 38.9636 31.5438C38.8717 31.7046 38.7836 31.8654 38.6994 32.0262L38.125 33.1291L37.8952 32.773H40.5719C41.0544 32.773 41.4488 32.8572 41.7552 33.0257C42.0692 33.1865 42.3104 33.401 42.4789 33.669C42.655 33.9371 42.7776 34.2281 42.8465 34.5421C42.9154 34.8485 42.9499 35.1433 42.9499 35.4267V38H36.6315ZM36.6315 38C36.5856 38 36.5473 37.9923 36.5166 37.977C36.486 37.954 36.463 37.9272 36.4477 37.8966C36.4324 37.8583 36.4209 37.8124 36.4132 37.7588C36.4056 37.7051 36.4018 37.6477 36.4018 37.5864C36.4018 37.5022 36.4094 37.4333 36.4247 37.3796C36.4324 37.3184 36.4554 37.2724 36.4937 37.2418C36.5243 37.2035 36.5702 37.1844 36.6315 37.1844V38ZM44.271 38V37.1844H49.8886L49.3832 37.7013V29.7631H50.2792V38H44.271ZM46.1091 37.1844V31.3944H46.9937V37.1844H46.1091ZM46.0172 30.6247C45.8947 30.4715 45.7989 30.3222 45.73 30.1767C45.6687 30.0312 45.6381 29.878 45.6381 29.7172C45.6381 29.4951 45.6917 29.2959 45.7989 29.1198C45.9138 28.9436 46.0631 28.8058 46.247 28.7062C46.4308 28.6067 46.6299 28.5569 46.8443 28.5569C46.9669 28.5569 47.0894 28.576 47.2119 28.6143C47.3345 28.645 47.4417 28.6909 47.5336 28.7522L47.2349 29.2691C47.1737 29.2308 47.1124 29.2079 47.0511 29.2002C46.9975 29.1849 46.9401 29.1772 46.8788 29.1772C46.7026 29.1772 46.561 29.227 46.4537 29.3266C46.3542 29.4261 46.3044 29.5563 46.3044 29.7172C46.3044 29.8167 46.3235 29.9125 46.3618 30.0044C46.4078 30.0963 46.4729 30.1958 46.5571 30.3031L46.0172 30.6247ZM45.4198 30.6247V30.0159H47.683V30.6247H45.4198ZM52.3075 38V29.7631H53.1921V38H52.3075ZM64.959 38V37.1844H66.1997V38H64.959ZM60.6855 38C59.9273 38 59.2954 37.9119 58.79 37.7358C58.2845 37.5596 57.9054 37.2916 57.6526 36.9316C57.3999 36.5717 57.2735 36.1121 57.2735 35.5531C57.2735 35.3693 57.285 35.1701 57.308 34.9557C57.3386 34.7412 57.3731 34.5345 57.4114 34.3353C57.4497 34.1285 57.4842 33.9524 57.5148 33.8069C57.5454 33.6537 57.5646 33.5503 57.5722 33.4967L58.4453 33.6575C58.4223 33.7801 58.3879 33.9486 58.3419 34.163C58.3036 34.3775 58.2653 34.6072 58.227 34.8523C58.1887 35.0974 58.1696 35.331 58.1696 35.5531C58.1696 35.8364 58.2117 36.0815 58.296 36.2883C58.3879 36.4951 58.5296 36.6674 58.721 36.8052C58.9201 36.9354 59.1805 37.0312 59.5022 37.0924C59.8239 37.1537 60.2183 37.1844 60.6855 37.1844H64.4765L64.0629 37.5175V29.7631H64.959V38H60.6855ZM66.1997 38V37.1844C66.2457 37.1844 66.2839 37.1958 66.3146 37.2188C66.3452 37.2341 66.3682 37.2609 66.3835 37.2992C66.3988 37.3299 66.4103 37.372 66.418 37.4256C66.4256 37.4716 66.4295 37.5252 66.4295 37.5864C66.4295 37.6477 66.4256 37.7051 66.418 37.7588C66.4103 37.8124 66.3988 37.8583 66.3835 37.8966C66.3682 37.9272 66.3452 37.954 66.3146 37.977C66.2839 37.9923 66.2457 38 66.1997 38ZM60.5821 34.0252C60.4595 33.872 60.3638 33.7226 60.2949 33.5771C60.2336 33.4316 60.203 33.2784 60.203 33.1176C60.203 32.8955 60.2566 32.6964 60.3638 32.5202C60.4787 32.3441 60.628 32.2062 60.8118 32.1067C60.9956 32.0071 61.1948 31.9573 61.4092 31.9573C61.5318 31.9573 61.6543 31.9765 61.7768 32.0148C61.8994 32.0454 62.0066 32.0913 62.0985 32.1526L61.7998 32.6696C61.7385 32.6313 61.6773 32.6083 61.616 32.6006C61.5624 32.5853 61.5049 32.5777 61.4437 32.5777C61.2675 32.5777 61.1258 32.6275 61.0186 32.727C60.9191 32.8266 60.8693 32.9568 60.8693 33.1176C60.8693 33.2172 60.8884 33.3129 60.9267 33.4048C60.9727 33.4967 61.0378 33.5963 61.122 33.7035L60.5821 34.0252ZM59.9847 34.0252V33.4163H62.2478V34.0252H59.9847ZM68.3409 38V37.1844H69.5816V38H68.3409ZM69.5816 38V37.1844C69.6275 37.1844 69.6658 37.1958 69.6964 37.2188C69.7271 37.2341 69.7501 37.2609 69.7654 37.2992C69.7807 37.3299 69.7922 37.372 69.7998 37.4256C69.8075 37.4716 69.8113 37.5252 69.8113 37.5864C69.8113 37.6477 69.8075 37.7051 69.7998 37.7588C69.7922 37.8124 69.7807 37.8583 69.7654 37.8966C69.7501 37.9272 69.7271 37.954 69.6964 37.977C69.6658 37.9923 69.6275 38 69.5816 38ZM66.2041 38C66.1581 38 66.1199 37.9923 66.0892 37.977C66.0586 37.954 66.0356 37.9272 66.0203 37.8966C66.005 37.8583 65.9935 37.8124 65.9858 37.7588C65.9782 37.7051 65.9743 37.6477 65.9743 37.5864C65.9743 37.5022 65.982 37.4333 65.9973 37.3796C66.005 37.3184 66.028 37.2724 66.0662 37.2418C66.0969 37.2035 66.1428 37.1844 66.2041 37.1844V38ZM66.2041 38V37.1844H67.8584L67.4448 37.5175V32.256H68.3409V38H66.2041ZM66.6636 31.2221V30.1882H67.5597V31.2221H66.6636ZM68.2375 31.2221V30.1882H69.1335V31.2221H68.2375ZM76.9447 38V37.1844H78.1854V38H76.9447ZM69.5809 38V37.1844H77.1975L76.3703 37.9311V35.2314C76.3703 34.7489 76.3014 34.3506 76.1636 34.0366C76.0334 33.715 75.8342 33.4737 75.5662 33.3129C75.3058 33.1521 74.9765 33.0717 74.5782 33.0717C74.2412 33.0717 73.9272 33.1291 73.6362 33.244C73.3528 33.3512 73.0886 33.4967 72.8435 33.6805C72.5985 33.8567 72.3687 34.0558 72.1542 34.2779C71.9475 34.4923 71.756 34.7106 71.5798 34.9327C71.4037 35.1548 71.2429 35.3578 71.0974 35.5416L70.7987 34.7259C71.0361 34.4272 71.2773 34.1324 71.5224 33.8413C71.7675 33.5503 72.0355 33.2861 72.3266 33.0487C72.6176 32.8113 72.9469 32.6198 73.3145 32.4743C73.6822 32.3288 74.1034 32.256 74.5782 32.256C75.122 32.256 75.5662 32.3479 75.9108 32.5317C76.2631 32.7155 76.535 32.9606 76.7265 33.2669C76.9256 33.5656 77.0634 33.8873 77.14 34.2319C77.2166 34.5766 77.2549 34.9097 77.2549 35.2314V38H69.5809ZM70.3391 37.1844V29.7631H71.2352V37.1844H70.3391ZM69.5809 38C69.535 38 69.4967 37.9923 69.4661 37.977C69.4354 37.954 69.4124 37.9272 69.3971 37.8966C69.3818 37.8583 69.3703 37.8124 69.3627 37.7588C69.355 37.7051 69.3512 37.6477 69.3512 37.5864C69.3512 37.5022 69.3588 37.4333 69.3742 37.3796C69.3818 37.3184 69.4048 37.2724 69.4431 37.2418C69.4737 37.2035 69.5197 37.1844 69.5809 37.1844V38ZM78.1854 38V37.1844C78.2314 37.1844 78.2697 37.1958 78.3003 37.2188C78.331 37.2341 78.3539 37.2609 78.3692 37.2992C78.3846 37.3299 78.3961 37.372 78.4037 37.4256C78.4114 37.4716 78.4152 37.5252 78.4152 37.5864C78.4152 37.6477 78.4114 37.7051 78.4037 37.7588C78.3961 37.8124 78.3846 37.8583 78.3692 37.8966C78.3539 37.9272 78.331 37.954 78.3003 37.977C78.2697 37.9923 78.2314 38 78.1854 38ZM73.4754 31.2221V30.1882H74.3714V31.2221H73.4754ZM84.2858 38V37.1844H85.5265V38H84.2858ZM78.1857 38C78.1398 38 78.1015 37.9923 78.0708 37.977C78.0402 37.954 78.0172 37.9272 78.0019 37.8966C77.9866 37.8583 77.9751 37.8124 77.9674 37.7588C77.9598 37.7051 77.9559 37.6477 77.9559 37.5864C77.9559 37.5022 77.9636 37.4333 77.9789 37.3796C77.9866 37.3184 78.0096 37.2724 78.0479 37.2418C78.0785 37.2035 78.1244 37.1844 78.1857 37.1844V38ZM78.1857 38V37.1844H83.9871L83.3898 37.7013V32.6811L83.8608 33.0717H81.9078C81.4636 33.0717 81.119 33.1253 80.8739 33.2325C80.6365 33.3397 80.4718 33.5427 80.3799 33.8413C80.288 34.1324 80.2421 34.5613 80.2421 35.128C80.2421 35.6947 80.288 36.1275 80.3799 36.4261C80.4718 36.7172 80.6365 36.9163 80.8739 37.0235C81.119 37.1307 81.4636 37.1844 81.9078 37.1844V37.7702C81.2415 37.7702 80.7207 37.6898 80.3454 37.529C79.9778 37.3605 79.7174 37.0848 79.5643 36.7019C79.4188 36.3113 79.346 35.7866 79.346 35.128C79.346 34.4694 79.4188 33.9294 79.5643 33.5082C79.7174 33.0793 79.9778 32.7653 80.3454 32.5662C80.7207 32.3594 81.2415 32.256 81.9078 32.256H84.2858V38H78.1857ZM85.5265 38V37.1844C85.5725 37.1844 85.6108 37.1958 85.6414 37.2188C85.672 37.2341 85.695 37.2609 85.7103 37.2992C85.7257 37.3299 85.7371 37.372 85.7448 37.4256C85.7525 37.4716 85.7563 37.5252 85.7563 37.5864C85.7563 37.6477 85.7525 37.7051 85.7448 37.7588C85.7371 37.8124 85.7257 37.8583 85.7103 37.8966C85.695 37.9272 85.672 37.954 85.6414 37.977C85.6108 37.9923 85.5725 38 85.5265 38ZM81.6321 31.2221V30.1882H82.5282V31.2221H81.6321ZM91.2093 38V37.1844H92.45V38H91.2093ZM85.5228 38C85.4768 38 85.4385 37.9923 85.4079 37.977C85.3772 37.954 85.3543 37.9272 85.339 37.8966C85.3236 37.8583 85.3121 37.8124 85.3045 37.7588C85.2968 37.7051 85.293 37.6477 85.293 37.5864C85.293 37.5022 85.3007 37.4333 85.316 37.3796C85.3236 37.3184 85.3466 37.2724 85.3849 37.2418C85.4155 37.2035 85.4615 37.1844 85.5228 37.1844V38ZM85.5228 38V37.1844H90.589L90.3132 37.4256V34.5766C90.3132 34.0788 90.1562 33.7073 89.8422 33.4622C89.5359 33.2095 89.0649 33.0831 88.4292 33.0831C88.2301 33.0831 87.9429 33.1023 87.5676 33.1406C87.1923 33.1712 86.7979 33.2172 86.3844 33.2784L86.281 32.5432C86.595 32.4666 86.9396 32.4015 87.3149 32.3479C87.6902 32.2866 88.0539 32.256 88.4062 32.256C88.9883 32.256 89.4861 32.3479 89.8997 32.5317C90.3209 32.7079 90.6426 32.9683 90.8647 33.3129C91.0944 33.6575 91.2093 34.0788 91.2093 34.5766V38H85.5228ZM92.45 38V37.1844C92.496 37.1844 92.5343 37.1958 92.5649 37.2188C92.5955 37.2341 92.6185 37.2609 92.6338 37.2992C92.6491 37.3299 92.6606 37.372 92.6683 37.4256C92.6759 37.4716 92.6798 37.5252 92.6798 37.5864C92.6798 37.6477 92.6759 37.7051 92.6683 37.7588C92.6606 37.8124 92.6491 37.8583 92.6338 37.8966C92.6185 37.9272 92.5955 37.954 92.5649 37.977C92.5343 37.9923 92.496 38 92.45 38ZM92.4447 38V37.1844H98.7286L98.0623 37.6554V35.1854C98.0623 34.6493 98.0011 34.2281 97.8785 33.9218C97.756 33.6154 97.5454 33.3971 97.2467 33.2669C96.9557 33.1368 96.5574 33.0717 96.0519 33.0717C95.7303 33.0717 95.4086 33.0946 95.087 33.1406C94.7729 33.1865 94.5279 33.2478 94.3517 33.3244L94.8917 32.773C94.8457 32.9568 94.7998 33.1904 94.7538 33.4737C94.7079 33.7494 94.6696 34.0481 94.6389 34.3698C94.6083 34.6915 94.593 35.0131 94.593 35.3348C94.593 35.6641 94.6083 35.9858 94.6389 36.2998C94.6696 36.6138 94.704 36.8857 94.7423 37.1154C94.7806 37.3452 94.8112 37.506 94.8342 37.5979L93.9841 37.8392C93.9535 37.7396 93.9152 37.5673 93.8692 37.3222C93.8309 37.0771 93.7926 36.7823 93.7543 36.4376C93.7237 36.093 93.7084 35.7254 93.7084 35.3348C93.7084 34.9595 93.7237 34.5957 93.7543 34.2434C93.7926 33.8835 93.8348 33.558 93.8807 33.2669C93.9343 32.9759 93.9841 32.7423 94.0301 32.5662C94.1985 32.4973 94.4666 32.4283 94.8342 32.3594C95.2018 32.2905 95.6077 32.256 96.0519 32.256C96.6953 32.256 97.2314 32.3517 97.6603 32.5432C98.0968 32.7347 98.4223 33.0448 98.6367 33.4737C98.8512 33.895 98.9584 34.4655 98.9584 35.1854V38H92.4447ZM92.4447 38C92.3988 38 92.3605 37.9923 92.3298 37.977C92.2992 37.954 92.2762 37.9272 92.2609 37.8966C92.2456 37.8583 92.2341 37.8124 92.2264 37.7588C92.2188 37.7051 92.215 37.6477 92.215 37.5864C92.215 37.5022 92.2226 37.4333 92.2379 37.3796C92.2456 37.3184 92.2686 37.2724 92.3069 37.2418C92.3375 37.2035 92.3834 37.1844 92.4447 37.1844V38Z" fill="#06101C"/>
<path d="M106.285 15.9682L104.121 9.67346H115.648C118.35 9.67346 120.527 10.0931 122.179 10.9324C123.832 11.7455 125.038 13.1487 125.799 15.1421C126.559 17.1092 126.94 19.8238 126.94 23.2859C126.94 26.9841 126.572 29.9086 125.838 32.0593C125.104 34.1838 123.923 35.705 122.297 36.623C120.697 37.5148 118.573 37.9738 115.924 38V31.6265C116.92 31.4167 117.629 30.6954 118.048 29.4627C118.468 28.23 118.678 26.171 118.678 23.2859C118.678 21.3188 118.573 19.8107 118.363 18.7616C118.153 17.6862 117.799 16.9518 117.301 16.5584C116.802 16.165 116.094 15.9682 115.176 15.9682H106.285ZM106.285 38V17.9354H113.957V38H106.285ZM137.239 25.017V32.8068H137.633C138.944 32.8068 139.901 32.5707 140.505 32.0986C141.134 31.6003 141.449 30.7348 141.449 29.502C141.449 28.3742 141.147 27.4956 140.544 26.8661C141.751 26.6038 142.852 26.2628 143.849 25.8432C144.845 25.4235 145.685 24.8727 146.367 24.1908C147.468 24.8465 148.255 25.6858 148.727 26.7087C149.199 27.7054 149.435 28.9381 149.435 30.4069C149.435 32.8461 148.544 34.7215 146.76 36.0329C144.977 37.3443 142.262 38 138.616 38H129.568V17.0305H137.239V21.3188H137.593C138.774 21.3188 139.626 21.0959 140.151 20.65C140.701 20.1779 140.977 19.3648 140.977 18.2108C140.977 17.0305 140.701 16.2174 140.151 15.7715C139.626 15.2994 138.774 15.0634 137.593 15.0634H129.568L127.404 9.67346H139.206C142.38 9.67346 144.688 10.3292 146.131 11.6406C147.573 12.952 148.295 14.788 148.295 17.1485C148.295 18.6435 147.954 19.9025 147.272 20.9254C146.616 21.9221 145.737 22.722 144.636 23.3253C143.534 23.9285 142.341 24.3613 141.056 24.6236C139.77 24.8859 138.498 25.017 137.239 25.017Z" fill="#06101C"/>
</svg>
