<svg width="135" height="47" viewBox="0 0 135 47" fill="none" xmlns="http://www.w3.org/2000/svg">
<path d="M21.5294 19V17.3644H23.0099V19H21.5294ZM9.1637 22.4968C8.3459 22.4968 7.6127 22.3464 6.9641 22.0456C6.3249 21.7542 5.822 21.3453 5.4554 20.8189C5.0888 20.2925 4.9055 19.6956 4.9055 19.0282C4.9055 18.8402 4.9196 18.5911 4.9478 18.2809C4.976 17.9707 5.0136 17.6229 5.0606 17.2375C5.117 16.8521 5.1734 16.462 5.2298 16.0672C5.2956 15.663 5.3567 15.2729 5.4131 14.8969L7.2743 15.1507C7.1709 15.7805 7.0816 16.3586 7.0064 16.885C6.9406 17.402 6.8889 17.8438 6.8513 18.2104C6.8137 18.577 6.7949 18.8449 6.7949 19.0141C6.7949 19.3901 6.8889 19.7144 7.0769 19.987C7.2649 20.2596 7.5328 20.4711 7.8806 20.6215C8.2378 20.7813 8.6655 20.8612 9.1637 20.8612C9.6807 20.8612 10.099 20.786 10.4186 20.6356C10.7382 20.4852 10.9685 20.2784 11.1095 20.0152C11.2599 19.752 11.3351 19.4559 11.3351 19.1269V13.36H13.2245V19.1269C13.2245 19.8037 13.0459 20.3959 12.6887 20.9035C12.3409 21.4111 11.8615 21.8012 11.2505 22.0738C10.6395 22.3558 9.9439 22.4968 9.1637 22.4968ZM13.1963 19L13.2245 17.3644H14.3666C14.6674 17.3644 14.8977 17.3221 15.0575 17.2375C15.2173 17.1435 15.3301 16.9602 15.3959 16.6876C15.4617 16.4056 15.4946 15.9873 15.4946 15.4327V12.655H17.384V15.4327C17.384 16.2693 17.2759 16.9508 17.0597 17.4772C16.8435 18.0036 16.5145 18.389 16.0727 18.6334C15.6309 18.8778 15.0622 19 14.3666 19H13.1963ZM17.9903 19C17.6049 19 17.2242 18.9295 16.8482 18.7885C16.4722 18.6381 16.1197 18.4172 15.7907 18.1258L16.9469 16.9273C17.1255 17.0777 17.2994 17.1905 17.4686 17.2657C17.6472 17.3315 17.8211 17.3644 17.9903 17.3644H20.6411L19.6541 18.2527V15.1225C19.6541 14.9721 19.6353 14.7465 19.5977 14.4457C19.5601 14.1355 19.5131 13.7877 19.4567 13.4023C19.4003 13.0075 19.3345 12.608 19.2593 12.2038L21.1064 11.9218C21.1722 12.2602 21.238 12.6409 21.3038 13.0639C21.3696 13.4775 21.4213 13.8723 21.4589 14.2483C21.5059 14.6149 21.5294 14.9063 21.5294 15.1225V19H17.9903ZM23.0099 19V17.3644C23.0663 17.3644 23.1133 17.3832 23.1509 17.4208C23.1885 17.4584 23.2167 17.5148 23.2355 17.59C23.2543 17.6652 23.2684 17.7545 23.2778 17.8579C23.2872 17.9519 23.2919 18.06 23.2919 18.1822C23.2919 18.3044 23.2872 18.4172 23.2778 18.5206C23.2684 18.624 23.2543 18.7133 23.2355 18.7885C23.2167 18.8543 23.1885 18.906 23.1509 18.9436C23.1133 18.9812 23.0663 19 23.0099 19ZM23.013 19V17.3644H30.0912L29.4708 17.872V15.9544C29.4708 15.4656 29.4191 15.0755 29.3157 14.7841C29.2123 14.4927 29.0525 14.2812 28.8363 14.1496C28.6295 14.018 28.3663 13.9522 28.0467 13.9522H24.9588L23.7885 12.2602L24.5076 10.9066C24.5922 10.7468 24.6862 10.5729 24.7896 10.3849C24.893 10.1969 25.0293 9.9713 25.1985 9.7081C25.3677 9.4449 25.5839 9.1159 25.8471 8.7211L27.4263 9.6094C27.1819 9.976 26.9845 10.2815 26.8341 10.5259C26.6837 10.7609 26.5568 10.9677 26.4534 11.1463C26.35 11.3249 26.256 11.5035 26.1714 11.6821L25.6074 12.7396L25.3254 12.3166H28.0467C28.6483 12.3166 29.1606 12.4153 29.5836 12.6127C30.0066 12.8101 30.345 13.0827 30.5988 13.4305C30.862 13.7783 31.0547 14.1684 31.1769 14.6008C31.2991 15.0332 31.3602 15.4844 31.3602 15.9544V19H23.013ZM23.013 19C22.9566 19 22.9143 18.9812 22.8861 18.9436C22.8485 18.906 22.8203 18.8543 22.8015 18.7885C22.7733 18.7133 22.7545 18.624 22.7451 18.5206C22.7357 18.4172 22.731 18.3044 22.731 18.1822C22.731 18.013 22.7404 17.872 22.7592 17.7592C22.778 17.637 22.8109 17.543 22.8579 17.4772C22.8955 17.402 22.9472 17.3644 23.013 17.3644V19ZM39.5824 19V17.3644H41.0629V19H39.5824ZM35.7754 22.4968C35.4276 22.4968 35.061 22.4686 34.6756 22.4122C34.2996 22.3652 33.8954 22.2994 33.463 22.2148L33.745 20.7061C34.215 20.7625 34.6145 20.8048 34.9435 20.833C35.2725 20.8612 35.5498 20.8753 35.7754 20.8753C36.4522 20.8753 36.941 20.7531 37.2418 20.5087C37.5426 20.2643 37.693 19.8977 37.693 19.4089V13.219L38.1583 13.5574H36.3958C36.0104 13.5574 35.7002 13.6044 35.4652 13.6984C35.2302 13.783 35.0563 13.9663 34.9435 14.2483C34.8401 14.5209 34.7884 14.9392 34.7884 15.5032C34.7884 16.039 34.8354 16.4432 34.9294 16.7158C35.0328 16.979 35.202 17.1529 35.437 17.2375C35.672 17.3221 35.9916 17.3644 36.3958 17.3644H37.693V19H36.3958C35.5968 19 34.9388 18.8731 34.4218 18.6193C33.9048 18.3655 33.5194 17.9801 33.2656 17.4631C33.0212 16.9461 32.899 16.2928 32.899 15.5032C32.899 14.7136 33.0212 14.0556 33.2656 13.5292C33.5194 12.9934 33.9048 12.5939 34.4218 12.3307C34.9388 12.0581 35.5968 11.9218 36.3958 11.9218H39.5824V19.4089C39.5824 20.0481 39.4226 20.598 39.103 21.0586C38.7928 21.5286 38.351 21.8858 37.7776 22.1302C37.2136 22.3746 36.5462 22.4968 35.7754 22.4968ZM41.0629 19V17.3644C41.1193 17.3644 41.1616 17.3832 41.1898 17.4208C41.2274 17.4584 41.2556 17.5148 41.2744 17.59C41.3026 17.6652 41.3214 17.7545 41.3308 17.8579C41.3402 17.9519 41.3449 18.06 41.3449 18.1822C41.3449 18.3044 41.3402 18.4172 41.3308 18.5206C41.3214 18.624 41.3026 18.7133 41.2744 18.7885C41.2556 18.8543 41.2274 18.906 41.1898 18.9436C41.1616 18.9812 41.1193 19 41.0629 19ZM41.0648 19V17.3644H43.6451L42.5453 18.2809V11.9218H44.4347V19H41.0648ZM41.0648 19C41.0084 19 40.9661 18.9812 40.9379 18.9436C40.9003 18.906 40.8721 18.8543 40.8533 18.7885C40.8251 18.7133 40.8063 18.624 40.7969 18.5206C40.7875 18.4172 40.7828 18.3044 40.7828 18.1822C40.7828 18.013 40.7922 17.872 40.811 17.7592C40.8298 17.637 40.8627 17.543 40.9097 17.4772C40.9473 17.402 40.999 17.3644 41.0648 17.3644V19ZM42.5453 22.0033V20.3959H44.4347V22.0033H42.5453ZM59.4836 19V17.3644H60.9641V19H59.4836ZM53.7308 19C52.725 19 51.8743 18.8684 51.1787 18.6052C50.4925 18.342 49.9708 17.9519 49.6136 17.4349C49.2658 16.9179 49.0919 16.274 49.0919 15.5032C49.0919 15.2776 49.106 15.0426 49.1342 14.7982C49.1624 14.5444 49.1953 14.3047 49.2329 14.0791C49.2799 13.8441 49.3222 13.6373 49.3598 13.4587C49.3974 13.2801 49.4256 13.1485 49.4444 13.0639L51.2774 13.4164C51.2492 13.5668 51.2116 13.7595 51.1646 13.9945C51.1176 14.2295 51.0753 14.4786 51.0377 14.7418C51.0001 14.9956 50.9813 15.24 50.9813 15.475C50.9813 15.8416 51.0377 16.1471 51.1505 16.3915C51.2727 16.6359 51.4513 16.8333 51.6863 16.9837C51.9213 17.1247 52.2174 17.2234 52.5746 17.2798C52.9318 17.3362 53.3501 17.3644 53.8295 17.3644H57.5942V11.9218H59.4836V19H53.7308ZM60.9641 19V17.3644C61.0205 17.3644 61.0628 17.3832 61.091 17.4208C61.1286 17.4584 61.1568 17.5148 61.1756 17.59C61.2038 17.6652 61.2226 17.7545 61.232 17.8579C61.2414 17.9519 61.2461 18.06 61.2461 18.1822C61.2461 18.3044 61.2414 18.4172 61.232 18.5206C61.2226 18.624 61.2038 18.7133 61.1756 18.7885C61.1568 18.8543 61.1286 18.906 61.091 18.9436C61.0628 18.9812 61.0205 19 60.9641 19ZM52.1093 11.6257V10.0183H53.9282V11.6257H52.1093ZM54.6755 11.6257V10.0183H56.4944V11.6257H54.6755ZM65.079 19V17.3644H66.8415V19H65.079ZM66.8415 19V17.3644C66.8885 17.3644 66.9308 17.3832 66.9684 17.4208C67.006 17.4584 67.0342 17.5148 67.053 17.59C67.0718 17.6652 67.0859 17.7545 67.0953 17.8579C67.1141 17.9519 67.1235 18.06 67.1235 18.1822C67.1235 18.3044 67.1141 18.4172 67.0953 18.5206C67.0859 18.624 67.0718 18.7133 67.053 18.7885C67.0342 18.8543 67.006 18.906 66.9684 18.9436C66.9402 18.9812 66.8979 19 66.8415 19ZM60.9618 19C60.9054 19 60.8631 18.9812 60.8349 18.9436C60.7973 18.906 60.7691 18.8543 60.7503 18.7885C60.7221 18.7133 60.7033 18.624 60.6939 18.5206C60.6845 18.4172 60.6798 18.3044 60.6798 18.1822C60.6798 18.013 60.6892 17.872 60.708 17.7592C60.7268 17.637 60.7597 17.543 60.8067 17.4772C60.8443 17.402 60.896 17.3644 60.9618 17.3644V19ZM60.9618 19V17.3644H64.3035L63.2037 18.2809V11.9218H65.079V19H60.9618ZM61.4694 22.0033V20.3959H63.2883V22.0033H61.4694ZM64.0356 22.0033V20.3959H65.8545V22.0033H64.0356ZM70.2113 19V17.3644H71.6918V19H70.2113ZM66.8414 19C66.785 19 66.7427 18.9812 66.7145 18.9436C66.6769 18.906 66.6487 18.8543 66.6299 18.7885C66.6017 18.7133 66.5829 18.624 66.5735 18.5206C66.5641 18.4172 66.5594 18.3044 66.5594 18.1822C66.5594 18.013 66.5688 17.872 66.5876 17.7592C66.6064 17.637 66.6393 17.543 66.6863 17.4772C66.7239 17.402 66.7756 17.3644 66.8414 17.3644V19ZM66.8414 19V17.3644H69.4217L68.3219 18.2809V11.9218H70.2113V19H66.8414ZM71.6918 19V17.3644C71.7482 17.3644 71.7952 17.3832 71.8328 17.4208C71.8704 17.4584 71.8986 17.5148 71.9174 17.59C71.9362 17.6652 71.9503 17.7545 71.9597 17.8579C71.9691 17.9519 71.9738 18.06 71.9738 18.1822C71.9738 18.3044 71.9691 18.4172 71.9597 18.5206C71.9503 18.624 71.9362 18.7133 71.9174 18.7885C71.8986 18.8543 71.8704 18.906 71.8328 18.9436C71.7952 18.9812 71.7482 19 71.6918 19ZM68.3219 22.0033V20.3959H70.2113V22.0033H68.3219ZM71.6883 19V17.3644H75.03L73.9302 18.2809V11.9218H75.8055V19H71.6883ZM71.6883 19C71.6319 19 71.5896 18.9812 71.5614 18.9436C71.5238 18.906 71.4956 18.8543 71.4768 18.7885C71.4486 18.7133 71.4298 18.624 71.4204 18.5206C71.411 18.4172 71.4063 18.3044 71.4063 18.1822C71.4063 18.013 71.4157 17.872 71.4345 17.7592C71.4533 17.637 71.4862 17.543 71.5332 17.4772C71.5708 17.402 71.6225 17.3644 71.6883 17.3644V19ZM72.1959 22.0033V20.3959H74.0148V22.0033H72.1959ZM74.7621 22.0033V20.3959H76.581V22.0033H74.7621ZM77.4021 19V17.3644H82.5204L81.2373 18.4783V16.1095C81.2373 15.4421 81.1668 14.9251 81.0258 14.5585C80.8942 14.1919 80.6686 13.9334 80.349 13.783C80.0388 13.6326 79.6111 13.5574 79.0659 13.5574H77.9238V11.9218H79.0659C79.9307 11.9218 80.6639 12.0628 81.2655 12.3448C81.8765 12.6268 82.3371 13.078 82.6473 13.6984C82.9669 14.3094 83.1267 15.1131 83.1267 16.1095V19H77.4021ZM6.37184 38V37.2214H7.70978V38H6.37184ZM5.52741 38V30.1369H6.37184V38H5.52741ZM7.70978 38V37.2214C7.75364 37.2214 7.7902 37.2323 7.81944 37.2543C7.84869 37.2689 7.87062 37.2945 7.88524 37.331C7.89987 37.3603 7.91083 37.4005 7.91814 37.4517C7.92545 37.4955 7.92911 37.5467 7.92911 37.6052C7.92911 37.6637 7.92545 37.7185 7.91814 37.7697C7.91083 37.8209 7.89987 37.8647 7.88524 37.9013C7.87062 37.9305 7.84869 37.9561 7.81944 37.9781C7.7902 37.9927 7.75364 38 7.70978 38ZM7.70892 38V37.2214H9.28812L8.89332 37.5394V32.5167H9.74872V38H7.70892ZM7.70892 38C7.66505 38 7.6285 37.9927 7.59925 37.9781C7.57001 37.9561 7.54807 37.9305 7.53345 37.9013C7.51883 37.8647 7.50786 37.8209 7.50055 37.7697C7.49324 37.7185 7.48959 37.6637 7.48959 37.6052C7.48959 37.5248 7.4969 37.459 7.51152 37.4078C7.51883 37.3493 7.54076 37.3054 7.57732 37.2762C7.60656 37.2396 7.65043 37.2214 7.70892 37.2214V38ZM8.89332 31.5297V30.5427H9.74872V31.5297H8.89332ZM12.5299 38V37.2214H13.8678V38H12.5299ZM11.6854 38V30.1369H12.5299V38H11.6854ZM13.8678 38V37.2214C13.9117 37.2214 13.9482 37.2323 13.9775 37.2543C14.0067 37.2689 14.0287 37.2945 14.0433 37.331C14.0579 37.3603 14.0689 37.4005 14.0762 37.4517C14.0835 37.4955 14.0871 37.5467 14.0871 37.6052C14.0871 37.6637 14.0835 37.7185 14.0762 37.7697C14.0689 37.8209 14.0579 37.8647 14.0433 37.9013C14.0287 37.9305 14.0067 37.9561 13.9775 37.9781C13.9482 37.9927 13.9117 38 13.8678 38ZM13.867 38V37.2214H19.8657L19.2297 37.671V35.3132C19.2297 34.8014 19.1712 34.3993 19.0542 34.1068C18.9372 33.8144 18.7362 33.606 18.451 33.4817C18.1732 33.3574 17.793 33.2953 17.3105 33.2953C17.0034 33.2953 16.6964 33.3172 16.3893 33.3611C16.0895 33.405 15.8556 33.4635 15.6874 33.5366L16.2029 33.0102C16.159 33.1856 16.1151 33.4086 16.0713 33.6791C16.0274 33.9423 15.9908 34.2275 15.9616 34.5345C15.9323 34.8416 15.9177 35.1487 15.9177 35.4557C15.9177 35.7701 15.9323 36.0772 15.9616 36.3769C15.9908 36.6767 16.0237 36.9362 16.0603 37.1556C16.0968 37.3749 16.1261 37.5284 16.148 37.6162L15.3365 37.8465C15.3072 37.7514 15.2707 37.5869 15.2268 37.353C15.1903 37.119 15.1537 36.8375 15.1172 36.5085C15.0879 36.1795 15.0733 35.8286 15.0733 35.4557C15.0733 35.0975 15.0879 34.7502 15.1172 34.4139C15.1537 34.0703 15.1939 33.7596 15.2378 33.4817C15.289 33.2039 15.3365 32.9809 15.3804 32.8128C15.5412 32.747 15.7971 32.6812 16.148 32.6154C16.499 32.5496 16.8864 32.5167 17.3105 32.5167C17.9246 32.5167 18.4364 32.6081 18.8458 32.7908C19.2626 32.9736 19.5733 33.2697 19.778 33.6791C19.9827 34.0812 20.0851 34.6259 20.0851 35.3132V38H13.867ZM13.867 38C13.8231 38 13.7865 37.9927 13.7573 37.9781C13.728 37.9561 13.7061 37.9305 13.6915 37.9013C13.6769 37.8647 13.6659 37.8209 13.6586 37.7697C13.6513 37.7185 13.6476 37.6637 13.6476 37.6052C13.6476 37.5248 13.6549 37.459 13.6696 37.4078C13.6769 37.3493 13.6988 37.3054 13.7354 37.2762C13.7646 37.2396 13.8085 37.2214 13.867 37.2214V38ZM21.956 38V30.1369H22.8004V38H21.956ZM21.8683 29.4131C21.7513 29.2669 21.6599 29.1243 21.5941 28.9854C21.5356 28.8465 21.5064 28.7003 21.5064 28.5467C21.5064 28.3347 21.5575 28.1446 21.6599 27.9765C21.7696 27.8083 21.9121 27.6767 22.0876 27.5817C22.2631 27.4866 22.4531 27.4391 22.6579 27.4391C22.7748 27.4391 22.8918 27.4574 23.0088 27.4939C23.1258 27.5232 23.2281 27.567 23.3159 27.6255L23.0307 28.119C22.9722 28.0825 22.9137 28.0605 22.8553 28.0532C22.8041 28.0386 22.7492 28.0313 22.6908 28.0313C22.5226 28.0313 22.3873 28.0788 22.285 28.1739C22.1899 28.2689 22.1424 28.3932 22.1424 28.5467C22.1424 28.6418 22.1607 28.7332 22.1973 28.8209C22.2411 28.9086 22.3033 29.0037 22.3837 29.106L21.8683 29.4131ZM21.298 29.4131V28.8319H23.4584V29.4131H21.298ZM30.7324 38V32.5167H31.5878V37.5394L31.193 37.2214H32.7722V38H30.7324ZM28.3636 34.381V33.5914H30.7324V34.381H28.3636ZM26.3567 40.4236C26.2617 40.4236 26.163 40.4163 26.0606 40.4017C25.9509 40.3944 25.8449 40.3871 25.7426 40.3798L25.8413 39.6011C25.9436 39.6084 26.0387 39.6158 26.1264 39.6231C26.2141 39.6377 26.2909 39.645 26.3567 39.645C26.7003 39.645 26.9782 39.5134 27.1902 39.2502C27.4022 38.9943 27.5082 38.6361 27.5082 38.1755V32.5167H28.3636V38.1755C28.3636 38.6214 28.2759 39.0126 28.1004 39.3489C27.9323 39.6925 27.6983 39.9557 27.3985 40.1385C27.0988 40.3286 26.7515 40.4236 26.3567 40.4236ZM32.7722 38V37.2214C32.8161 37.2214 32.8526 37.2323 32.8819 37.2543C32.9111 37.2689 32.9331 37.2945 32.9477 37.331C32.9623 37.3603 32.9733 37.4005 32.9806 37.4517C32.9879 37.4955 32.9915 37.5467 32.9915 37.6052C32.9915 37.6637 32.9879 37.7185 32.9806 37.7697C32.9733 37.8209 32.9623 37.8647 32.9477 37.9013C32.9331 37.9305 32.9111 37.9561 32.8819 37.9781C32.8526 37.9927 32.8161 38 32.7722 38ZM30.7653 30.0821V29.1499H31.5549V30.0821H30.7653ZM29.9757 31.5297V30.5427H30.8311V31.5297H29.9757ZM31.4781 31.5297V30.5427H32.3335V31.5297H31.4781ZM32.7695 38V37.2214H38.2528L37.9457 37.4955V35.5435C37.9457 35.1487 37.8909 34.8233 37.7812 34.5674C37.6789 34.3042 37.5217 34.1105 37.3097 33.9862C37.105 33.8546 36.8454 33.7888 36.531 33.7888H34.1403L33.5152 32.8457L33.9868 31.9354C34.0745 31.7746 34.1659 31.6101 34.2609 31.4419C34.356 31.2738 34.473 31.08 34.6119 30.8607C34.7508 30.6414 34.9262 30.3745 35.1383 30.0601L35.8511 30.4878C35.6391 30.8095 35.4673 31.0764 35.3357 31.2884C35.2041 31.5004 35.0907 31.6832 34.9957 31.8367C34.908 31.9903 34.8239 32.1438 34.7435 32.2973L34.1951 33.3501L33.9758 33.0102H36.531C36.9916 33.0102 37.3682 33.0906 37.6606 33.2514C37.9604 33.405 38.1907 33.6097 38.3515 33.8656C38.5197 34.1215 38.6366 34.3993 38.7024 34.699C38.7682 34.9915 38.8011 35.273 38.8011 35.5435V38H32.7695ZM32.7695 38C32.7256 38 32.689 37.9927 32.6598 37.9781C32.6306 37.9561 32.6086 37.9305 32.594 37.9013C32.5794 37.8647 32.5684 37.8209 32.5611 37.7697C32.5538 37.7185 32.5501 37.6637 32.5501 37.6052C32.5501 37.5248 32.5574 37.459 32.5721 37.4078C32.5794 37.3493 32.6013 37.3054 32.6379 37.2762C32.6671 37.2396 32.711 37.2214 32.7695 37.2214V38ZM40.0623 38V37.2214H45.425L44.9425 37.7149V30.1369H45.7979V38H40.0623ZM41.817 37.2214V31.6942H42.6614V37.2214H41.817ZM41.7292 30.9594C41.6123 30.8132 41.5209 30.6706 41.4551 30.5317C41.3966 30.3928 41.3673 30.2466 41.3673 30.093C41.3673 29.881 41.4185 29.6909 41.5209 29.5228C41.6305 29.3546 41.7731 29.223 41.9486 29.128C42.124 29.0329 42.3141 28.9854 42.5188 28.9854C42.6358 28.9854 42.7528 29.0037 42.8698 29.0402C42.9867 29.0695 43.0891 29.1133 43.1768 29.1718L42.8917 29.6653C42.8332 29.6288 42.7747 29.6068 42.7162 29.5995C42.6651 29.5849 42.6102 29.5776 42.5517 29.5776C42.3836 29.5776 42.2483 29.6251 42.146 29.7202C42.0509 29.8152 42.0034 29.9395 42.0034 30.093C42.0034 30.1881 42.0217 30.2795 42.0582 30.3672C42.1021 30.4549 42.1642 30.55 42.2447 30.6523L41.7292 30.9594ZM41.159 30.9594V30.3782H43.3194V30.9594H41.159ZM47.7341 38V30.1369H48.5785V38H47.7341ZM59.8115 38V37.2214H60.9959V38H59.8115ZM55.7319 38C55.0081 38 54.4049 37.9159 53.9224 37.7478C53.4398 37.5796 53.0779 37.3237 52.8367 36.9801C52.5954 36.6365 52.4748 36.1978 52.4748 35.6641C52.4748 35.4886 52.4857 35.2985 52.5077 35.0938C52.5369 34.8891 52.5698 34.6917 52.6064 34.5016C52.6429 34.3042 52.6758 34.1361 52.7051 33.9972C52.7343 33.8509 52.7526 33.7522 52.7599 33.7011L53.5934 33.8546C53.5714 33.9716 53.5385 34.1324 53.4947 34.3371C53.4581 34.5418 53.4216 34.7612 53.385 34.9951C53.3484 35.2291 53.3302 35.4521 53.3302 35.6641C53.3302 35.9346 53.3704 36.1686 53.4508 36.366C53.5385 36.5634 53.6738 36.7279 53.8566 36.8595C54.0467 36.9838 54.2952 37.0751 54.6023 37.1336C54.9094 37.1921 55.2859 37.2214 55.7319 37.2214H59.3509L58.9561 37.5394V30.1369H59.8115V38H55.7319ZM60.9959 38V37.2214C61.0397 37.2214 61.0763 37.2323 61.1055 37.2543C61.1348 37.2689 61.1567 37.2945 61.1713 37.331C61.186 37.3603 61.1969 37.4005 61.2042 37.4517C61.2115 37.4955 61.2152 37.5467 61.2152 37.6052C61.2152 37.6637 61.2115 37.7185 61.2042 37.7697C61.1969 37.8209 61.186 37.8647 61.1713 37.9013C61.1567 37.9305 61.1348 37.9561 61.1055 37.9781C61.0763 37.9927 61.0397 38 60.9959 38ZM55.6332 34.2055C55.5162 34.0593 55.4248 33.9167 55.359 33.7778C55.3005 33.6389 55.2713 33.4927 55.2713 33.3392C55.2713 33.1271 55.3224 32.9371 55.4248 32.7689C55.5345 32.6007 55.677 32.4691 55.8525 32.3741C56.028 32.2791 56.2181 32.2315 56.4228 32.2315C56.5397 32.2315 56.6567 32.2498 56.7737 32.2864C56.8907 32.3156 56.993 32.3595 57.0808 32.418L56.7956 32.9115C56.7371 32.8749 56.6787 32.853 56.6202 32.8457C56.569 32.831 56.5142 32.8237 56.4557 32.8237C56.2875 32.8237 56.1523 32.8713 56.0499 32.9663C55.9549 33.0613 55.9073 33.1856 55.9073 33.3392C55.9073 33.4342 55.9256 33.5256 55.9622 33.6133C56.006 33.7011 56.0682 33.7961 56.1486 33.8985L55.6332 34.2055ZM55.0629 34.2055V33.6243H57.2233V34.2055H55.0629ZM63.0399 38V37.2214H64.2243V38H63.0399ZM64.2243 38V37.2214C64.2681 37.2214 64.3047 37.2323 64.3339 37.2543C64.3632 37.2689 64.3851 37.2945 64.3997 37.331C64.4143 37.3603 64.4253 37.4005 64.4326 37.4517C64.4399 37.4955 64.4436 37.5467 64.4436 37.6052C64.4436 37.6637 64.4399 37.7185 64.4326 37.7697C64.4253 37.8209 64.4143 37.8647 64.3997 37.9013C64.3851 37.9305 64.3632 37.9561 64.3339 37.9781C64.3047 37.9927 64.2681 38 64.2243 38ZM61.0001 38C60.9562 38 60.9196 37.9927 60.8904 37.9781C60.8611 37.9561 60.8392 37.9305 60.8246 37.9013C60.81 37.8647 60.799 37.8209 60.7917 37.7697C60.7844 37.7185 60.7807 37.6637 60.7807 37.6052C60.7807 37.5248 60.788 37.459 60.8027 37.4078C60.81 37.3493 60.8319 37.3054 60.8685 37.2762C60.8977 37.2396 60.9416 37.2214 61.0001 37.2214V38ZM61.0001 38V37.2214H62.5793L62.1845 37.5394V32.5167H63.0399V38H61.0001ZM61.4387 31.5297V30.5427H62.2941V31.5297H61.4387ZM62.9412 31.5297V30.5427H63.7966V31.5297H62.9412ZM72.3938 38V37.2214H73.5782V38H72.3938ZM64.2237 38C64.1798 38 64.1432 37.9927 64.114 37.9781C64.0848 37.9561 64.0628 37.9305 64.0482 37.9013C64.0336 37.8647 64.0226 37.8209 64.0153 37.7697C64.008 37.7185 64.0043 37.6637 64.0043 37.6052C64.0043 37.5248 64.0116 37.459 64.0263 37.4078C64.0336 37.3493 64.0555 37.3054 64.0921 37.2762C64.1213 37.2396 64.1652 37.2214 64.2237 37.2214V38ZM64.2237 38V37.2214H72.328L71.5384 37.9342V35.357C71.5384 34.8964 71.4726 34.5163 71.341 34.2165C71.2167 33.9094 71.0267 33.6791 70.7708 33.5256C70.5222 33.3721 70.2078 33.2953 69.8276 33.2953C69.5059 33.2953 69.2062 33.3501 68.9284 33.4598C68.6579 33.5622 68.4056 33.7011 68.1717 33.8765C67.9377 34.0447 67.7184 34.2348 67.5137 34.4468C67.3163 34.6515 67.1335 34.8599 66.9653 35.0719C66.7972 35.2839 66.6436 35.4777 66.5047 35.6531L66.2306 34.8745C66.4133 34.6479 66.5961 34.4212 66.7789 34.1946C66.969 33.9679 67.1664 33.7559 67.3711 33.5585C67.5758 33.3538 67.7988 33.1747 68.0401 33.0211C68.2886 32.8676 68.5592 32.747 68.8516 32.6592C69.144 32.5642 69.473 32.5167 69.8386 32.5167C70.3577 32.5167 70.7817 32.6044 71.1107 32.7799C71.447 32.9553 71.7066 33.1893 71.8894 33.4817C72.0795 33.7669 72.2111 34.0739 72.2842 34.4029C72.3573 34.7319 72.3938 35.05 72.3938 35.357V38H64.2237ZM65.7809 37.2214V32.5167H66.6363V37.2214H65.7809ZM73.5782 38V37.2214C73.6221 37.2214 73.6587 37.2323 73.6879 37.2543C73.7171 37.2689 73.7391 37.2945 73.7537 37.331C73.7683 37.3603 73.7793 37.4005 73.7866 37.4517C73.7939 37.4955 73.7976 37.5467 73.7976 37.6052C73.7976 37.6637 73.7939 37.7185 73.7866 37.7697C73.7793 37.8209 73.7683 37.8647 73.7537 37.9013C73.7391 37.9305 73.7171 37.9561 73.6879 37.9781C73.6587 37.9927 73.6221 38 73.5782 38ZM75.613 38V37.2214H76.7974V38H75.613ZM73.5732 38C73.5293 38 73.4928 37.9927 73.4635 37.9781C73.4343 37.9561 73.4123 37.9305 73.3977 37.9013C73.3831 37.8647 73.3721 37.8209 73.3648 37.7697C73.3575 37.7185 73.3538 37.6637 73.3538 37.6052C73.3538 37.5248 73.3612 37.459 73.3758 37.4078C73.3831 37.3493 73.405 37.3054 73.4416 37.2762C73.4708 37.2396 73.5147 37.2214 73.5732 37.2214V38ZM73.5732 38V37.2214H75.1524L74.7576 37.5394V32.5167H75.613V38H73.5732ZM76.7974 38V37.2214C76.8412 37.2214 76.8778 37.2323 76.907 37.2543C76.9363 37.2689 76.9582 37.2945 76.9728 37.331C76.9875 37.3603 76.9984 37.4005 77.0057 37.4517C77.0131 37.4955 77.0167 37.5467 77.0167 37.6052C77.0167 37.6637 77.0131 37.7185 77.0057 37.7697C76.9984 37.8209 76.9875 37.8647 76.9728 37.9013C76.9582 37.9305 76.9363 37.9561 76.907 37.9781C76.8778 37.9927 76.8412 38 76.7974 38ZM74.7576 31.5297V30.5427H75.613V31.5297H74.7576ZM76.7968 38V37.2214H82.7955L82.1595 37.671V35.3132C82.1595 34.8014 82.101 34.3993 81.984 34.1068C81.867 33.8144 81.666 33.606 81.3808 33.4817C81.103 33.3574 80.7228 33.2953 80.2403 33.2953C79.9332 33.2953 79.6262 33.3172 79.3191 33.3611C79.0194 33.405 78.7854 33.4635 78.6172 33.5366L79.1327 33.0102C79.0888 33.1856 79.0449 33.4086 79.0011 33.6791C78.9572 33.9423 78.9207 34.2275 78.8914 34.5345C78.8622 34.8416 78.8475 35.1487 78.8475 35.4557C78.8475 35.7701 78.8622 36.0772 78.8914 36.3769C78.9207 36.6767 78.9536 36.9362 78.9901 37.1556C79.0267 37.3749 79.0559 37.5284 79.0778 37.6162L78.2663 37.8465C78.2371 37.7514 78.2005 37.5869 78.1566 37.353C78.1201 37.119 78.0835 36.8375 78.047 36.5085C78.0177 36.1795 78.0031 35.8286 78.0031 35.4557C78.0031 35.0975 78.0177 34.7502 78.047 34.4139C78.0835 34.0703 78.1237 33.7596 78.1676 33.4817C78.2188 33.2039 78.2663 32.9809 78.3102 32.8128C78.471 32.747 78.7269 32.6812 79.0778 32.6154C79.4288 32.5496 79.8163 32.5167 80.2403 32.5167C80.8544 32.5167 81.3662 32.6081 81.7756 32.7908C82.1924 32.9736 82.5031 33.2697 82.7078 33.6791C82.9125 34.0812 83.0149 34.6259 83.0149 35.3132V38H76.7968ZM76.7968 38C76.7529 38 76.7164 37.9927 76.6871 37.9781C76.6579 37.9561 76.6359 37.9305 76.6213 37.9013C76.6067 37.8647 76.5957 37.8209 76.5884 37.7697C76.5811 37.7185 76.5774 37.6637 76.5774 37.6052C76.5774 37.5248 76.5848 37.459 76.5994 37.4078C76.6067 37.3493 76.6286 37.3054 76.6652 37.2762C76.6944 37.2396 76.7383 37.2214 76.7968 37.2214V38Z" fill="#06101C"/>
<path d="M90.3785 16.0667L88.2243 9.8H99.7001C102.39 9.8 104.557 10.2178 106.202 11.0533C107.847 11.8628 109.048 13.2597 109.805 15.2442C110.562 17.2025 110.941 19.905 110.941 23.3517C110.941 27.0333 110.575 29.9447 109.844 32.0858C109.113 34.2008 107.938 35.7153 106.319 36.6292C104.727 37.5169 102.612 37.9739 99.9743 38V31.655C100.967 31.4461 101.672 30.7281 102.089 29.5008C102.507 28.2736 102.716 26.2239 102.716 23.3517C102.716 21.3933 102.612 19.8919 102.403 18.8475C102.194 17.7769 101.841 17.0458 101.345 16.6542C100.849 16.2625 100.144 16.0667 99.2301 16.0667H90.3785ZM90.3785 38V18.025H98.016V38H90.3785ZM121.195 25.075V32.83H121.586C122.892 32.83 123.845 32.595 124.445 32.125C125.072 31.6289 125.385 30.7672 125.385 29.54C125.385 28.4172 125.085 27.5425 124.485 26.9158C125.686 26.6547 126.782 26.3153 127.775 25.8975C128.767 25.4797 129.602 24.9314 130.281 24.2525C131.378 24.9053 132.161 25.7408 132.631 26.7592C133.101 27.7514 133.336 28.9786 133.336 30.4408C133.336 32.8692 132.449 34.7361 130.673 36.0417C128.897 37.3472 126.195 38 122.565 38H113.557V17.1242H121.195V21.3933H121.547C122.722 21.3933 123.571 21.1714 124.093 20.7275C124.641 20.2575 124.915 19.4481 124.915 18.2992C124.915 17.1242 124.641 16.3147 124.093 15.8708C123.571 15.4008 122.722 15.1658 121.547 15.1658H113.557L111.403 9.8H123.153C126.312 9.8 128.61 10.4528 130.046 11.7583C131.482 13.0639 132.2 14.8917 132.2 17.2417C132.2 18.73 131.861 19.9833 131.182 21.0017C130.529 21.9939 129.655 22.7903 128.558 23.3908C127.461 23.9914 126.273 24.4222 124.994 24.6833C123.714 24.9444 122.448 25.075 121.195 25.075Z" fill="#06101C"/>
</svg>
