<svg width="24" height="28" viewBox="0 0 24 28" fill="none" xmlns="http://www.w3.org/2000/svg">
<g clip-path="url(#clip0_115_1037)">
<path d="M12 14C15.7875 14 18.8571 10.9303 18.8571 7.14285C18.8571 3.35535 15.7875 0.285706 12 0.285706C8.2125 0.285706 5.14286 3.35535 5.14286 7.14285C5.14286 10.9303 8.2125 14 12 14ZM17.1321 15.7464L14.5714 26L12.8571 18.7143L14.5714 15.7143H9.42857L11.1429 18.7143L9.42857 26L6.86786 15.7464C3.04821 15.9286 0 19.0518 0 22.9143V25.1428C0 26.5625 1.15179 27.7143 2.57143 27.7143H21.4286C22.8482 27.7143 24 26.5625 24 25.1428V22.9143C24 19.0518 20.9518 15.9286 17.1321 15.7464Z" fill="#C99655"/>
</g>
<defs>
<clipPath id="clip0_115_1037">
<rect width="24" height="27.4286" fill="white" transform="translate(0 0.285706)"/>
</clipPath>
</defs>
</svg>
