<svg width="174" height="70" viewBox="0 0 174 70" fill="none" xmlns="http://www.w3.org/2000/svg">
    <path
        d="M3.41471 23.3333L0.206379 14H17.298C21.3036 14 24.5314 14.6222 26.9814 15.8667C29.4314 17.0722 31.2203 19.1528 32.348 22.1083C33.4758 25.025 34.0397 29.05 34.0397 34.1833C34.0397 39.6667 33.4953 44.0028 32.4064 47.1917C31.3175 50.3417 29.5675 52.5972 27.1564 53.9583C24.7842 55.2806 21.6342 55.9611 17.7064 56V46.55C19.1842 46.2389 20.2342 45.1694 20.8564 43.3417C21.4786 41.5139 21.7897 38.4611 21.7897 34.1833C21.7897 31.2667 21.6342 29.0306 21.323 27.475C21.0119 25.8806 20.4869 24.7917 19.748 24.2083C19.0092 23.625 17.9592 23.3333 16.598 23.3333H3.41471ZM3.41471 56V26.25H14.7897V56H3.41471ZM49.3112 36.75V48.3H49.8945C51.839 48.3 53.2584 47.95 54.1529 47.25C55.0862 46.5111 55.5529 45.2278 55.5529 43.4C55.5529 41.7278 55.1056 40.425 54.2112 39.4917C56.0001 39.1028 57.6334 38.5972 59.1112 37.975C60.589 37.3528 61.8334 36.5361 62.8445 35.525C64.4779 36.4972 65.6445 37.7417 66.3445 39.2583C67.0445 40.7361 67.3945 42.5639 67.3945 44.7417C67.3945 48.3583 66.0723 51.1389 63.4279 53.0833C60.7834 55.0278 56.7584 56 51.3529 56H37.9362V24.9083H49.3112V31.2667H49.8362C51.5862 31.2667 52.8501 30.9361 53.6279 30.275C54.4445 29.575 54.8529 28.3694 54.8529 26.6583C54.8529 24.9083 54.4445 23.7028 53.6279 23.0417C52.8501 22.3417 51.5862 21.9917 49.8362 21.9917H37.9362L34.7279 14H52.2279C56.9334 14 60.3556 14.9722 62.4945 16.9167C64.6334 18.8611 65.7029 21.5833 65.7029 25.0833C65.7029 27.3 65.1973 29.1667 64.1862 30.6833C63.214 32.1611 61.9112 33.3472 60.2779 34.2417C58.6445 35.1361 56.8751 35.7778 54.9695 36.1667C53.064 36.5556 51.1779 36.75 49.3112 36.75Z"
        fill="#003153" />
    <path
        d="M76.1565 30.5V16.157H81.6375C82.7575 16.157 83.6955 16.318 84.4515 16.64C85.2215 16.948 85.8375 17.403 86.2995 18.005C86.7615 18.607 87.0905 19.335 87.2865 20.189C87.4965 21.043 87.6015 22.016 87.6015 23.108C87.6015 24.214 87.5035 25.215 87.3075 26.111C87.1255 27.007 86.8105 27.784 86.3625 28.442C85.9145 29.1 85.3125 29.611 84.5565 29.975C83.8005 30.325 82.8555 30.5 81.7215 30.5H76.1565ZM79.0545 28.064H81.5535C82.2115 28.064 82.7435 27.938 83.1495 27.686C83.5555 27.434 83.8635 27.084 84.0735 26.636C84.2975 26.174 84.4445 25.649 84.5145 25.061C84.5985 24.459 84.6405 23.808 84.6405 23.108C84.6405 22.436 84.5985 21.827 84.5145 21.281C84.4305 20.721 84.2765 20.245 84.0525 19.853C83.8425 19.447 83.5345 19.139 83.1285 18.929C82.7365 18.705 82.2115 18.593 81.5535 18.593H79.0545V28.064ZM89.7737 30.5V16.157H99.3077V18.572H92.6717V22.058H98.0477V24.431H92.6717V28.085H99.3077V30.5H89.7737ZM101.34 30.5V16.157H107.052C108.004 16.157 108.823 16.276 109.509 16.514C110.195 16.752 110.727 17.137 111.105 17.669C111.497 18.187 111.693 18.887 111.693 19.769C111.693 20.371 111.63 20.882 111.504 21.302C111.392 21.708 111.21 22.058 110.958 22.352C110.72 22.632 110.405 22.891 110.013 23.129C110.433 23.283 110.797 23.493 111.105 23.759C111.427 24.011 111.672 24.354 111.84 24.788C112.008 25.208 112.092 25.768 112.092 26.468C112.092 27.238 111.973 27.882 111.735 28.4C111.497 28.918 111.154 29.331 110.706 29.639C110.272 29.947 109.761 30.171 109.173 30.311C108.585 30.437 107.941 30.5 107.241 30.5H101.34ZM104.238 28.358H107.031C107.521 28.358 107.927 28.302 108.249 28.19C108.585 28.064 108.837 27.847 109.005 27.539C109.187 27.231 109.278 26.804 109.278 26.258C109.278 25.838 109.208 25.495 109.068 25.229C108.928 24.963 108.746 24.767 108.522 24.641C108.298 24.501 108.046 24.403 107.766 24.347C107.5 24.291 107.234 24.263 106.968 24.263H104.238V28.358ZM104.238 22.205H106.947C107.423 22.205 107.808 22.135 108.102 21.995C108.396 21.841 108.613 21.617 108.753 21.323C108.893 21.015 108.963 20.63 108.963 20.168C108.963 19.51 108.788 19.034 108.438 18.74C108.102 18.446 107.57 18.299 106.842 18.299H104.238V22.205ZM116.806 30.5V18.614H112.942V16.157H123.442V18.614H119.704V30.5H116.806ZM129.6 30.5V16.157H135.312C136.264 16.157 137.083 16.276 137.769 16.514C138.455 16.752 138.987 17.137 139.365 17.669C139.757 18.187 139.953 18.887 139.953 19.769C139.953 20.371 139.89 20.882 139.764 21.302C139.652 21.708 139.47 22.058 139.218 22.352C138.98 22.632 138.665 22.891 138.273 23.129C138.693 23.283 139.057 23.493 139.365 23.759C139.687 24.011 139.932 24.354 140.1 24.788C140.268 25.208 140.352 25.768 140.352 26.468C140.352 27.238 140.233 27.882 139.995 28.4C139.757 28.918 139.414 29.331 138.966 29.639C138.532 29.947 138.021 30.171 137.433 30.311C136.845 30.437 136.201 30.5 135.501 30.5H129.6ZM132.498 28.358H135.291C135.781 28.358 136.187 28.302 136.509 28.19C136.845 28.064 137.097 27.847 137.265 27.539C137.447 27.231 137.538 26.804 137.538 26.258C137.538 25.838 137.468 25.495 137.328 25.229C137.188 24.963 137.006 24.767 136.782 24.641C136.558 24.501 136.306 24.403 136.026 24.347C135.76 24.291 135.494 24.263 135.228 24.263H132.498V28.358ZM132.498 22.205H135.207C135.683 22.205 136.068 22.135 136.362 21.995C136.656 21.841 136.873 21.617 137.013 21.323C137.153 21.015 137.223 20.63 137.223 20.168C137.223 19.51 137.048 19.034 136.698 18.74C136.362 18.446 135.83 18.299 135.102 18.299H132.498V22.205ZM148.107 30.731C146.581 30.731 145.37 30.465 144.474 29.933C143.592 29.387 142.955 28.568 142.563 27.476C142.185 26.384 141.996 25.019 141.996 23.381C141.996 21.729 142.185 20.35 142.563 19.244C142.955 18.138 143.592 17.305 144.474 16.745C145.37 16.185 146.581 15.905 148.107 15.905C149.633 15.905 150.837 16.185 151.719 16.745C152.615 17.305 153.252 18.138 153.63 19.244C154.022 20.35 154.218 21.729 154.218 23.381C154.218 25.047 154.022 26.426 153.63 27.518C153.252 28.61 152.615 29.422 151.719 29.954C150.837 30.472 149.633 30.731 148.107 30.731ZM148.107 28.295C148.989 28.295 149.654 28.12 150.102 27.77C150.564 27.406 150.872 26.86 151.026 26.132C151.18 25.39 151.257 24.473 151.257 23.381C151.257 22.289 151.173 21.372 151.005 20.63C150.851 19.874 150.55 19.307 150.102 18.929C149.654 18.537 148.989 18.341 148.107 18.341C147.239 18.341 146.574 18.537 146.112 18.929C145.664 19.307 145.356 19.874 145.188 20.63C145.02 21.372 144.936 22.289 144.936 23.381C144.936 24.459 145.013 25.362 145.167 26.09C145.335 26.818 145.643 27.371 146.091 27.749C146.553 28.113 147.225 28.295 148.107 28.295ZM154.51 30.5L158.416 23.528L154.51 16.157H157.576L160.306 21.428L163.183 16.157H166.144L162.217 23.255L166.06 30.5H162.973L160.285 25.376L157.513 30.5H154.51ZM78.6555 51.626C78.3755 51.626 78.0488 51.6073 77.6755 51.57C77.3022 51.542 76.9288 51.5047 76.5555 51.458C76.1915 51.402 75.8695 51.3553 75.5895 51.318L75.7015 50.394C75.9722 50.422 76.2848 50.4547 76.6395 50.492C77.0035 50.5293 77.3582 50.562 77.7035 50.59C78.0582 50.618 78.3568 50.632 78.5995 50.632C79.0568 50.632 79.4348 50.5667 79.7335 50.436C80.0322 50.296 80.2562 50.086 80.4055 49.806C80.5548 49.526 80.6295 49.1667 80.6295 48.728C80.6295 48.3733 80.5595 48.0933 80.4195 47.888C80.2888 47.6733 80.0648 47.5053 79.7475 47.384C79.4395 47.2533 79.0242 47.1367 78.5015 47.034C77.9975 46.9313 77.5588 46.8147 77.1855 46.684C76.8122 46.5533 76.4995 46.39 76.2475 46.194C75.9955 45.9887 75.8088 45.732 75.6875 45.424C75.5662 45.116 75.5055 44.7333 75.5055 44.276C75.5055 43.6507 75.6315 43.1467 75.8835 42.764C76.1448 42.3813 76.5088 42.1013 76.9755 41.924C77.4515 41.7467 78.0022 41.658 78.6275 41.658C78.9075 41.658 79.2248 41.6767 79.5795 41.714C79.9435 41.742 80.2982 41.7793 80.6435 41.826C80.9982 41.8633 81.3015 41.9053 81.5535 41.952L81.4555 42.89C81.1848 42.8527 80.8722 42.82 80.5175 42.792C80.1628 42.7547 79.8222 42.722 79.4955 42.694C79.1688 42.666 78.9075 42.652 78.7115 42.652C78.2635 42.652 77.8855 42.708 77.5775 42.82C77.2695 42.932 77.0362 43.1047 76.8775 43.338C76.7188 43.562 76.6395 43.8513 76.6395 44.206C76.6395 44.6167 76.7142 44.9293 76.8635 45.144C77.0222 45.3587 77.2742 45.5267 77.6195 45.648C77.9648 45.7693 78.4175 45.8953 78.9775 46.026C79.4628 46.138 79.8782 46.2593 80.2235 46.39C80.5782 46.5207 80.8675 46.684 81.0915 46.88C81.3248 47.0667 81.4928 47.3047 81.5955 47.594C81.7075 47.874 81.7635 48.224 81.7635 48.644C81.7635 49.3533 81.6375 49.9273 81.3855 50.366C81.1335 50.8047 80.7742 51.1267 80.3075 51.332C79.8408 51.528 79.2902 51.626 78.6555 51.626ZM84.9554 51.64C84.3114 51.64 83.8214 51.458 83.4854 51.094C83.1494 50.73 82.9814 50.198 82.9814 49.498C82.9814 49.0407 83.0607 48.6673 83.2194 48.378C83.3781 48.0887 83.6161 47.8693 83.9334 47.72C84.2601 47.5613 84.6614 47.4633 85.1374 47.426L87.2934 47.216V46.614C87.2934 46.138 87.1861 45.802 86.9714 45.606C86.7661 45.41 86.4581 45.312 86.0474 45.312C85.8141 45.312 85.5341 45.3213 85.2074 45.34C84.8901 45.3587 84.5727 45.382 84.2554 45.41C83.9381 45.438 83.6581 45.466 83.4154 45.494L83.3594 44.668C83.5834 44.6213 83.8541 44.5747 84.1714 44.528C84.4887 44.4813 84.8201 44.444 85.1654 44.416C85.5107 44.3787 85.8281 44.36 86.1174 44.36C86.6494 44.36 87.0834 44.444 87.4194 44.612C87.7554 44.7707 87.9981 45.018 88.1474 45.354C88.3061 45.6807 88.3854 46.1007 88.3854 46.614V50.156C88.4041 50.3613 88.4834 50.5107 88.6234 50.604C88.7727 50.6973 88.9594 50.758 89.1834 50.786L89.1414 51.64C89.0107 51.64 88.8847 51.6353 88.7634 51.626C88.6421 51.6167 88.5254 51.598 88.4134 51.57C88.3107 51.5513 88.2081 51.528 88.1054 51.5C87.9841 51.4533 87.8674 51.3973 87.7554 51.332C87.6527 51.2667 87.5501 51.1873 87.4474 51.094C87.2701 51.1687 87.0414 51.248 86.7614 51.332C86.4907 51.416 86.1967 51.486 85.8794 51.542C85.5714 51.6073 85.2634 51.64 84.9554 51.64ZM85.1374 50.73C85.3894 50.73 85.6507 50.7067 85.9214 50.66C86.1921 50.6133 86.4487 50.5573 86.6914 50.492C86.9341 50.4267 87.1347 50.366 87.2934 50.31V48.028L85.2634 48.224C84.8434 48.2613 84.5401 48.3827 84.3534 48.588C84.1761 48.7933 84.0874 49.0873 84.0874 49.47C84.0874 49.862 84.1761 50.17 84.3534 50.394C84.5307 50.618 84.7921 50.73 85.1374 50.73ZM91.9827 51.64C91.3387 51.64 90.8487 51.458 90.5127 51.094C90.1767 50.73 90.0087 50.198 90.0087 49.498C90.0087 49.0407 90.0881 48.6673 90.2467 48.378C90.4054 48.0887 90.6434 47.8693 90.9607 47.72C91.2874 47.5613 91.6887 47.4633 92.1647 47.426L94.3207 47.216V46.614C94.3207 46.138 94.2134 45.802 93.9987 45.606C93.7934 45.41 93.4854 45.312 93.0747 45.312C92.8414 45.312 92.5614 45.3213 92.2347 45.34C91.9174 45.3587 91.6001 45.382 91.2827 45.41C90.9654 45.438 90.6854 45.466 90.4427 45.494L90.3867 44.668C90.6107 44.6213 90.8814 44.5747 91.1987 44.528C91.5161 44.4813 91.8474 44.444 92.1927 44.416C92.5381 44.3787 92.8554 44.36 93.1447 44.36C93.6767 44.36 94.1107 44.444 94.4467 44.612C94.7827 44.7707 95.0254 45.018 95.1747 45.354C95.3334 45.6807 95.4127 46.1007 95.4127 46.614V50.156C95.4314 50.3613 95.5107 50.5107 95.6507 50.604C95.8001 50.6973 95.9867 50.758 96.2107 50.786L96.1687 51.64C96.0381 51.64 95.9121 51.6353 95.7907 51.626C95.6694 51.6167 95.5527 51.598 95.4407 51.57C95.3381 51.5513 95.2354 51.528 95.1327 51.5C95.0114 51.4533 94.8947 51.3973 94.7827 51.332C94.6801 51.2667 94.5774 51.1873 94.4747 51.094C94.2974 51.1687 94.0687 51.248 93.7887 51.332C93.5181 51.416 93.2241 51.486 92.9067 51.542C92.5987 51.6073 92.2907 51.64 91.9827 51.64ZM92.1647 50.73C92.4167 50.73 92.6781 50.7067 92.9487 50.66C93.2194 50.6133 93.4761 50.5573 93.7187 50.492C93.9614 50.4267 94.1621 50.366 94.3207 50.31V48.028L92.2907 48.224C91.8707 48.2613 91.5674 48.3827 91.3807 48.588C91.2034 48.7933 91.1147 49.0873 91.1147 49.47C91.1147 49.862 91.2034 50.17 91.3807 50.394C91.5581 50.618 91.8194 50.73 92.1647 50.73ZM97.7097 51.5V45.438H96.8277V44.5H97.7097V43.884C97.7097 43.212 97.7704 42.6893 97.8917 42.316C98.013 41.9427 98.2137 41.686 98.4937 41.546C98.7737 41.3967 99.1424 41.322 99.5997 41.322C99.7117 41.322 99.8657 41.3267 100.062 41.336C100.258 41.3453 100.449 41.3593 100.636 41.378C100.822 41.3873 100.953 41.4013 101.028 41.42L101.014 42.33C100.846 42.3207 100.64 42.316 100.398 42.316C100.164 42.3067 99.973 42.302 99.8237 42.302C99.5624 42.302 99.357 42.3487 99.2077 42.442C99.0584 42.526 98.951 42.6847 98.8857 42.918C98.8297 43.1513 98.8017 43.478 98.8017 43.898V44.5H100.818V45.438H98.8017V51.5H97.7097ZM104.487 51.64C103.787 51.64 103.232 51.5047 102.821 51.234C102.42 50.9633 102.131 50.562 101.953 50.03C101.776 49.498 101.687 48.8353 101.687 48.042C101.687 47.1553 101.809 46.446 102.051 45.914C102.294 45.3727 102.635 44.9807 103.073 44.738C103.512 44.486 104.03 44.36 104.627 44.36C105.561 44.36 106.265 44.6213 106.741 45.144C107.217 45.6573 107.455 46.488 107.455 47.636L107.399 48.462H102.793C102.803 49.19 102.938 49.7407 103.199 50.114C103.461 50.4873 103.932 50.674 104.613 50.674C104.875 50.674 105.159 50.6693 105.467 50.66C105.785 50.6413 106.097 50.6227 106.405 50.604C106.713 50.5853 106.975 50.5667 107.189 50.548L107.217 51.402C106.993 51.4393 106.718 51.4767 106.391 51.514C106.074 51.5513 105.747 51.5793 105.411 51.598C105.075 51.626 104.767 51.64 104.487 51.64ZM102.793 47.58H106.363C106.363 46.7213 106.223 46.124 105.943 45.788C105.673 45.4427 105.234 45.27 104.627 45.27C104.235 45.27 103.904 45.3493 103.633 45.508C103.363 45.6573 103.153 45.9 103.003 46.236C102.863 46.572 102.793 47.02 102.793 47.58ZM111.262 51.64C111.047 51.64 110.786 51.626 110.478 51.598C110.179 51.57 109.88 51.5373 109.582 51.5C109.283 51.4533 109.017 51.4113 108.784 51.374L108.84 50.436C109.073 50.464 109.334 50.4967 109.624 50.534C109.922 50.5713 110.212 50.604 110.492 50.632C110.772 50.6507 110.996 50.66 111.164 50.66C111.546 50.66 111.864 50.6273 112.116 50.562C112.368 50.4873 112.559 50.366 112.69 50.198C112.82 50.03 112.886 49.792 112.886 49.484C112.886 49.2507 112.834 49.0687 112.732 48.938C112.638 48.8073 112.456 48.7 112.186 48.616C111.924 48.532 111.542 48.4527 111.038 48.378C110.515 48.294 110.076 48.1913 109.722 48.07C109.376 47.9393 109.12 47.748 108.952 47.496C108.784 47.244 108.7 46.8847 108.7 46.418C108.7 45.8953 108.821 45.4847 109.064 45.186C109.306 44.8873 109.619 44.6773 110.002 44.556C110.394 44.4253 110.8 44.36 111.22 44.36C111.481 44.36 111.766 44.374 112.074 44.402C112.391 44.43 112.699 44.4673 112.998 44.514C113.296 44.5513 113.553 44.5887 113.768 44.626L113.74 45.564C113.516 45.5267 113.254 45.494 112.956 45.466C112.657 45.4287 112.358 45.4007 112.06 45.382C111.761 45.354 111.5 45.34 111.276 45.34C110.996 45.34 110.744 45.3727 110.52 45.438C110.296 45.494 110.118 45.5967 109.988 45.746C109.857 45.8953 109.792 46.1053 109.792 46.376C109.792 46.5813 109.838 46.7493 109.932 46.88C110.025 47.0013 110.202 47.104 110.464 47.188C110.725 47.272 111.103 47.356 111.598 47.44C112.176 47.5333 112.638 47.65 112.984 47.79C113.338 47.93 113.595 48.126 113.754 48.378C113.912 48.63 113.992 48.9847 113.992 49.442C113.992 49.9833 113.88 50.4173 113.656 50.744C113.441 51.0613 113.128 51.29 112.718 51.43C112.316 51.57 111.831 51.64 111.262 51.64ZM117.895 51.654C117.41 51.654 117.023 51.5793 116.733 51.43C116.453 51.2807 116.253 51.024 116.131 50.66C116.01 50.2867 115.949 49.764 115.949 49.092V45.438H114.955V44.5H115.949V42.358H117.027V44.5H119.225V45.438H117.027V48.77C117.027 49.2647 117.046 49.652 117.083 49.932C117.13 50.2027 117.223 50.394 117.363 50.506C117.503 50.618 117.723 50.674 118.021 50.674C118.115 50.674 118.236 50.6693 118.385 50.66C118.535 50.6507 118.684 50.6413 118.833 50.632C118.992 50.6133 119.132 50.5993 119.253 50.59L119.323 51.5C119.193 51.5187 119.039 51.5373 118.861 51.556C118.684 51.584 118.507 51.6073 118.329 51.626C118.161 51.6447 118.017 51.654 117.895 51.654ZM123.584 54.594V44.5H124.662V45.004C124.811 44.9107 124.998 44.8173 125.222 44.724C125.455 44.6213 125.702 44.5373 125.964 44.472C126.225 44.3973 126.477 44.36 126.72 44.36C127.317 44.36 127.802 44.486 128.176 44.738C128.549 44.9807 128.824 45.3633 129.002 45.886C129.188 46.4087 129.282 47.0853 129.282 47.916C129.282 48.8307 129.174 49.5633 128.96 50.114C128.754 50.6553 128.423 51.0473 127.966 51.29C127.518 51.5233 126.934 51.64 126.216 51.64C125.926 51.64 125.632 51.6213 125.334 51.584C125.044 51.5467 124.82 51.514 124.662 51.486V54.594H123.584ZM126.16 50.688C126.664 50.688 127.06 50.5947 127.35 50.408C127.648 50.2213 127.858 49.9273 127.98 49.526C128.101 49.1153 128.162 48.5787 128.162 47.916C128.162 46.9733 128.022 46.3107 127.742 45.928C127.462 45.536 127.07 45.34 126.566 45.34C126.342 45.34 126.108 45.368 125.866 45.424C125.632 45.48 125.408 45.55 125.194 45.634C124.979 45.7087 124.802 45.788 124.662 45.872V50.548C124.811 50.5667 125.03 50.5947 125.32 50.632C125.609 50.6693 125.889 50.688 126.16 50.688ZM131.064 51.5V41.462H132.142V51.5H131.064ZM135.774 51.64C135.13 51.64 134.64 51.458 134.304 51.094C133.968 50.73 133.8 50.198 133.8 49.498C133.8 49.0407 133.879 48.6673 134.038 48.378C134.196 48.0887 134.434 47.8693 134.752 47.72C135.078 47.5613 135.48 47.4633 135.956 47.426L138.112 47.216V46.614C138.112 46.138 138.004 45.802 137.79 45.606C137.584 45.41 137.276 45.312 136.866 45.312C136.632 45.312 136.352 45.3213 136.026 45.34C135.708 45.3587 135.391 45.382 135.074 45.41C134.756 45.438 134.476 45.466 134.234 45.494L134.178 44.668C134.402 44.6213 134.672 44.5747 134.99 44.528C135.307 44.4813 135.638 44.444 135.984 44.416C136.329 44.3787 136.646 44.36 136.936 44.36C137.468 44.36 137.902 44.444 138.238 44.612C138.574 44.7707 138.816 45.018 138.966 45.354C139.124 45.6807 139.204 46.1007 139.204 46.614V50.156C139.222 50.3613 139.302 50.5107 139.442 50.604C139.591 50.6973 139.778 50.758 140.002 50.786L139.96 51.64C139.829 51.64 139.703 51.6353 139.582 51.626C139.46 51.6167 139.344 51.598 139.232 51.57C139.129 51.5513 139.026 51.528 138.924 51.5C138.802 51.4533 138.686 51.3973 138.574 51.332C138.471 51.2667 138.368 51.1873 138.266 51.094C138.088 51.1687 137.86 51.248 137.58 51.332C137.309 51.416 137.015 51.486 136.698 51.542C136.39 51.6073 136.082 51.64 135.774 51.64ZM135.956 50.73C136.208 50.73 136.469 50.7067 136.74 50.66C137.01 50.6133 137.267 50.5573 137.51 50.492C137.752 50.4267 137.953 50.366 138.112 50.31V48.028L136.082 48.224C135.662 48.2613 135.358 48.3827 135.172 48.588C134.994 48.7933 134.906 49.0873 134.906 49.47C134.906 49.862 134.994 50.17 135.172 50.394C135.349 50.618 135.61 50.73 135.956 50.73ZM143.489 51.654C143.004 51.654 142.616 51.5793 142.327 51.43C142.047 51.2807 141.846 51.024 141.725 50.66C141.604 50.2867 141.543 49.764 141.543 49.092V45.438H140.549V44.5H141.543V42.358H142.621V44.5H144.819V45.438H142.621V48.77C142.621 49.2647 142.64 49.652 142.677 49.932C142.724 50.2027 142.817 50.394 142.957 50.506C143.097 50.618 143.316 50.674 143.615 50.674C143.708 50.674 143.83 50.6693 143.979 50.66C144.128 50.6507 144.278 50.6413 144.427 50.632C144.586 50.6133 144.726 50.5993 144.847 50.59L144.917 51.5C144.786 51.5187 144.632 51.5373 144.455 51.556C144.278 51.584 144.1 51.6073 143.923 51.626C143.755 51.6447 143.61 51.654 143.489 51.654ZM146.395 51.5V45.438H145.513V44.5H146.395V43.884C146.395 43.212 146.456 42.6893 146.577 42.316C146.699 41.9427 146.899 41.686 147.179 41.546C147.459 41.3967 147.828 41.322 148.285 41.322C148.397 41.322 148.551 41.3267 148.747 41.336C148.943 41.3453 149.135 41.3593 149.321 41.378C149.508 41.3873 149.639 41.4013 149.713 41.42L149.699 42.33C149.531 42.3207 149.326 42.316 149.083 42.316C148.85 42.3067 148.659 42.302 148.509 42.302C148.248 42.302 148.043 42.3487 147.893 42.442C147.744 42.526 147.637 42.6847 147.571 42.918C147.515 43.1513 147.487 43.478 147.487 43.898V44.5H149.503V45.438H147.487V51.5H146.395ZM153.315 51.64C152.531 51.64 151.919 51.5047 151.481 51.234C151.051 50.9633 150.748 50.5527 150.571 50.002C150.403 49.4513 150.319 48.756 150.319 47.916C150.319 47.1133 150.412 46.4507 150.599 45.928C150.795 45.4053 151.112 45.0133 151.551 44.752C151.989 44.4907 152.577 44.36 153.315 44.36C154.061 44.36 154.654 44.4907 155.093 44.752C155.531 45.0133 155.844 45.4053 156.031 45.928C156.227 46.4507 156.325 47.1133 156.325 47.916C156.325 48.756 156.236 49.4513 156.059 50.002C155.891 50.5527 155.587 50.9633 155.149 51.234C154.719 51.5047 154.108 51.64 153.315 51.64ZM153.315 50.702C153.856 50.702 154.262 50.6087 154.533 50.422C154.803 50.226 154.981 49.9227 155.065 49.512C155.158 49.1013 155.205 48.5693 155.205 47.916C155.205 47.272 155.149 46.7587 155.037 46.376C154.925 45.9933 154.733 45.718 154.463 45.55C154.192 45.382 153.809 45.298 153.315 45.298C152.829 45.298 152.447 45.382 152.167 45.55C151.896 45.718 151.705 45.9933 151.593 46.376C151.481 46.7587 151.425 47.272 151.425 47.916C151.425 48.5693 151.467 49.1013 151.551 49.512C151.644 49.9227 151.826 50.226 152.097 50.422C152.367 50.6087 152.773 50.702 153.315 50.702ZM158.037 51.5V44.5H159.115V45.438C159.292 45.3167 159.516 45.186 159.787 45.046C160.057 44.8967 160.356 44.7567 160.683 44.626C161.009 44.4953 161.336 44.402 161.663 44.346V45.452C161.345 45.5173 161.023 45.606 160.697 45.718C160.37 45.8207 160.067 45.9327 159.787 46.054C159.516 46.1753 159.292 46.2827 159.115 46.376V51.5H158.037ZM162.89 51.5V44.5H163.968V44.99C164.118 44.8967 164.304 44.8033 164.528 44.71C164.752 44.6167 164.99 44.5373 165.242 44.472C165.504 44.3973 165.751 44.36 165.984 44.36C166.451 44.36 166.824 44.416 167.104 44.528C167.394 44.64 167.627 44.822 167.804 45.074C167.991 44.9713 168.22 44.864 168.49 44.752C168.761 44.64 169.05 44.5467 169.358 44.472C169.676 44.3973 169.984 44.36 170.282 44.36C170.758 44.36 171.15 44.4207 171.458 44.542C171.766 44.6633 172.004 44.8593 172.172 45.13C172.35 45.4007 172.471 45.7553 172.536 46.194C172.611 46.6233 172.648 47.1553 172.648 47.79V51.5H171.57V47.832C171.57 47.2253 171.533 46.74 171.458 46.376C171.393 46.012 171.258 45.7507 171.052 45.592C170.847 45.424 170.534 45.34 170.114 45.34C169.872 45.34 169.624 45.368 169.372 45.424C169.13 45.4707 168.901 45.536 168.686 45.62C168.481 45.6947 168.313 45.7693 168.182 45.844C168.248 46.0867 168.29 46.39 168.308 46.754C168.336 47.1087 168.35 47.4773 168.35 47.86V51.5H167.272V47.888C167.272 47.2533 167.24 46.754 167.174 46.39C167.109 46.0167 166.969 45.7507 166.754 45.592C166.549 45.424 166.236 45.34 165.816 45.34C165.583 45.34 165.345 45.368 165.102 45.424C164.869 45.4707 164.654 45.536 164.458 45.62C164.262 45.6947 164.099 45.7693 163.968 45.844V51.5H162.89Z"
        fill="#003153" />
</svg>
    