<svg width="194" height="48" viewBox="0 0 194 48" fill="none" xmlns="http://www.w3.org/2000/svg">
<path d="M82.4637 18.6493C83.1717 19.1215 83.9827 19.3562 84.8915 19.3562C85.6603 19.3562 86.3577 19.2085 86.9786 18.9105C87.5994 18.6124 88.1199 18.2035 88.5399 17.6786C88.96 18.1851 89.4883 18.586 90.1277 18.8841C90.767 19.1821 91.4961 19.3299 92.3204 19.3299H104.631C106.327 19.3299 107.672 18.863 108.66 17.9266C109.648 16.9928 110.142 15.7293 110.142 14.1387C110.142 12.5481 109.648 11.2819 108.66 10.4431C107.672 9.6043 106.251 9.18489 104.396 9.18489H97.5724V9.07938L102.243 3.02563H99.2764L93.9478 9.83907V11.5958L103.474 11.6222C106.01 11.6222 107.281 12.4689 107.281 14.1651C107.281 15.0223 107.009 15.6765 106.468 16.1302C105.926 16.5839 105.155 16.8108 104.159 16.8108L92.323 16.8371V16.8108C91.4829 16.8108 90.8172 16.6182 90.3284 16.2331C89.8397 15.848 89.5676 15.2729 89.5148 14.5027V8.36982H86.6536V14.6319C86.6536 15.2967 86.4687 15.8242 86.1015 16.2173C85.7343 16.6103 85.2534 16.8055 84.6564 16.8055C84.0593 16.8055 83.6076 16.6077 83.2404 16.2173C82.8731 15.8242 82.6882 15.2967 82.6882 14.6319V10.0184H79.8007V14.6319C79.8007 15.2967 79.6157 15.8242 79.2485 16.2173C78.8813 16.6103 78.4084 16.8055 77.8325 16.8055L75.7322 16.8319V10.0184H72.9768L73.0032 18.4831C73.0032 19.2692 72.7892 20.0025 72.3612 20.6857C71.9332 21.3662 71.3547 21.9123 70.6282 22.3238C69.9016 22.7353 69.1197 22.941 68.2796 22.941C67.3338 22.941 66.5122 22.7326 65.8121 22.3132C65.112 21.8938 64.5704 21.3399 64.1847 20.6488C63.799 19.9577 63.6061 19.2033 63.6061 18.3829V13.7958L61.165 14.3998V18.7495C61.165 20.0078 61.4715 21.1658 62.0844 22.2209C62.6973 23.2787 63.5533 24.1122 64.6576 24.7242C65.7592 25.3361 67.0115 25.6421 68.4116 25.6421C69.619 25.6421 70.7523 25.3625 71.8117 24.8033C72.8711 24.2441 73.7455 23.4844 74.4351 22.5242C75.1272 21.5641 75.542 20.5063 75.682 19.3536H77.8351C78.6224 19.3536 79.2908 19.1004 79.8429 18.5939C80.3951 18.0875 80.7649 17.4597 80.9578 16.7079C81.2537 17.5282 81.7583 18.1745 82.4663 18.6467L82.4637 18.6493Z" fill="white"/>
<path d="M130.852 22.1626C130.398 22.1626 130.017 22.3103 129.711 22.6084C129.404 22.9065 129.251 23.2626 129.251 23.682C129.251 24.1014 129.404 24.4891 129.711 24.7951C130.017 25.1011 130.398 25.2541 130.852 25.2541C131.253 25.2541 131.605 25.1011 131.901 24.7951C132.199 24.4891 132.347 24.1172 132.347 23.682C132.347 23.2467 132.199 22.9038 131.901 22.6084C131.602 22.3103 131.253 22.1626 130.852 22.1626Z" fill="white"/>
<path d="M130.115 13.8273C130.115 14.9273 129.893 15.7002 129.447 16.1459C129 16.5917 128.268 16.8133 127.254 16.8133H125.101V13.6427C125.101 12.2288 124.847 11.0313 124.34 10.0526C123.833 9.07401 123.138 8.33542 122.253 7.83952C121.368 7.34098 120.367 7.09302 119.246 7.09302C118.126 7.09302 117.085 7.36472 116.177 7.90546C115.268 8.44621 114.555 9.19798 114.037 10.1581C113.522 11.1183 113.263 12.2104 113.263 13.4343C113.263 15.4601 113.796 16.9505 114.864 17.9027C115.931 18.855 117.278 19.3298 118.906 19.3298H122.319C122.145 20.377 121.54 21.2026 120.507 21.8067C119.474 22.4081 118.1 22.7114 116.385 22.7114H115.807V25.307H116.779C118.388 25.307 119.788 25.0538 120.98 24.5473C122.168 24.0409 123.106 23.3366 123.788 22.4371C124.469 21.5376 124.889 20.501 125.048 19.3324H127.254C129.283 19.3324 130.749 18.8655 131.65 17.9291C132.551 16.9953 133.003 15.7397 133.003 14.1676V8.40137H130.115V13.8273ZM122.163 16.816H119.146C118.253 16.816 117.532 16.5152 116.98 15.9112C116.428 15.3071 116.153 14.5184 116.153 13.5398C116.153 12.3159 116.428 11.3478 116.98 10.6303C117.532 9.91547 118.287 9.55673 119.249 9.55673C120.002 9.55673 120.591 9.80203 121.022 10.29C121.45 10.7807 121.748 11.3425 121.915 11.9809C122.081 12.6192 122.163 13.1995 122.163 13.7244V16.816Z" fill="white"/>
<path d="M148.698 9.0319C149.065 9.0319 149.377 8.90002 149.63 8.63888C149.884 8.37773 150.011 8.06119 150.011 7.69454C150.011 7.32788 149.884 7.01662 149.63 6.76339C149.377 6.51016 149.065 6.38354 148.698 6.38354C148.331 6.38354 148.011 6.51016 147.739 6.76339C147.467 7.01662 147.332 7.32788 147.332 7.69454C147.332 8.06119 147.467 8.3751 147.739 8.63888C148.011 8.90265 148.328 9.0319 148.698 9.0319Z" fill="white"/>
<path d="M152.267 9.0319C152.634 9.0319 152.946 8.90002 153.2 8.63888C153.453 8.37773 153.58 8.06119 153.58 7.69454C153.58 7.32788 153.453 7.01662 153.2 6.76339C152.946 6.51016 152.634 6.38354 152.267 6.38354C151.9 6.38354 151.586 6.51016 151.321 6.76339C151.06 7.01662 150.928 7.32788 150.928 7.69454C150.928 8.06119 151.06 8.3751 151.321 8.63888C151.583 8.90002 151.9 9.0319 152.267 9.0319Z" fill="white"/>
<path d="M163.764 19.3324C165.164 19.3324 166.287 19.1055 167.138 18.6518C167.986 18.1981 168.62 17.5255 169.04 16.6339C169.32 17.4543 169.822 18.1111 170.549 18.5991C171.275 19.0897 172.084 19.3324 172.976 19.3324C175.005 19.3324 176.472 18.8655 177.372 17.9291C178.273 16.9953 178.725 15.7397 178.725 14.1676V8.40137H175.838V13.8273C175.838 14.9273 175.616 15.7002 175.169 16.1459C174.723 16.5917 173.991 16.8133 172.976 16.8133V16.8397C171.978 16.8397 171.156 16.5944 170.509 16.1064C169.862 15.6184 169.547 14.9114 169.563 13.9829V8.63614H166.676V13.9038C166.676 14.9352 166.454 15.6764 166.007 16.1328C165.561 16.5865 164.813 16.8133 163.762 16.8133V16.8397C162.816 16.8397 162.126 16.6207 161.688 16.1855C161.249 15.7503 161.033 15.0592 161.033 14.1148V8.63878H158.172V14.3259C158.153 15.0249 157.992 15.6157 157.685 16.0958C157.379 16.5759 156.753 16.8159 155.81 16.8159H146.31C145.681 16.8159 145.084 16.6366 144.524 16.2778C143.964 15.9191 143.517 15.4443 143.184 14.8508C142.851 14.2573 142.685 13.6268 142.685 12.9648V9.74137L140.009 10.7648V13.5161C140.009 14.616 140.276 15.6078 140.809 16.4915C141.343 17.3752 142.072 18.0689 143.002 18.5754C143.929 19.0818 144.97 19.335 146.125 19.335H156.021C157.508 19.335 158.708 18.942 159.617 18.1559C160.491 18.942 161.873 19.335 163.764 19.335V19.3324Z" fill="white"/>
<path d="M162.99 22.9224C162.683 23.2204 162.53 23.5765 162.53 23.9959C162.53 24.4153 162.683 24.8031 162.99 25.1091C163.296 25.4151 163.677 25.5681 164.131 25.5681C164.533 25.5681 164.884 25.4151 165.18 25.1091C165.479 24.8031 165.627 24.4312 165.627 23.9959C165.627 23.5607 165.479 23.2178 165.18 22.9224C164.882 22.6243 164.533 22.4766 164.131 22.4766C163.677 22.4766 163.296 22.6243 162.99 22.9224Z" fill="white"/>
<path d="M174.682 22.2419C174.281 22.2419 173.937 22.3765 173.657 22.6482C173.377 22.9199 173.237 23.2469 173.237 23.6321C173.237 24.0172 173.377 24.3733 173.657 24.6555C173.937 24.9351 174.278 25.075 174.682 25.075C175.087 25.075 175.396 24.9351 175.668 24.6555C175.94 24.3759 176.075 24.0357 176.075 23.6321C176.075 23.2285 175.94 22.9199 175.668 22.6482C175.396 22.3765 175.068 22.2419 174.682 22.2419Z" fill="white"/>
<path d="M179.473 24.6528C179.745 24.3732 179.88 24.0329 179.88 23.6294C179.88 23.2258 179.745 22.9172 179.473 22.6455C179.201 22.3738 178.873 22.2393 178.487 22.2393C178.102 22.2393 177.745 22.3738 177.465 22.6455C177.185 22.9172 177.045 23.2442 177.045 23.6294C177.045 24.0145 177.185 24.3706 177.465 24.6528C177.745 24.9324 178.086 25.0723 178.487 25.0723C178.889 25.0723 179.201 24.9324 179.473 24.6528Z" fill="white"/>
<path d="M192.66 18.1532C193.553 17.3671 194 16.2936 194 14.9298C194 13.4975 193.4 12.1206 192.201 10.8017C191.001 9.48277 189.186 8.1586 186.753 6.83179L185.414 9.2955C187.303 10.3427 188.729 11.2818 189.691 12.1127C190.653 12.9436 191.136 13.8114 191.136 14.7214C191.136 15.402 190.888 15.9269 190.388 16.2936C189.889 16.6602 189.247 16.8449 188.46 16.8449H182.265V19.335H189.247C190.629 19.335 191.767 18.9419 192.66 18.1559V18.1532Z" fill="white"/>
<path d="M27.8251 28.2824L17.5615 17.1377L27.878 28.3483C27.8621 28.3246 27.8436 28.3035 27.8251 28.2824Z" fill="#1B40FF"/>
<path d="M31.6658 0H8.30394C6.44407 0 4.71366 0.593505 3.31348 1.64862L10.1664 9.09512H31.6658C36.3789 9.09512 40.199 12.9094 40.199 17.6152V30.3848C40.199 35.0906 36.3789 38.9049 31.6658 38.9049H13.8228C13.3102 38.9049 13.0434 39.5116 13.3895 39.8888L19.1619 46.1746C20.2293 47.3379 21.7404 48 23.3202 48H31.6658C41.409 48 49.3081 40.113 49.3081 30.3848V17.6152C49.3081 7.88437 41.409 0 31.6658 0Z" fill="#1B40FF"/>
<path d="M0.746334 4.87469C-0.608936 7.88178 -0.0937737 11.2819 2.09104 13.7561L14.8908 27.8367C15.9396 28.9894 17.4296 29.6489 18.991 29.6489H27.2283C27.9072 29.6489 28.2718 28.8734 27.8782 28.3511L17.5617 17.1404L10.1566 9.10045H10.1619L3.30893 1.65393C2.22313 2.47165 1.33811 3.56635 0.741051 4.87997L0.746334 4.87469Z" fill="#51EEC3"/>
<path d="M64.6605 30.981L62.2168 31.6351V32.3658L64.6605 31.7116V30.981Z" fill="white"/>
<path d="M64.6605 29.8835L62.2168 30.5377V31.271L64.6605 30.6142V29.8835Z" fill="white"/>
<path d="M99.6751 33.9169H98.9645C98.7637 33.9169 98.6131 33.872 98.518 33.7823C98.4203 33.6927 98.3727 33.5792 98.3727 33.4421C98.3727 33.3207 98.4203 33.2152 98.518 33.1255C98.6158 33.0358 98.7294 32.991 98.8562 32.991C99.0147 32.991 99.1679 33.0517 99.3185 33.173V32.4318C99.1256 32.3395 98.9275 32.292 98.7267 32.292C98.4097 32.292 98.1402 32.4054 97.9183 32.6349C97.7175 32.8354 97.6171 33.0754 97.6171 33.355C97.6171 33.5845 97.6885 33.7718 97.8338 33.9142H97.3926V34.6238H99.6778V33.9142L99.6751 33.9169Z" fill="white"/>
<path d="M106.917 34.046C107.089 34.046 107.237 33.9854 107.358 33.8614C107.48 33.74 107.54 33.5923 107.54 33.4209C107.54 33.2494 107.48 33.1017 107.358 32.9803C107.237 32.859 107.089 32.7983 106.917 32.7983C106.745 32.7983 106.584 32.859 106.455 32.9803C106.325 33.1017 106.262 33.2494 106.262 33.4209C106.262 33.5923 106.328 33.74 106.455 33.8614C106.584 33.9827 106.737 34.046 106.917 34.046Z" fill="white"/>
<path d="M134.455 33.9169H133.734C133.541 33.9169 133.393 33.872 133.293 33.7823C133.193 33.6927 133.145 33.5792 133.153 33.4421C133.153 33.3207 133.201 33.2152 133.298 33.1255C133.396 33.0358 133.51 32.991 133.636 32.991C133.795 32.991 133.948 33.0517 134.099 33.173V32.4318C133.906 32.3395 133.708 32.292 133.507 32.292C133.19 32.292 132.92 32.4054 132.699 32.6349C132.498 32.8354 132.397 33.0754 132.397 33.355C132.397 33.5845 132.469 33.7718 132.614 33.9142H132.173V34.6238H134.458V33.9142L134.455 33.9169Z" fill="white"/>
<path d="M85.9934 34.0012C85.7926 34.0012 85.6209 34.0698 85.4809 34.2043C85.3409 34.3415 85.2695 34.5024 85.2695 34.6897C85.2695 34.877 85.3409 35.0484 85.4809 35.1856C85.6209 35.3201 85.7926 35.3887 85.9934 35.3887C86.181 35.3887 86.3395 35.3201 86.4742 35.1856C86.6063 35.0484 86.6724 34.8849 86.6724 34.6897C86.6724 34.4945 86.6063 34.3415 86.4742 34.2043C86.3421 34.0698 86.181 34.0012 85.9934 34.0012Z" fill="white"/>
<path d="M85.4231 38.446C85.4231 38.8971 85.3306 39.2163 85.1483 39.3983C84.9661 39.5803 84.6649 39.6726 84.2475 39.6726H65.1997C64.8906 39.6726 64.6238 39.5777 64.4019 39.3877C64.18 39.1978 64.069 38.9156 64.069 38.5436V33.1863H62.8828V38.3722C62.8828 38.9024 62.9964 39.3429 63.2263 39.6911C63.4561 40.0393 63.7467 40.2951 64.0981 40.4613C64.4468 40.6249 64.8087 40.7066 65.1865 40.7066H67.5668H84.2448C85.077 40.7066 85.6794 40.5141 86.0492 40.1316C86.4191 39.7465 86.604 39.2321 86.604 38.5885V36.2224H85.4178V38.4487L85.4231 38.446Z" fill="white"/>
<path d="M95.3408 36.014C94.9841 35.7924 94.5694 35.6816 94.0965 35.6816C93.5945 35.6816 93.1613 35.803 92.7993 36.043C92.4374 36.283 92.1626 36.5996 91.9751 36.99C91.7875 37.3804 91.695 37.8051 91.695 38.264C91.695 38.8022 91.5973 39.1714 91.4044 39.3719C91.2116 39.5724 90.9368 39.6726 90.5802 39.6726C90.2737 39.6726 90.0095 39.5777 89.7876 39.3877C89.5657 39.1978 89.4547 38.9156 89.4547 38.5436V33.1863H88.2686V38.3722C88.2686 38.9024 88.3822 39.3429 88.612 39.6911C88.8418 40.0393 89.1324 40.2951 89.4838 40.4613C89.8325 40.6249 90.1945 40.7066 90.5722 40.7066H90.5934C91.4256 40.7066 92.0305 40.4956 92.4031 40.0709C92.8548 40.551 93.4598 40.791 94.2127 40.791C94.7015 40.791 95.1136 40.6671 95.4465 40.4191C95.7793 40.1712 96.0303 39.8546 96.1941 39.4669C96.3579 39.0791 96.4424 38.6755 96.4424 38.2508C96.4424 37.7628 96.3473 37.325 96.1571 36.9319C95.9669 36.5415 95.6948 36.2356 95.3381 36.0114L95.3408 36.014ZM94.9366 39.2532C94.7226 39.5328 94.4293 39.6726 94.0648 39.6726C93.5628 39.6726 93.1454 39.5038 92.8152 39.1662C92.8363 39.0237 92.8469 38.8734 92.8469 38.7151V38.5436C92.8469 37.9264 92.9552 37.4701 93.1692 37.172C93.3858 36.8739 93.6817 36.7262 94.0621 36.7262C94.3342 36.7262 94.5614 36.8053 94.7411 36.9636C94.9207 37.1219 95.0528 37.3171 95.1347 37.5492C95.2166 37.7813 95.2589 38.0134 95.2589 38.2429C95.2589 38.636 95.1506 38.9736 94.9366 39.2532Z" fill="white"/>
<path d="M99.1071 35.3677H97.9209V40.704H99.1071V35.3677Z" fill="white"/>
<path d="M106.119 35.3888C106.291 35.3888 106.439 35.3282 106.56 35.2068C106.682 35.0855 106.743 34.9378 106.743 34.7663C106.743 34.5949 106.685 34.4471 106.566 34.3258C106.447 34.2045 106.299 34.1438 106.119 34.1438C105.94 34.1438 105.786 34.2045 105.662 34.3258C105.538 34.4471 105.475 34.5949 105.475 34.7663C105.475 34.9378 105.538 35.0855 105.662 35.2068C105.786 35.3282 105.94 35.3888 106.119 35.3888Z" fill="white"/>
<path d="M107.035 34.7663C107.035 34.9378 107.099 35.0855 107.228 35.2068C107.357 35.3282 107.511 35.3888 107.69 35.3888C107.87 35.3888 108.01 35.3282 108.132 35.2068C108.253 35.0855 108.314 34.9378 108.314 34.7663C108.314 34.5949 108.253 34.4471 108.132 34.3258C108.01 34.2045 107.862 34.1438 107.69 34.1438C107.497 34.1438 107.339 34.2018 107.217 34.3205C107.096 34.4392 107.035 34.5869 107.035 34.7663Z" fill="white"/>
<path d="M122.874 40.7039H127.928C128.625 40.7039 129.175 40.5113 129.581 40.1288C129.988 39.7437 130.189 39.2267 130.189 38.5752C130.189 37.9236 129.986 37.404 129.581 37.0584C129.175 36.7129 128.591 36.5414 127.83 36.5414H125.029V36.4992L126.947 34.0144H125.73L123.542 36.8105V37.5306L127.452 37.5411C128.493 37.5411 129.013 37.8893 129.013 38.5857C129.013 38.9365 128.902 39.2056 128.681 39.3929C128.459 39.5802 128.142 39.6725 127.732 39.6725L122.874 39.683V39.6725H108.576V39.6778C107.947 39.6672 107.628 39.3586 107.628 38.7466V36.1642H106.518V37.6388H104.267V36.3489H103.105V40.7593C103.105 41.2472 102.973 41.6271 102.706 41.8988C102.439 42.1705 102.069 42.3076 101.596 42.3076C101.417 42.3076 101.253 42.2865 101.1 42.2443V43.31C101.308 43.3601 101.52 43.3839 101.736 43.3839C102.238 43.3839 102.682 43.2757 103.068 43.0621C103.451 42.8484 103.749 42.5451 103.961 42.152C104.172 41.759 104.278 41.3106 104.278 40.8015L104.267 38.6728H106.584V38.9313C106.584 39.6065 106.777 40.0708 107.165 40.324C107.546 40.5746 108.016 40.6986 108.576 40.7039H110.956H122.874Z" fill="white"/>
<path d="M135.922 38.9391C135.922 39.1475 135.85 39.3216 135.71 39.4614C135.57 39.6012 135.393 39.6724 135.177 39.6724H133.885V35.3702H132.699V39.6724H131.547V40.7038H135.124C135.771 40.7038 136.263 40.5508 136.601 40.2475C136.939 39.9415 137.108 39.4166 137.108 38.6727V33.1755H135.922V38.9418V38.9391Z" fill="white"/>
<path d="M140.122 33.1965H138.936V40.7037H140.122V33.1965Z" fill="white"/>
<path d="M148.064 35.0353H147.353C147.16 35.0353 147.012 34.9931 146.912 34.906C146.812 34.819 146.761 34.7056 146.761 34.5631C146.761 34.4497 146.812 34.3442 146.912 34.2519C147.012 34.1595 147.123 34.112 147.245 34.112C147.409 34.112 147.567 34.1727 147.718 34.2941V33.5528C147.517 33.4658 147.316 33.4236 147.115 33.4236C146.806 33.4236 146.537 33.5344 146.307 33.7559C146.114 33.9564 146.016 34.1965 146.016 34.4761C146.016 34.7135 146.085 34.8981 146.222 35.0353H145.781V35.7554H148.066V35.0353H148.064Z" fill="white"/>
<path d="M167.101 35.4969C167.252 35.4969 167.378 35.4442 167.484 35.336C167.587 35.2279 167.64 35.0986 167.64 34.9483C167.64 34.7979 167.587 34.6713 167.484 34.5658C167.381 34.4629 167.252 34.4102 167.101 34.4102C166.951 34.4102 166.818 34.4629 166.707 34.5658C166.596 34.6713 166.541 34.7979 166.541 34.9483C166.541 35.0986 166.596 35.2279 166.707 35.336C166.818 35.4442 166.951 35.4969 167.101 35.4969Z" fill="white"/>
<path d="M168.564 35.4969C168.715 35.4969 168.842 35.4442 168.947 35.336C169.05 35.2279 169.103 35.0986 169.103 34.9483C169.103 34.7979 169.05 34.6713 168.947 34.5658C168.842 34.4629 168.715 34.4102 168.564 34.4102C168.414 34.4102 168.284 34.4629 168.176 34.5658C168.067 34.6713 168.015 34.7979 168.015 34.9483C168.015 35.0986 168.067 35.2279 168.176 35.336C168.284 35.4442 168.414 35.4969 168.564 35.4969Z" fill="white"/>
<path d="M185.781 35.497C185.969 35.497 186.128 35.4285 186.262 35.2913C186.394 35.1568 186.46 34.9906 186.46 34.798C186.46 34.6055 186.394 34.4498 186.262 34.3127C186.13 34.1755 185.969 34.1069 185.781 34.1069C185.581 34.1069 185.409 34.1755 185.269 34.3127C185.129 34.4498 185.058 34.6108 185.058 34.798C185.058 34.9853 185.129 35.1568 185.269 35.2913C185.409 35.4285 185.581 35.497 185.781 35.497Z" fill="white"/>
<path d="M193.385 36.9346C193.194 36.5442 192.922 36.2383 192.566 36.014C192.209 35.7898 191.794 35.6817 191.321 35.6817C190.819 35.6817 190.386 35.803 190.024 36.0431C189.662 36.2831 189.388 36.5996 189.2 36.99C189.012 37.3804 188.92 37.8051 188.92 38.2641C188.92 38.8022 188.822 39.1715 188.629 39.372C188.436 39.5724 188.159 39.6727 187.8 39.6727V39.6832C187.396 39.6832 187.06 39.5804 186.799 39.3825C186.532 39.182 186.402 38.8919 186.41 38.5121V36.3174H185.224V38.4804C185.224 38.9051 185.132 39.2084 184.949 39.3957C184.767 39.583 184.458 39.6753 184.027 39.6753H179.253V39.6859C178.87 39.6859 178.585 39.6067 178.397 39.4485C178.207 39.2902 178.112 38.9789 178.112 38.5121V38.1691C178.112 37.7312 178.02 37.3198 177.832 36.932C177.645 36.5442 177.367 36.2304 176.997 35.9903C176.627 35.7503 176.181 35.6289 175.655 35.6289C175.032 35.6289 174.358 35.8268 173.634 36.2198C172.913 36.6128 172.282 37.056 171.743 37.544V36.2198H170.644V39.6727H169.814V39.6832C169.41 39.6832 169.074 39.5804 168.813 39.3825C168.546 39.182 168.417 38.8919 168.424 38.5121V36.3174H167.238V38.4804C167.238 38.9051 167.146 39.2084 166.964 39.3957C166.781 39.583 166.472 39.6753 166.042 39.6753H151.691C151.324 39.6753 151.052 39.5698 150.872 39.3588C150.692 39.1477 150.603 38.9024 150.603 38.6228V33.2971H149.416V38.6096C149.416 38.9473 149.34 39.2084 149.184 39.3957C149.028 39.583 148.766 39.6753 148.391 39.6753H145.633V39.6859C145.361 39.6859 145.11 39.6252 144.88 39.5012C144.65 39.3799 144.468 39.2084 144.331 38.9895C144.193 38.7706 144.127 38.5279 144.127 38.2641V36.6709L143.028 36.9188V38.3168C143.028 38.7758 143.137 39.1873 143.356 39.5487C143.575 39.9101 143.876 40.195 144.262 40.3981C144.645 40.6038 145.076 40.7041 145.549 40.7041H148.241C149.052 40.7041 149.651 40.5247 150.04 40.1659C150.256 40.3453 150.507 40.4798 150.795 40.5695C151.083 40.6592 151.363 40.7041 151.635 40.7041H166.042C166.615 40.7041 167.077 40.6117 167.426 40.4245C167.775 40.2372 168.033 39.9628 168.208 39.5962C168.321 39.9338 168.53 40.2029 168.829 40.4033C169.122 40.6012 169.452 40.7014 169.814 40.7041H171.106H175.642C176.374 40.7041 176.96 40.4561 177.399 39.9628C177.578 40.2055 177.827 40.3902 178.146 40.5168C178.463 40.6407 178.831 40.7041 179.251 40.7041H181.631H184.022C184.595 40.7041 185.058 40.6117 185.406 40.4245C185.755 40.2372 186.014 39.9628 186.188 39.5962C186.302 39.9338 186.511 40.2029 186.809 40.4033C187.105 40.6012 187.433 40.7014 187.794 40.7041H187.816C188.648 40.7041 189.253 40.493 189.625 40.0683C190.077 40.5484 190.682 40.7885 191.435 40.7885C191.924 40.7885 192.336 40.6645 192.669 40.4165C193.002 40.1686 193.253 39.852 193.416 39.4643C193.58 39.0765 193.665 38.673 193.665 38.2483C193.665 37.7603 193.57 37.3224 193.379 36.9294L193.385 36.9346ZM176.759 38.8761C176.633 39.1135 176.445 39.3034 176.194 39.4511C175.943 39.5988 175.637 39.6727 175.277 39.6727H171.743V38.7363C172.274 38.1902 172.876 37.7075 173.547 37.2828C174.218 36.8608 174.839 36.6498 175.407 36.6498C175.896 36.6498 176.273 36.7948 176.543 37.085C176.812 37.3752 176.947 37.7207 176.947 38.1243C176.947 38.3907 176.884 38.6413 176.759 38.8761ZM192.161 39.2533C191.947 39.5329 191.654 39.6727 191.29 39.6727C190.788 39.6727 190.37 39.5039 190.04 39.1662C190.061 39.0238 190.072 38.8734 190.072 38.7152V38.5437C190.072 37.9265 190.18 37.4701 190.394 37.172C190.611 36.874 190.907 36.7263 191.287 36.7263C191.559 36.7263 191.786 36.8054 191.966 36.9636C192.146 37.1219 192.278 37.3171 192.36 37.5492C192.442 37.7814 192.484 38.0135 192.484 38.243C192.484 38.636 192.375 38.9737 192.161 39.2533Z" fill="white"/>
</svg>
