<svg width="130" height="32" viewBox="0 0 130 32" fill="none" xmlns="http://www.w3.org/2000/svg">
<path d="M54.8902 12.4328C55.3615 12.7476 55.9013 12.9041 56.5063 12.9041C57.018 12.9041 57.4823 12.8056 57.8955 12.6069C58.3088 12.4082 58.6552 12.1356 58.9348 11.7856C59.2144 12.1233 59.5661 12.3906 59.9917 12.5893C60.4172 12.788 60.9026 12.8865 61.4513 12.8865H69.646C70.775 12.8865 71.6701 12.5752 72.3278 11.9509C72.9855 11.3284 73.3143 10.4861 73.3143 9.42569C73.3143 8.3653 72.9855 7.5212 72.3278 6.96199C71.6701 6.40278 70.724 6.12317 69.4895 6.12317H64.9472V6.05283L68.0563 2.017H66.0815L62.5345 6.55929V7.73047L68.8758 7.74806C70.564 7.74806 71.4098 8.31254 71.4098 9.44327C71.4098 10.0148 71.2287 10.4509 70.8682 10.7534C70.5077 11.0559 69.9942 11.2071 69.3312 11.2071L61.453 11.2247V11.2071C60.8938 11.2071 60.4507 11.0787 60.1253 10.822C59.8 10.5652 59.6189 10.1819 59.5837 9.66837V5.57979H57.6792V9.75454C57.6792 10.1977 57.5561 10.5494 57.3117 10.8114C57.0672 11.0734 56.7472 11.2036 56.3498 11.2036C55.9523 11.2036 55.6516 11.0717 55.4072 10.8114C55.1627 10.5494 55.0397 10.1977 55.0397 9.75454V6.67887H53.1176V9.75454C53.1176 10.1977 52.9945 10.5494 52.75 10.8114C52.5056 11.0734 52.1908 11.2036 51.8075 11.2036L50.4094 11.2212V6.67887H48.5753L48.5929 12.322C48.5929 12.846 48.4504 13.3349 48.1655 13.7904C47.8807 14.2441 47.4955 14.6081 47.012 14.8824C46.5284 15.1567 46.0078 15.2939 45.4486 15.2939C44.8191 15.2939 44.2722 15.155 43.8062 14.8754C43.3401 14.5958 42.9796 14.2265 42.7229 13.7657C42.4662 13.305 42.3378 12.8021 42.3378 12.2552V9.19709L40.7129 9.59979V12.4996C40.7129 13.3384 40.9169 14.1104 41.3249 14.8138C41.7328 15.519 42.3026 16.0747 43.0377 16.4827C43.771 16.8907 44.6045 17.0946 45.5365 17.0946C46.3402 17.0946 47.0946 16.9082 47.7998 16.5354C48.5049 16.1626 49.087 15.6562 49.546 15.0161C50.0067 14.376 50.2828 13.6708 50.376 12.9023H51.8092C52.3333 12.9023 52.7782 12.7335 53.1457 12.3959C53.5132 12.0582 53.7594 11.6397 53.8878 11.1385C54.0848 11.6854 54.4206 12.1163 54.8919 12.431L54.8902 12.4328Z" fill="white"/>
<path d="M87.0989 14.7751C86.7964 14.7751 86.5432 14.8736 86.3392 15.0723C86.1352 15.2711 86.0332 15.5085 86.0332 15.7881C86.0332 16.0677 86.1352 16.3262 86.3392 16.5302C86.5432 16.7342 86.7964 16.8362 87.0989 16.8362C87.3662 16.8362 87.6 16.7342 87.797 16.5302C87.9957 16.3262 88.0942 16.0782 88.0942 15.7881C88.0942 15.4979 87.9957 15.2693 87.797 15.0723C87.5983 14.8736 87.3662 14.7751 87.0989 14.7751Z" fill="white"/>
<path d="M86.6102 9.21817C86.6102 9.95148 86.4625 10.4667 86.1653 10.7639C85.8682 11.0611 85.381 11.2088 84.7058 11.2088H83.2726V9.09508C83.2726 8.1525 83.1037 7.35413 82.7661 6.70172C82.4285 6.0493 81.966 5.55691 81.3769 5.22631C80.7878 4.89394 80.1213 4.72864 79.3757 4.72864C78.63 4.72864 77.9372 4.90977 77.3322 5.27027C76.7273 5.63077 76.2525 6.13195 75.9078 6.77205C75.5649 7.41216 75.3926 8.1402 75.3926 8.95615C75.3926 10.3067 75.7478 11.3003 76.4582 11.9351C77.1687 12.5699 78.0655 12.8865 79.1488 12.8865H81.4208C81.3048 13.5846 80.9021 14.135 80.2145 14.5377C79.5269 14.9387 78.6125 15.1409 77.4712 15.1409H77.086V16.8713H77.7332C78.8041 16.8713 79.7362 16.7025 80.5293 16.3649C81.3206 16.0272 81.9449 15.5577 82.3986 14.958C82.8523 14.3584 83.1319 13.6673 83.2374 12.8882H84.7058C86.0563 12.8882 87.0323 12.577 87.632 11.9527C88.2316 11.3302 88.5323 10.4931 88.5323 9.44502V5.60087H86.6102V9.21817ZM81.3171 11.2106H79.3088C78.7144 11.2106 78.2344 11.0101 77.8668 10.6074C77.4993 10.2047 77.3164 9.67891 77.3164 9.02649C77.3164 8.21053 77.4993 7.56516 77.8668 7.08683C78.2344 6.61027 78.7373 6.37111 79.3774 6.37111C79.8786 6.37111 80.2707 6.53465 80.5574 6.85998C80.8423 7.18706 81.041 7.56164 81.1518 7.9872C81.2626 8.41277 81.3171 8.79964 81.3171 9.14959V11.2106Z" fill="white"/>
<path d="M98.9795 6.0211C99.2239 6.0211 99.4314 5.93317 99.6002 5.75908C99.769 5.58498 99.8535 5.37396 99.8535 5.12952C99.8535 4.88508 99.769 4.67757 99.6002 4.50875C99.4314 4.33993 99.2239 4.25552 98.9795 4.25552C98.735 4.25552 98.5223 4.33993 98.3411 4.50875C98.16 4.67757 98.0703 4.88508 98.0703 5.12952C98.0703 5.37396 98.16 5.58322 98.3411 5.75908C98.5223 5.93493 98.7333 6.0211 98.9795 6.0211Z" fill="white"/>
<path d="M101.354 6.0211C101.599 6.0211 101.806 5.93317 101.975 5.75908C102.144 5.58498 102.228 5.37396 102.228 5.12952C102.228 4.88508 102.144 4.67757 101.975 4.50875C101.806 4.33993 101.599 4.25552 101.354 4.25552C101.11 4.25552 100.901 4.33993 100.725 4.50875C100.551 4.67757 100.463 4.88508 100.463 5.12952C100.463 5.37396 100.551 5.58322 100.725 5.75908C100.899 5.93317 101.11 6.0211 101.354 6.0211Z" fill="white"/>
<path d="M109.008 12.8882C109.94 12.8882 110.687 12.7369 111.254 12.4345C111.818 12.132 112.24 11.6836 112.52 11.0892C112.706 11.6361 113.04 12.074 113.524 12.3993C114.008 12.7264 114.546 12.8882 115.14 12.8882C116.491 12.8882 117.467 12.5769 118.066 11.9526C118.666 11.3301 118.967 10.493 118.967 9.44495V5.6008H117.045V9.2181C117.045 9.95141 116.897 10.4667 116.6 10.7638C116.302 11.061 115.815 11.2088 115.14 11.2088V11.2263C114.475 11.2263 113.928 11.0628 113.498 10.7375C113.067 10.4121 112.857 9.94085 112.868 9.32185V5.75731H110.946V9.26909C110.946 9.95668 110.798 10.4508 110.501 10.7551C110.204 11.0575 109.706 11.2088 109.006 11.2088V11.2263C108.377 11.2263 107.918 11.0804 107.626 10.7902C107.334 10.5001 107.19 10.0393 107.19 9.40978V5.75907H105.285V9.55047C105.273 10.0165 105.166 10.4104 104.962 10.7304C104.758 11.0505 104.341 11.2105 103.713 11.2105H97.3894C96.9709 11.2105 96.5735 11.0909 96.2006 10.8518C95.8278 10.6126 95.5306 10.2961 95.3091 9.90041C95.0875 9.50474 94.9767 9.08445 94.9767 8.64306V6.49414L93.1953 7.17645V9.0106C93.1953 9.7439 93.3729 10.4051 93.7282 10.9942C94.0834 11.5833 94.5687 12.0458 95.1877 12.3835C95.805 12.7211 96.4978 12.8899 97.2663 12.8899H103.854C104.844 12.8899 105.642 12.6279 106.247 12.1038C106.829 12.6279 107.749 12.8899 109.008 12.8899V12.8882Z" fill="white"/>
<path d="M108.493 15.2815C108.289 15.4802 108.188 15.7176 108.188 15.9972C108.188 16.2768 108.289 16.5353 108.493 16.7393C108.697 16.9433 108.951 17.0453 109.253 17.0453C109.52 17.0453 109.754 16.9433 109.951 16.7393C110.15 16.5353 110.249 16.2874 110.249 15.9972C110.249 15.7071 110.15 15.4785 109.951 15.2815C109.753 15.0828 109.52 14.9843 109.253 14.9843C108.951 14.9843 108.697 15.0828 108.493 15.2815Z" fill="white"/>
<path d="M116.276 14.8279C116.009 14.8279 115.78 14.9176 115.594 15.0987C115.408 15.2798 115.314 15.4979 115.314 15.7546C115.314 16.0114 115.408 16.2488 115.594 16.4369C115.78 16.6233 116.007 16.7166 116.276 16.7166C116.545 16.7166 116.751 16.6233 116.932 16.4369C117.113 16.2505 117.203 16.0237 117.203 15.7546C117.203 15.4856 117.113 15.2798 116.932 15.0987C116.751 14.9176 116.533 14.8279 116.276 14.8279Z" fill="white"/>
<path d="M119.464 16.4352C119.645 16.2488 119.735 16.0219 119.735 15.7528C119.735 15.4838 119.645 15.278 119.464 15.0969C119.283 14.9158 119.065 14.8261 118.808 14.8261C118.551 14.8261 118.314 14.9158 118.127 15.0969C117.941 15.278 117.848 15.4961 117.848 15.7528C117.848 16.0096 117.941 16.247 118.127 16.4352C118.314 16.6216 118.541 16.7148 118.808 16.7148C119.075 16.7148 119.283 16.6216 119.464 16.4352Z" fill="white"/>
<path d="M128.242 12.1022C128.836 11.5781 129.134 10.8624 129.134 9.95323C129.134 8.99835 128.734 8.08039 127.936 7.20112C127.138 6.32186 125.93 5.43908 124.31 4.55453L123.418 6.19701C124.676 6.89515 125.625 7.52118 126.265 8.07512C126.906 8.62906 127.227 9.20762 127.227 9.81431C127.227 10.268 127.062 10.618 126.73 10.8624C126.397 11.1068 125.97 11.2299 125.446 11.2299H121.322V12.89H125.97C126.89 12.89 127.648 12.628 128.242 12.1039V12.1022Z" fill="white"/>
<path d="M18.5214 18.8549L11.6895 11.4251L18.5565 18.8989C18.546 18.8831 18.5337 18.869 18.5214 18.8549Z" fill="white"/>
<path d="M21.0776 0H5.52695C4.28894 0 3.1371 0.39567 2.20508 1.09908L6.76671 6.06341H21.0776C24.2149 6.06341 26.7577 8.60625 26.7577 11.7435V20.2565C26.7577 23.3938 24.2149 25.9366 21.0776 25.9366H9.20052C8.85936 25.9366 8.68175 26.341 8.91212 26.5925L12.7545 30.7831C13.465 31.5586 14.4708 32 15.5224 32H21.0776C27.5631 32 32.8211 26.742 32.8211 20.2565V11.7435C32.8211 5.25625 27.5631 0 21.0776 0Z" fill="white"/>
<path d="M0.496793 3.2498C-0.405334 5.25453 -0.0624198 7.52127 1.39189 9.17078L9.91197 18.5578C10.6101 19.3263 11.6019 19.7659 12.6412 19.7659H18.1243C18.5763 19.7659 18.8189 19.2489 18.5569 18.9007L11.6898 11.427L6.76068 6.06697H6.7642L2.20257 1.10263C1.47981 1.64778 0.890704 2.37757 0.493276 3.25332L0.496793 3.2498Z" fill="white"/>
<path d="M43.0407 20.654L41.4141 21.0901V21.5773L43.0407 21.1411V20.654Z" fill="white"/>
<path d="M43.0407 19.9224L41.4141 20.3585V20.8474L43.0407 20.4095V19.9224Z" fill="white"/>
<path d="M66.3475 22.6112H65.8745C65.7408 22.6112 65.6406 22.5813 65.5773 22.5215C65.5122 22.4617 65.4805 22.3861 65.4805 22.2947C65.4805 22.2138 65.5122 22.1434 65.5773 22.0836C65.6423 22.0239 65.7179 21.994 65.8024 21.994C65.9079 21.994 66.0099 22.0344 66.1101 22.1153V21.6212C65.9817 21.5596 65.8498 21.528 65.7162 21.528C65.5052 21.528 65.3258 21.6036 65.1781 21.7566C65.0444 21.8902 64.9776 22.0502 64.9776 22.2366C64.9776 22.3896 65.0251 22.5145 65.1218 22.6094H64.8281V23.0825H66.3493V22.6094L66.3475 22.6112Z" fill="white"/>
<path d="M71.1666 22.6974C71.2809 22.6974 71.3794 22.6569 71.4603 22.5743C71.5412 22.4934 71.5816 22.3949 71.5816 22.2806C71.5816 22.1663 71.5412 22.0678 71.4603 21.9869C71.3794 21.906 71.2809 21.8656 71.1666 21.8656C71.0523 21.8656 70.945 21.906 70.8588 21.9869C70.7727 22.0678 70.7305 22.1663 70.7305 22.2806C70.7305 22.3949 70.7744 22.4934 70.8588 22.5743C70.945 22.6552 71.047 22.6974 71.1666 22.6974Z" fill="white"/>
<path d="M89.4979 22.6112H89.0178C88.8894 22.6112 88.791 22.5813 88.7241 22.5215C88.6573 22.4617 88.6256 22.3861 88.6309 22.2947C88.6309 22.2138 88.6626 22.1434 88.7277 22.0836C88.7927 22.0239 88.8683 21.994 88.9527 21.994C89.0583 21.994 89.1602 22.0344 89.2605 22.1153V21.6212C89.1321 21.5596 89.0002 21.528 88.8666 21.528C88.6555 21.528 88.4762 21.6036 88.3285 21.7566C88.1948 21.8902 88.128 22.0502 88.128 22.2366C88.128 22.3896 88.1755 22.5145 88.2722 22.6094H87.9785V23.0825H89.4996V22.6094L89.4979 22.6112Z" fill="white"/>
<path d="M57.2396 22.6675C57.106 22.6675 56.9917 22.7132 56.8985 22.8029C56.8053 22.8944 56.7578 23.0016 56.7578 23.1265C56.7578 23.2513 56.8053 23.3656 56.8985 23.4571C56.9917 23.5468 57.106 23.5925 57.2396 23.5925C57.3645 23.5925 57.47 23.5468 57.5597 23.4571C57.6476 23.3656 57.6916 23.2566 57.6916 23.1265C57.6916 22.9964 57.6476 22.8944 57.5597 22.8029C57.4718 22.7132 57.3645 22.6675 57.2396 22.6675Z" fill="white"/>
<path d="M56.8593 25.6307C56.8593 25.9314 56.7977 26.1442 56.6764 26.2655C56.555 26.3869 56.3546 26.4484 56.0767 26.4484H43.3977C43.192 26.4484 43.0143 26.3851 42.8666 26.2585C42.7189 26.1319 42.6451 25.9437 42.6451 25.6958V22.1242H41.8555V25.5815C41.8555 25.9349 41.9311 26.2286 42.0841 26.4607C42.2371 26.6929 42.4305 26.8634 42.6644 26.9742C42.8965 27.0833 43.1374 27.1378 43.3889 27.1378H44.9733H56.075C56.6289 27.1378 57.0298 27.0094 57.276 26.7544C57.5222 26.4977 57.6453 26.1548 57.6453 25.7257V24.1483H56.8557V25.6325L56.8593 25.6307Z" fill="white"/>
<path d="M63.4615 24.0093C63.2241 23.8616 62.948 23.7878 62.6332 23.7878C62.2991 23.7878 62.0107 23.8687 61.7698 24.0287C61.5289 24.1887 61.346 24.3997 61.2211 24.66C61.0963 24.9203 61.0347 25.2034 61.0347 25.5094C61.0347 25.8681 60.9697 26.1143 60.8413 26.248C60.7129 26.3816 60.53 26.4484 60.2926 26.4484C60.0886 26.4484 59.9128 26.3851 59.7651 26.2585C59.6173 26.1319 59.5435 25.9437 59.5435 25.6958V22.1242H58.7539V25.5815C58.7539 25.9349 58.8295 26.2286 58.9825 26.4607C59.1355 26.6929 59.3289 26.8634 59.5628 26.9742C59.795 27.0833 60.0359 27.1378 60.2873 27.1378H60.3014C60.8553 27.1378 61.2581 26.9971 61.506 26.714C61.8067 27.034 62.2094 27.194 62.7106 27.194C63.0359 27.194 63.3103 27.1114 63.5318 26.9461C63.7534 26.7808 63.9205 26.5698 64.0295 26.3113C64.1385 26.0528 64.1948 25.7837 64.1948 25.5006C64.1948 25.1753 64.1315 24.8833 64.0049 24.6213C63.8783 24.3611 63.6971 24.1571 63.4597 24.0076L63.4615 24.0093ZM63.1924 26.1688C63.05 26.3552 62.8548 26.4484 62.6121 26.4484C62.278 26.4484 62.0002 26.3359 61.7803 26.1108C61.7944 26.0158 61.8014 25.9156 61.8014 25.8101V25.6958C61.8014 25.2843 61.8735 24.9801 62.016 24.7813C62.1602 24.5826 62.3571 24.4842 62.6104 24.4842C62.7915 24.4842 62.9427 24.5369 63.0623 24.6424C63.1819 24.7479 63.2698 24.8781 63.3243 25.0328C63.3788 25.1876 63.407 25.3423 63.407 25.4953C63.407 25.7573 63.3349 25.9824 63.1924 26.1688Z" fill="white"/>
<path d="M65.9693 23.5784H65.1797V27.1359H65.9693V23.5784Z" fill="white"/>
<path d="M70.6361 23.5925C70.7504 23.5925 70.8489 23.5521 70.9298 23.4712C71.0107 23.3903 71.0511 23.2918 71.0511 23.1775C71.0511 23.0632 71.0124 22.9647 70.9333 22.8838C70.8542 22.8029 70.7557 22.7625 70.6361 22.7625C70.5165 22.7625 70.4145 22.8029 70.3319 22.8838C70.2492 22.9647 70.207 23.0632 70.207 23.1775C70.207 23.2918 70.2492 23.3903 70.3319 23.4712C70.4145 23.5521 70.5165 23.5925 70.6361 23.5925Z" fill="white"/>
<path d="M71.2461 23.1775C71.2461 23.2918 71.2883 23.3903 71.3745 23.4712C71.4606 23.5521 71.5626 23.5925 71.6822 23.5925C71.8018 23.5925 71.895 23.5521 71.9759 23.4712C72.0568 23.3903 72.0972 23.2918 72.0972 23.1775C72.0972 23.0632 72.0568 22.9647 71.9759 22.8838C71.895 22.8029 71.7965 22.7625 71.6822 22.7625C71.5538 22.7625 71.4483 22.8012 71.3674 22.8803C71.2865 22.9595 71.2461 23.0579 71.2461 23.1775Z" fill="white"/>
<path d="M81.7887 27.1359H85.1528C85.6171 27.1359 85.9828 27.0076 86.2537 26.7526C86.5245 26.4958 86.6581 26.1512 86.6581 25.7168C86.6581 25.2825 86.5227 24.936 86.2537 24.7057C85.9828 24.4753 85.5942 24.361 85.0878 24.361H83.2237V24.3328L84.5004 22.6763H83.6897L82.2336 24.5404V25.0204L84.8363 25.0275C85.5291 25.0275 85.8756 25.2596 85.8756 25.7238C85.8756 25.9577 85.8017 26.1371 85.654 26.2619C85.5063 26.3868 85.2953 26.4484 85.0227 26.4484L81.7887 26.4554V26.4484H72.2716V26.4519C71.853 26.4448 71.6403 26.2391 71.6403 25.8311V24.1095H70.9017V25.0925H69.4034V24.2326H68.6296V27.1729C68.6296 27.4982 68.5417 27.7514 68.3641 27.9326C68.1865 28.1137 67.9403 28.2051 67.6255 28.2051C67.5059 28.2051 67.3969 28.1911 67.2949 28.1629V28.8734C67.4338 28.9068 67.5745 28.9226 67.7187 28.9226C68.0528 28.9226 68.3483 28.8505 68.605 28.7081C68.86 28.5656 69.0587 28.3634 69.1994 28.1014C69.3401 27.8394 69.4104 27.5404 69.4104 27.201L69.4034 25.7819H70.9456V25.9542C70.9456 26.4044 71.074 26.7139 71.3325 26.8827C71.5857 27.0498 71.8988 27.1324 72.2716 27.1359H73.856H81.7887Z" fill="white"/>
<path d="M90.4746 25.9594C90.4746 26.0983 90.4271 26.2144 90.3339 26.3076C90.2407 26.4008 90.1229 26.4483 89.9787 26.4483H89.1188V23.5801H88.3292V26.4483H87.5625V27.1359H89.9435C90.3744 27.1359 90.7015 27.0339 90.9266 26.8316C91.1517 26.6276 91.2642 26.2777 91.2642 25.7818V22.117H90.4746V25.9612V25.9594Z" fill="white"/>
<path d="M93.27 22.131H92.4805V27.1358H93.27V22.131Z" fill="white"/>
<path d="M98.5565 23.3568H98.0834C97.9551 23.3568 97.8566 23.3286 97.7898 23.2706C97.7229 23.2126 97.6895 23.137 97.6895 23.042C97.6895 22.9664 97.7229 22.896 97.7898 22.8345C97.8566 22.773 97.9304 22.7413 98.0113 22.7413C98.1204 22.7413 98.2259 22.7817 98.3261 22.8626V22.3685C98.1925 22.3105 98.0588 22.2823 97.9252 22.2823C97.7194 22.2823 97.54 22.3562 97.3871 22.5039C97.2587 22.6375 97.1936 22.7976 97.1936 22.984C97.1936 23.1422 97.2393 23.2653 97.3308 23.3568H97.0371V23.8369H98.5582V23.3568H98.5565Z" fill="white"/>
<path d="M111.228 23.6646C111.329 23.6646 111.413 23.6294 111.483 23.5573C111.552 23.4852 111.587 23.399 111.587 23.2988C111.587 23.1986 111.552 23.1142 111.483 23.0438C111.415 22.9752 111.329 22.9401 111.228 22.9401C111.128 22.9401 111.04 22.9752 110.966 23.0438C110.892 23.1142 110.855 23.1986 110.855 23.2988C110.855 23.399 110.892 23.4852 110.966 23.5573C111.04 23.6294 111.128 23.6646 111.228 23.6646Z" fill="white"/>
<path d="M112.204 23.6646C112.304 23.6646 112.388 23.6294 112.459 23.5573C112.527 23.4852 112.562 23.399 112.562 23.2988C112.562 23.1986 112.527 23.1142 112.459 23.0438C112.388 22.9752 112.304 22.9401 112.204 22.9401C112.103 22.9401 112.017 22.9752 111.945 23.0438C111.873 23.1142 111.838 23.1986 111.838 23.2988C111.838 23.399 111.873 23.4852 111.945 23.5573C112.017 23.6294 112.103 23.6646 112.204 23.6646Z" fill="white"/>
<path d="M123.663 23.6647C123.788 23.6647 123.894 23.6189 123.984 23.5275C124.071 23.4378 124.115 23.327 124.115 23.1986C124.115 23.0703 124.071 22.9665 123.984 22.8751C123.896 22.7836 123.788 22.7379 123.663 22.7379C123.53 22.7379 123.416 22.7836 123.322 22.8751C123.229 22.9665 123.182 23.0738 123.182 23.1986C123.182 23.3235 123.229 23.4378 123.322 23.5275C123.416 23.6189 123.53 23.6647 123.663 23.6647Z" fill="white"/>
<path d="M128.724 24.6231C128.598 24.3628 128.417 24.1588 128.179 24.0093C127.942 23.8599 127.666 23.7878 127.351 23.7878C127.017 23.7878 126.729 23.8687 126.488 24.0287C126.247 24.1887 126.064 24.3997 125.939 24.66C125.814 24.9203 125.753 25.2034 125.753 25.5094C125.753 25.8681 125.687 26.1143 125.559 26.248C125.431 26.3816 125.246 26.4484 125.007 26.4484V26.4555C124.738 26.4555 124.515 26.3869 124.34 26.255C124.163 26.1213 124.077 25.9279 124.082 25.6747V24.2116H123.292V25.6536C123.292 25.9367 123.231 26.1389 123.109 26.2638C122.988 26.3886 122.782 26.4502 122.496 26.4502H119.318V26.4572C119.063 26.4572 118.873 26.4045 118.748 26.299C118.622 26.1934 118.558 25.9859 118.558 25.6747V25.4461C118.558 25.1541 118.497 24.8798 118.372 24.6213C118.247 24.3628 118.062 24.1536 117.816 23.9935C117.57 23.8335 117.273 23.7526 116.923 23.7526C116.508 23.7526 116.06 23.8845 115.578 24.1465C115.098 24.4085 114.677 24.704 114.319 25.0293V24.1465H113.587V26.4484H113.035V26.4555C112.766 26.4555 112.542 26.3869 112.368 26.255C112.191 26.1213 112.105 25.9279 112.11 25.6747V24.2116H111.32V25.6536C111.32 25.9367 111.259 26.1389 111.137 26.2638C111.016 26.3886 110.81 26.4502 110.524 26.4502H100.971C100.727 26.4502 100.546 26.3798 100.426 26.2392C100.307 26.0985 100.247 25.9349 100.247 25.7485V22.1981H99.4572V25.7397C99.4572 25.9648 99.4062 26.1389 99.3025 26.2638C99.1987 26.3886 99.0246 26.4502 98.7749 26.4502H96.939V26.4572C96.7579 26.4572 96.5908 26.4168 96.4378 26.3341C96.2848 26.2532 96.1635 26.1389 96.072 25.993C95.9806 25.847 95.9366 25.6852 95.9366 25.5094V24.4472L95.2051 24.6125V25.5445C95.2051 25.8505 95.2772 26.1249 95.4231 26.3658C95.5691 26.6067 95.7696 26.7966 96.0263 26.932C96.2813 27.0692 96.5679 27.136 96.8827 27.136H98.6747C99.2145 27.136 99.6137 27.0164 99.8722 26.7773C100.016 26.8969 100.183 26.9865 100.375 27.0463C100.567 27.1061 100.753 27.136 100.934 27.136H110.524C110.905 27.136 111.213 27.0745 111.445 26.9496C111.677 26.8248 111.85 26.6419 111.966 26.3974C112.041 26.6225 112.18 26.8019 112.379 26.9355C112.574 27.0674 112.794 27.1343 113.035 27.136H113.895H116.914C117.401 27.136 117.792 26.9707 118.084 26.6419C118.203 26.8037 118.368 26.9268 118.581 27.0112C118.792 27.0938 119.037 27.136 119.316 27.136H120.901H122.492C122.874 27.136 123.182 27.0745 123.414 26.9496C123.646 26.8248 123.818 26.6419 123.934 26.3974C124.01 26.6225 124.149 26.8019 124.347 26.9355C124.544 27.0674 124.762 27.1343 125.003 27.136H125.017C125.571 27.136 125.974 26.9953 126.222 26.7122C126.523 27.0323 126.925 27.1923 127.427 27.1923C127.752 27.1923 128.026 27.1096 128.248 26.9443C128.469 26.779 128.637 26.568 128.746 26.3095C128.855 26.051 128.911 25.782 128.911 25.4988C128.911 25.1735 128.848 24.8816 128.721 24.6196L128.724 24.6231ZM117.658 25.9173C117.574 26.0756 117.449 26.2022 117.282 26.3007C117.115 26.3992 116.911 26.4484 116.671 26.4484H114.319V25.8242C114.672 25.4601 115.073 25.1383 115.52 24.8552C115.966 24.5738 116.38 24.4332 116.758 24.4332C117.083 24.4332 117.334 24.5299 117.514 24.7233C117.693 24.9167 117.783 25.1471 117.783 25.4162C117.783 25.5938 117.741 25.7608 117.658 25.9173ZM127.91 26.1688C127.768 26.3552 127.573 26.4484 127.33 26.4484C126.996 26.4484 126.718 26.3359 126.498 26.1108C126.512 26.0158 126.519 25.9156 126.519 25.8101V25.6958C126.519 25.2843 126.591 24.9801 126.734 24.7813C126.878 24.5826 127.075 24.4842 127.328 24.4842C127.509 24.4842 127.661 24.5369 127.78 24.6424C127.9 24.7479 127.988 24.8781 128.042 25.0328C128.097 25.1876 128.125 25.3423 128.125 25.4953C128.125 25.7573 128.053 25.9824 127.91 26.1688Z" fill="white"/>
</svg>
