<svg width="194" height="48" viewBox="0 0 194 48" fill="none" xmlns="http://www.w3.org/2000/svg">
<path d="M27.783 28.2825L17.5352 17.1378L27.8358 28.3484C27.8199 28.3247 27.8015 28.3036 27.783 28.2825Z" fill="#1B40FF"/>
<path d="M31.6174 0H8.2914C6.43439 0 4.70663 0.593505 3.30859 1.64862L10.151 9.09512H31.6174C36.3233 9.09512 40.1375 12.9094 40.1375 17.6152V30.3848C40.1375 35.0906 36.3233 38.9049 31.6174 38.9049H13.8018C13.29 38.9049 13.0236 39.5116 13.3692 39.8888L19.1327 46.1746C20.1984 47.3379 21.7072 48 23.2846 48H31.6174C41.3456 48 49.2327 40.113 49.2327 30.3848V17.6152C49.2327 7.88437 41.3456 0 31.6174 0Z" fill="#1B40FF"/>
<path d="M0.745189 4.87463C-0.608001 7.88172 -0.0936298 11.2818 2.08783 13.7561L14.868 27.8367C15.9152 28.9894 17.4029 29.6488 18.9618 29.6488H27.1865C27.8644 29.6488 28.2284 28.8733 27.8354 28.351L17.5348 17.1404L10.141 9.10038H10.1463L3.30385 1.65387C2.21972 2.47159 1.33606 3.56628 0.739914 4.87991L0.745189 4.87463Z" fill="#51EEC3"/>
<path d="M82.3382 18.6492C83.0451 19.1214 83.8549 19.3562 84.7623 19.3562C85.5299 19.3562 86.2263 19.2085 86.8462 18.9104C87.4661 18.6123 87.9857 18.2035 88.4051 17.6785C88.8245 18.185 89.3521 18.5859 89.9904 18.884C90.6288 19.1821 91.3568 19.3298 92.1798 19.3298H104.472C106.165 19.3298 107.508 18.8629 108.495 17.9265C109.481 16.9927 109.974 15.7292 109.974 14.1386C109.974 12.548 109.481 11.2819 108.495 10.4431C107.508 9.60424 106.089 9.18483 104.237 9.18483H97.4238V9.07932L102.087 3.02557H99.1251L93.8047 9.83901V11.5958L103.317 11.6222C105.849 11.6222 107.118 12.4689 107.118 14.165C107.118 15.0223 106.846 15.6765 106.305 16.1302C105.764 16.5839 104.994 16.8107 104 16.8107L92.1825 16.8371V16.8107C91.3436 16.8107 90.6789 16.6181 90.1909 16.233C89.7029 15.8479 89.4312 15.2729 89.3785 14.5026V8.36975H86.5217V14.6319C86.5217 15.2966 86.3371 15.8242 85.9704 16.2172C85.6038 16.6102 85.1237 16.8054 84.5276 16.8054C83.9314 16.8054 83.4804 16.6076 83.1137 16.2172C82.747 15.8242 82.5624 15.2966 82.5624 14.6319V10.0184H79.6793V14.6319C79.6793 15.2966 79.4946 15.8242 79.128 16.2172C78.7613 16.6102 78.2892 16.8054 77.7141 16.8054L75.6171 16.8318V10.0184H72.8659L72.8922 18.4831C72.8922 19.2691 72.6786 20.0024 72.2513 20.6856C71.8239 21.3662 71.2463 21.9122 70.5209 22.3237C69.7955 22.7352 69.0147 22.9409 68.1759 22.9409C67.2315 22.9409 66.4112 22.7326 65.7122 22.3132C65.0131 21.8937 64.4724 21.3398 64.0873 20.6487C63.7022 19.9576 63.5096 19.2032 63.5096 18.3828V13.7957L61.0723 14.3998V18.7495C61.0723 20.0077 61.3783 21.1657 61.9902 22.2208C62.6022 23.2786 63.4568 24.1121 64.5594 24.7241C65.6594 25.3361 66.9097 25.642 68.3078 25.642C69.5132 25.642 70.6448 25.3624 71.7026 24.8032C72.7604 24.244 73.6335 23.4843 74.3219 22.5242C75.013 21.564 75.4272 20.5063 75.567 19.3535H77.7168C78.5028 19.3535 79.1702 19.1003 79.7215 18.5939C80.2728 18.0874 80.6421 17.4596 80.8347 16.7078C81.1301 17.5282 81.6339 18.1745 82.3408 18.6466L82.3382 18.6492Z" fill="white"/>
<path d="M130.651 22.1628C130.198 22.1628 129.818 22.3105 129.512 22.6086C129.206 22.9066 129.053 23.2627 129.053 23.6822C129.053 24.1016 129.206 24.4893 129.512 24.7953C129.818 25.1013 130.198 25.2543 130.651 25.2543C131.052 25.2543 131.403 25.1013 131.698 24.7953C131.997 24.4893 132.144 24.1174 132.144 23.6822C132.144 23.2469 131.997 22.904 131.698 22.6086C131.4 22.3105 131.052 22.1628 130.651 22.1628Z" fill="white"/>
<path d="M129.916 13.8273C129.916 14.9273 129.695 15.7002 129.249 16.1459C128.803 16.5917 128.073 16.8133 127.06 16.8133H124.91V13.6427C124.91 12.2288 124.657 11.0313 124.15 10.0526C123.644 9.07401 122.95 8.33542 122.066 7.83952C121.183 7.34098 120.183 7.09302 119.064 7.09302C117.946 7.09302 116.907 7.36472 115.999 7.90546C115.092 8.44621 114.38 9.19798 113.863 10.1581C113.348 11.1183 113.09 12.2104 113.09 13.4343C113.09 15.4601 113.623 16.9505 114.688 17.9027C115.754 18.855 117.099 19.3298 118.724 19.3298H122.132C121.958 20.377 121.354 21.2026 120.323 21.8067C119.291 22.4081 117.92 22.7114 116.208 22.7114H115.63V25.307H116.601C118.207 25.307 119.605 25.0538 120.795 24.5473C121.982 24.0409 122.918 23.3366 123.599 22.4371C124.279 21.5376 124.699 20.501 124.857 19.3324H127.06C129.085 19.3324 130.549 18.8655 131.449 17.9291C132.348 16.9953 132.799 15.7397 132.799 14.1676V8.40137H129.916V13.8273ZM121.977 16.816H118.964C118.073 16.816 117.353 16.5152 116.801 15.9112C116.25 15.3071 115.976 14.5184 115.976 13.5398C115.976 12.3159 116.25 11.3478 116.801 10.6303C117.353 9.91547 118.107 9.55673 119.067 9.55673C119.819 9.55673 120.407 9.80203 120.837 10.29C121.264 10.7807 121.562 11.3425 121.729 11.9809C121.895 12.6192 121.977 13.1995 121.977 13.7244V16.816Z" fill="white"/>
<path d="M148.471 9.03184C148.838 9.03184 149.149 8.89996 149.402 8.63881C149.656 8.37767 149.782 8.06113 149.782 7.69448C149.782 7.32782 149.656 7.01656 149.402 6.76333C149.149 6.5101 148.838 6.38348 148.471 6.38348C148.105 6.38348 147.785 6.5101 147.514 6.76333C147.242 7.01656 147.107 7.32782 147.107 7.69448C147.107 8.06113 147.242 8.37503 147.514 8.63881C147.785 8.90259 148.102 9.03184 148.471 9.03184Z" fill="white"/>
<path d="M152.035 9.03184C152.401 9.03184 152.713 8.89996 152.966 8.63881C153.219 8.37767 153.346 8.06113 153.346 7.69448C153.346 7.32782 153.219 7.01656 152.966 6.76333C152.713 6.5101 152.401 6.38348 152.035 6.38348C151.668 6.38348 151.354 6.5101 151.09 6.76333C150.829 7.01656 150.697 7.32782 150.697 7.69448C150.697 8.06113 150.829 8.37503 151.09 8.63881C151.351 8.89996 151.668 9.03184 152.035 9.03184Z" fill="white"/>
<path d="M163.514 19.3324C164.912 19.3324 166.033 19.1055 166.882 18.6518C167.729 18.1981 168.362 17.5255 168.782 16.6339C169.061 17.4543 169.562 18.1111 170.288 18.5991C171.013 19.0897 171.82 19.3324 172.712 19.3324C174.738 19.3324 176.202 18.8655 177.101 17.9291C178.001 16.9953 178.452 15.7397 178.452 14.1676V8.40137H175.569V13.8273C175.569 14.9273 175.347 15.7002 174.901 16.1459C174.456 16.5917 173.725 16.8133 172.712 16.8133V16.8397C171.715 16.8397 170.895 16.5944 170.248 16.1064C169.602 15.6184 169.288 14.9114 169.304 13.9829V8.63614H166.421V13.9038C166.421 14.9352 166.199 15.6764 165.753 16.1328C165.308 16.5865 164.561 16.8133 163.511 16.8133V16.8397C162.567 16.8397 161.879 16.6207 161.441 16.1855C161.003 15.7503 160.787 15.0592 160.787 14.1148V8.63878H157.93V14.3259C157.911 15.0249 157.75 15.6157 157.444 16.0958C157.138 16.5759 156.513 16.8159 155.572 16.8159H146.086C145.458 16.8159 144.862 16.6366 144.303 16.2778C143.744 15.9191 143.298 15.4443 142.966 14.8508C142.633 14.2573 142.467 13.6268 142.467 12.9648V9.74137L139.795 10.7648V13.5161C139.795 14.616 140.061 15.6078 140.594 16.4915C141.127 17.3752 141.855 18.0689 142.784 18.5754C143.709 19.0818 144.749 19.335 145.901 19.335H155.783C157.268 19.335 158.465 18.942 159.373 18.1559C160.246 18.942 161.625 19.335 163.514 19.335V19.3324Z" fill="white"/>
<path d="M162.74 22.9225C162.434 23.2205 162.281 23.5766 162.281 23.9961C162.281 24.4155 162.434 24.8032 162.74 25.1092C163.046 25.4152 163.426 25.5682 163.88 25.5682C164.281 25.5682 164.632 25.4152 164.927 25.1092C165.225 24.8032 165.373 24.4313 165.373 23.9961C165.373 23.5608 165.225 23.2179 164.927 22.9225C164.629 22.6244 164.281 22.4767 163.88 22.4767C163.426 22.4767 163.046 22.6244 162.74 22.9225Z" fill="white"/>
<path d="M174.416 22.2419C174.015 22.2419 173.672 22.3764 173.392 22.6481C173.112 22.9198 172.973 23.2469 172.973 23.632C172.973 24.0171 173.112 24.3732 173.392 24.6555C173.672 24.9351 174.012 25.0749 174.416 25.0749C174.819 25.0749 175.128 24.9351 175.399 24.6555C175.671 24.3759 175.806 24.0356 175.806 23.632C175.806 23.2284 175.671 22.9198 175.399 22.6481C175.128 22.3764 174.801 22.2419 174.416 22.2419Z" fill="white"/>
<path d="M179.198 24.6528C179.469 24.3732 179.604 24.0329 179.604 23.6294C179.604 23.2258 179.469 22.9172 179.198 22.6455C178.926 22.3738 178.599 22.2393 178.214 22.2393C177.829 22.2393 177.472 22.3738 177.193 22.6455C176.913 22.9172 176.773 23.2442 176.773 23.6294C176.773 24.0145 176.913 24.3706 177.193 24.6528C177.472 24.9324 177.813 25.0723 178.214 25.0723C178.615 25.0723 178.926 24.9324 179.198 24.6528Z" fill="white"/>
<path d="M192.366 18.1533C193.258 17.3673 193.703 16.2937 193.703 14.93C193.703 13.4976 193.105 12.1207 191.907 10.8018C190.71 9.48289 188.897 8.15872 186.468 6.83191L185.131 9.29562C187.017 10.3428 188.441 11.2819 189.401 12.1128C190.361 12.9437 190.844 13.8115 190.844 14.7216C190.844 15.4021 190.596 15.927 190.098 16.2937C189.599 16.6603 188.958 16.845 188.172 16.845H181.986V19.3351H188.958C190.338 19.3351 191.474 18.942 192.366 18.156V18.1533Z" fill="white"/>
<path d="M64.5611 30.981L62.1211 31.6351V32.3658L64.5611 31.7116V30.981Z" fill="white"/>
<path d="M64.5611 29.8836L62.1211 30.5378V31.2711L64.5611 30.6143V29.8836Z" fill="white"/>
<path d="M99.5232 33.9167H98.8136C98.6132 33.9167 98.4628 33.8719 98.3678 33.7822C98.2702 33.6925 98.2228 33.5791 98.2228 33.4419C98.2228 33.3206 98.2702 33.2151 98.3678 33.1254C98.4654 33.0357 98.5789 32.9909 98.7055 32.9909C98.8638 32.9909 99.0167 33.0515 99.1671 33.1729V32.4317C98.9745 32.3393 98.7767 32.2919 98.5762 32.2919C98.2597 32.2919 97.9906 32.4053 97.7691 32.6348C97.5686 32.8353 97.4684 33.0753 97.4684 33.3549C97.4684 33.5844 97.5396 33.7717 97.6847 33.9141H97.2441V34.6237H99.5258V33.9141L99.5232 33.9167Z" fill="white"/>
<path d="M106.752 34.046C106.923 34.046 107.071 33.9854 107.192 33.8614C107.314 33.74 107.374 33.5923 107.374 33.4209C107.374 33.2494 107.314 33.1017 107.192 32.9803C107.071 32.859 106.923 32.7983 106.752 32.7983C106.58 32.7983 106.419 32.859 106.29 32.9803C106.161 33.1017 106.098 33.2494 106.098 33.4209C106.098 33.5923 106.164 33.74 106.29 33.8614C106.419 33.9827 106.572 34.046 106.752 34.046Z" fill="white"/>
<path d="M134.25 33.9167H133.53C133.337 33.9167 133.189 33.8719 133.089 33.7822C132.989 33.6925 132.941 33.5791 132.949 33.4419C132.949 33.3206 132.997 33.2151 133.094 33.1254C133.192 33.0357 133.305 32.9909 133.432 32.9909C133.59 32.9909 133.743 33.0515 133.894 33.1729V32.4317C133.701 32.3393 133.503 32.2919 133.303 32.2919C132.986 32.2919 132.717 32.4053 132.496 32.6348C132.295 32.8353 132.195 33.0753 132.195 33.3549C132.195 33.5844 132.266 33.7717 132.411 33.9141H131.971V34.6237H134.252V33.9141L134.25 33.9167Z" fill="white"/>
<path d="M85.8614 34.0013C85.661 34.0013 85.4895 34.0699 85.3497 34.2045C85.2099 34.3416 85.1387 34.5025 85.1387 34.6898C85.1387 34.8771 85.2099 35.0485 85.3497 35.1857C85.4895 35.3202 85.661 35.3888 85.8614 35.3888C86.0487 35.3888 86.207 35.3202 86.3415 35.1857C86.4734 35.0485 86.5393 34.885 86.5393 34.6898C86.5393 34.4946 86.4734 34.3416 86.3415 34.2045C86.2096 34.0699 86.0487 34.0013 85.8614 34.0013Z" fill="white"/>
<path d="M85.2908 38.446C85.2908 38.8971 85.1985 39.2163 85.0165 39.3983C84.8345 39.5803 84.5338 39.6726 84.117 39.6726H65.0985C64.7899 39.6726 64.5235 39.5777 64.3019 39.3877C64.0803 39.1978 63.9695 38.9156 63.9695 38.5436V33.1863H62.7852V38.3722C62.7852 38.9024 62.8986 39.3429 63.1281 39.6911C63.3576 40.0393 63.6477 40.2951 63.9985 40.4613C64.3467 40.6249 64.7081 40.7066 65.0853 40.7066H67.462H84.1144C84.9453 40.7066 85.5467 40.5141 85.916 40.1316C86.2853 39.7465 86.4699 39.2321 86.4699 38.5885V36.2224H85.2856V38.4487L85.2908 38.446Z" fill="white"/>
<path d="M95.1942 36.014C94.8381 35.7924 94.424 35.6816 93.9518 35.6816C93.4506 35.6816 93.018 35.803 92.6566 36.043C92.2953 36.283 92.0209 36.5996 91.8336 36.99C91.6464 37.3804 91.554 37.8051 91.554 38.264C91.554 38.8022 91.4564 39.1714 91.2639 39.3719C91.0713 39.5724 90.797 39.6726 90.4409 39.6726C90.1349 39.6726 89.8711 39.5777 89.6495 39.3877C89.428 39.1978 89.3172 38.9156 89.3172 38.5436V33.1863H88.1328V38.3722C88.1328 38.9024 88.2462 39.3429 88.4757 39.6911C88.7052 40.0393 88.9954 40.2951 89.3462 40.4613C89.6944 40.6249 90.0558 40.7066 90.433 40.7066H90.4541C91.285 40.7066 91.889 40.4956 92.261 40.0709C92.712 40.551 93.3161 40.791 94.0679 40.791C94.5558 40.791 94.9673 40.6671 95.2997 40.4191C95.6321 40.1712 95.8827 39.8546 96.0462 39.4669C96.2097 39.0791 96.2942 38.6755 96.2942 38.2508C96.2942 37.7628 96.1992 37.325 96.0093 36.9319C95.8194 36.5415 95.5477 36.2356 95.1916 36.0114L95.1942 36.014ZM94.7906 39.2532C94.5769 39.5328 94.2841 39.6726 93.9201 39.6726C93.419 39.6726 93.0022 39.5038 92.6725 39.1662C92.6936 39.0237 92.7041 38.8734 92.7041 38.7151V38.5436C92.7041 37.9264 92.8123 37.4701 93.0259 37.172C93.2422 36.8739 93.5377 36.7262 93.9175 36.7262C94.1892 36.7262 94.416 36.8053 94.5954 36.9636C94.7748 37.1219 94.9067 37.3171 94.9884 37.5492C95.0702 37.7813 95.1124 38.0134 95.1124 38.2429C95.1124 38.636 95.0043 38.9736 94.7906 39.2532Z" fill="white"/>
<path d="M98.9559 35.3676H97.7715V40.7039H98.9559V35.3676Z" fill="white"/>
<path d="M105.956 35.3888C106.128 35.3888 106.275 35.3282 106.397 35.2068C106.518 35.0855 106.579 34.9378 106.579 34.7663C106.579 34.5949 106.521 34.4471 106.402 34.3258C106.283 34.2045 106.136 34.1438 105.956 34.1438C105.777 34.1438 105.624 34.2045 105.5 34.3258C105.376 34.4471 105.312 34.5949 105.312 34.7663C105.312 34.9378 105.376 35.0855 105.5 35.2068C105.624 35.3282 105.777 35.3888 105.956 35.3888Z" fill="white"/>
<path d="M106.871 34.7663C106.871 34.9378 106.934 35.0855 107.064 35.2068C107.193 35.3282 107.346 35.3888 107.525 35.3888C107.705 35.3888 107.844 35.3282 107.966 35.2068C108.087 35.0855 108.148 34.9378 108.148 34.7663C108.148 34.5949 108.087 34.4471 107.966 34.3258C107.844 34.2045 107.697 34.1438 107.525 34.1438C107.333 34.1438 107.174 34.2018 107.053 34.3205C106.932 34.4392 106.871 34.5869 106.871 34.7663Z" fill="white"/>
<path d="M122.684 40.7039H127.73C128.427 40.7039 128.975 40.5114 129.381 40.1289C129.788 39.7438 129.988 39.2268 129.988 38.5752C129.988 37.9237 129.785 37.404 129.381 37.0585C128.975 36.7129 128.392 36.5415 127.633 36.5415H124.837V36.4993L126.752 34.0145H125.536L123.351 36.8105V37.5307L127.255 37.5412C128.295 37.5412 128.814 37.8894 128.814 38.5858C128.814 38.9366 128.704 39.2057 128.482 39.3929C128.26 39.5802 127.944 39.6725 127.535 39.6725L122.684 39.6831V39.6725H108.408V39.6778C107.781 39.6673 107.461 39.3586 107.461 38.7467V36.1643H106.353V37.6388H104.106V36.3489H102.945V40.7593C102.945 41.2473 102.814 41.6272 102.547 41.8988C102.281 42.1705 101.911 42.3077 101.439 42.3077C101.26 42.3077 101.096 42.2866 100.943 42.2444V43.3101C101.152 43.3602 101.363 43.3839 101.579 43.3839C102.08 43.3839 102.523 43.2758 102.909 43.0621C103.291 42.8485 103.589 42.5451 103.8 42.1521C104.011 41.759 104.117 41.3106 104.117 40.8015L104.106 38.6728H106.419V38.9313C106.419 39.6066 106.612 40.0709 107 40.3241C107.38 40.5747 107.849 40.6987 108.408 40.7039H110.785H122.684Z" fill="white"/>
<path d="M135.714 38.9391C135.714 39.1475 135.643 39.3215 135.503 39.4614C135.363 39.6012 135.186 39.6724 134.97 39.6724H133.68V35.3701H132.496V39.6724H131.346V40.7038H134.917C135.564 40.7038 136.054 40.5508 136.392 40.2474C136.729 39.9414 136.898 39.4165 136.898 38.6727V33.1755H135.714V38.9417V38.9391Z" fill="white"/>
<path d="M139.907 33.1966H138.723V40.7038H139.907V33.1966Z" fill="white"/>
<path d="M147.836 35.0352H147.126C146.934 35.0352 146.786 34.993 146.686 34.906C146.585 34.8189 146.535 34.7055 146.535 34.5631C146.535 34.4496 146.585 34.3441 146.686 34.2518C146.786 34.1595 146.897 34.112 147.018 34.112C147.182 34.112 147.34 34.1727 147.49 34.294V33.5528C147.29 33.4657 147.089 33.4235 146.889 33.4235C146.58 33.4235 146.311 33.5343 146.082 33.7559C145.889 33.9564 145.791 34.1964 145.791 34.476C145.791 34.7134 145.86 34.898 145.997 35.0352H145.557V35.7553H147.838V35.0352H147.836Z" fill="white"/>
<path d="M166.844 35.4969C166.995 35.4969 167.121 35.4442 167.227 35.336C167.33 35.2279 167.382 35.0986 167.382 34.9483C167.382 34.7979 167.33 34.6713 167.227 34.5658C167.124 34.4629 166.995 34.4102 166.844 34.4102C166.694 34.4102 166.562 34.4629 166.451 34.5658C166.341 34.6713 166.285 34.7979 166.285 34.9483C166.285 35.0986 166.341 35.2279 166.451 35.336C166.562 35.4442 166.694 35.4969 166.844 35.4969Z" fill="white"/>
<path d="M168.306 35.4969C168.457 35.4969 168.583 35.4442 168.689 35.336C168.792 35.2279 168.845 35.0986 168.845 34.9483C168.845 34.7979 168.792 34.6713 168.689 34.5658C168.583 34.4629 168.457 34.4102 168.306 34.4102C168.156 34.4102 168.027 34.4629 167.919 34.5658C167.811 34.6713 167.758 34.7979 167.758 34.9483C167.758 35.0986 167.811 35.2279 167.919 35.336C168.027 35.4442 168.156 35.4969 168.306 35.4969Z" fill="white"/>
<path d="M185.496 35.497C185.683 35.497 185.842 35.4285 185.976 35.2913C186.108 35.1568 186.174 34.9906 186.174 34.798C186.174 34.6055 186.108 34.4498 185.976 34.3127C185.844 34.1755 185.683 34.1069 185.496 34.1069C185.296 34.1069 185.124 34.1755 184.984 34.3127C184.845 34.4498 184.773 34.6108 184.773 34.798C184.773 34.9853 184.845 35.1568 184.984 35.2913C185.124 35.4285 185.296 35.497 185.496 35.497Z" fill="white"/>
<path d="M193.088 36.9346C192.898 36.5442 192.626 36.2382 192.27 36.014C191.914 35.7898 191.5 35.6816 191.028 35.6816C190.526 35.6816 190.094 35.803 189.732 36.043C189.371 36.283 189.097 36.5996 188.909 36.99C188.722 37.3804 188.63 37.8051 188.63 38.264C188.63 38.8021 188.532 39.1714 188.34 39.3719C188.147 39.5724 187.87 39.6726 187.511 39.6726V39.6832C187.108 39.6832 186.773 39.5803 186.512 39.3825C186.245 39.182 186.116 38.8918 186.124 38.512V36.3173H184.94V38.4803C184.94 38.905 184.847 39.2084 184.665 39.3956C184.483 39.5829 184.175 39.6753 183.745 39.6753H178.978V39.6858C178.596 39.6858 178.311 39.6067 178.123 39.4484C177.934 39.2901 177.839 38.9789 177.839 38.512V38.1691C177.839 37.7312 177.746 37.3197 177.559 36.9319C177.372 36.5442 177.095 36.2303 176.725 35.9903C176.356 35.7502 175.91 35.6289 175.385 35.6289C174.763 35.6289 174.09 35.8267 173.367 36.2197C172.647 36.6128 172.017 37.0559 171.479 37.5439V36.2197H170.382V39.6726H169.553V39.6832C169.15 39.6832 168.815 39.5803 168.554 39.3825C168.287 39.182 168.158 38.8918 168.166 38.512V36.3173H166.981V38.4803C166.981 38.905 166.889 39.2084 166.707 39.3956C166.525 39.5829 166.216 39.6753 165.786 39.6753H151.458C151.091 39.6753 150.82 39.5697 150.64 39.3587C150.461 39.1477 150.371 38.9024 150.371 38.6228V33.2971H149.187V38.6096C149.187 38.9472 149.11 39.2084 148.955 39.3956C148.799 39.5829 148.538 39.6753 148.163 39.6753H145.409V39.6858C145.138 39.6858 144.887 39.6251 144.658 39.5012C144.428 39.3798 144.246 39.2084 144.109 38.9894C143.972 38.7705 143.906 38.5278 143.906 38.264V36.6708L142.809 36.9187V38.3168C142.809 38.7758 142.917 39.1873 143.136 39.5486C143.355 39.91 143.655 40.1949 144.04 40.398C144.423 40.6038 144.853 40.704 145.325 40.704H148.013C148.823 40.704 149.422 40.5246 149.809 40.1659C150.026 40.3452 150.276 40.4798 150.564 40.5695C150.851 40.6592 151.131 40.704 151.403 40.704H165.786C166.359 40.704 166.82 40.6117 167.169 40.4244C167.517 40.2371 167.775 39.9628 167.949 39.5961C168.063 39.9338 168.271 40.2028 168.569 40.4033C168.862 40.6011 169.192 40.7014 169.553 40.704H170.843H175.372C176.103 40.704 176.688 40.456 177.126 39.9628C177.306 40.2055 177.554 40.3901 177.873 40.5167C178.189 40.6407 178.556 40.704 178.975 40.704H181.352H183.739C184.312 40.704 184.773 40.6117 185.122 40.4244C185.47 40.2371 185.728 39.9628 185.902 39.5961C186.016 39.9338 186.224 40.2028 186.522 40.4033C186.818 40.6011 187.145 40.7014 187.506 40.704H187.527C188.358 40.704 188.962 40.493 189.334 40.0683C189.785 40.5484 190.389 40.7884 191.141 40.7884C191.629 40.7884 192.04 40.6644 192.373 40.4165C192.705 40.1685 192.956 39.852 193.119 39.4642C193.283 39.0765 193.367 38.6729 193.367 38.2482C193.367 37.7602 193.272 37.3223 193.082 36.9293L193.088 36.9346ZM176.488 38.876C176.361 39.1134 176.174 39.3033 175.924 39.451C175.673 39.5988 175.367 39.6726 175.008 39.6726H171.479V38.7362C172.009 38.1902 172.61 37.7075 173.28 37.2828C173.95 36.8607 174.57 36.6497 175.137 36.6497C175.625 36.6497 176.003 36.7948 176.272 37.0849C176.541 37.3751 176.675 37.7206 176.675 38.1242C176.675 38.3906 176.612 38.6412 176.488 38.876ZM191.866 39.2532C191.653 39.5328 191.36 39.6726 190.996 39.6726C190.495 39.6726 190.078 39.5038 189.748 39.1662C189.769 39.0237 189.78 38.8734 189.78 38.7151V38.5436C189.78 37.9264 189.888 37.4701 190.102 37.172C190.318 36.8739 190.613 36.7262 190.993 36.7262C191.265 36.7262 191.492 36.8053 191.671 36.9636C191.851 37.1219 191.982 37.3171 192.064 37.5492C192.146 37.7813 192.188 38.0134 192.188 38.2429C192.188 38.636 192.08 38.9736 191.866 39.2532Z" fill="white"/>
</svg>
