<svg width="178" height="44" viewBox="0 0 178 44" fill="none" xmlns="http://www.w3.org/2000/svg">
<path d="M75.6623 17.0951C76.3119 17.528 77.0561 17.7432 77.8899 17.7432C78.5953 17.7432 79.2352 17.6078 79.8049 17.3345C80.3745 17.0613 80.852 16.6865 81.2374 16.2053C81.6228 16.6696 82.1076 17.0371 82.6942 17.3103C83.2808 17.5836 83.9498 17.719 84.7061 17.719H96.0018C97.5579 17.719 98.7917 17.291 99.6983 16.4326C100.605 15.5766 101.058 14.4184 101.058 12.9604C101.058 11.5024 100.605 10.3417 99.6983 9.5728C98.7917 8.80388 97.4876 8.41942 95.786 8.41942H89.5249V8.32271L93.8105 2.77344H91.0884L86.1993 9.01909V10.6295L94.9401 10.6536C97.2671 10.6536 98.433 11.4298 98.433 12.9846C98.433 13.7704 98.1833 14.3701 97.6864 14.786C97.1895 15.2019 96.4817 15.4098 95.5679 15.4098L84.7085 15.434V15.4098C83.9377 15.4098 83.3269 15.2333 82.8784 14.8803C82.43 14.5272 82.1803 14.0001 82.1319 13.2941V7.67227H79.5067V13.4126C79.5067 14.0219 79.337 14.5055 79.0001 14.8658C78.6632 15.226 78.222 15.405 77.6742 15.405C77.1264 15.405 76.7119 15.2236 76.375 14.8658C76.038 14.5055 75.8684 14.0219 75.8684 13.4126V9.18351H73.219V13.4126C73.219 14.0219 73.0493 14.5055 72.7124 14.8658C72.3754 15.226 71.9415 15.405 71.4131 15.405L69.4861 15.4292V9.18351H66.9579L66.9821 16.9428C66.9821 17.6634 66.7858 18.3356 66.3931 18.9618C66.0004 19.5857 65.4696 20.0862 64.803 20.4634C64.1364 20.8406 63.4189 21.0292 62.6481 21.0292C61.7803 21.0292 61.0265 20.8382 60.3841 20.4537C59.7418 20.0693 59.2448 19.5615 58.891 18.928C58.5371 18.2945 58.3601 17.6029 58.3601 16.8509V12.6461L56.1204 13.1998V17.187C56.1204 18.3404 56.4015 19.4019 56.9639 20.3691C57.5263 21.3387 58.3116 22.1028 59.3248 22.6638C60.3356 23.2247 61.4846 23.5052 62.7693 23.5052C63.877 23.5052 64.9169 23.2489 65.8889 22.7363C66.8609 22.2237 67.6633 21.5273 68.2959 20.6472C68.931 19.767 69.3115 18.7974 69.44 17.7407H71.4155C72.1379 17.7407 72.7511 17.5086 73.2578 17.0444C73.7644 16.5801 74.1037 16.0046 74.2807 15.3155C74.5521 16.0675 75.0151 16.6599 75.6647 17.0927L75.6623 17.0951Z" fill="white"/>
<path d="M120.061 20.3164C119.644 20.3164 119.295 20.4518 119.014 20.725C118.732 20.9983 118.592 21.3247 118.592 21.7092C118.592 22.0936 118.732 22.4491 119.014 22.7296C119.295 23.01 119.644 23.1503 120.061 23.1503C120.429 23.1503 120.752 23.01 121.023 22.7296C121.297 22.4491 121.433 22.1081 121.433 21.7092C121.433 21.3102 121.297 20.9959 121.023 20.725C120.749 20.4518 120.429 20.3164 120.061 20.3164Z" fill="white"/>
<path d="M119.385 12.6751C119.385 13.6834 119.181 14.3918 118.771 14.8005C118.362 15.2091 117.69 15.4122 116.759 15.4122H114.784V12.5058C114.784 11.2098 114.551 10.112 114.086 9.21494C113.62 8.31786 112.983 7.64083 112.171 7.18625C111.359 6.72925 110.44 6.50195 109.412 6.50195C108.385 6.50195 107.43 6.75101 106.596 7.2467C105.762 7.74238 105.107 8.4315 104.632 9.31165C104.16 10.1918 103.922 11.1928 103.922 12.3148C103.922 14.1718 104.412 15.538 105.391 16.4109C106.37 17.2837 107.607 17.719 109.1 17.719H112.231C112.071 18.6789 111.516 19.4357 110.569 19.9895C109.621 20.5408 108.36 20.8188 106.787 20.8188H106.256V23.1981H107.148C108.625 23.1981 109.909 22.966 111.003 22.5017C112.093 22.0375 112.954 21.3919 113.579 20.5674C114.205 19.7428 114.59 18.7926 114.735 17.7214H116.759C118.621 17.7214 119.966 17.2934 120.793 16.435C121.619 15.5791 122.034 14.4281 122.034 12.987V7.70128H119.385V12.6751ZM112.088 15.4146H109.32C108.501 15.4146 107.839 15.139 107.333 14.5853C106.826 14.0315 106.574 13.3086 106.574 12.4115C106.574 11.2896 106.826 10.4022 107.333 9.74447C107.839 9.0892 108.532 8.76035 109.415 8.76035C110.106 8.76035 110.646 8.98522 111.041 9.43255C111.434 9.88229 111.708 10.3973 111.861 10.9825C112.013 11.5676 112.088 12.0996 112.088 12.5808V15.4146Z" fill="white"/>
<path d="M136.433 8.27923C136.77 8.27923 137.056 8.15833 137.288 7.91895C137.521 7.67957 137.637 7.38941 137.637 7.05331C137.637 6.71721 137.521 6.43188 137.288 6.19975C137.056 5.96763 136.77 5.85156 136.433 5.85156C136.096 5.85156 135.802 5.96763 135.553 6.19975C135.303 6.43188 135.179 6.71721 135.179 7.05331C135.179 7.38941 135.303 7.67715 135.553 7.91895C135.802 8.16075 136.093 8.27923 136.433 8.27923Z" fill="white"/>
<path d="M139.708 8.27923C140.045 8.27923 140.331 8.15833 140.564 7.91895C140.796 7.67957 140.913 7.38941 140.913 7.05331C140.913 6.71721 140.796 6.43188 140.564 6.19975C140.331 5.96763 140.045 5.85156 139.708 5.85156C139.371 5.85156 139.083 5.96763 138.84 6.19975C138.6 6.43188 138.479 6.71721 138.479 7.05331C138.479 7.38941 138.6 7.67715 138.84 7.91895C139.08 8.15833 139.371 8.27923 139.708 8.27923Z" fill="white"/>
<path d="M150.258 17.7213C151.543 17.7213 152.573 17.5133 153.354 17.0974C154.132 16.6816 154.713 16.065 155.099 15.2477C155.356 15.9997 155.816 16.6018 156.483 17.0491C157.149 17.4988 157.891 17.7213 158.71 17.7213C160.572 17.7213 161.917 17.2933 162.744 16.4349C163.571 15.579 163.985 14.428 163.985 12.9869V7.70117H161.336V12.675C161.336 13.6833 161.132 14.3917 160.722 14.8004C160.313 15.209 159.641 15.4121 158.71 15.4121V15.4363C157.794 15.4363 157.04 15.2114 156.447 14.7641C155.853 14.3168 155.564 13.6687 155.579 12.8176V7.91638H152.929V12.7451C152.929 13.6905 152.726 14.37 152.316 14.7883C151.906 15.2042 151.22 15.4121 150.256 15.4121V15.4363C149.388 15.4363 148.755 15.2356 148.353 14.8366C147.951 14.4377 147.752 13.8042 147.752 12.9385V7.9188H145.127V13.132C145.11 13.7727 144.962 14.3143 144.681 14.7544C144.399 15.1945 143.825 15.4145 142.96 15.4145H134.243C133.666 15.4145 133.118 15.2501 132.604 14.9213C132.091 14.5924 131.681 14.1572 131.376 13.6131C131.07 13.0691 130.917 12.4912 130.917 11.8843V8.92951L128.462 9.86769V12.3896C128.462 13.3979 128.707 14.3071 129.196 15.1171C129.686 15.9271 130.355 16.5631 131.208 17.0273C132.059 17.4916 133.014 17.7237 134.073 17.7237H143.154C144.518 17.7237 145.619 17.3634 146.453 16.6429C147.255 17.3634 148.523 17.7237 150.258 17.7237V17.7213Z" fill="white"/>
<path d="M149.548 21.0122C149.267 21.2854 149.126 21.6118 149.126 21.9963C149.126 22.3807 149.267 22.7362 149.548 23.0167C149.829 23.2972 150.178 23.4374 150.595 23.4374C150.963 23.4374 151.286 23.2972 151.557 23.0167C151.831 22.7362 151.967 22.3952 151.967 21.9963C151.967 21.5973 151.831 21.283 151.557 21.0122C151.283 20.7389 150.963 20.6035 150.595 20.6035C150.178 20.6035 149.829 20.7389 149.548 21.0122Z" fill="white"/>
<path d="M160.275 20.3887C159.907 20.3887 159.592 20.512 159.335 20.7611C159.078 21.0101 158.949 21.3099 158.949 21.663C158.949 22.016 159.078 22.3424 159.335 22.6011C159.592 22.8574 159.904 22.9856 160.275 22.9856C160.646 22.9856 160.93 22.8574 161.179 22.6011C161.429 22.3448 161.553 22.0329 161.553 21.663C161.553 21.293 161.429 21.0101 161.179 20.7611C160.93 20.512 160.629 20.3887 160.275 20.3887Z" fill="white"/>
<path d="M164.67 22.5982C164.92 22.3419 165.044 22.03 165.044 21.66C165.044 21.2901 164.92 21.0072 164.67 20.7581C164.421 20.5091 164.12 20.3857 163.766 20.3857C163.412 20.3857 163.085 20.5091 162.828 20.7581C162.571 21.0072 162.443 21.307 162.443 21.66C162.443 22.013 162.571 22.3395 162.828 22.5982C163.085 22.8545 163.398 22.9827 163.766 22.9827C164.135 22.9827 164.421 22.8545 164.67 22.5982Z" fill="white"/>
<path d="M176.771 16.6407C177.591 15.9201 178 14.936 178 13.6859C178 12.3729 177.45 11.1107 176.35 9.90175C175.249 8.69276 173.584 7.47894 171.351 6.2627L170.123 8.5211C171.856 9.48104 173.165 10.3418 174.047 11.1035C174.929 11.8652 175.373 12.6607 175.373 13.4949C175.373 14.1187 175.145 14.5999 174.687 14.936C174.229 15.2721 173.64 15.4414 172.917 15.4414H167.233V17.7239H173.64C174.907 17.7239 175.952 17.3636 176.771 16.6431V16.6407Z" fill="white"/>
<path d="M25.5291 25.9259L16.1121 15.71L25.5776 25.9864C25.5631 25.9646 25.5461 25.9453 25.5291 25.9259Z" fill="white"/>
<path d="M29.0532 0H7.61817C5.9117 0 4.324 0.544046 3.03931 1.51124L9.32705 8.33719H29.0532C33.3776 8.33719 36.8826 11.8336 36.8826 16.1473V27.8527C36.8826 32.1664 33.3776 35.6628 29.0532 35.6628H12.6818C12.2116 35.6628 11.9667 36.2189 12.2843 36.5647L17.5806 42.3268C18.5599 43.3931 19.9464 44 21.3959 44H29.0532C37.9928 44 45.2404 36.7702 45.2404 27.8527V16.1473C45.2404 7.22734 37.9928 0 29.0532 0Z" fill="white"/>
<path d="M0.684779 4.46896C-0.558712 7.22546 -0.0860394 10.3422 1.91857 12.6103L13.6627 25.5175C14.625 26.5741 15.9921 27.1786 17.4246 27.1786H24.9825C25.6055 27.1786 25.94 26.4678 25.5788 25.989L16.1133 15.7126L9.31892 8.34257H9.32377L3.03602 1.5166C2.03977 2.26618 1.22775 3.26965 0.679931 4.4738L0.684779 4.46896Z" fill="white"/>
<path d="M59.3271 28.3994L57.085 28.9991V29.6689L59.3271 29.0692V28.3994Z" fill="white"/>
<path d="M59.3271 27.3936L57.085 27.9932V28.6654L59.3271 28.0633V27.3936Z" fill="white"/>
<path d="M91.4537 31.0901H90.8016C90.6174 31.0901 90.4792 31.0489 90.392 30.9667C90.3023 30.8845 90.2587 30.7806 90.2587 30.6548C90.2587 30.5436 90.3023 30.4469 90.392 30.3647C90.4817 30.2825 90.5859 30.2413 90.7023 30.2413C90.8477 30.2413 90.9883 30.297 91.1264 30.4082V29.7287C90.9495 29.6441 90.7677 29.6006 90.5835 29.6006C90.2926 29.6006 90.0454 29.7046 89.8417 29.9149C89.6575 30.0987 89.5654 30.3187 89.5654 30.575C89.5654 30.7854 89.6309 30.9571 89.7642 31.0876H89.3594V31.7381H91.4561V31.0876L91.4537 31.0901Z" fill="white"/>
<path d="M98.0975 31.2091C98.255 31.2091 98.3908 31.1535 98.5023 31.0399C98.6138 30.9287 98.6695 30.7932 98.6695 30.6361C98.6695 30.4789 98.6138 30.3435 98.5023 30.2323C98.3908 30.121 98.255 30.0654 98.0975 30.0654C97.9399 30.0654 97.7921 30.121 97.6733 30.2323C97.5545 30.3435 97.4963 30.4789 97.4963 30.6361C97.4963 30.7932 97.5569 30.9287 97.6733 31.0399C97.7921 31.1511 97.9326 31.2091 98.0975 31.2091Z" fill="white"/>
<path d="M123.366 31.0901H122.704C122.527 31.0901 122.391 31.0489 122.299 30.9667C122.207 30.8845 122.163 30.7806 122.171 30.6548C122.171 30.5436 122.214 30.4469 122.304 30.3647C122.394 30.2825 122.498 30.2413 122.614 30.2413C122.76 30.2413 122.9 30.297 123.039 30.4082V29.7287C122.862 29.6441 122.68 29.6006 122.496 29.6006C122.205 29.6006 121.957 29.7046 121.754 29.9149C121.57 30.0987 121.478 30.3187 121.478 30.575C121.478 30.7854 121.543 30.9571 121.676 31.0876H121.271V31.7381H123.368V31.0876L123.366 31.0901Z" fill="white"/>
<path d="M78.9012 31.168C78.717 31.168 78.5594 31.2308 78.431 31.3542C78.3025 31.4799 78.2371 31.6274 78.2371 31.7991C78.2371 31.9707 78.3025 32.1279 78.431 32.2536C78.5594 32.377 78.717 32.4398 78.9012 32.4398C79.0733 32.4398 79.2188 32.377 79.3424 32.2536C79.4636 32.1279 79.5242 31.978 79.5242 31.7991C79.5242 31.6201 79.4636 31.4799 79.3424 31.3542C79.2212 31.2308 79.0733 31.168 78.9012 31.168Z" fill="white"/>
<path d="M78.3763 35.2424C78.3763 35.6558 78.2914 35.9484 78.1242 36.1152C77.9569 36.2821 77.6806 36.3667 77.2976 36.3667H59.8209C59.5373 36.3667 59.2925 36.2797 59.0888 36.1056C58.8852 35.9315 58.7834 35.6728 58.7834 35.3318V30.4209H57.6951V35.1746C57.6951 35.6607 57.7993 36.0645 58.0102 36.3836C58.2211 36.7028 58.4877 36.9373 58.8101 37.0897C59.1301 37.2396 59.4621 37.3146 59.8088 37.3146H61.9927H77.2952C78.0587 37.3146 78.6114 37.138 78.9508 36.7874C79.2901 36.4344 79.4598 35.9629 79.4598 35.3729V33.204H78.3714V35.2448L78.3763 35.2424Z" fill="white"/>
<path d="M87.4765 33.013C87.1492 32.8099 86.7687 32.7083 86.3348 32.7083C85.8742 32.7083 85.4767 32.8195 85.1446 33.0396C84.8126 33.2596 84.5605 33.5498 84.3884 33.9076C84.2163 34.2655 84.1314 34.6548 84.1314 35.0755C84.1314 35.5688 84.0417 35.9073 83.8648 36.0911C83.6878 36.2748 83.4357 36.3667 83.1085 36.3667C82.8273 36.3667 82.5849 36.2797 82.3813 36.1056C82.1777 35.9315 82.0759 35.6728 82.0759 35.3318V30.4209H80.9875V35.1746C80.9875 35.6607 81.0918 36.0645 81.3027 36.3836C81.5135 36.7028 81.7802 36.9373 82.1026 37.0897C82.4225 37.2396 82.7546 37.3146 83.1012 37.3146H83.1206C83.8842 37.3146 84.4393 37.1211 84.781 36.7318C85.1955 37.1719 85.7506 37.3919 86.4415 37.3919C86.8899 37.3919 87.268 37.2783 87.5734 37.051C87.8789 36.8237 88.1091 36.5336 88.2594 36.1781C88.4097 35.8227 88.4873 35.4527 88.4873 35.0634C88.4873 34.6161 88.4 34.2147 88.2255 33.8544C88.051 33.4966 87.8013 33.2161 87.4741 33.0105L87.4765 33.013ZM87.1056 35.9823C86.9093 36.2386 86.6402 36.3667 86.3057 36.3667C85.8452 36.3667 85.4622 36.212 85.1592 35.9025C85.1786 35.7719 85.1883 35.6341 85.1883 35.489V35.3318C85.1883 34.766 85.2876 34.3477 85.484 34.0745C85.6828 33.8012 85.9542 33.6658 86.3033 33.6658C86.553 33.6658 86.7614 33.7384 86.9262 33.8834C87.0911 34.0285 87.2123 34.2075 87.2874 34.4202C87.3626 34.633 87.4013 34.8458 87.4013 35.0562C87.4013 35.4164 87.302 35.7259 87.1056 35.9823Z" fill="white"/>
<path d="M90.9324 32.4209H89.844V37.3125H90.9324V32.4209Z" fill="white"/>
<path d="M97.3646 32.4401C97.5222 32.4401 97.6579 32.3845 97.7694 32.2733C97.8809 32.162 97.9367 32.0266 97.9367 31.8695C97.9367 31.7123 97.8834 31.5769 97.7743 31.4657C97.6652 31.3544 97.5295 31.2988 97.3646 31.2988C97.1998 31.2988 97.0592 31.3544 96.9453 31.4657C96.8314 31.5769 96.7732 31.7123 96.7732 31.8695C96.7732 32.0266 96.8314 32.162 96.9453 32.2733C97.0592 32.3845 97.1998 32.4401 97.3646 32.4401Z" fill="white"/>
<path d="M98.2068 31.8695C98.2068 32.0266 98.265 32.162 98.3837 32.2733C98.5025 32.3845 98.6431 32.4401 98.8079 32.4401C98.9728 32.4401 99.1012 32.3845 99.2127 32.2733C99.3242 32.162 99.38 32.0266 99.38 31.8695C99.38 31.7123 99.3242 31.5769 99.2127 31.4657C99.1012 31.3544 98.9655 31.2988 98.8079 31.2988C98.631 31.2988 98.4855 31.352 98.374 31.4608C98.2625 31.5696 98.2068 31.705 98.2068 31.8695Z" fill="white"/>
<path d="M112.738 37.3117H117.375C118.015 37.3117 118.519 37.1352 118.892 36.7846C119.266 36.4315 119.45 35.9576 119.45 35.3604C119.45 34.7631 119.263 34.2868 118.892 33.97C118.519 33.6533 117.983 33.4961 117.285 33.4961H114.716V33.4574L116.476 31.1797H115.358L113.351 33.7428V34.4029L116.939 34.4125C117.894 34.4125 118.371 34.7317 118.371 35.3701C118.371 35.6916 118.269 35.9383 118.066 36.11C117.862 36.2816 117.571 36.3663 117.195 36.3663L112.738 36.3759V36.3663H99.6193V36.3711C99.0424 36.3614 98.7491 36.0785 98.7491 35.5175V33.1503H97.7311V34.502H95.6659V33.3196H94.5993V37.3625C94.5993 37.8098 94.4781 38.158 94.2333 38.407C93.9885 38.6561 93.6491 38.7818 93.2152 38.7818C93.0504 38.7818 92.9001 38.7625 92.7595 38.7238V39.7007C92.951 39.7466 93.1449 39.7684 93.3437 39.7684C93.8042 39.7684 94.2115 39.6692 94.5654 39.4734C94.9168 39.2775 95.1908 38.9994 95.3847 38.6392C95.5786 38.2789 95.6755 37.8678 95.6755 37.4012L95.6659 35.4499H97.7917V35.6868C97.7917 36.3058 97.9686 36.7314 98.3249 36.9635C98.674 37.1932 99.1054 37.3069 99.6193 37.3117H101.803H112.738Z" fill="white"/>
<path d="M124.71 35.6944C124.71 35.8855 124.644 36.045 124.516 36.1732C124.387 36.3013 124.225 36.3666 124.026 36.3666H122.841V32.4229H121.752V36.3666H120.696V37.3121H123.978C124.571 37.3121 125.022 37.1718 125.333 36.8937C125.643 36.6133 125.798 36.1321 125.798 35.4502V30.4111H124.71V35.6968V35.6944Z" fill="white"/>
<path d="M128.564 30.4307H127.476V37.3122H128.564V30.4307Z" fill="white"/>
<path d="M135.852 32.1161H135.2C135.023 32.1161 134.887 32.0774 134.795 31.9976C134.703 31.9178 134.657 31.8138 134.657 31.6832C134.657 31.5793 134.703 31.4826 134.795 31.3979C134.887 31.3133 134.989 31.2698 135.1 31.2698C135.251 31.2698 135.396 31.3254 135.534 31.4366V30.7572C135.35 30.6774 135.166 30.6387 134.982 30.6387C134.698 30.6387 134.451 30.7402 134.24 30.9433C134.063 31.1271 133.973 31.3471 133.973 31.6034C133.973 31.8211 134.036 31.9903 134.162 32.1161H133.758V32.7762H135.854V32.1161H135.852Z" fill="white"/>
<path d="M153.317 32.5392C153.455 32.5392 153.572 32.4908 153.669 32.3917C153.763 32.2925 153.812 32.1741 153.812 32.0362C153.812 31.8984 153.763 31.7824 153.669 31.6856C153.574 31.5913 153.455 31.543 153.317 31.543C153.179 31.543 153.058 31.5913 152.956 31.6856C152.854 31.7824 152.803 31.8984 152.803 32.0362C152.803 32.1741 152.854 32.2925 152.956 32.3917C153.058 32.4908 153.179 32.5392 153.317 32.5392Z" fill="white"/>
<path d="M154.66 32.5392C154.798 32.5392 154.915 32.4908 155.012 32.3917C155.106 32.2925 155.155 32.1741 155.155 32.0362C155.155 31.8984 155.106 31.7824 155.012 31.6856C154.915 31.5913 154.798 31.543 154.66 31.543C154.522 31.543 154.403 31.5913 154.304 31.6856C154.204 31.7824 154.156 31.8984 154.156 32.0362C154.156 32.1741 154.204 32.2925 154.304 32.3917C154.403 32.4908 154.522 32.5392 154.66 32.5392Z" fill="white"/>
<path d="M170.459 32.5389C170.631 32.5389 170.776 32.4761 170.9 32.3503C171.021 32.227 171.082 32.0747 171.082 31.8982C171.082 31.7216 171.021 31.579 170.9 31.4532C170.779 31.3275 170.631 31.2646 170.459 31.2646C170.275 31.2646 170.117 31.3275 169.989 31.4532C169.86 31.579 169.795 31.7265 169.795 31.8982C169.795 32.0698 169.86 32.227 169.989 32.3503C170.117 32.4761 170.275 32.5389 170.459 32.5389Z" fill="white"/>
<path d="M177.434 33.8569C177.26 33.499 177.01 33.2185 176.683 33.013C176.356 32.8075 175.975 32.7083 175.541 32.7083C175.081 32.7083 174.683 32.8195 174.351 33.0396C174.019 33.2596 173.767 33.5498 173.595 33.9076C173.423 34.2655 173.338 34.6548 173.338 35.0755C173.338 35.5688 173.248 35.9073 173.071 36.0911C172.894 36.2748 172.64 36.3667 172.31 36.3667V36.3764C171.939 36.3764 171.631 36.2821 171.391 36.1007C171.147 35.917 171.028 35.651 171.035 35.3028V33.2911H169.947V35.2738C169.947 35.6631 169.862 35.9412 169.695 36.1128C169.527 36.2845 169.244 36.3691 168.849 36.3691H164.469V36.3788C164.117 36.3788 163.855 36.3063 163.683 36.1612C163.509 36.0161 163.421 35.7308 163.421 35.3028V34.9885C163.421 34.5871 163.337 34.2099 163.164 33.8544C162.992 33.499 162.738 33.2113 162.398 32.9912C162.059 32.7712 161.649 32.6599 161.167 32.6599C160.595 32.6599 159.977 32.8413 159.313 33.2016C158.651 33.5619 158.072 33.9681 157.577 34.4154V33.2016H156.569V36.3667H155.808V36.3764C155.437 36.3764 155.129 36.2821 154.889 36.1007C154.644 35.917 154.525 35.651 154.533 35.3028V33.2911H153.444V35.2738C153.444 35.6631 153.36 35.9412 153.192 36.1128C153.025 36.2845 152.741 36.3691 152.346 36.3691H139.179C138.842 36.3691 138.593 36.2724 138.428 36.079C138.263 35.8855 138.181 35.6607 138.181 35.4044V30.5225H137.092V35.3923C137.092 35.7018 137.022 35.9412 136.879 36.1128C136.736 36.2845 136.496 36.3691 136.152 36.3691H133.621V36.3788C133.372 36.3788 133.141 36.3232 132.93 36.2096C132.72 36.0983 132.552 35.9412 132.426 35.7405C132.3 35.5398 132.24 35.3173 132.24 35.0755V33.6151L131.231 33.8423V35.1239C131.231 35.5446 131.331 35.9218 131.532 36.2531C131.733 36.5843 132.009 36.8455 132.363 37.0317C132.715 37.2203 133.11 37.3122 133.544 37.3122H136.014C136.758 37.3122 137.308 37.1477 137.664 36.8189C137.863 36.9833 138.093 37.1066 138.358 37.1888C138.622 37.271 138.879 37.3122 139.128 37.3122H152.346C152.872 37.3122 153.297 37.2275 153.616 37.0559C153.936 36.8842 154.174 36.6327 154.334 36.2966C154.438 36.6061 154.63 36.8527 154.904 37.0365C155.173 37.2179 155.476 37.3097 155.808 37.3122H156.993H161.155C161.826 37.3122 162.365 37.0849 162.767 36.6327C162.932 36.8552 163.16 37.0244 163.453 37.1405C163.744 37.2541 164.081 37.3122 164.466 37.3122H166.65H168.844C169.37 37.3122 169.794 37.2275 170.114 37.0559C170.434 36.8842 170.671 36.6327 170.831 36.2966C170.936 36.6061 171.127 36.8527 171.401 37.0365C171.673 37.2179 171.973 37.3097 172.305 37.3122H172.325C173.088 37.3122 173.643 37.1187 173.985 36.7294C174.399 37.1695 174.955 37.3895 175.645 37.3895C176.094 37.3895 176.472 37.2759 176.777 37.0486C177.083 36.8213 177.313 36.5311 177.463 36.1757C177.614 35.8203 177.691 35.4503 177.691 35.061C177.691 34.6137 177.604 34.2123 177.429 33.852L177.434 33.8569ZM162.18 35.6365C162.064 35.8541 161.892 36.0282 161.662 36.1636C161.431 36.299 161.15 36.3667 160.82 36.3667H157.577V35.5083C158.064 35.0078 158.617 34.5653 159.233 34.176C159.848 33.7892 160.418 33.5957 160.939 33.5957C161.388 33.5957 161.734 33.7287 161.982 33.9947C162.229 34.2607 162.352 34.5774 162.352 34.9474C162.352 35.1916 162.294 35.4213 162.18 35.6365ZM176.312 35.9823C176.116 36.2386 175.847 36.3667 175.512 36.3667C175.052 36.3667 174.669 36.212 174.366 35.9025C174.385 35.7719 174.395 35.6341 174.395 35.489V35.3318C174.395 34.766 174.494 34.3477 174.69 34.0745C174.889 33.8012 175.161 33.6658 175.51 33.6658C175.759 33.6658 175.968 33.7384 176.133 33.8834C176.297 34.0285 176.419 34.2075 176.494 34.4202C176.569 34.633 176.608 34.8458 176.608 35.0562C176.608 35.4165 176.508 35.726 176.312 35.9823Z" fill="white"/>
</svg>
