<svg width="174" height="45" viewBox="0 0 174 45" fill="none" xmlns="http://www.w3.org/2000/svg">
<path d="M62.1811 8.27734H56.229V24.6697H62.1109C64.6539 24.6697 66.5943 23.9487 67.9347 22.5067C69.2752 21.0646 69.9454 19.0274 69.9454 16.3925C69.9454 13.7576 69.2752 11.8437 67.9347 10.4162C66.5943 8.9911 64.6756 8.27734 62.1811 8.27734ZM65.8684 20.9364C64.9151 21.9986 63.5239 22.5284 61.6947 22.5284H58.8349V10.438H61.7649C63.5481 10.438 64.9151 10.9655 65.8684 12.018C66.8217 13.0729 67.2984 14.5439 67.2984 16.436C67.2984 18.3281 66.8217 19.8742 65.8684 20.934V20.9364Z" fill="white"/>
<path d="M76.599 17.2974H84.1552V15.2989H76.599V10.438H84.7141V8.27734H73.9932V24.6697H84.7601V22.5308H76.599V17.2974Z" fill="white"/>
<path d="M97.9442 16.1113V15.925C98.8419 15.7847 99.575 15.3758 100.141 14.6935C100.707 14.0112 100.99 13.2296 100.99 12.3441C100.99 11.0738 100.548 10.077 99.6645 9.35596C98.7814 8.63493 97.5643 8.27441 96.0134 8.27441H89.0137V24.6668H96.2215C97.8958 24.6668 99.2314 24.2555 100.233 23.4353C101.232 22.615 101.733 21.4972 101.733 20.0866C101.733 19.0027 101.38 18.0953 100.676 17.367C99.9693 16.6388 99.0596 16.2202 97.9442 16.1113ZM91.6195 10.2294H95.3625C96.3231 10.2294 97.0756 10.4593 97.6176 10.9141C98.1595 11.3714 98.4305 11.9884 98.4305 12.7627C98.4305 13.5853 98.1426 14.2192 97.5692 14.6693C96.9957 15.1193 96.19 15.3443 95.152 15.3443H91.6171V10.2294H91.6195ZM98.1402 21.9835C97.528 22.4723 96.6715 22.7166 95.5706 22.7166H91.6171V17.0888H95.5005C96.6328 17.0888 97.5087 17.3259 98.1281 17.7977C98.7475 18.2719 99.0572 18.9639 99.0572 19.8785C99.0572 20.7931 98.7499 21.4948 98.1377 21.9835H98.1402Z" fill="white"/>
<path d="M104.385 10.438H109.64V24.6697H112.243V10.438H117.52V8.27734H104.385V10.438Z" fill="white"/>
<path d="M134.194 16.1113V15.925C135.091 15.7847 135.825 15.3758 136.391 14.6935C136.957 14.0112 137.24 13.2296 137.24 12.3441C137.24 11.0738 136.797 10.077 135.914 9.35596C135.031 8.63493 133.814 8.27441 132.263 8.27441H125.263V24.6668H132.471C134.145 24.6668 135.481 24.2555 136.483 23.4353C137.482 22.615 137.983 21.4972 137.983 20.0866C137.983 19.0027 137.629 18.0953 136.925 17.367C136.219 16.6388 135.309 16.2202 134.194 16.1113ZM127.869 10.2294H131.612C132.573 10.2294 133.325 10.4593 133.867 10.9141C134.409 11.3714 134.68 11.9884 134.68 12.7627C134.68 13.5853 134.392 14.2192 133.819 14.6693C133.245 15.1193 132.44 15.3443 131.402 15.3443H127.867V10.2294H127.869ZM134.392 21.9835C133.78 22.4723 132.923 22.7166 131.823 22.7166H127.869V17.0888H131.752C132.885 17.0888 133.761 17.3259 134.38 17.7977C134.999 18.2719 135.309 18.9639 135.309 19.8785C135.309 20.7931 135.002 21.4948 134.39 21.9835H134.392Z" fill="white"/>
<path d="M152.981 8.92783C151.818 8.21407 150.448 7.8584 148.866 7.8584C147.283 7.8584 145.909 8.2189 144.738 8.93993C143.567 9.66095 142.669 10.6675 142.04 11.9619C141.411 13.2564 141.099 14.7638 141.099 16.484C141.099 18.2043 141.409 19.6924 142.028 20.9941C142.648 22.2958 143.543 23.3047 144.714 24.0161C145.885 24.7298 147.267 25.0855 148.863 25.0855C150.46 25.0855 151.818 24.7298 152.979 24.0161C154.143 23.3023 155.033 22.2958 155.653 20.9941C156.272 19.6924 156.582 18.1874 156.582 16.484C156.582 14.7807 156.272 13.2515 155.653 11.9498C155.033 10.6481 154.14 9.6416 152.979 8.92783H152.981ZM153.318 19.8085C152.906 20.7691 152.321 21.5215 151.561 22.0635C150.801 22.6055 149.901 22.8765 148.863 22.8765C147.825 22.8765 146.899 22.6103 146.132 22.0732C145.365 21.5385 144.779 20.786 144.375 19.8182C143.971 18.8504 143.77 17.7374 143.77 16.4816C143.77 15.2259 143.976 14.1129 144.387 13.1451C144.799 12.1773 145.387 11.42 146.154 10.878C146.921 10.336 147.823 10.065 148.863 10.065C149.904 10.065 150.804 10.336 151.573 10.878C152.34 11.42 152.926 12.1773 153.33 13.1451C153.734 14.1129 153.935 15.2259 153.935 16.4816C153.935 17.7374 153.729 18.8455 153.318 19.8061V19.8085Z" fill="white"/>
<path d="M168.42 16.4143V16.3683L173.954 8.27734H171.024L166.957 14.6698H166.84L162.747 8.27734H159.679L165.096 16.3223V16.3441L159.56 24.6697H162.352L166.654 18.2507H166.746L171.048 24.6697H174L168.42 16.4143Z" fill="white"/>
<path d="M25.4839 25.9423L16.084 15.7197L25.5323 26.0028C25.5178 25.981 25.5008 25.9616 25.4839 25.9423Z" fill="#1B40FF"/>
<path d="M28.9992 0H7.60323C5.89987 0 4.31507 0.544389 3.03271 1.51221L9.309 8.34258H28.9992C33.3157 8.34258 36.8143 11.8412 36.8143 16.1577V27.8707C36.8143 32.1871 33.3157 35.6858 28.9992 35.6858H12.6576C12.1882 35.6858 11.9439 36.2423 12.2608 36.5883L17.5475 42.354C18.525 43.4211 19.909 44.0284 21.3559 44.0284H28.9992C37.9225 44.0284 45.1569 36.7939 45.1569 27.8707V16.1577C45.1569 7.232 37.9225 0 28.9992 0Z" fill="#1B40FF"/>
<path d="M0.683528 4.47184C-0.557695 7.23012 -0.0858788 10.3489 1.91508 12.6184L13.6377 25.5339C14.5983 26.5913 15.9629 27.1962 17.3929 27.1962H24.937C25.5588 27.1962 25.8927 26.4848 25.5322 26.0057L16.0839 15.7227L9.30193 8.34793H9.30677L3.03049 1.51758C2.03605 2.26764 1.2255 3.27174 0.678685 4.47667L0.683528 4.47184Z" fill="#51EEC3"/>
<path d="M58.2829 35.2456H58.2273L56.7368 32.7051H55.7666L57.8014 36.1287V38.3571H58.6991V36.1287L60.7363 32.7051H59.7661L58.2829 35.2456Z" fill="white"/>
<path d="M64.5445 34.2822C64.2396 34.1007 63.8767 34.0088 63.4533 34.0088C63.0299 34.0088 62.6742 34.0983 62.3669 34.2822C62.0596 34.4661 61.8249 34.7226 61.6604 35.0565C61.4983 35.3904 61.416 35.7799 61.416 36.2227C61.416 36.9026 61.5975 37.4421 61.958 37.8413C62.3185 38.243 62.8169 38.4414 63.4533 38.4414C64.0896 38.4414 64.5953 38.243 64.9534 37.8438C65.3115 37.447 65.4905 36.9074 65.4905 36.2275C65.4905 35.7775 65.4083 35.3879 65.2462 35.0516C65.0841 34.7177 64.8494 34.4588 64.5445 34.2774V34.2822ZM64.3001 37.3453C64.0993 37.6236 63.8186 37.7615 63.4533 37.7615C63.0879 37.7615 62.8073 37.6236 62.6064 37.3453C62.4056 37.0671 62.3064 36.6945 62.3064 36.2227C62.3064 35.7509 62.4056 35.3855 62.6064 35.1048C62.8073 34.8242 63.0879 34.6839 63.4533 34.6839C63.8186 34.6839 64.0993 34.8242 64.3001 35.1048C64.5009 35.3855 64.6001 35.7581 64.6001 36.2227C64.6001 36.6872 64.5009 37.0671 64.3001 37.3453Z" fill="white"/>
<path d="M70.0056 36.5273C70.0056 36.8975 69.9161 37.1879 69.737 37.4008C69.558 37.6137 69.3064 37.7202 68.9797 37.7202C68.3555 37.7202 68.0409 37.3572 68.0409 36.6314V34.0981H67.1675V36.8322C67.1675 37.3403 67.303 37.7347 67.5716 38.0178C67.8425 38.3009 68.2176 38.4436 68.6966 38.4436C68.9628 38.4436 69.212 38.3952 69.437 38.2984C69.6644 38.2017 69.8532 38.0589 70.0032 37.8653V38.3541H70.8767V34.0957H70.0032V36.5249L70.0056 36.5273Z" fill="white"/>
<path d="M74.2304 34.1954C73.9957 34.297 73.8167 34.4398 73.6933 34.6212V34.0986H72.8198V38.357H73.6933V35.9907C73.6933 35.6278 73.7973 35.335 74.0054 35.1172C74.2135 34.8971 74.5111 34.7882 74.8958 34.7882C75.0458 34.7882 75.1983 34.8075 75.3531 34.8438V34.0744C75.22 34.0526 75.0918 34.043 74.9684 34.043C74.7119 34.043 74.4651 34.0938 74.2304 34.1954Z" fill="white"/>
<path d="M81.9101 37.2175H81.8544L80.0277 32.7051H78.9849V38.3571H79.7857V34.0745H79.851L81.5979 38.3571H82.1762L83.9159 34.0673H83.986V38.3571H84.7796V32.7051H83.7392L81.9101 37.2175Z" fill="white"/>
<path d="M89.7105 34.2822C89.4056 34.1007 89.0427 34.0088 88.6193 34.0088C88.1959 34.0088 87.8402 34.0983 87.5329 34.2822C87.2256 34.4661 86.9909 34.7226 86.8264 35.0565C86.6643 35.3904 86.582 35.7799 86.582 36.2227C86.582 36.9026 86.7635 37.4421 87.124 37.8413C87.4845 38.243 87.983 38.4414 88.6193 38.4414C89.2556 38.4414 89.7613 38.243 90.1194 37.8438C90.4775 37.447 90.6566 36.9074 90.6566 36.2275C90.6566 35.7775 90.5743 35.3879 90.4122 35.0516C90.2501 34.7177 90.0154 34.4588 89.7105 34.2774V34.2822ZM89.4661 37.3453C89.2653 37.6236 88.9846 37.7615 88.6193 37.7615C88.2539 37.7615 87.9733 37.6236 87.7725 37.3453C87.5716 37.0671 87.4724 36.6945 87.4724 36.2227C87.4724 35.7509 87.5716 35.3855 87.7725 35.1048C87.9733 34.8242 88.2539 34.6839 88.6193 34.6839C88.9846 34.6839 89.2653 34.8242 89.4661 35.1048C89.667 35.3855 89.7662 35.7581 89.7662 36.2227C89.7662 36.6872 89.667 37.0671 89.4661 37.3453Z" fill="white"/>
<path d="M94.1527 35.9271L93.4946 35.7505C93.2962 35.6972 93.1534 35.6295 93.0615 35.5496C92.9696 35.4698 92.926 35.3682 92.926 35.2448C92.926 35.073 92.9938 34.9448 93.1293 34.8601C93.2648 34.7754 93.4462 34.7318 93.6712 34.7318C93.9325 34.7318 94.1794 34.7657 94.4092 34.8335C94.6391 34.9012 94.8689 35.0004 95.0988 35.1335V34.4052C94.7237 34.1487 94.2713 34.0205 93.7366 34.0205C93.4438 34.0205 93.1704 34.0737 92.9188 34.1778C92.6671 34.2818 92.4663 34.4342 92.3139 34.6302C92.1614 34.8286 92.0864 35.0633 92.0864 35.3367C92.0864 35.6513 92.1784 35.9053 92.3598 36.094C92.5413 36.2828 92.8123 36.4255 93.1704 36.5223L93.8358 36.6989C94.2205 36.8005 94.414 36.9699 94.414 37.2046C94.414 37.3691 94.3415 37.4998 94.1987 37.5942C94.0535 37.6885 93.8696 37.7345 93.6446 37.7345C93.3567 37.7345 93.0881 37.703 92.8437 37.6426C92.5969 37.5821 92.3598 37.478 92.13 37.3328V38.0708C92.5413 38.337 93.0373 38.4725 93.6204 38.4725C93.9132 38.4725 94.1842 38.4216 94.431 38.32C94.6778 38.2184 94.8737 38.0684 95.0238 37.8676C95.1738 37.6667 95.2512 37.4248 95.256 37.1417C95.256 36.8368 95.1592 36.5828 94.9681 36.3771C94.7745 36.1715 94.506 36.0239 94.1576 35.9319L94.1527 35.9271Z" fill="white"/>
<path d="M98.0894 33.041H97.2087V34.0984H96.5264V34.7565H97.2087V37.2897C97.2087 37.6696 97.3127 37.9454 97.5208 38.1148C97.7289 38.2842 98.0628 38.3713 98.5225 38.3713C98.6773 38.3713 98.854 38.3592 99.0524 38.3325V37.6914C98.8927 37.7011 98.7765 37.7083 98.7088 37.7083C98.4958 37.7083 98.3386 37.6599 98.2394 37.5607C98.1402 37.4615 98.0918 37.3042 98.0918 37.0913V34.7589H99.0548V34.1008H98.0918V33.0434L98.0894 33.041Z" fill="white"/>
<path d="M105.44 35.2865L104.535 35.0542C103.942 34.8945 103.645 34.6163 103.645 34.2194C103.645 33.946 103.756 33.738 103.981 33.5904C104.206 33.4428 104.484 33.3702 104.816 33.3702C105.493 33.3702 106.096 33.542 106.621 33.8831V33.0339C106.144 32.7242 105.571 32.5693 104.898 32.5693C104.288 32.5693 103.785 32.7121 103.386 32.9976C102.986 33.2831 102.788 33.7041 102.788 34.2606C102.788 34.6622 102.904 34.9937 103.136 35.255C103.369 35.5163 103.71 35.7075 104.158 35.8236L105.072 36.0631C105.365 36.143 105.587 36.247 105.737 36.3728C105.888 36.4987 105.963 36.6559 105.963 36.8495C105.963 37.1156 105.846 37.3213 105.619 37.4616C105.389 37.6044 105.106 37.6746 104.77 37.6746C104.053 37.6746 103.41 37.4979 102.836 37.1447V37.9939C103.359 38.3206 103.993 38.4827 104.736 38.4827C105.116 38.4827 105.462 38.4174 105.779 38.2915C106.093 38.1633 106.347 37.9746 106.536 37.723C106.725 37.4713 106.824 37.1665 106.829 36.8084C106.829 36.4237 106.708 36.1043 106.463 35.8454C106.221 35.5889 105.88 35.4026 105.442 35.2841L105.44 35.2865Z" fill="white"/>
<path d="M111.336 34.2803C111.046 34.1012 110.712 34.0117 110.337 34.0117C109.962 34.0117 109.611 34.1061 109.311 34.2924C109.011 34.4787 108.779 34.7424 108.61 35.0787C108.44 35.4151 108.358 35.7998 108.358 36.2329C108.358 36.666 108.443 37.0676 108.61 37.4063C108.779 37.7451 109.018 38.0088 109.331 38.1951C109.643 38.3814 110.01 38.4758 110.434 38.4758C110.814 38.4758 111.14 38.4322 111.416 38.3475C111.692 38.2628 111.946 38.1419 112.181 37.987V37.2563C111.978 37.4112 111.738 37.5418 111.46 37.6459C111.182 37.7499 110.898 37.8031 110.611 37.8031C110.194 37.8031 109.858 37.6918 109.604 37.4717C109.35 37.2491 109.219 36.9345 109.214 36.528H112.246C112.256 36.3998 112.263 36.274 112.263 36.1506C112.263 35.7272 112.181 35.3546 112.019 35.0328C111.857 34.7086 111.629 34.4569 111.336 34.2803ZM109.234 35.8869C109.256 35.5384 109.367 35.2578 109.568 35.0449C109.769 34.8319 110.032 34.7255 110.356 34.7255C110.681 34.7255 110.952 34.8295 111.15 35.0376C111.348 35.2457 111.455 35.5288 111.469 35.8869H109.234Z" fill="white"/>
<path d="M114.789 34.3167C114.479 34.5103 114.24 34.774 114.07 35.1103C113.901 35.4466 113.819 35.8217 113.819 36.233C113.819 36.6443 113.901 37.0193 114.068 37.3557C114.233 37.692 114.472 37.9605 114.787 38.1565C115.099 38.3549 115.462 38.4541 115.873 38.4541C116.408 38.4541 116.831 38.3162 117.148 38.038V37.3242C117.003 37.4573 116.831 37.5613 116.628 37.6363C116.425 37.7113 116.217 37.7476 116.004 37.7476C115.58 37.7476 115.251 37.6097 115.014 37.3315C114.777 37.0532 114.658 36.6879 114.658 36.233C114.658 35.7781 114.777 35.4128 115.014 35.1394C115.251 34.8635 115.583 34.7256 116.004 34.7256C116.217 34.7256 116.427 34.7619 116.628 34.8369C116.831 34.9119 117.005 35.0184 117.148 35.1563V34.4353C116.834 34.1619 116.408 34.0264 115.873 34.0264C115.462 34.0264 115.101 34.1231 114.792 34.3143L114.789 34.3167Z" fill="white"/>
<path d="M121.668 36.5273C121.668 36.8975 121.578 37.1879 121.399 37.4008C121.22 37.6137 120.968 37.7202 120.642 37.7202C120.018 37.7202 119.703 37.3572 119.703 36.6314V34.0981H118.83V36.8322C118.83 37.3403 118.965 37.7347 119.234 38.0178C119.505 38.3009 119.88 38.4436 120.359 38.4436C120.625 38.4436 120.874 38.3952 121.099 38.2984C121.327 38.2017 121.515 38.0589 121.665 37.8653V38.3541H122.539V34.0957H121.665V36.5249L121.668 36.5273Z" fill="white"/>
<path d="M125.893 34.1954C125.658 34.297 125.479 34.4398 125.355 34.6212V34.0986H124.482V38.357H125.355V35.9907C125.355 35.6278 125.459 35.335 125.668 35.1172C125.876 34.8971 126.173 34.7882 126.558 34.7882C126.708 34.7882 126.86 34.8075 127.015 34.8438V34.0744C126.882 34.0526 126.754 34.043 126.63 34.043C126.374 34.043 126.127 34.0938 125.893 34.1954Z" fill="white"/>
<path d="M131.026 34.2803C130.736 34.1012 130.402 34.0117 130.027 34.0117C129.652 34.0117 129.301 34.1061 129.001 34.2924C128.701 34.4787 128.469 34.7424 128.299 35.0787C128.13 35.4151 128.048 35.7998 128.048 36.2329C128.048 36.666 128.133 37.0676 128.299 37.4063C128.469 37.7451 128.708 38.0088 129.021 38.1951C129.333 38.3814 129.7 38.4758 130.124 38.4758C130.504 38.4758 130.83 38.4322 131.106 38.3475C131.382 38.2628 131.636 38.1419 131.871 37.987V37.2563C131.667 37.4112 131.428 37.5418 131.15 37.6459C130.871 37.7499 130.588 37.8031 130.3 37.8031C129.884 37.8031 129.548 37.6918 129.294 37.4717C129.04 37.2491 128.909 36.9345 128.904 36.528H131.936C131.946 36.3998 131.953 36.274 131.953 36.1506C131.953 35.7272 131.871 35.3546 131.709 35.0328C131.547 34.7086 131.319 34.4569 131.026 34.2803ZM128.924 35.8869C128.945 35.5384 129.057 35.2578 129.258 35.0449C129.458 34.8319 129.722 34.7255 130.046 34.7255C130.371 34.7255 130.642 34.8295 130.84 35.0376C131.038 35.2457 131.145 35.5288 131.159 35.8869H128.924Z" fill="white"/>
<path d="M139.161 32.9301C138.873 32.7801 138.539 32.7051 138.159 32.7051H135.866V38.3571H136.763V36.3925H138.159C138.539 36.3925 138.873 36.3175 139.161 36.1674C139.449 36.0174 139.674 35.8045 139.834 35.5263C139.993 35.248 140.073 34.9214 140.073 34.5488C140.073 34.1762 139.993 33.8544 139.834 33.5737C139.674 33.293 139.449 33.0777 139.161 32.9277V32.9301ZM138.837 35.398C138.622 35.5964 138.324 35.6956 137.951 35.6956H136.766V33.4188H137.951C138.326 33.4188 138.622 33.518 138.837 33.7164C139.052 33.9148 139.161 34.1955 139.161 34.5584C139.161 34.9214 139.052 35.202 138.837 35.4004V35.398Z" fill="white"/>
<path d="M142.696 32.4795H141.83V38.3566H142.696V32.4795Z" fill="white"/>
<path d="M147.627 34.5969C147.482 34.4154 147.298 34.2751 147.071 34.1759C146.843 34.0767 146.604 34.0283 146.352 34.0283C145.984 34.0283 145.653 34.1178 145.363 34.3017C145.072 34.4856 144.842 34.7421 144.678 35.076C144.513 35.4099 144.429 35.7946 144.429 36.2277C144.429 36.6608 144.511 37.0527 144.673 37.3866C144.835 37.7205 145.063 37.9794 145.355 38.1609C145.646 38.3424 145.987 38.4343 146.376 38.4343C146.643 38.4343 146.885 38.3859 147.102 38.2891C147.318 38.1923 147.494 38.0569 147.627 37.8802V38.3617H148.494V34.1275H147.627V34.5993V34.5969ZM147.315 37.3068C147.102 37.5802 146.81 37.7157 146.442 37.7157C146.074 37.7157 145.801 37.5826 145.607 37.3141C145.413 37.0479 145.319 36.6826 145.319 36.2228C145.319 35.7631 145.421 35.422 145.624 35.1534C145.827 34.8824 146.11 34.7493 146.473 34.7493C146.836 34.7493 147.129 34.8848 147.332 35.1534C147.535 35.4244 147.637 35.7825 147.637 36.2325C147.637 36.6826 147.531 37.0334 147.315 37.3068Z" fill="white"/>
<path d="M151.619 33.041H150.738V34.0984H150.056V34.7565H150.738V37.2897C150.738 37.6696 150.842 37.9454 151.051 38.1148C151.259 38.2842 151.593 38.3713 152.052 38.3713C152.207 38.3713 152.384 38.3592 152.582 38.3325V37.6914C152.422 37.7011 152.306 37.7083 152.239 37.7083C152.026 37.7083 151.868 37.6599 151.769 37.5607C151.67 37.4615 151.622 37.3042 151.622 37.0913V34.7589H152.585V34.1008H151.622V33.0434L151.619 33.041Z" fill="white"/>
<path d="M154.91 32.7293C154.699 32.9205 154.593 33.2157 154.593 33.61V34.0988H153.886V34.7642H154.593V38.3572H155.459V34.7642H156.381V34.0988H155.442V33.6657C155.442 33.4576 155.495 33.3003 155.599 33.1939C155.703 33.0874 155.868 33.0342 156.093 33.0342C156.151 33.0342 156.257 33.0414 156.412 33.0584V32.4729C156.199 32.4511 156.03 32.4414 155.907 32.4414C155.452 32.4414 155.12 32.5382 154.907 32.7293H154.91Z" fill="white"/>
<path d="M160.775 34.2822C160.47 34.1007 160.107 34.0088 159.684 34.0088C159.26 34.0088 158.905 34.0983 158.597 34.2822C158.29 34.4661 158.055 34.7226 157.891 35.0565C157.729 35.3904 157.646 35.7799 157.646 36.2227C157.646 36.9026 157.828 37.4421 158.188 37.8413C158.549 38.243 159.047 38.4414 159.684 38.4414C160.32 38.4414 160.826 38.243 161.184 37.8438C161.542 37.447 161.721 36.9074 161.721 36.2275C161.721 35.7775 161.639 35.3879 161.477 35.0516C161.314 34.7177 161.08 34.4588 160.775 34.2774V34.2822ZM160.531 37.3453C160.33 37.6236 160.049 37.7615 159.684 37.7615C159.318 37.7615 159.038 37.6236 158.837 37.3453C158.636 37.0671 158.537 36.6945 158.537 36.2227C158.537 35.7509 158.636 35.3855 158.837 35.1048C159.038 34.8242 159.318 34.6839 159.684 34.6839C160.049 34.6839 160.33 34.8242 160.531 35.1048C160.731 35.3855 160.831 35.7581 160.831 36.2227C160.831 36.6872 160.731 37.0671 160.531 37.3453Z" fill="white"/>
<path d="M164.84 34.1954C164.605 34.297 164.426 34.4398 164.303 34.6212V34.0986H163.429V38.357H164.303V35.9907C164.303 35.6278 164.407 35.335 164.615 35.1172C164.823 34.8971 165.12 34.7882 165.505 34.7882C165.655 34.7882 165.808 34.8075 165.962 34.8438V34.0744C165.829 34.0526 165.701 34.043 165.578 34.043C165.321 34.043 165.074 34.0938 164.84 34.1954Z" fill="white"/>
<path d="M172.232 34.0117C171.944 34.0117 171.675 34.0867 171.431 34.2392C171.184 34.3916 171.002 34.5948 170.886 34.8537C170.794 34.5924 170.637 34.3867 170.41 34.2367C170.182 34.0867 169.919 34.0117 169.621 34.0117C169.369 34.0117 169.132 34.0625 168.912 34.169C168.689 34.273 168.51 34.4206 168.37 34.6142V34.1012H167.497V38.3596H168.37V35.8506C168.37 35.5239 168.455 35.2578 168.622 35.0497C168.791 34.8416 169.018 34.7376 169.306 34.7376C169.58 34.7376 169.79 34.8223 169.943 34.9892C170.095 35.1586 170.17 35.386 170.17 35.6739V38.3596H171.036V35.8094C171.036 35.4949 171.121 35.236 171.288 35.0352C171.455 34.8344 171.685 34.7352 171.973 34.7352C172.261 34.7352 172.478 34.8199 172.621 34.9868C172.766 35.1562 172.836 35.4005 172.836 35.7199V38.3572H173.71V35.4949C173.71 35.0449 173.574 34.6868 173.301 34.4158C173.028 34.1448 172.67 34.0117 172.227 34.0117H172.232Z" fill="white"/>
</svg>
